G04 #@! TF.FileFunction,Copper,L2,Bot,Signal*
%FSLAX46Y46*%
G04 Gerber Fmt 4.6, Leading zero omitted, Abs format (unit mm)*
G04 Created by KiCad (PCBNEW 4.0.3+e1-6302~38~ubuntu16.04.1-stable) date Tue Aug 16 13:23:07 2016*
%MOMM*%
%LPD*%
G01*
G04 APERTURE LIST*
%ADD10C,0.100000*%
%ADD11R,2.032000X1.727200*%
%ADD12O,2.032000X1.727200*%
%ADD13R,2.032000X2.032000*%
%ADD14O,2.032000X2.032000*%
%ADD15C,1.524000*%
%ADD16R,1.016000X5.080000*%
G04 APERTURE END LIST*
D10*
D11*
X58420000Y-48260000D03*
D12*
X58420000Y-50800000D03*
X58420000Y-53340000D03*
X58420000Y-55880000D03*
X58420000Y-58420000D03*
X58420000Y-60960000D03*
X58420000Y-63500000D03*
X58420000Y-66040000D03*
X58420000Y-68580000D03*
X58420000Y-71120000D03*
X58420000Y-73660000D03*
X58420000Y-76200000D03*
X58420000Y-78740000D03*
X58420000Y-81280000D03*
X58420000Y-83820000D03*
X58420000Y-86360000D03*
X58420000Y-88900000D03*
X58420000Y-91440000D03*
X58420000Y-93980000D03*
D13*
X69850000Y-48260000D03*
D14*
X67310000Y-48260000D03*
D11*
X93980000Y-48260000D03*
D12*
X93980000Y-50800000D03*
X93980000Y-53340000D03*
X93980000Y-55880000D03*
X93980000Y-58420000D03*
X93980000Y-60960000D03*
X93980000Y-63500000D03*
X93980000Y-66040000D03*
X93980000Y-68580000D03*
X93980000Y-71120000D03*
X93980000Y-73660000D03*
X93980000Y-76200000D03*
X93980000Y-78740000D03*
X93980000Y-81280000D03*
X93980000Y-83820000D03*
X93980000Y-86360000D03*
X93980000Y-88900000D03*
X93980000Y-91440000D03*
X93980000Y-93980000D03*
D15*
X86360000Y-73660000D03*
X88900000Y-71120000D03*
X88900000Y-76200000D03*
X64770000Y-58420000D03*
X64770000Y-60960000D03*
X64770000Y-73660000D03*
X64770000Y-76200000D03*
X64770000Y-78740000D03*
X64770000Y-83820000D03*
X80010000Y-83820000D03*
X80010000Y-78740000D03*
X80010000Y-76200000D03*
X80010000Y-73660000D03*
X80010000Y-60960000D03*
X80010000Y-58420000D03*
D16*
X87122000Y-48260000D03*
X77978000Y-48260000D03*
M02*
