G04 #@! TF.FileFunction,Copper,L1,Top,Signal*
%FSLAX46Y46*%
G04 Gerber Fmt 4.6, Leading zero omitted, Abs format (unit mm)*
G04 Created by KiCad (PCBNEW 4.0.3+e1-6302~38~ubuntu16.04.1-stable) date Tue Aug 16 13:23:07 2016*
%MOMM*%
%LPD*%
G01*
G04 APERTURE LIST*
%ADD10C,0.100000*%
%ADD11R,2.032000X1.727200*%
%ADD12O,2.032000X1.727200*%
%ADD13R,2.032000X2.032000*%
%ADD14O,2.032000X2.032000*%
%ADD15C,1.524000*%
%ADD16R,1.016000X5.080000*%
%ADD17C,0.250000*%
%ADD18C,0.254000*%
G04 APERTURE END LIST*
D10*
D11*
X58420000Y-48260000D03*
D12*
X58420000Y-50800000D03*
X58420000Y-53340000D03*
X58420000Y-55880000D03*
X58420000Y-58420000D03*
X58420000Y-60960000D03*
X58420000Y-63500000D03*
X58420000Y-66040000D03*
X58420000Y-68580000D03*
X58420000Y-71120000D03*
X58420000Y-73660000D03*
X58420000Y-76200000D03*
X58420000Y-78740000D03*
X58420000Y-81280000D03*
X58420000Y-83820000D03*
X58420000Y-86360000D03*
X58420000Y-88900000D03*
X58420000Y-91440000D03*
X58420000Y-93980000D03*
D13*
X69850000Y-48260000D03*
D14*
X67310000Y-48260000D03*
D11*
X93980000Y-48260000D03*
D12*
X93980000Y-50800000D03*
X93980000Y-53340000D03*
X93980000Y-55880000D03*
X93980000Y-58420000D03*
X93980000Y-60960000D03*
X93980000Y-63500000D03*
X93980000Y-66040000D03*
X93980000Y-68580000D03*
X93980000Y-71120000D03*
X93980000Y-73660000D03*
X93980000Y-76200000D03*
X93980000Y-78740000D03*
X93980000Y-81280000D03*
X93980000Y-83820000D03*
X93980000Y-86360000D03*
X93980000Y-88900000D03*
X93980000Y-91440000D03*
X93980000Y-93980000D03*
D15*
X86360000Y-73660000D03*
X88900000Y-71120000D03*
X88900000Y-76200000D03*
X64770000Y-58420000D03*
X64770000Y-60960000D03*
X64770000Y-73660000D03*
X64770000Y-76200000D03*
X64770000Y-78740000D03*
X64770000Y-83820000D03*
X80010000Y-83820000D03*
X80010000Y-78740000D03*
X80010000Y-76200000D03*
X80010000Y-73660000D03*
X80010000Y-60960000D03*
X80010000Y-58420000D03*
D16*
X77978000Y-48260000D03*
X87122000Y-48260000D03*
X82550000Y-48260000D03*
D17*
X73660000Y-52070000D02*
X81280000Y-52070000D01*
X81280000Y-52070000D02*
X82550000Y-50800000D01*
X82550000Y-50800000D02*
X82550000Y-48260000D01*
X73660000Y-53340000D02*
X73660000Y-52070000D01*
X85090000Y-67310000D02*
X73660000Y-67310000D01*
X73660000Y-67310000D02*
X73660000Y-53340000D01*
X88900000Y-71120000D02*
X85090000Y-67310000D01*
X73660000Y-52070000D02*
X69850000Y-48260000D01*
X88900000Y-71120000D02*
X91440000Y-73660000D01*
X82550000Y-78740000D02*
X80010000Y-78740000D01*
X83820000Y-80010000D02*
X82550000Y-78740000D01*
X91440000Y-80010000D02*
X83820000Y-80010000D01*
X91440000Y-73660000D02*
X91440000Y-80010000D01*
X64770000Y-78740000D02*
X80010000Y-78740000D01*
X80010000Y-58420000D02*
X82550000Y-58420000D01*
X90170000Y-50800000D02*
X93980000Y-50800000D01*
X82550000Y-58420000D02*
X90170000Y-50800000D01*
X80010000Y-60960000D02*
X80010000Y-58420000D01*
X80010000Y-73660000D02*
X86360000Y-73660000D01*
X64770000Y-73660000D02*
X80010000Y-73660000D01*
X80010000Y-76200000D02*
X88900000Y-76200000D01*
X64770000Y-76200000D02*
X80010000Y-76200000D01*
D18*
G36*
X76835000Y-47974250D02*
X76993750Y-48133000D01*
X77851000Y-48133000D01*
X77851000Y-48113000D01*
X78105000Y-48113000D01*
X78105000Y-48133000D01*
X78962250Y-48133000D01*
X79121000Y-47974250D01*
X79121000Y-46430000D01*
X81394560Y-46430000D01*
X81394560Y-50800000D01*
X81407330Y-50867868D01*
X80965198Y-51310000D01*
X78874025Y-51310000D01*
X79024327Y-51159699D01*
X79121000Y-50926310D01*
X79121000Y-48545750D01*
X78962250Y-48387000D01*
X78105000Y-48387000D01*
X78105000Y-48407000D01*
X77851000Y-48407000D01*
X77851000Y-48387000D01*
X76993750Y-48387000D01*
X76835000Y-48545750D01*
X76835000Y-50926310D01*
X76931673Y-51159699D01*
X77081975Y-51310000D01*
X73974802Y-51310000D01*
X71513440Y-48848638D01*
X71513440Y-47244000D01*
X71469162Y-47008683D01*
X71330090Y-46792559D01*
X71117890Y-46647569D01*
X70866000Y-46596560D01*
X68834000Y-46596560D01*
X68598683Y-46640838D01*
X68382559Y-46779910D01*
X68282144Y-46926872D01*
X68278379Y-46922812D01*
X67692946Y-46654017D01*
X67437000Y-46772633D01*
X67437000Y-48133000D01*
X67457000Y-48133000D01*
X67457000Y-48387000D01*
X67437000Y-48387000D01*
X67437000Y-49747367D01*
X67692946Y-49865983D01*
X68278379Y-49597188D01*
X68282934Y-49592276D01*
X68369910Y-49727441D01*
X68582110Y-49872431D01*
X68834000Y-49923440D01*
X70438638Y-49923440D01*
X72900000Y-52384802D01*
X72900000Y-67310000D01*
X72957852Y-67600839D01*
X73122599Y-67847401D01*
X73369161Y-68012148D01*
X73660000Y-68070000D01*
X84775198Y-68070000D01*
X87515817Y-70810619D01*
X87503243Y-70840900D01*
X87502758Y-71396661D01*
X87714990Y-71910303D01*
X88107630Y-72303629D01*
X88620900Y-72516757D01*
X89176661Y-72517242D01*
X89209055Y-72503857D01*
X90680000Y-73974802D01*
X90680000Y-79250000D01*
X84134802Y-79250000D01*
X83087401Y-78202599D01*
X82840839Y-78037852D01*
X82550000Y-77980000D01*
X81207531Y-77980000D01*
X81195010Y-77949697D01*
X80802370Y-77556371D01*
X80594488Y-77470051D01*
X80800303Y-77385010D01*
X81193629Y-76992370D01*
X81207070Y-76960000D01*
X87702469Y-76960000D01*
X87714990Y-76990303D01*
X88107630Y-77383629D01*
X88620900Y-77596757D01*
X89176661Y-77597242D01*
X89690303Y-77385010D01*
X90083629Y-76992370D01*
X90296757Y-76479100D01*
X90297242Y-75923339D01*
X90085010Y-75409697D01*
X89692370Y-75016371D01*
X89179100Y-74803243D01*
X88623339Y-74802758D01*
X88109697Y-75014990D01*
X87716371Y-75407630D01*
X87702930Y-75440000D01*
X81207531Y-75440000D01*
X81195010Y-75409697D01*
X80802370Y-75016371D01*
X80594488Y-74930051D01*
X80800303Y-74845010D01*
X81193629Y-74452370D01*
X81207070Y-74420000D01*
X85162469Y-74420000D01*
X85174990Y-74450303D01*
X85567630Y-74843629D01*
X86080900Y-75056757D01*
X86636661Y-75057242D01*
X87150303Y-74845010D01*
X87543629Y-74452370D01*
X87756757Y-73939100D01*
X87757242Y-73383339D01*
X87545010Y-72869697D01*
X87152370Y-72476371D01*
X86639100Y-72263243D01*
X86083339Y-72262758D01*
X85569697Y-72474990D01*
X85176371Y-72867630D01*
X85162930Y-72900000D01*
X81207531Y-72900000D01*
X81195010Y-72869697D01*
X80802370Y-72476371D01*
X80289100Y-72263243D01*
X79733339Y-72262758D01*
X79219697Y-72474990D01*
X78826371Y-72867630D01*
X78812930Y-72900000D01*
X65967531Y-72900000D01*
X65955010Y-72869697D01*
X65562370Y-72476371D01*
X65049100Y-72263243D01*
X64493339Y-72262758D01*
X63979697Y-72474990D01*
X63586371Y-72867630D01*
X63373243Y-73380900D01*
X63372758Y-73936661D01*
X63584990Y-74450303D01*
X63977630Y-74843629D01*
X64185512Y-74929949D01*
X63979697Y-75014990D01*
X63586371Y-75407630D01*
X63373243Y-75920900D01*
X63372758Y-76476661D01*
X63584990Y-76990303D01*
X63977630Y-77383629D01*
X64185512Y-77469949D01*
X63979697Y-77554990D01*
X63586371Y-77947630D01*
X63373243Y-78460900D01*
X63372758Y-79016661D01*
X63584990Y-79530303D01*
X63977630Y-79923629D01*
X64490900Y-80136757D01*
X65046661Y-80137242D01*
X65560303Y-79925010D01*
X65953629Y-79532370D01*
X65967070Y-79500000D01*
X78812469Y-79500000D01*
X78824990Y-79530303D01*
X79217630Y-79923629D01*
X79730900Y-80136757D01*
X80286661Y-80137242D01*
X80800303Y-79925010D01*
X81193629Y-79532370D01*
X81207070Y-79500000D01*
X82235198Y-79500000D01*
X83282599Y-80547401D01*
X83529160Y-80712148D01*
X83820000Y-80770000D01*
X91440000Y-80770000D01*
X91730839Y-80712148D01*
X91977401Y-80547401D01*
X92142148Y-80300839D01*
X92200000Y-80010000D01*
X92200000Y-73660000D01*
X92142148Y-73369161D01*
X92142148Y-73369160D01*
X91977401Y-73122599D01*
X90284183Y-71429381D01*
X90296757Y-71399100D01*
X90297242Y-70843339D01*
X90085010Y-70329697D01*
X89692370Y-69936371D01*
X89179100Y-69723243D01*
X88623339Y-69722758D01*
X88590945Y-69736143D01*
X85627401Y-66772599D01*
X85380839Y-66607852D01*
X85090000Y-66550000D01*
X74420000Y-66550000D01*
X74420000Y-58696661D01*
X78612758Y-58696661D01*
X78824990Y-59210303D01*
X79217630Y-59603629D01*
X79250000Y-59617070D01*
X79250000Y-59762469D01*
X79219697Y-59774990D01*
X78826371Y-60167630D01*
X78613243Y-60680900D01*
X78612758Y-61236661D01*
X78824990Y-61750303D01*
X79217630Y-62143629D01*
X79730900Y-62356757D01*
X80286661Y-62357242D01*
X80800303Y-62145010D01*
X81193629Y-61752370D01*
X81406757Y-61239100D01*
X81407242Y-60683339D01*
X81195010Y-60169697D01*
X80802370Y-59776371D01*
X80770000Y-59762930D01*
X80770000Y-59617531D01*
X80800303Y-59605010D01*
X81193629Y-59212370D01*
X81207070Y-59180000D01*
X82550000Y-59180000D01*
X82840839Y-59122148D01*
X83087401Y-58957401D01*
X90484802Y-51560000D01*
X92535352Y-51560000D01*
X92735585Y-51859670D01*
X93050366Y-52070000D01*
X92735585Y-52280330D01*
X92410729Y-52766511D01*
X92296655Y-53340000D01*
X92410729Y-53913489D01*
X92735585Y-54399670D01*
X93050366Y-54610000D01*
X92735585Y-54820330D01*
X92410729Y-55306511D01*
X92296655Y-55880000D01*
X92410729Y-56453489D01*
X92735585Y-56939670D01*
X93050366Y-57150000D01*
X92735585Y-57360330D01*
X92410729Y-57846511D01*
X92296655Y-58420000D01*
X92410729Y-58993489D01*
X92735585Y-59479670D01*
X93050366Y-59690000D01*
X92735585Y-59900330D01*
X92410729Y-60386511D01*
X92296655Y-60960000D01*
X92410729Y-61533489D01*
X92735585Y-62019670D01*
X93050366Y-62230000D01*
X92735585Y-62440330D01*
X92410729Y-62926511D01*
X92296655Y-63500000D01*
X92410729Y-64073489D01*
X92735585Y-64559670D01*
X93050366Y-64770000D01*
X92735585Y-64980330D01*
X92410729Y-65466511D01*
X92296655Y-66040000D01*
X92410729Y-66613489D01*
X92735585Y-67099670D01*
X93050366Y-67310000D01*
X92735585Y-67520330D01*
X92410729Y-68006511D01*
X92296655Y-68580000D01*
X92410729Y-69153489D01*
X92735585Y-69639670D01*
X93050366Y-69850000D01*
X92735585Y-70060330D01*
X92410729Y-70546511D01*
X92296655Y-71120000D01*
X92410729Y-71693489D01*
X92735585Y-72179670D01*
X93050366Y-72390000D01*
X92735585Y-72600330D01*
X92410729Y-73086511D01*
X92296655Y-73660000D01*
X92410729Y-74233489D01*
X92735585Y-74719670D01*
X93050366Y-74930000D01*
X92735585Y-75140330D01*
X92410729Y-75626511D01*
X92296655Y-76200000D01*
X92410729Y-76773489D01*
X92735585Y-77259670D01*
X93050366Y-77470000D01*
X92735585Y-77680330D01*
X92410729Y-78166511D01*
X92296655Y-78740000D01*
X92410729Y-79313489D01*
X92735585Y-79799670D01*
X93050366Y-80010000D01*
X92735585Y-80220330D01*
X92410729Y-80706511D01*
X92296655Y-81280000D01*
X92410729Y-81853489D01*
X92735585Y-82339670D01*
X93050366Y-82550000D01*
X92735585Y-82760330D01*
X92410729Y-83246511D01*
X92296655Y-83820000D01*
X92410729Y-84393489D01*
X92735585Y-84879670D01*
X93050366Y-85090000D01*
X92735585Y-85300330D01*
X92410729Y-85786511D01*
X92296655Y-86360000D01*
X92410729Y-86933489D01*
X92735585Y-87419670D01*
X93050366Y-87630000D01*
X92735585Y-87840330D01*
X92410729Y-88326511D01*
X92296655Y-88900000D01*
X92410729Y-89473489D01*
X92735585Y-89959670D01*
X93050366Y-90170000D01*
X92735585Y-90380330D01*
X92410729Y-90866511D01*
X92296655Y-91440000D01*
X92410729Y-92013489D01*
X92735585Y-92499670D01*
X93050366Y-92710000D01*
X92735585Y-92920330D01*
X92410729Y-93406511D01*
X92296655Y-93980000D01*
X92410729Y-94553489D01*
X92735585Y-95039670D01*
X93221766Y-95364526D01*
X93795255Y-95478600D01*
X94164745Y-95478600D01*
X94738234Y-95364526D01*
X95224415Y-95039670D01*
X95549271Y-94553489D01*
X95663345Y-93980000D01*
X95549271Y-93406511D01*
X95224415Y-92920330D01*
X94909634Y-92710000D01*
X95224415Y-92499670D01*
X95549271Y-92013489D01*
X95663345Y-91440000D01*
X95549271Y-90866511D01*
X95224415Y-90380330D01*
X94909634Y-90170000D01*
X95224415Y-89959670D01*
X95549271Y-89473489D01*
X95663345Y-88900000D01*
X95549271Y-88326511D01*
X95224415Y-87840330D01*
X94909634Y-87630000D01*
X95224415Y-87419670D01*
X95549271Y-86933489D01*
X95663345Y-86360000D01*
X95549271Y-85786511D01*
X95224415Y-85300330D01*
X94909634Y-85090000D01*
X95224415Y-84879670D01*
X95549271Y-84393489D01*
X95663345Y-83820000D01*
X95549271Y-83246511D01*
X95224415Y-82760330D01*
X94909634Y-82550000D01*
X95224415Y-82339670D01*
X95549271Y-81853489D01*
X95663345Y-81280000D01*
X95549271Y-80706511D01*
X95224415Y-80220330D01*
X94909634Y-80010000D01*
X95224415Y-79799670D01*
X95549271Y-79313489D01*
X95663345Y-78740000D01*
X95549271Y-78166511D01*
X95224415Y-77680330D01*
X94909634Y-77470000D01*
X95224415Y-77259670D01*
X95549271Y-76773489D01*
X95663345Y-76200000D01*
X95549271Y-75626511D01*
X95224415Y-75140330D01*
X94909634Y-74930000D01*
X95224415Y-74719670D01*
X95549271Y-74233489D01*
X95663345Y-73660000D01*
X95549271Y-73086511D01*
X95224415Y-72600330D01*
X94909634Y-72390000D01*
X95224415Y-72179670D01*
X95549271Y-71693489D01*
X95663345Y-71120000D01*
X95549271Y-70546511D01*
X95224415Y-70060330D01*
X94909634Y-69850000D01*
X95224415Y-69639670D01*
X95549271Y-69153489D01*
X95663345Y-68580000D01*
X95549271Y-68006511D01*
X95224415Y-67520330D01*
X94909634Y-67310000D01*
X95224415Y-67099670D01*
X95549271Y-66613489D01*
X95663345Y-66040000D01*
X95549271Y-65466511D01*
X95224415Y-64980330D01*
X94909634Y-64770000D01*
X95224415Y-64559670D01*
X95549271Y-64073489D01*
X95663345Y-63500000D01*
X95549271Y-62926511D01*
X95224415Y-62440330D01*
X94909634Y-62230000D01*
X95224415Y-62019670D01*
X95549271Y-61533489D01*
X95663345Y-60960000D01*
X95549271Y-60386511D01*
X95224415Y-59900330D01*
X94909634Y-59690000D01*
X95224415Y-59479670D01*
X95549271Y-58993489D01*
X95663345Y-58420000D01*
X95549271Y-57846511D01*
X95224415Y-57360330D01*
X94909634Y-57150000D01*
X95224415Y-56939670D01*
X95549271Y-56453489D01*
X95663345Y-55880000D01*
X95549271Y-55306511D01*
X95224415Y-54820330D01*
X94909634Y-54610000D01*
X95224415Y-54399670D01*
X95549271Y-53913489D01*
X95663345Y-53340000D01*
X95549271Y-52766511D01*
X95224415Y-52280330D01*
X94909634Y-52070000D01*
X95224415Y-51859670D01*
X95549271Y-51373489D01*
X95663345Y-50800000D01*
X95549271Y-50226511D01*
X95224415Y-49740330D01*
X95202220Y-49725500D01*
X95355699Y-49661927D01*
X95534327Y-49483298D01*
X95631000Y-49249909D01*
X95631000Y-48545750D01*
X95472250Y-48387000D01*
X94107000Y-48387000D01*
X94107000Y-48407000D01*
X93853000Y-48407000D01*
X93853000Y-48387000D01*
X92487750Y-48387000D01*
X92329000Y-48545750D01*
X92329000Y-49249909D01*
X92425673Y-49483298D01*
X92604301Y-49661927D01*
X92757780Y-49725500D01*
X92735585Y-49740330D01*
X92535352Y-50040000D01*
X90170000Y-50040000D01*
X89879160Y-50097852D01*
X89632599Y-50262599D01*
X82235198Y-57660000D01*
X81207531Y-57660000D01*
X81195010Y-57629697D01*
X80802370Y-57236371D01*
X80289100Y-57023243D01*
X79733339Y-57022758D01*
X79219697Y-57234990D01*
X78826371Y-57627630D01*
X78613243Y-58140900D01*
X78612758Y-58696661D01*
X74420000Y-58696661D01*
X74420000Y-52830000D01*
X81280000Y-52830000D01*
X81570839Y-52772148D01*
X81817401Y-52607401D01*
X82977362Y-51447440D01*
X83058000Y-51447440D01*
X83293317Y-51403162D01*
X83509441Y-51264090D01*
X83654431Y-51051890D01*
X83705440Y-50800000D01*
X83705440Y-48545750D01*
X85979000Y-48545750D01*
X85979000Y-50926310D01*
X86075673Y-51159699D01*
X86254302Y-51338327D01*
X86487691Y-51435000D01*
X86836250Y-51435000D01*
X86995000Y-51276250D01*
X86995000Y-48387000D01*
X87249000Y-48387000D01*
X87249000Y-51276250D01*
X87407750Y-51435000D01*
X87756309Y-51435000D01*
X87989698Y-51338327D01*
X88168327Y-51159699D01*
X88265000Y-50926310D01*
X88265000Y-48545750D01*
X88106250Y-48387000D01*
X87249000Y-48387000D01*
X86995000Y-48387000D01*
X86137750Y-48387000D01*
X85979000Y-48545750D01*
X83705440Y-48545750D01*
X83705440Y-46430000D01*
X85979000Y-46430000D01*
X85979000Y-47974250D01*
X86137750Y-48133000D01*
X86995000Y-48133000D01*
X86995000Y-48113000D01*
X87249000Y-48113000D01*
X87249000Y-48133000D01*
X88106250Y-48133000D01*
X88265000Y-47974250D01*
X88265000Y-47270091D01*
X92329000Y-47270091D01*
X92329000Y-47974250D01*
X92487750Y-48133000D01*
X93853000Y-48133000D01*
X93853000Y-46920150D01*
X94107000Y-46920150D01*
X94107000Y-48133000D01*
X95472250Y-48133000D01*
X95631000Y-47974250D01*
X95631000Y-47270091D01*
X95534327Y-47036702D01*
X95355699Y-46858073D01*
X95122310Y-46761400D01*
X94265750Y-46761400D01*
X94107000Y-46920150D01*
X93853000Y-46920150D01*
X93694250Y-46761400D01*
X92837690Y-46761400D01*
X92604301Y-46858073D01*
X92425673Y-47036702D01*
X92329000Y-47270091D01*
X88265000Y-47270091D01*
X88265000Y-46430000D01*
X95810000Y-46430000D01*
X95810000Y-95810000D01*
X56590000Y-95810000D01*
X56590000Y-50800000D01*
X56736655Y-50800000D01*
X56850729Y-51373489D01*
X57175585Y-51859670D01*
X57490366Y-52070000D01*
X57175585Y-52280330D01*
X56850729Y-52766511D01*
X56736655Y-53340000D01*
X56850729Y-53913489D01*
X57175585Y-54399670D01*
X57490366Y-54610000D01*
X57175585Y-54820330D01*
X56850729Y-55306511D01*
X56736655Y-55880000D01*
X56850729Y-56453489D01*
X57175585Y-56939670D01*
X57490366Y-57150000D01*
X57175585Y-57360330D01*
X56850729Y-57846511D01*
X56736655Y-58420000D01*
X56850729Y-58993489D01*
X57175585Y-59479670D01*
X57490366Y-59690000D01*
X57175585Y-59900330D01*
X56850729Y-60386511D01*
X56736655Y-60960000D01*
X56850729Y-61533489D01*
X57175585Y-62019670D01*
X57490366Y-62230000D01*
X57175585Y-62440330D01*
X56850729Y-62926511D01*
X56736655Y-63500000D01*
X56850729Y-64073489D01*
X57175585Y-64559670D01*
X57490366Y-64770000D01*
X57175585Y-64980330D01*
X56850729Y-65466511D01*
X56736655Y-66040000D01*
X56850729Y-66613489D01*
X57175585Y-67099670D01*
X57490366Y-67310000D01*
X57175585Y-67520330D01*
X56850729Y-68006511D01*
X56736655Y-68580000D01*
X56850729Y-69153489D01*
X57175585Y-69639670D01*
X57490366Y-69850000D01*
X57175585Y-70060330D01*
X56850729Y-70546511D01*
X56736655Y-71120000D01*
X56850729Y-71693489D01*
X57175585Y-72179670D01*
X57490366Y-72390000D01*
X57175585Y-72600330D01*
X56850729Y-73086511D01*
X56736655Y-73660000D01*
X56850729Y-74233489D01*
X57175585Y-74719670D01*
X57490366Y-74930000D01*
X57175585Y-75140330D01*
X56850729Y-75626511D01*
X56736655Y-76200000D01*
X56850729Y-76773489D01*
X57175585Y-77259670D01*
X57490366Y-77470000D01*
X57175585Y-77680330D01*
X56850729Y-78166511D01*
X56736655Y-78740000D01*
X56850729Y-79313489D01*
X57175585Y-79799670D01*
X57490366Y-80010000D01*
X57175585Y-80220330D01*
X56850729Y-80706511D01*
X56736655Y-81280000D01*
X56850729Y-81853489D01*
X57175585Y-82339670D01*
X57490366Y-82550000D01*
X57175585Y-82760330D01*
X56850729Y-83246511D01*
X56736655Y-83820000D01*
X56850729Y-84393489D01*
X57175585Y-84879670D01*
X57490366Y-85090000D01*
X57175585Y-85300330D01*
X56850729Y-85786511D01*
X56736655Y-86360000D01*
X56850729Y-86933489D01*
X57175585Y-87419670D01*
X57490366Y-87630000D01*
X57175585Y-87840330D01*
X56850729Y-88326511D01*
X56736655Y-88900000D01*
X56850729Y-89473489D01*
X57175585Y-89959670D01*
X57490366Y-90170000D01*
X57175585Y-90380330D01*
X56850729Y-90866511D01*
X56736655Y-91440000D01*
X56850729Y-92013489D01*
X57175585Y-92499670D01*
X57490366Y-92710000D01*
X57175585Y-92920330D01*
X56850729Y-93406511D01*
X56736655Y-93980000D01*
X56850729Y-94553489D01*
X57175585Y-95039670D01*
X57661766Y-95364526D01*
X58235255Y-95478600D01*
X58604745Y-95478600D01*
X59178234Y-95364526D01*
X59664415Y-95039670D01*
X59989271Y-94553489D01*
X60103345Y-93980000D01*
X59989271Y-93406511D01*
X59664415Y-92920330D01*
X59349634Y-92710000D01*
X59664415Y-92499670D01*
X59989271Y-92013489D01*
X60103345Y-91440000D01*
X59989271Y-90866511D01*
X59664415Y-90380330D01*
X59349634Y-90170000D01*
X59664415Y-89959670D01*
X59989271Y-89473489D01*
X60103345Y-88900000D01*
X59989271Y-88326511D01*
X59664415Y-87840330D01*
X59349634Y-87630000D01*
X59664415Y-87419670D01*
X59989271Y-86933489D01*
X60103345Y-86360000D01*
X59989271Y-85786511D01*
X59664415Y-85300330D01*
X59349634Y-85090000D01*
X59664415Y-84879670D01*
X59717506Y-84800213D01*
X63969392Y-84800213D01*
X64038857Y-85042397D01*
X64562302Y-85229144D01*
X65117368Y-85201362D01*
X65501143Y-85042397D01*
X65570608Y-84800213D01*
X79209392Y-84800213D01*
X79278857Y-85042397D01*
X79802302Y-85229144D01*
X80357368Y-85201362D01*
X80741143Y-85042397D01*
X80810608Y-84800213D01*
X80010000Y-83999605D01*
X79209392Y-84800213D01*
X65570608Y-84800213D01*
X64770000Y-83999605D01*
X63969392Y-84800213D01*
X59717506Y-84800213D01*
X59989271Y-84393489D01*
X60103345Y-83820000D01*
X60062032Y-83612302D01*
X63360856Y-83612302D01*
X63388638Y-84167368D01*
X63547603Y-84551143D01*
X63789787Y-84620608D01*
X64590395Y-83820000D01*
X64949605Y-83820000D01*
X65750213Y-84620608D01*
X65992397Y-84551143D01*
X66179144Y-84027698D01*
X66158353Y-83612302D01*
X78600856Y-83612302D01*
X78628638Y-84167368D01*
X78787603Y-84551143D01*
X79029787Y-84620608D01*
X79830395Y-83820000D01*
X80189605Y-83820000D01*
X80990213Y-84620608D01*
X81232397Y-84551143D01*
X81419144Y-84027698D01*
X81391362Y-83472632D01*
X81232397Y-83088857D01*
X80990213Y-83019392D01*
X80189605Y-83820000D01*
X79830395Y-83820000D01*
X79029787Y-83019392D01*
X78787603Y-83088857D01*
X78600856Y-83612302D01*
X66158353Y-83612302D01*
X66151362Y-83472632D01*
X65992397Y-83088857D01*
X65750213Y-83019392D01*
X64949605Y-83820000D01*
X64590395Y-83820000D01*
X63789787Y-83019392D01*
X63547603Y-83088857D01*
X63360856Y-83612302D01*
X60062032Y-83612302D01*
X59989271Y-83246511D01*
X59717507Y-82839787D01*
X63969392Y-82839787D01*
X64770000Y-83640395D01*
X65570608Y-82839787D01*
X79209392Y-82839787D01*
X80010000Y-83640395D01*
X80810608Y-82839787D01*
X80741143Y-82597603D01*
X80217698Y-82410856D01*
X79662632Y-82438638D01*
X79278857Y-82597603D01*
X79209392Y-82839787D01*
X65570608Y-82839787D01*
X65501143Y-82597603D01*
X64977698Y-82410856D01*
X64422632Y-82438638D01*
X64038857Y-82597603D01*
X63969392Y-82839787D01*
X59717507Y-82839787D01*
X59664415Y-82760330D01*
X59349634Y-82550000D01*
X59664415Y-82339670D01*
X59989271Y-81853489D01*
X60103345Y-81280000D01*
X59989271Y-80706511D01*
X59664415Y-80220330D01*
X59349634Y-80010000D01*
X59664415Y-79799670D01*
X59989271Y-79313489D01*
X60103345Y-78740000D01*
X59989271Y-78166511D01*
X59664415Y-77680330D01*
X59349634Y-77470000D01*
X59664415Y-77259670D01*
X59989271Y-76773489D01*
X60103345Y-76200000D01*
X59989271Y-75626511D01*
X59664415Y-75140330D01*
X59349634Y-74930000D01*
X59664415Y-74719670D01*
X59989271Y-74233489D01*
X60103345Y-73660000D01*
X59989271Y-73086511D01*
X59664415Y-72600330D01*
X59349634Y-72390000D01*
X59664415Y-72179670D01*
X59989271Y-71693489D01*
X60103345Y-71120000D01*
X59989271Y-70546511D01*
X59664415Y-70060330D01*
X59349634Y-69850000D01*
X59664415Y-69639670D01*
X59989271Y-69153489D01*
X60103345Y-68580000D01*
X59989271Y-68006511D01*
X59664415Y-67520330D01*
X59349634Y-67310000D01*
X59664415Y-67099670D01*
X59989271Y-66613489D01*
X60103345Y-66040000D01*
X59989271Y-65466511D01*
X59664415Y-64980330D01*
X59349634Y-64770000D01*
X59664415Y-64559670D01*
X59989271Y-64073489D01*
X60103345Y-63500000D01*
X59989271Y-62926511D01*
X59664415Y-62440330D01*
X59349634Y-62230000D01*
X59664415Y-62019670D01*
X59717506Y-61940213D01*
X63969392Y-61940213D01*
X64038857Y-62182397D01*
X64562302Y-62369144D01*
X65117368Y-62341362D01*
X65501143Y-62182397D01*
X65570608Y-61940213D01*
X64770000Y-61139605D01*
X63969392Y-61940213D01*
X59717506Y-61940213D01*
X59989271Y-61533489D01*
X60103345Y-60960000D01*
X60062032Y-60752302D01*
X63360856Y-60752302D01*
X63388638Y-61307368D01*
X63547603Y-61691143D01*
X63789787Y-61760608D01*
X64590395Y-60960000D01*
X64949605Y-60960000D01*
X65750213Y-61760608D01*
X65992397Y-61691143D01*
X66179144Y-61167698D01*
X66151362Y-60612632D01*
X65992397Y-60228857D01*
X65750213Y-60159392D01*
X64949605Y-60960000D01*
X64590395Y-60960000D01*
X63789787Y-60159392D01*
X63547603Y-60228857D01*
X63360856Y-60752302D01*
X60062032Y-60752302D01*
X59989271Y-60386511D01*
X59664415Y-59900330D01*
X59349634Y-59690000D01*
X59664415Y-59479670D01*
X59717506Y-59400213D01*
X63969392Y-59400213D01*
X64038857Y-59642397D01*
X64162344Y-59686453D01*
X64038857Y-59737603D01*
X63969392Y-59979787D01*
X64770000Y-60780395D01*
X65570608Y-59979787D01*
X65501143Y-59737603D01*
X65377656Y-59693547D01*
X65501143Y-59642397D01*
X65570608Y-59400213D01*
X64770000Y-58599605D01*
X63969392Y-59400213D01*
X59717506Y-59400213D01*
X59989271Y-58993489D01*
X60103345Y-58420000D01*
X60062032Y-58212302D01*
X63360856Y-58212302D01*
X63388638Y-58767368D01*
X63547603Y-59151143D01*
X63789787Y-59220608D01*
X64590395Y-58420000D01*
X64949605Y-58420000D01*
X65750213Y-59220608D01*
X65992397Y-59151143D01*
X66179144Y-58627698D01*
X66151362Y-58072632D01*
X65992397Y-57688857D01*
X65750213Y-57619392D01*
X64949605Y-58420000D01*
X64590395Y-58420000D01*
X63789787Y-57619392D01*
X63547603Y-57688857D01*
X63360856Y-58212302D01*
X60062032Y-58212302D01*
X59989271Y-57846511D01*
X59717507Y-57439787D01*
X63969392Y-57439787D01*
X64770000Y-58240395D01*
X65570608Y-57439787D01*
X65501143Y-57197603D01*
X64977698Y-57010856D01*
X64422632Y-57038638D01*
X64038857Y-57197603D01*
X63969392Y-57439787D01*
X59717507Y-57439787D01*
X59664415Y-57360330D01*
X59349634Y-57150000D01*
X59664415Y-56939670D01*
X59989271Y-56453489D01*
X60103345Y-55880000D01*
X59989271Y-55306511D01*
X59664415Y-54820330D01*
X59349634Y-54610000D01*
X59664415Y-54399670D01*
X59989271Y-53913489D01*
X60103345Y-53340000D01*
X59989271Y-52766511D01*
X59664415Y-52280330D01*
X59349634Y-52070000D01*
X59664415Y-51859670D01*
X59989271Y-51373489D01*
X60103345Y-50800000D01*
X59989271Y-50226511D01*
X59664415Y-49740330D01*
X59642220Y-49725500D01*
X59795699Y-49661927D01*
X59974327Y-49483298D01*
X60071000Y-49249909D01*
X60071000Y-48642944D01*
X65704025Y-48642944D01*
X65903615Y-49124818D01*
X66341621Y-49597188D01*
X66927054Y-49865983D01*
X67183000Y-49747367D01*
X67183000Y-48387000D01*
X65823164Y-48387000D01*
X65704025Y-48642944D01*
X60071000Y-48642944D01*
X60071000Y-48545750D01*
X59912250Y-48387000D01*
X58547000Y-48387000D01*
X58547000Y-48407000D01*
X58293000Y-48407000D01*
X58293000Y-48387000D01*
X56927750Y-48387000D01*
X56769000Y-48545750D01*
X56769000Y-49249909D01*
X56865673Y-49483298D01*
X57044301Y-49661927D01*
X57197780Y-49725500D01*
X57175585Y-49740330D01*
X56850729Y-50226511D01*
X56736655Y-50800000D01*
X56590000Y-50800000D01*
X56590000Y-47270091D01*
X56769000Y-47270091D01*
X56769000Y-47974250D01*
X56927750Y-48133000D01*
X58293000Y-48133000D01*
X58293000Y-46920150D01*
X58547000Y-46920150D01*
X58547000Y-48133000D01*
X59912250Y-48133000D01*
X60071000Y-47974250D01*
X60071000Y-47877056D01*
X65704025Y-47877056D01*
X65823164Y-48133000D01*
X67183000Y-48133000D01*
X67183000Y-46772633D01*
X66927054Y-46654017D01*
X66341621Y-46922812D01*
X65903615Y-47395182D01*
X65704025Y-47877056D01*
X60071000Y-47877056D01*
X60071000Y-47270091D01*
X59974327Y-47036702D01*
X59795699Y-46858073D01*
X59562310Y-46761400D01*
X58705750Y-46761400D01*
X58547000Y-46920150D01*
X58293000Y-46920150D01*
X58134250Y-46761400D01*
X57277690Y-46761400D01*
X57044301Y-46858073D01*
X56865673Y-47036702D01*
X56769000Y-47270091D01*
X56590000Y-47270091D01*
X56590000Y-46430000D01*
X76835000Y-46430000D01*
X76835000Y-47974250D01*
X76835000Y-47974250D01*
G37*
X76835000Y-47974250D02*
X76993750Y-48133000D01*
X77851000Y-48133000D01*
X77851000Y-48113000D01*
X78105000Y-48113000D01*
X78105000Y-48133000D01*
X78962250Y-48133000D01*
X79121000Y-47974250D01*
X79121000Y-46430000D01*
X81394560Y-46430000D01*
X81394560Y-50800000D01*
X81407330Y-50867868D01*
X80965198Y-51310000D01*
X78874025Y-51310000D01*
X79024327Y-51159699D01*
X79121000Y-50926310D01*
X79121000Y-48545750D01*
X78962250Y-48387000D01*
X78105000Y-48387000D01*
X78105000Y-48407000D01*
X77851000Y-48407000D01*
X77851000Y-48387000D01*
X76993750Y-48387000D01*
X76835000Y-48545750D01*
X76835000Y-50926310D01*
X76931673Y-51159699D01*
X77081975Y-51310000D01*
X73974802Y-51310000D01*
X71513440Y-48848638D01*
X71513440Y-47244000D01*
X71469162Y-47008683D01*
X71330090Y-46792559D01*
X71117890Y-46647569D01*
X70866000Y-46596560D01*
X68834000Y-46596560D01*
X68598683Y-46640838D01*
X68382559Y-46779910D01*
X68282144Y-46926872D01*
X68278379Y-46922812D01*
X67692946Y-46654017D01*
X67437000Y-46772633D01*
X67437000Y-48133000D01*
X67457000Y-48133000D01*
X67457000Y-48387000D01*
X67437000Y-48387000D01*
X67437000Y-49747367D01*
X67692946Y-49865983D01*
X68278379Y-49597188D01*
X68282934Y-49592276D01*
X68369910Y-49727441D01*
X68582110Y-49872431D01*
X68834000Y-49923440D01*
X70438638Y-49923440D01*
X72900000Y-52384802D01*
X72900000Y-67310000D01*
X72957852Y-67600839D01*
X73122599Y-67847401D01*
X73369161Y-68012148D01*
X73660000Y-68070000D01*
X84775198Y-68070000D01*
X87515817Y-70810619D01*
X87503243Y-70840900D01*
X87502758Y-71396661D01*
X87714990Y-71910303D01*
X88107630Y-72303629D01*
X88620900Y-72516757D01*
X89176661Y-72517242D01*
X89209055Y-72503857D01*
X90680000Y-73974802D01*
X90680000Y-79250000D01*
X84134802Y-79250000D01*
X83087401Y-78202599D01*
X82840839Y-78037852D01*
X82550000Y-77980000D01*
X81207531Y-77980000D01*
X81195010Y-77949697D01*
X80802370Y-77556371D01*
X80594488Y-77470051D01*
X80800303Y-77385010D01*
X81193629Y-76992370D01*
X81207070Y-76960000D01*
X87702469Y-76960000D01*
X87714990Y-76990303D01*
X88107630Y-77383629D01*
X88620900Y-77596757D01*
X89176661Y-77597242D01*
X89690303Y-77385010D01*
X90083629Y-76992370D01*
X90296757Y-76479100D01*
X90297242Y-75923339D01*
X90085010Y-75409697D01*
X89692370Y-75016371D01*
X89179100Y-74803243D01*
X88623339Y-74802758D01*
X88109697Y-75014990D01*
X87716371Y-75407630D01*
X87702930Y-75440000D01*
X81207531Y-75440000D01*
X81195010Y-75409697D01*
X80802370Y-75016371D01*
X80594488Y-74930051D01*
X80800303Y-74845010D01*
X81193629Y-74452370D01*
X81207070Y-74420000D01*
X85162469Y-74420000D01*
X85174990Y-74450303D01*
X85567630Y-74843629D01*
X86080900Y-75056757D01*
X86636661Y-75057242D01*
X87150303Y-74845010D01*
X87543629Y-74452370D01*
X87756757Y-73939100D01*
X87757242Y-73383339D01*
X87545010Y-72869697D01*
X87152370Y-72476371D01*
X86639100Y-72263243D01*
X86083339Y-72262758D01*
X85569697Y-72474990D01*
X85176371Y-72867630D01*
X85162930Y-72900000D01*
X81207531Y-72900000D01*
X81195010Y-72869697D01*
X80802370Y-72476371D01*
X80289100Y-72263243D01*
X79733339Y-72262758D01*
X79219697Y-72474990D01*
X78826371Y-72867630D01*
X78812930Y-72900000D01*
X65967531Y-72900000D01*
X65955010Y-72869697D01*
X65562370Y-72476371D01*
X65049100Y-72263243D01*
X64493339Y-72262758D01*
X63979697Y-72474990D01*
X63586371Y-72867630D01*
X63373243Y-73380900D01*
X63372758Y-73936661D01*
X63584990Y-74450303D01*
X63977630Y-74843629D01*
X64185512Y-74929949D01*
X63979697Y-75014990D01*
X63586371Y-75407630D01*
X63373243Y-75920900D01*
X63372758Y-76476661D01*
X63584990Y-76990303D01*
X63977630Y-77383629D01*
X64185512Y-77469949D01*
X63979697Y-77554990D01*
X63586371Y-77947630D01*
X63373243Y-78460900D01*
X63372758Y-79016661D01*
X63584990Y-79530303D01*
X63977630Y-79923629D01*
X64490900Y-80136757D01*
X65046661Y-80137242D01*
X65560303Y-79925010D01*
X65953629Y-79532370D01*
X65967070Y-79500000D01*
X78812469Y-79500000D01*
X78824990Y-79530303D01*
X79217630Y-79923629D01*
X79730900Y-80136757D01*
X80286661Y-80137242D01*
X80800303Y-79925010D01*
X81193629Y-79532370D01*
X81207070Y-79500000D01*
X82235198Y-79500000D01*
X83282599Y-80547401D01*
X83529160Y-80712148D01*
X83820000Y-80770000D01*
X91440000Y-80770000D01*
X91730839Y-80712148D01*
X91977401Y-80547401D01*
X92142148Y-80300839D01*
X92200000Y-80010000D01*
X92200000Y-73660000D01*
X92142148Y-73369161D01*
X92142148Y-73369160D01*
X91977401Y-73122599D01*
X90284183Y-71429381D01*
X90296757Y-71399100D01*
X90297242Y-70843339D01*
X90085010Y-70329697D01*
X89692370Y-69936371D01*
X89179100Y-69723243D01*
X88623339Y-69722758D01*
X88590945Y-69736143D01*
X85627401Y-66772599D01*
X85380839Y-66607852D01*
X85090000Y-66550000D01*
X74420000Y-66550000D01*
X74420000Y-58696661D01*
X78612758Y-58696661D01*
X78824990Y-59210303D01*
X79217630Y-59603629D01*
X79250000Y-59617070D01*
X79250000Y-59762469D01*
X79219697Y-59774990D01*
X78826371Y-60167630D01*
X78613243Y-60680900D01*
X78612758Y-61236661D01*
X78824990Y-61750303D01*
X79217630Y-62143629D01*
X79730900Y-62356757D01*
X80286661Y-62357242D01*
X80800303Y-62145010D01*
X81193629Y-61752370D01*
X81406757Y-61239100D01*
X81407242Y-60683339D01*
X81195010Y-60169697D01*
X80802370Y-59776371D01*
X80770000Y-59762930D01*
X80770000Y-59617531D01*
X80800303Y-59605010D01*
X81193629Y-59212370D01*
X81207070Y-59180000D01*
X82550000Y-59180000D01*
X82840839Y-59122148D01*
X83087401Y-58957401D01*
X90484802Y-51560000D01*
X92535352Y-51560000D01*
X92735585Y-51859670D01*
X93050366Y-52070000D01*
X92735585Y-52280330D01*
X92410729Y-52766511D01*
X92296655Y-53340000D01*
X92410729Y-53913489D01*
X92735585Y-54399670D01*
X93050366Y-54610000D01*
X92735585Y-54820330D01*
X92410729Y-55306511D01*
X92296655Y-55880000D01*
X92410729Y-56453489D01*
X92735585Y-56939670D01*
X93050366Y-57150000D01*
X92735585Y-57360330D01*
X92410729Y-57846511D01*
X92296655Y-58420000D01*
X92410729Y-58993489D01*
X92735585Y-59479670D01*
X93050366Y-59690000D01*
X92735585Y-59900330D01*
X92410729Y-60386511D01*
X92296655Y-60960000D01*
X92410729Y-61533489D01*
X92735585Y-62019670D01*
X93050366Y-62230000D01*
X92735585Y-62440330D01*
X92410729Y-62926511D01*
X92296655Y-63500000D01*
X92410729Y-64073489D01*
X92735585Y-64559670D01*
X93050366Y-64770000D01*
X92735585Y-64980330D01*
X92410729Y-65466511D01*
X92296655Y-66040000D01*
X92410729Y-66613489D01*
X92735585Y-67099670D01*
X93050366Y-67310000D01*
X92735585Y-67520330D01*
X92410729Y-68006511D01*
X92296655Y-68580000D01*
X92410729Y-69153489D01*
X92735585Y-69639670D01*
X93050366Y-69850000D01*
X92735585Y-70060330D01*
X92410729Y-70546511D01*
X92296655Y-71120000D01*
X92410729Y-71693489D01*
X92735585Y-72179670D01*
X93050366Y-72390000D01*
X92735585Y-72600330D01*
X92410729Y-73086511D01*
X92296655Y-73660000D01*
X92410729Y-74233489D01*
X92735585Y-74719670D01*
X93050366Y-74930000D01*
X92735585Y-75140330D01*
X92410729Y-75626511D01*
X92296655Y-76200000D01*
X92410729Y-76773489D01*
X92735585Y-77259670D01*
X93050366Y-77470000D01*
X92735585Y-77680330D01*
X92410729Y-78166511D01*
X92296655Y-78740000D01*
X92410729Y-79313489D01*
X92735585Y-79799670D01*
X93050366Y-80010000D01*
X92735585Y-80220330D01*
X92410729Y-80706511D01*
X92296655Y-81280000D01*
X92410729Y-81853489D01*
X92735585Y-82339670D01*
X93050366Y-82550000D01*
X92735585Y-82760330D01*
X92410729Y-83246511D01*
X92296655Y-83820000D01*
X92410729Y-84393489D01*
X92735585Y-84879670D01*
X93050366Y-85090000D01*
X92735585Y-85300330D01*
X92410729Y-85786511D01*
X92296655Y-86360000D01*
X92410729Y-86933489D01*
X92735585Y-87419670D01*
X93050366Y-87630000D01*
X92735585Y-87840330D01*
X92410729Y-88326511D01*
X92296655Y-88900000D01*
X92410729Y-89473489D01*
X92735585Y-89959670D01*
X93050366Y-90170000D01*
X92735585Y-90380330D01*
X92410729Y-90866511D01*
X92296655Y-91440000D01*
X92410729Y-92013489D01*
X92735585Y-92499670D01*
X93050366Y-92710000D01*
X92735585Y-92920330D01*
X92410729Y-93406511D01*
X92296655Y-93980000D01*
X92410729Y-94553489D01*
X92735585Y-95039670D01*
X93221766Y-95364526D01*
X93795255Y-95478600D01*
X94164745Y-95478600D01*
X94738234Y-95364526D01*
X95224415Y-95039670D01*
X95549271Y-94553489D01*
X95663345Y-93980000D01*
X95549271Y-93406511D01*
X95224415Y-92920330D01*
X94909634Y-92710000D01*
X95224415Y-92499670D01*
X95549271Y-92013489D01*
X95663345Y-91440000D01*
X95549271Y-90866511D01*
X95224415Y-90380330D01*
X94909634Y-90170000D01*
X95224415Y-89959670D01*
X95549271Y-89473489D01*
X95663345Y-88900000D01*
X95549271Y-88326511D01*
X95224415Y-87840330D01*
X94909634Y-87630000D01*
X95224415Y-87419670D01*
X95549271Y-86933489D01*
X95663345Y-86360000D01*
X95549271Y-85786511D01*
X95224415Y-85300330D01*
X94909634Y-85090000D01*
X95224415Y-84879670D01*
X95549271Y-84393489D01*
X95663345Y-83820000D01*
X95549271Y-83246511D01*
X95224415Y-82760330D01*
X94909634Y-82550000D01*
X95224415Y-82339670D01*
X95549271Y-81853489D01*
X95663345Y-81280000D01*
X95549271Y-80706511D01*
X95224415Y-80220330D01*
X94909634Y-80010000D01*
X95224415Y-79799670D01*
X95549271Y-79313489D01*
X95663345Y-78740000D01*
X95549271Y-78166511D01*
X95224415Y-77680330D01*
X94909634Y-77470000D01*
X95224415Y-77259670D01*
X95549271Y-76773489D01*
X95663345Y-76200000D01*
X95549271Y-75626511D01*
X95224415Y-75140330D01*
X94909634Y-74930000D01*
X95224415Y-74719670D01*
X95549271Y-74233489D01*
X95663345Y-73660000D01*
X95549271Y-73086511D01*
X95224415Y-72600330D01*
X94909634Y-72390000D01*
X95224415Y-72179670D01*
X95549271Y-71693489D01*
X95663345Y-71120000D01*
X95549271Y-70546511D01*
X95224415Y-70060330D01*
X94909634Y-69850000D01*
X95224415Y-69639670D01*
X95549271Y-69153489D01*
X95663345Y-68580000D01*
X95549271Y-68006511D01*
X95224415Y-67520330D01*
X94909634Y-67310000D01*
X95224415Y-67099670D01*
X95549271Y-66613489D01*
X95663345Y-66040000D01*
X95549271Y-65466511D01*
X95224415Y-64980330D01*
X94909634Y-64770000D01*
X95224415Y-64559670D01*
X95549271Y-64073489D01*
X95663345Y-63500000D01*
X95549271Y-62926511D01*
X95224415Y-62440330D01*
X94909634Y-62230000D01*
X95224415Y-62019670D01*
X95549271Y-61533489D01*
X95663345Y-60960000D01*
X95549271Y-60386511D01*
X95224415Y-59900330D01*
X94909634Y-59690000D01*
X95224415Y-59479670D01*
X95549271Y-58993489D01*
X95663345Y-58420000D01*
X95549271Y-57846511D01*
X95224415Y-57360330D01*
X94909634Y-57150000D01*
X95224415Y-56939670D01*
X95549271Y-56453489D01*
X95663345Y-55880000D01*
X95549271Y-55306511D01*
X95224415Y-54820330D01*
X94909634Y-54610000D01*
X95224415Y-54399670D01*
X95549271Y-53913489D01*
X95663345Y-53340000D01*
X95549271Y-52766511D01*
X95224415Y-52280330D01*
X94909634Y-52070000D01*
X95224415Y-51859670D01*
X95549271Y-51373489D01*
X95663345Y-50800000D01*
X95549271Y-50226511D01*
X95224415Y-49740330D01*
X95202220Y-49725500D01*
X95355699Y-49661927D01*
X95534327Y-49483298D01*
X95631000Y-49249909D01*
X95631000Y-48545750D01*
X95472250Y-48387000D01*
X94107000Y-48387000D01*
X94107000Y-48407000D01*
X93853000Y-48407000D01*
X93853000Y-48387000D01*
X92487750Y-48387000D01*
X92329000Y-48545750D01*
X92329000Y-49249909D01*
X92425673Y-49483298D01*
X92604301Y-49661927D01*
X92757780Y-49725500D01*
X92735585Y-49740330D01*
X92535352Y-50040000D01*
X90170000Y-50040000D01*
X89879160Y-50097852D01*
X89632599Y-50262599D01*
X82235198Y-57660000D01*
X81207531Y-57660000D01*
X81195010Y-57629697D01*
X80802370Y-57236371D01*
X80289100Y-57023243D01*
X79733339Y-57022758D01*
X79219697Y-57234990D01*
X78826371Y-57627630D01*
X78613243Y-58140900D01*
X78612758Y-58696661D01*
X74420000Y-58696661D01*
X74420000Y-52830000D01*
X81280000Y-52830000D01*
X81570839Y-52772148D01*
X81817401Y-52607401D01*
X82977362Y-51447440D01*
X83058000Y-51447440D01*
X83293317Y-51403162D01*
X83509441Y-51264090D01*
X83654431Y-51051890D01*
X83705440Y-50800000D01*
X83705440Y-48545750D01*
X85979000Y-48545750D01*
X85979000Y-50926310D01*
X86075673Y-51159699D01*
X86254302Y-51338327D01*
X86487691Y-51435000D01*
X86836250Y-51435000D01*
X86995000Y-51276250D01*
X86995000Y-48387000D01*
X87249000Y-48387000D01*
X87249000Y-51276250D01*
X87407750Y-51435000D01*
X87756309Y-51435000D01*
X87989698Y-51338327D01*
X88168327Y-51159699D01*
X88265000Y-50926310D01*
X88265000Y-48545750D01*
X88106250Y-48387000D01*
X87249000Y-48387000D01*
X86995000Y-48387000D01*
X86137750Y-48387000D01*
X85979000Y-48545750D01*
X83705440Y-48545750D01*
X83705440Y-46430000D01*
X85979000Y-46430000D01*
X85979000Y-47974250D01*
X86137750Y-48133000D01*
X86995000Y-48133000D01*
X86995000Y-48113000D01*
X87249000Y-48113000D01*
X87249000Y-48133000D01*
X88106250Y-48133000D01*
X88265000Y-47974250D01*
X88265000Y-47270091D01*
X92329000Y-47270091D01*
X92329000Y-47974250D01*
X92487750Y-48133000D01*
X93853000Y-48133000D01*
X93853000Y-46920150D01*
X94107000Y-46920150D01*
X94107000Y-48133000D01*
X95472250Y-48133000D01*
X95631000Y-47974250D01*
X95631000Y-47270091D01*
X95534327Y-47036702D01*
X95355699Y-46858073D01*
X95122310Y-46761400D01*
X94265750Y-46761400D01*
X94107000Y-46920150D01*
X93853000Y-46920150D01*
X93694250Y-46761400D01*
X92837690Y-46761400D01*
X92604301Y-46858073D01*
X92425673Y-47036702D01*
X92329000Y-47270091D01*
X88265000Y-47270091D01*
X88265000Y-46430000D01*
X95810000Y-46430000D01*
X95810000Y-95810000D01*
X56590000Y-95810000D01*
X56590000Y-50800000D01*
X56736655Y-50800000D01*
X56850729Y-51373489D01*
X57175585Y-51859670D01*
X57490366Y-52070000D01*
X57175585Y-52280330D01*
X56850729Y-52766511D01*
X56736655Y-53340000D01*
X56850729Y-53913489D01*
X57175585Y-54399670D01*
X57490366Y-54610000D01*
X57175585Y-54820330D01*
X56850729Y-55306511D01*
X56736655Y-55880000D01*
X56850729Y-56453489D01*
X57175585Y-56939670D01*
X57490366Y-57150000D01*
X57175585Y-57360330D01*
X56850729Y-57846511D01*
X56736655Y-58420000D01*
X56850729Y-58993489D01*
X57175585Y-59479670D01*
X57490366Y-59690000D01*
X57175585Y-59900330D01*
X56850729Y-60386511D01*
X56736655Y-60960000D01*
X56850729Y-61533489D01*
X57175585Y-62019670D01*
X57490366Y-62230000D01*
X57175585Y-62440330D01*
X56850729Y-62926511D01*
X56736655Y-63500000D01*
X56850729Y-64073489D01*
X57175585Y-64559670D01*
X57490366Y-64770000D01*
X57175585Y-64980330D01*
X56850729Y-65466511D01*
X56736655Y-66040000D01*
X56850729Y-66613489D01*
X57175585Y-67099670D01*
X57490366Y-67310000D01*
X57175585Y-67520330D01*
X56850729Y-68006511D01*
X56736655Y-68580000D01*
X56850729Y-69153489D01*
X57175585Y-69639670D01*
X57490366Y-69850000D01*
X57175585Y-70060330D01*
X56850729Y-70546511D01*
X56736655Y-71120000D01*
X56850729Y-71693489D01*
X57175585Y-72179670D01*
X57490366Y-72390000D01*
X57175585Y-72600330D01*
X56850729Y-73086511D01*
X56736655Y-73660000D01*
X56850729Y-74233489D01*
X57175585Y-74719670D01*
X57490366Y-74930000D01*
X57175585Y-75140330D01*
X56850729Y-75626511D01*
X56736655Y-76200000D01*
X56850729Y-76773489D01*
X57175585Y-77259670D01*
X57490366Y-77470000D01*
X57175585Y-77680330D01*
X56850729Y-78166511D01*
X56736655Y-78740000D01*
X56850729Y-79313489D01*
X57175585Y-79799670D01*
X57490366Y-80010000D01*
X57175585Y-80220330D01*
X56850729Y-80706511D01*
X56736655Y-81280000D01*
X56850729Y-81853489D01*
X57175585Y-82339670D01*
X57490366Y-82550000D01*
X57175585Y-82760330D01*
X56850729Y-83246511D01*
X56736655Y-83820000D01*
X56850729Y-84393489D01*
X57175585Y-84879670D01*
X57490366Y-85090000D01*
X57175585Y-85300330D01*
X56850729Y-85786511D01*
X56736655Y-86360000D01*
X56850729Y-86933489D01*
X57175585Y-87419670D01*
X57490366Y-87630000D01*
X57175585Y-87840330D01*
X56850729Y-88326511D01*
X56736655Y-88900000D01*
X56850729Y-89473489D01*
X57175585Y-89959670D01*
X57490366Y-90170000D01*
X57175585Y-90380330D01*
X56850729Y-90866511D01*
X56736655Y-91440000D01*
X56850729Y-92013489D01*
X57175585Y-92499670D01*
X57490366Y-92710000D01*
X57175585Y-92920330D01*
X56850729Y-93406511D01*
X56736655Y-93980000D01*
X56850729Y-94553489D01*
X57175585Y-95039670D01*
X57661766Y-95364526D01*
X58235255Y-95478600D01*
X58604745Y-95478600D01*
X59178234Y-95364526D01*
X59664415Y-95039670D01*
X59989271Y-94553489D01*
X60103345Y-93980000D01*
X59989271Y-93406511D01*
X59664415Y-92920330D01*
X59349634Y-92710000D01*
X59664415Y-92499670D01*
X59989271Y-92013489D01*
X60103345Y-91440000D01*
X59989271Y-90866511D01*
X59664415Y-90380330D01*
X59349634Y-90170000D01*
X59664415Y-89959670D01*
X59989271Y-89473489D01*
X60103345Y-88900000D01*
X59989271Y-88326511D01*
X59664415Y-87840330D01*
X59349634Y-87630000D01*
X59664415Y-87419670D01*
X59989271Y-86933489D01*
X60103345Y-86360000D01*
X59989271Y-85786511D01*
X59664415Y-85300330D01*
X59349634Y-85090000D01*
X59664415Y-84879670D01*
X59717506Y-84800213D01*
X63969392Y-84800213D01*
X64038857Y-85042397D01*
X64562302Y-85229144D01*
X65117368Y-85201362D01*
X65501143Y-85042397D01*
X65570608Y-84800213D01*
X79209392Y-84800213D01*
X79278857Y-85042397D01*
X79802302Y-85229144D01*
X80357368Y-85201362D01*
X80741143Y-85042397D01*
X80810608Y-84800213D01*
X80010000Y-83999605D01*
X79209392Y-84800213D01*
X65570608Y-84800213D01*
X64770000Y-83999605D01*
X63969392Y-84800213D01*
X59717506Y-84800213D01*
X59989271Y-84393489D01*
X60103345Y-83820000D01*
X60062032Y-83612302D01*
X63360856Y-83612302D01*
X63388638Y-84167368D01*
X63547603Y-84551143D01*
X63789787Y-84620608D01*
X64590395Y-83820000D01*
X64949605Y-83820000D01*
X65750213Y-84620608D01*
X65992397Y-84551143D01*
X66179144Y-84027698D01*
X66158353Y-83612302D01*
X78600856Y-83612302D01*
X78628638Y-84167368D01*
X78787603Y-84551143D01*
X79029787Y-84620608D01*
X79830395Y-83820000D01*
X80189605Y-83820000D01*
X80990213Y-84620608D01*
X81232397Y-84551143D01*
X81419144Y-84027698D01*
X81391362Y-83472632D01*
X81232397Y-83088857D01*
X80990213Y-83019392D01*
X80189605Y-83820000D01*
X79830395Y-83820000D01*
X79029787Y-83019392D01*
X78787603Y-83088857D01*
X78600856Y-83612302D01*
X66158353Y-83612302D01*
X66151362Y-83472632D01*
X65992397Y-83088857D01*
X65750213Y-83019392D01*
X64949605Y-83820000D01*
X64590395Y-83820000D01*
X63789787Y-83019392D01*
X63547603Y-83088857D01*
X63360856Y-83612302D01*
X60062032Y-83612302D01*
X59989271Y-83246511D01*
X59717507Y-82839787D01*
X63969392Y-82839787D01*
X64770000Y-83640395D01*
X65570608Y-82839787D01*
X79209392Y-82839787D01*
X80010000Y-83640395D01*
X80810608Y-82839787D01*
X80741143Y-82597603D01*
X80217698Y-82410856D01*
X79662632Y-82438638D01*
X79278857Y-82597603D01*
X79209392Y-82839787D01*
X65570608Y-82839787D01*
X65501143Y-82597603D01*
X64977698Y-82410856D01*
X64422632Y-82438638D01*
X64038857Y-82597603D01*
X63969392Y-82839787D01*
X59717507Y-82839787D01*
X59664415Y-82760330D01*
X59349634Y-82550000D01*
X59664415Y-82339670D01*
X59989271Y-81853489D01*
X60103345Y-81280000D01*
X59989271Y-80706511D01*
X59664415Y-80220330D01*
X59349634Y-80010000D01*
X59664415Y-79799670D01*
X59989271Y-79313489D01*
X60103345Y-78740000D01*
X59989271Y-78166511D01*
X59664415Y-77680330D01*
X59349634Y-77470000D01*
X59664415Y-77259670D01*
X59989271Y-76773489D01*
X60103345Y-76200000D01*
X59989271Y-75626511D01*
X59664415Y-75140330D01*
X59349634Y-74930000D01*
X59664415Y-74719670D01*
X59989271Y-74233489D01*
X60103345Y-73660000D01*
X59989271Y-73086511D01*
X59664415Y-72600330D01*
X59349634Y-72390000D01*
X59664415Y-72179670D01*
X59989271Y-71693489D01*
X60103345Y-71120000D01*
X59989271Y-70546511D01*
X59664415Y-70060330D01*
X59349634Y-69850000D01*
X59664415Y-69639670D01*
X59989271Y-69153489D01*
X60103345Y-68580000D01*
X59989271Y-68006511D01*
X59664415Y-67520330D01*
X59349634Y-67310000D01*
X59664415Y-67099670D01*
X59989271Y-66613489D01*
X60103345Y-66040000D01*
X59989271Y-65466511D01*
X59664415Y-64980330D01*
X59349634Y-64770000D01*
X59664415Y-64559670D01*
X59989271Y-64073489D01*
X60103345Y-63500000D01*
X59989271Y-62926511D01*
X59664415Y-62440330D01*
X59349634Y-62230000D01*
X59664415Y-62019670D01*
X59717506Y-61940213D01*
X63969392Y-61940213D01*
X64038857Y-62182397D01*
X64562302Y-62369144D01*
X65117368Y-62341362D01*
X65501143Y-62182397D01*
X65570608Y-61940213D01*
X64770000Y-61139605D01*
X63969392Y-61940213D01*
X59717506Y-61940213D01*
X59989271Y-61533489D01*
X60103345Y-60960000D01*
X60062032Y-60752302D01*
X63360856Y-60752302D01*
X63388638Y-61307368D01*
X63547603Y-61691143D01*
X63789787Y-61760608D01*
X64590395Y-60960000D01*
X64949605Y-60960000D01*
X65750213Y-61760608D01*
X65992397Y-61691143D01*
X66179144Y-61167698D01*
X66151362Y-60612632D01*
X65992397Y-60228857D01*
X65750213Y-60159392D01*
X64949605Y-60960000D01*
X64590395Y-60960000D01*
X63789787Y-60159392D01*
X63547603Y-60228857D01*
X63360856Y-60752302D01*
X60062032Y-60752302D01*
X59989271Y-60386511D01*
X59664415Y-59900330D01*
X59349634Y-59690000D01*
X59664415Y-59479670D01*
X59717506Y-59400213D01*
X63969392Y-59400213D01*
X64038857Y-59642397D01*
X64162344Y-59686453D01*
X64038857Y-59737603D01*
X63969392Y-59979787D01*
X64770000Y-60780395D01*
X65570608Y-59979787D01*
X65501143Y-59737603D01*
X65377656Y-59693547D01*
X65501143Y-59642397D01*
X65570608Y-59400213D01*
X64770000Y-58599605D01*
X63969392Y-59400213D01*
X59717506Y-59400213D01*
X59989271Y-58993489D01*
X60103345Y-58420000D01*
X60062032Y-58212302D01*
X63360856Y-58212302D01*
X63388638Y-58767368D01*
X63547603Y-59151143D01*
X63789787Y-59220608D01*
X64590395Y-58420000D01*
X64949605Y-58420000D01*
X65750213Y-59220608D01*
X65992397Y-59151143D01*
X66179144Y-58627698D01*
X66151362Y-58072632D01*
X65992397Y-57688857D01*
X65750213Y-57619392D01*
X64949605Y-58420000D01*
X64590395Y-58420000D01*
X63789787Y-57619392D01*
X63547603Y-57688857D01*
X63360856Y-58212302D01*
X60062032Y-58212302D01*
X59989271Y-57846511D01*
X59717507Y-57439787D01*
X63969392Y-57439787D01*
X64770000Y-58240395D01*
X65570608Y-57439787D01*
X65501143Y-57197603D01*
X64977698Y-57010856D01*
X64422632Y-57038638D01*
X64038857Y-57197603D01*
X63969392Y-57439787D01*
X59717507Y-57439787D01*
X59664415Y-57360330D01*
X59349634Y-57150000D01*
X59664415Y-56939670D01*
X59989271Y-56453489D01*
X60103345Y-55880000D01*
X59989271Y-55306511D01*
X59664415Y-54820330D01*
X59349634Y-54610000D01*
X59664415Y-54399670D01*
X59989271Y-53913489D01*
X60103345Y-53340000D01*
X59989271Y-52766511D01*
X59664415Y-52280330D01*
X59349634Y-52070000D01*
X59664415Y-51859670D01*
X59989271Y-51373489D01*
X60103345Y-50800000D01*
X59989271Y-50226511D01*
X59664415Y-49740330D01*
X59642220Y-49725500D01*
X59795699Y-49661927D01*
X59974327Y-49483298D01*
X60071000Y-49249909D01*
X60071000Y-48642944D01*
X65704025Y-48642944D01*
X65903615Y-49124818D01*
X66341621Y-49597188D01*
X66927054Y-49865983D01*
X67183000Y-49747367D01*
X67183000Y-48387000D01*
X65823164Y-48387000D01*
X65704025Y-48642944D01*
X60071000Y-48642944D01*
X60071000Y-48545750D01*
X59912250Y-48387000D01*
X58547000Y-48387000D01*
X58547000Y-48407000D01*
X58293000Y-48407000D01*
X58293000Y-48387000D01*
X56927750Y-48387000D01*
X56769000Y-48545750D01*
X56769000Y-49249909D01*
X56865673Y-49483298D01*
X57044301Y-49661927D01*
X57197780Y-49725500D01*
X57175585Y-49740330D01*
X56850729Y-50226511D01*
X56736655Y-50800000D01*
X56590000Y-50800000D01*
X56590000Y-47270091D01*
X56769000Y-47270091D01*
X56769000Y-47974250D01*
X56927750Y-48133000D01*
X58293000Y-48133000D01*
X58293000Y-46920150D01*
X58547000Y-46920150D01*
X58547000Y-48133000D01*
X59912250Y-48133000D01*
X60071000Y-47974250D01*
X60071000Y-47877056D01*
X65704025Y-47877056D01*
X65823164Y-48133000D01*
X67183000Y-48133000D01*
X67183000Y-46772633D01*
X66927054Y-46654017D01*
X66341621Y-46922812D01*
X65903615Y-47395182D01*
X65704025Y-47877056D01*
X60071000Y-47877056D01*
X60071000Y-47270091D01*
X59974327Y-47036702D01*
X59795699Y-46858073D01*
X59562310Y-46761400D01*
X58705750Y-46761400D01*
X58547000Y-46920150D01*
X58293000Y-46920150D01*
X58134250Y-46761400D01*
X57277690Y-46761400D01*
X57044301Y-46858073D01*
X56865673Y-47036702D01*
X56769000Y-47270091D01*
X56590000Y-47270091D01*
X56590000Y-46430000D01*
X76835000Y-46430000D01*
X76835000Y-47974250D01*
M02*
