G04 #@! TF.FileFunction,Legend,Top*
%FSLAX46Y46*%
G04 Gerber Fmt 4.6, Leading zero omitted, Abs format (unit mm)*
G04 Created by KiCad (PCBNEW 4.0.3+e1-6302~38~ubuntu16.04.1-stable) date Thu Aug 18 10:35:29 2016*
%MOMM*%
%LPD*%
G01*
G04 APERTURE LIST*
%ADD10C,0.100000*%
%ADD11C,0.150000*%
G04 APERTURE END LIST*
D10*
D11*
X57150000Y-49530000D02*
X57150000Y-95250000D01*
X57150000Y-95250000D02*
X59690000Y-95250000D01*
X59690000Y-95250000D02*
X59690000Y-49530000D01*
X56870000Y-46710000D02*
X56870000Y-48260000D01*
X57150000Y-49530000D02*
X59690000Y-49530000D01*
X59970000Y-48260000D02*
X59970000Y-46710000D01*
X59970000Y-46710000D02*
X56870000Y-46710000D01*
X66040000Y-38160000D02*
X66040000Y-46990000D01*
X68580000Y-38160000D02*
X66040000Y-38160000D01*
X68580000Y-46990000D02*
X68580000Y-38160000D01*
X68580000Y-46990000D02*
X66040000Y-46990000D01*
X71120000Y-46990000D02*
X68580000Y-46990000D01*
X69850000Y-49660000D02*
X71400000Y-49660000D01*
X71400000Y-49660000D02*
X71400000Y-48260000D01*
X71120000Y-46990000D02*
X71120000Y-38160000D01*
X71120000Y-38160000D02*
X68580000Y-38160000D01*
X68580000Y-38160000D02*
X68580000Y-46990000D01*
X92710000Y-49530000D02*
X92710000Y-95250000D01*
X92710000Y-95250000D02*
X95250000Y-95250000D01*
X95250000Y-95250000D02*
X95250000Y-49530000D01*
X92430000Y-46710000D02*
X92430000Y-48260000D01*
X92710000Y-49530000D02*
X95250000Y-49530000D01*
X95530000Y-48260000D02*
X95530000Y-46710000D01*
X95530000Y-46710000D02*
X92430000Y-46710000D01*
X89535000Y-77470000D02*
X89535000Y-78486000D01*
X89535000Y-72390000D02*
X89535000Y-74930000D01*
X89535000Y-68834000D02*
X89535000Y-69850000D01*
X85598000Y-77216000D02*
X86868000Y-77216000D01*
X86347300Y-76428600D02*
X86093300Y-76466700D01*
X86093300Y-76466700D02*
X85813900Y-76644500D01*
X85813900Y-76644500D02*
X85598000Y-76962000D01*
X85598000Y-76962000D02*
X85585300Y-77406500D01*
X85585300Y-77406500D02*
X85788500Y-77762100D01*
X85788500Y-77762100D02*
X86080600Y-77939900D01*
X86080600Y-77939900D02*
X86398100Y-77990700D01*
X86398100Y-77990700D02*
X86804500Y-77889100D01*
X86804500Y-77889100D02*
X87058500Y-77546200D01*
X87058500Y-77546200D02*
X87147400Y-77368400D01*
X86360000Y-78486000D02*
X85090000Y-78486000D01*
X85090000Y-78486000D02*
X85090000Y-68834000D01*
X85090000Y-68834000D02*
X90170000Y-68834000D01*
X90170000Y-78486000D02*
X87630000Y-78486000D01*
X87630000Y-78486000D02*
X86360000Y-78486000D01*
X62230000Y-53340000D02*
X82550000Y-53340000D01*
X82550000Y-53340000D02*
X82550000Y-86360000D01*
X82550000Y-86360000D02*
X62230000Y-86360000D01*
X62230000Y-86360000D02*
X62230000Y-53340000D01*
X77470000Y-45720000D02*
X87630000Y-45720000D01*
X87630000Y-45720000D02*
X87630000Y-50800000D01*
X87630000Y-50800000D02*
X77470000Y-50800000D01*
X77470000Y-50800000D02*
X77470000Y-45720000D01*
X61412381Y-48998095D02*
X60412381Y-48998095D01*
X60412381Y-48617142D01*
X60460000Y-48521904D01*
X60507619Y-48474285D01*
X60602857Y-48426666D01*
X60745714Y-48426666D01*
X60840952Y-48474285D01*
X60888571Y-48521904D01*
X60936190Y-48617142D01*
X60936190Y-48998095D01*
X61412381Y-47474285D02*
X61412381Y-48045714D01*
X61412381Y-47760000D02*
X60412381Y-47760000D01*
X60555238Y-47855238D01*
X60650476Y-47950476D01*
X60698095Y-48045714D01*
X72286905Y-47442381D02*
X72286905Y-46442381D01*
X72667858Y-46442381D01*
X72763096Y-46490000D01*
X72810715Y-46537619D01*
X72858334Y-46632857D01*
X72858334Y-46775714D01*
X72810715Y-46870952D01*
X72763096Y-46918571D01*
X72667858Y-46966190D01*
X72286905Y-46966190D01*
X73239286Y-46537619D02*
X73286905Y-46490000D01*
X73382143Y-46442381D01*
X73620239Y-46442381D01*
X73715477Y-46490000D01*
X73763096Y-46537619D01*
X73810715Y-46632857D01*
X73810715Y-46728095D01*
X73763096Y-46870952D01*
X73191667Y-47442381D01*
X73810715Y-47442381D01*
X91892381Y-48998095D02*
X90892381Y-48998095D01*
X90892381Y-48617142D01*
X90940000Y-48521904D01*
X90987619Y-48474285D01*
X91082857Y-48426666D01*
X91225714Y-48426666D01*
X91320952Y-48474285D01*
X91368571Y-48521904D01*
X91416190Y-48617142D01*
X91416190Y-48998095D01*
X90892381Y-48093333D02*
X90892381Y-47474285D01*
X91273333Y-47807619D01*
X91273333Y-47664761D01*
X91320952Y-47569523D01*
X91368571Y-47521904D01*
X91463810Y-47474285D01*
X91701905Y-47474285D01*
X91797143Y-47521904D01*
X91844762Y-47569523D01*
X91892381Y-47664761D01*
X91892381Y-47950476D01*
X91844762Y-48045714D01*
X91797143Y-48093333D01*
X88939762Y-67762381D02*
X88606428Y-67286190D01*
X88368333Y-67762381D02*
X88368333Y-66762381D01*
X88749286Y-66762381D01*
X88844524Y-66810000D01*
X88892143Y-66857619D01*
X88939762Y-66952857D01*
X88939762Y-67095714D01*
X88892143Y-67190952D01*
X88844524Y-67238571D01*
X88749286Y-67286190D01*
X88368333Y-67286190D01*
X89225476Y-66762381D02*
X89558809Y-67762381D01*
X89892143Y-66762381D01*
X90749286Y-67762381D02*
X90177857Y-67762381D01*
X90463571Y-67762381D02*
X90463571Y-66762381D01*
X90368333Y-66905238D01*
X90273095Y-67000476D01*
X90177857Y-67048095D01*
X70993095Y-87082381D02*
X70993095Y-87891905D01*
X71040714Y-87987143D01*
X71088333Y-88034762D01*
X71183571Y-88082381D01*
X71374048Y-88082381D01*
X71469286Y-88034762D01*
X71516905Y-87987143D01*
X71564524Y-87891905D01*
X71564524Y-87082381D01*
X72564524Y-88082381D02*
X71993095Y-88082381D01*
X72278809Y-88082381D02*
X72278809Y-87082381D01*
X72183571Y-87225238D01*
X72088333Y-87320476D01*
X71993095Y-87368095D01*
X84351905Y-48712381D02*
X84351905Y-47712381D01*
X84732858Y-47712381D01*
X84828096Y-47760000D01*
X84875715Y-47807619D01*
X84923334Y-47902857D01*
X84923334Y-48045714D01*
X84875715Y-48140952D01*
X84828096Y-48188571D01*
X84732858Y-48236190D01*
X84351905Y-48236190D01*
X85780477Y-48045714D02*
X85780477Y-48712381D01*
X85542381Y-47664762D02*
X85304286Y-48379048D01*
X85923334Y-48379048D01*
M02*
