G04 #@! TF.FileFunction,Legend,Top*
%FSLAX46Y46*%
G04 Gerber Fmt 4.6, Leading zero omitted, Abs format (unit mm)*
G04 Created by KiCad (PCBNEW 4.0.3+e1-6302~38~ubuntu16.04.1-stable) date Tue Aug 16 18:58:03 2016*
%MOMM*%
%LPD*%
G01*
G04 APERTURE LIST*
%ADD10C,0.100000*%
%ADD11C,0.150000*%
G04 APERTURE END LIST*
D10*
D11*
X106680000Y-106680000D02*
X106680000Y-152400000D01*
X106680000Y-152400000D02*
X109220000Y-152400000D01*
X109220000Y-152400000D02*
X109220000Y-106680000D01*
X106400000Y-103860000D02*
X106400000Y-105410000D01*
X106680000Y-106680000D02*
X109220000Y-106680000D01*
X109500000Y-105410000D02*
X109500000Y-103860000D01*
X109500000Y-103860000D02*
X106400000Y-103860000D01*
X147320000Y-106680000D02*
X147320000Y-152400000D01*
X147320000Y-152400000D02*
X149860000Y-152400000D01*
X149860000Y-152400000D02*
X149860000Y-106680000D01*
X147040000Y-103860000D02*
X147040000Y-105410000D01*
X147320000Y-106680000D02*
X149860000Y-106680000D01*
X150140000Y-105410000D02*
X150140000Y-103860000D01*
X150140000Y-103860000D02*
X147040000Y-103860000D01*
X113502381Y-106148095D02*
X112502381Y-106148095D01*
X112502381Y-105767142D01*
X112550000Y-105671904D01*
X112597619Y-105624285D01*
X112692857Y-105576666D01*
X112835714Y-105576666D01*
X112930952Y-105624285D01*
X112978571Y-105671904D01*
X113026190Y-105767142D01*
X113026190Y-106148095D01*
X113502381Y-104624285D02*
X113502381Y-105195714D01*
X113502381Y-104910000D02*
X112502381Y-104910000D01*
X112645238Y-105005238D01*
X112740476Y-105100476D01*
X112788095Y-105195714D01*
X154142381Y-106148095D02*
X153142381Y-106148095D01*
X153142381Y-105767142D01*
X153190000Y-105671904D01*
X153237619Y-105624285D01*
X153332857Y-105576666D01*
X153475714Y-105576666D01*
X153570952Y-105624285D01*
X153618571Y-105671904D01*
X153666190Y-105767142D01*
X153666190Y-106148095D01*
X153237619Y-105195714D02*
X153190000Y-105148095D01*
X153142381Y-105052857D01*
X153142381Y-104814761D01*
X153190000Y-104719523D01*
X153237619Y-104671904D01*
X153332857Y-104624285D01*
X153428095Y-104624285D01*
X153570952Y-104671904D01*
X154142381Y-105243333D01*
X154142381Y-104624285D01*
M02*
