G04 #@! TF.FileFunction,Legend,Bot*
%FSLAX46Y46*%
G04 Gerber Fmt 4.6, Leading zero omitted, Abs format (unit mm)*
G04 Created by KiCad (PCBNEW 4.0.3+e1-6302~38~ubuntu16.04.1-stable) date Thu Aug 11 13:54:06 2016*
%MOMM*%
%LPD*%
G01*
G04 APERTURE LIST*
%ADD10C,0.100000*%
%ADD11C,0.150000*%
G04 APERTURE END LIST*
D10*
D11*
X129540000Y-106680000D02*
X129540000Y-152400000D01*
X129540000Y-152400000D02*
X132080000Y-152400000D01*
X132080000Y-152400000D02*
X132080000Y-106680000D01*
X129260000Y-103860000D02*
X129260000Y-105410000D01*
X129540000Y-106680000D02*
X132080000Y-106680000D01*
X132360000Y-105410000D02*
X132360000Y-103860000D01*
X132360000Y-103860000D02*
X129260000Y-103860000D01*
X149860000Y-106680000D02*
X149860000Y-152400000D01*
X149860000Y-152400000D02*
X152400000Y-152400000D01*
X152400000Y-152400000D02*
X152400000Y-106680000D01*
X149580000Y-103860000D02*
X149580000Y-105410000D01*
X149860000Y-106680000D02*
X152400000Y-106680000D01*
X152680000Y-105410000D02*
X152680000Y-103860000D01*
X152680000Y-103860000D02*
X149580000Y-103860000D01*
X131548095Y-100762381D02*
X131548095Y-99762381D01*
X131167142Y-99762381D01*
X131071904Y-99810000D01*
X131024285Y-99857619D01*
X130976666Y-99952857D01*
X130976666Y-100095714D01*
X131024285Y-100190952D01*
X131071904Y-100238571D01*
X131167142Y-100286190D01*
X131548095Y-100286190D01*
X130024285Y-100762381D02*
X130595714Y-100762381D01*
X130310000Y-100762381D02*
X130310000Y-99762381D01*
X130405238Y-99905238D01*
X130500476Y-100000476D01*
X130595714Y-100048095D01*
X151868095Y-100762381D02*
X151868095Y-99762381D01*
X151487142Y-99762381D01*
X151391904Y-99810000D01*
X151344285Y-99857619D01*
X151296666Y-99952857D01*
X151296666Y-100095714D01*
X151344285Y-100190952D01*
X151391904Y-100238571D01*
X151487142Y-100286190D01*
X151868095Y-100286190D01*
X150915714Y-99857619D02*
X150868095Y-99810000D01*
X150772857Y-99762381D01*
X150534761Y-99762381D01*
X150439523Y-99810000D01*
X150391904Y-99857619D01*
X150344285Y-99952857D01*
X150344285Y-100048095D01*
X150391904Y-100190952D01*
X150963333Y-100762381D01*
X150344285Y-100762381D01*
M02*
