G04 #@! TF.FileFunction,Copper,L2,Bot,Signal*
%FSLAX46Y46*%
G04 Gerber Fmt 4.6, Leading zero omitted, Abs format (unit mm)*
G04 Created by KiCad (PCBNEW 4.0.3+e1-6302~38~ubuntu16.04.1-stable) date Thu Aug 11 13:54:06 2016*
%MOMM*%
%LPD*%
G01*
G04 APERTURE LIST*
%ADD10C,0.100000*%
%ADD11R,1.300000X1.300000*%
%ADD12C,1.300000*%
%ADD13C,1.699260*%
%ADD14R,1.699260X1.699260*%
%ADD15R,2.032000X1.727200*%
%ADD16O,2.032000X1.727200*%
%ADD17C,1.998980*%
G04 APERTURE END LIST*
D10*
D11*
X144780000Y-107950000D03*
D12*
X144780000Y-105450000D03*
D13*
X134619480Y-119382540D03*
D14*
X144779480Y-119382540D03*
D15*
X130810000Y-105410000D03*
D16*
X130810000Y-107950000D03*
X130810000Y-110490000D03*
X130810000Y-113030000D03*
X130810000Y-115570000D03*
X130810000Y-118110000D03*
X130810000Y-120650000D03*
X130810000Y-123190000D03*
X130810000Y-125730000D03*
X130810000Y-128270000D03*
X130810000Y-130810000D03*
X130810000Y-133350000D03*
X130810000Y-135890000D03*
X130810000Y-138430000D03*
X130810000Y-140970000D03*
X130810000Y-143510000D03*
X130810000Y-146050000D03*
X130810000Y-148590000D03*
X130810000Y-151130000D03*
D15*
X151130000Y-105410000D03*
D16*
X151130000Y-107950000D03*
X151130000Y-110490000D03*
X151130000Y-113030000D03*
X151130000Y-115570000D03*
X151130000Y-118110000D03*
X151130000Y-120650000D03*
X151130000Y-123190000D03*
X151130000Y-125730000D03*
X151130000Y-128270000D03*
X151130000Y-130810000D03*
X151130000Y-133350000D03*
X151130000Y-135890000D03*
X151130000Y-138430000D03*
X151130000Y-140970000D03*
X151130000Y-143510000D03*
X151130000Y-146050000D03*
X151130000Y-148590000D03*
X151130000Y-151130000D03*
D17*
X137160000Y-115570000D03*
X137160000Y-105410000D03*
M02*
