G04 #@! TF.FileFunction,Legend,Top*
%FSLAX46Y46*%
G04 Gerber Fmt 4.6, Leading zero omitted, Abs format (unit mm)*
G04 Created by KiCad (PCBNEW 4.0.3+e1-6302~38~ubuntu16.04.1-stable) date Wed Aug 17 12:35:28 2016*
%MOMM*%
%LPD*%
G01*
G04 APERTURE LIST*
%ADD10C,0.100000*%
%ADD11C,0.250000*%
%ADD12C,0.300000*%
%ADD13C,0.150000*%
G04 APERTURE END LIST*
D10*
D11*
X153812857Y-150582381D02*
X154431905Y-150582381D01*
X154098571Y-150963333D01*
X154241429Y-150963333D01*
X154336667Y-151010952D01*
X154384286Y-151058571D01*
X154431905Y-151153810D01*
X154431905Y-151391905D01*
X154384286Y-151487143D01*
X154336667Y-151534762D01*
X154241429Y-151582381D01*
X153955714Y-151582381D01*
X153860476Y-151534762D01*
X153812857Y-151487143D01*
X154860476Y-151487143D02*
X154908095Y-151534762D01*
X154860476Y-151582381D01*
X154812857Y-151534762D01*
X154860476Y-151487143D01*
X154860476Y-151582381D01*
X155241428Y-150582381D02*
X155860476Y-150582381D01*
X155527142Y-150963333D01*
X155670000Y-150963333D01*
X155765238Y-151010952D01*
X155812857Y-151058571D01*
X155860476Y-151153810D01*
X155860476Y-151391905D01*
X155812857Y-151487143D01*
X155765238Y-151534762D01*
X155670000Y-151582381D01*
X155384285Y-151582381D01*
X155289047Y-151534762D01*
X155241428Y-151487143D01*
X156146190Y-150582381D02*
X156479523Y-151582381D01*
X156812857Y-150582381D01*
D12*
D11*
X153654286Y-148661429D02*
X154416191Y-148661429D01*
X155368572Y-148042381D02*
X154892381Y-148042381D01*
X154844762Y-148518571D01*
X154892381Y-148470952D01*
X154987619Y-148423333D01*
X155225715Y-148423333D01*
X155320953Y-148470952D01*
X155368572Y-148518571D01*
X155416191Y-148613810D01*
X155416191Y-148851905D01*
X155368572Y-148947143D01*
X155320953Y-148994762D01*
X155225715Y-149042381D01*
X154987619Y-149042381D01*
X154892381Y-148994762D01*
X154844762Y-148947143D01*
X155701905Y-148042381D02*
X156035238Y-149042381D01*
X156368572Y-148042381D01*
D12*
D11*
X153908095Y-138882381D02*
X153908095Y-137882381D01*
X154289048Y-137882381D01*
X154384286Y-137930000D01*
X154431905Y-137977619D01*
X154479524Y-138072857D01*
X154479524Y-138215714D01*
X154431905Y-138310952D01*
X154384286Y-138358571D01*
X154289048Y-138406190D01*
X153908095Y-138406190D01*
X154812857Y-137882381D02*
X155050952Y-138882381D01*
X155241429Y-138168095D01*
X155431905Y-138882381D01*
X155670000Y-137882381D01*
X156050952Y-138882381D02*
X156050952Y-137882381D01*
X156384286Y-138596667D01*
X156717619Y-137882381D01*
X156717619Y-138882381D01*
D12*
D11*
X154241429Y-145978571D02*
X154384286Y-146026190D01*
X154431905Y-146073810D01*
X154479524Y-146169048D01*
X154479524Y-146311905D01*
X154431905Y-146407143D01*
X154384286Y-146454762D01*
X154289048Y-146502381D01*
X153908095Y-146502381D01*
X153908095Y-145502381D01*
X154241429Y-145502381D01*
X154336667Y-145550000D01*
X154384286Y-145597619D01*
X154431905Y-145692857D01*
X154431905Y-145788095D01*
X154384286Y-145883333D01*
X154336667Y-145930952D01*
X154241429Y-145978571D01*
X153908095Y-145978571D01*
X154860476Y-145597619D02*
X154908095Y-145550000D01*
X155003333Y-145502381D01*
X155241429Y-145502381D01*
X155336667Y-145550000D01*
X155384286Y-145597619D01*
X155431905Y-145692857D01*
X155431905Y-145788095D01*
X155384286Y-145930952D01*
X154812857Y-146502381D01*
X155431905Y-146502381D01*
D12*
D11*
X154241429Y-143438571D02*
X154384286Y-143486190D01*
X154431905Y-143533810D01*
X154479524Y-143629048D01*
X154479524Y-143771905D01*
X154431905Y-143867143D01*
X154384286Y-143914762D01*
X154289048Y-143962381D01*
X153908095Y-143962381D01*
X153908095Y-142962381D01*
X154241429Y-142962381D01*
X154336667Y-143010000D01*
X154384286Y-143057619D01*
X154431905Y-143152857D01*
X154431905Y-143248095D01*
X154384286Y-143343333D01*
X154336667Y-143390952D01*
X154241429Y-143438571D01*
X153908095Y-143438571D01*
X155431905Y-143962381D02*
X154860476Y-143962381D01*
X155146190Y-143962381D02*
X155146190Y-142962381D01*
X155050952Y-143105238D01*
X154955714Y-143200476D01*
X154860476Y-143248095D01*
D12*
D11*
X153908095Y-140898571D02*
X154241429Y-140898571D01*
X154384286Y-141422381D02*
X153908095Y-141422381D01*
X153908095Y-140422381D01*
X154384286Y-140422381D01*
X154812857Y-141422381D02*
X154812857Y-140422381D01*
X155384286Y-141422381D01*
X155384286Y-140422381D01*
X156431905Y-141327143D02*
X156384286Y-141374762D01*
X156241429Y-141422381D01*
X156146191Y-141422381D01*
X156003333Y-141374762D01*
X155908095Y-141279524D01*
X155860476Y-141184286D01*
X155812857Y-140993810D01*
X155812857Y-140850952D01*
X155860476Y-140660476D01*
X155908095Y-140565238D01*
X156003333Y-140470000D01*
X156146191Y-140422381D01*
X156241429Y-140422381D01*
X156384286Y-140470000D01*
X156431905Y-140517619D01*
D12*
D11*
X153765238Y-135342381D02*
X154336667Y-135342381D01*
X154050952Y-136342381D02*
X154050952Y-135342381D01*
X154860476Y-135342381D02*
X155050953Y-135342381D01*
X155146191Y-135390000D01*
X155241429Y-135485238D01*
X155289048Y-135675714D01*
X155289048Y-136009048D01*
X155241429Y-136199524D01*
X155146191Y-136294762D01*
X155050953Y-136342381D01*
X154860476Y-136342381D01*
X154765238Y-136294762D01*
X154670000Y-136199524D01*
X154622381Y-136009048D01*
X154622381Y-135675714D01*
X154670000Y-135485238D01*
X154765238Y-135390000D01*
X154860476Y-135342381D01*
X155717619Y-136342381D02*
X155717619Y-135342381D01*
X156098572Y-135342381D01*
X156193810Y-135390000D01*
X156241429Y-135437619D01*
X156289048Y-135532857D01*
X156289048Y-135675714D01*
X156241429Y-135770952D01*
X156193810Y-135818571D01*
X156098572Y-135866190D01*
X155717619Y-135866190D01*
X157336667Y-135342381D02*
X157908096Y-135342381D01*
X157622381Y-136342381D02*
X157622381Y-135342381D01*
X158812858Y-136342381D02*
X158479524Y-135866190D01*
X158241429Y-136342381D02*
X158241429Y-135342381D01*
X158622382Y-135342381D01*
X158717620Y-135390000D01*
X158765239Y-135437619D01*
X158812858Y-135532857D01*
X158812858Y-135675714D01*
X158765239Y-135770952D01*
X158717620Y-135818571D01*
X158622382Y-135866190D01*
X158241429Y-135866190D01*
D12*
D11*
X154431905Y-133802381D02*
X153860476Y-133802381D01*
X154146190Y-133802381D02*
X154146190Y-132802381D01*
X154050952Y-132945238D01*
X153955714Y-133040476D01*
X153860476Y-133088095D01*
X155003333Y-133230952D02*
X154908095Y-133183333D01*
X154860476Y-133135714D01*
X154812857Y-133040476D01*
X154812857Y-132992857D01*
X154860476Y-132897619D01*
X154908095Y-132850000D01*
X155003333Y-132802381D01*
X155193810Y-132802381D01*
X155289048Y-132850000D01*
X155336667Y-132897619D01*
X155384286Y-132992857D01*
X155384286Y-133040476D01*
X155336667Y-133135714D01*
X155289048Y-133183333D01*
X155193810Y-133230952D01*
X155003333Y-133230952D01*
X154908095Y-133278571D01*
X154860476Y-133326190D01*
X154812857Y-133421429D01*
X154812857Y-133611905D01*
X154860476Y-133707143D01*
X154908095Y-133754762D01*
X155003333Y-133802381D01*
X155193810Y-133802381D01*
X155289048Y-133754762D01*
X155336667Y-133707143D01*
X155384286Y-133611905D01*
X155384286Y-133421429D01*
X155336667Y-133326190D01*
X155289048Y-133278571D01*
X155193810Y-133230952D01*
X155670000Y-132802381D02*
X156003333Y-133802381D01*
X156336667Y-132802381D01*
D12*
D11*
X153908095Y-131262381D02*
X153908095Y-130262381D01*
X154289048Y-130262381D01*
X154384286Y-130310000D01*
X154431905Y-130357619D01*
X154479524Y-130452857D01*
X154479524Y-130595714D01*
X154431905Y-130690952D01*
X154384286Y-130738571D01*
X154289048Y-130786190D01*
X153908095Y-130786190D01*
X154908095Y-130262381D02*
X154908095Y-131071905D01*
X154955714Y-131167143D01*
X155003333Y-131214762D01*
X155098571Y-131262381D01*
X155289048Y-131262381D01*
X155384286Y-131214762D01*
X155431905Y-131167143D01*
X155479524Y-131071905D01*
X155479524Y-130262381D01*
X156431905Y-131262381D02*
X155955714Y-131262381D01*
X155955714Y-130262381D01*
X158098572Y-131262381D02*
X157765238Y-130786190D01*
X157527143Y-131262381D02*
X157527143Y-130262381D01*
X157908096Y-130262381D01*
X158003334Y-130310000D01*
X158050953Y-130357619D01*
X158098572Y-130452857D01*
X158098572Y-130595714D01*
X158050953Y-130690952D01*
X158003334Y-130738571D01*
X157908096Y-130786190D01*
X157527143Y-130786190D01*
X158527143Y-131262381D02*
X158527143Y-130262381D01*
X158908096Y-130262381D01*
X159003334Y-130310000D01*
X159050953Y-130357619D01*
X159098572Y-130452857D01*
X159098572Y-130595714D01*
X159050953Y-130690952D01*
X159003334Y-130738571D01*
X158908096Y-130786190D01*
X158527143Y-130786190D01*
D12*
D11*
X153765238Y-127722381D02*
X154336667Y-127722381D01*
X154050952Y-128722381D02*
X154050952Y-127722381D01*
X154670000Y-128722381D02*
X154670000Y-127722381D01*
X155717619Y-128722381D02*
X155384285Y-128246190D01*
X155146190Y-128722381D02*
X155146190Y-127722381D01*
X155527143Y-127722381D01*
X155622381Y-127770000D01*
X155670000Y-127817619D01*
X155717619Y-127912857D01*
X155717619Y-128055714D01*
X155670000Y-128150952D01*
X155622381Y-128198571D01*
X155527143Y-128246190D01*
X155146190Y-128246190D01*
X157098571Y-127722381D02*
X157289048Y-127722381D01*
X157384286Y-127770000D01*
X157479524Y-127865238D01*
X157527143Y-128055714D01*
X157527143Y-128389048D01*
X157479524Y-128579524D01*
X157384286Y-128674762D01*
X157289048Y-128722381D01*
X157098571Y-128722381D01*
X157003333Y-128674762D01*
X156908095Y-128579524D01*
X156860476Y-128389048D01*
X156860476Y-128055714D01*
X156908095Y-127865238D01*
X157003333Y-127770000D01*
X157098571Y-127722381D01*
X158289048Y-128198571D02*
X157955714Y-128198571D01*
X157955714Y-128722381D02*
X157955714Y-127722381D01*
X158431905Y-127722381D01*
X159146191Y-128198571D02*
X158812857Y-128198571D01*
X158812857Y-128722381D02*
X158812857Y-127722381D01*
X159289048Y-127722381D01*
D12*
D11*
X153765238Y-125182381D02*
X154336667Y-125182381D01*
X154050952Y-126182381D02*
X154050952Y-125182381D01*
X154670000Y-126182381D02*
X154670000Y-125182381D01*
X155717619Y-126182381D02*
X155384285Y-125706190D01*
X155146190Y-126182381D02*
X155146190Y-125182381D01*
X155527143Y-125182381D01*
X155622381Y-125230000D01*
X155670000Y-125277619D01*
X155717619Y-125372857D01*
X155717619Y-125515714D01*
X155670000Y-125610952D01*
X155622381Y-125658571D01*
X155527143Y-125706190D01*
X155146190Y-125706190D01*
X157098571Y-125182381D02*
X157289048Y-125182381D01*
X157384286Y-125230000D01*
X157479524Y-125325238D01*
X157527143Y-125515714D01*
X157527143Y-125849048D01*
X157479524Y-126039524D01*
X157384286Y-126134762D01*
X157289048Y-126182381D01*
X157098571Y-126182381D01*
X157003333Y-126134762D01*
X156908095Y-126039524D01*
X156860476Y-125849048D01*
X156860476Y-125515714D01*
X156908095Y-125325238D01*
X157003333Y-125230000D01*
X157098571Y-125182381D01*
X157955714Y-126182381D02*
X157955714Y-125182381D01*
X158527143Y-126182381D01*
X158527143Y-125182381D01*
D12*
D11*
X153908095Y-123261429D02*
X154670000Y-123261429D01*
X155670000Y-123642381D02*
X155098571Y-123642381D01*
X155384285Y-123642381D02*
X155384285Y-122642381D01*
X155289047Y-122785238D01*
X155193809Y-122880476D01*
X155098571Y-122928095D01*
X156050952Y-122737619D02*
X156098571Y-122690000D01*
X156193809Y-122642381D01*
X156431905Y-122642381D01*
X156527143Y-122690000D01*
X156574762Y-122737619D01*
X156622381Y-122832857D01*
X156622381Y-122928095D01*
X156574762Y-123070952D01*
X156003333Y-123642381D01*
X156622381Y-123642381D01*
X156908095Y-122642381D02*
X157241428Y-123642381D01*
X157574762Y-122642381D01*
D12*
D11*
X154479524Y-121102381D02*
X154146190Y-120626190D01*
X153908095Y-121102381D02*
X153908095Y-120102381D01*
X154289048Y-120102381D01*
X154384286Y-120150000D01*
X154431905Y-120197619D01*
X154479524Y-120292857D01*
X154479524Y-120435714D01*
X154431905Y-120530952D01*
X154384286Y-120578571D01*
X154289048Y-120626190D01*
X153908095Y-120626190D01*
X154860476Y-120816667D02*
X155336667Y-120816667D01*
X154765238Y-121102381D02*
X155098571Y-120102381D01*
X155431905Y-121102381D01*
X155765238Y-121102381D02*
X155765238Y-120102381D01*
X156098572Y-120816667D01*
X156431905Y-120102381D01*
X156431905Y-121102381D01*
X156908095Y-121102381D02*
X156908095Y-120102381D01*
X157289048Y-120102381D01*
X157384286Y-120150000D01*
X157431905Y-120197619D01*
X157479524Y-120292857D01*
X157479524Y-120435714D01*
X157431905Y-120530952D01*
X157384286Y-120578571D01*
X157289048Y-120626190D01*
X156908095Y-120626190D01*
D12*
D11*
X154431905Y-118562381D02*
X153860476Y-118562381D01*
X154146190Y-118562381D02*
X154146190Y-117562381D01*
X154050952Y-117705238D01*
X153955714Y-117800476D01*
X153860476Y-117848095D01*
X154812857Y-117657619D02*
X154860476Y-117610000D01*
X154955714Y-117562381D01*
X155193810Y-117562381D01*
X155289048Y-117610000D01*
X155336667Y-117657619D01*
X155384286Y-117752857D01*
X155384286Y-117848095D01*
X155336667Y-117990952D01*
X154765238Y-118562381D01*
X155384286Y-118562381D01*
X155670000Y-117562381D02*
X156003333Y-118562381D01*
X156336667Y-117562381D01*
D12*
D11*
X153908095Y-115498571D02*
X154241429Y-115498571D01*
X154384286Y-116022381D02*
X153908095Y-116022381D01*
X153908095Y-115022381D01*
X154384286Y-115022381D01*
X154812857Y-115355714D02*
X154812857Y-116022381D01*
X154812857Y-115450952D02*
X154860476Y-115403333D01*
X154955714Y-115355714D01*
X155098572Y-115355714D01*
X155193810Y-115403333D01*
X155241429Y-115498571D01*
X155241429Y-116022381D01*
X155622381Y-115355714D02*
X155860476Y-116022381D01*
X156098572Y-115355714D01*
D12*
D11*
X154241429Y-112958571D02*
X153908095Y-112958571D01*
X153908095Y-113482381D02*
X153908095Y-112482381D01*
X154384286Y-112482381D01*
X154765238Y-113482381D02*
X154765238Y-112482381D01*
X155717619Y-113482381D02*
X155241428Y-113482381D01*
X155241428Y-112482381D01*
X155908095Y-112482381D02*
X156479524Y-112482381D01*
X156193809Y-113482381D02*
X156193809Y-112482381D01*
X157431905Y-112482381D02*
X158003334Y-112482381D01*
X157717619Y-113482381D02*
X157717619Y-112482381D01*
X158860477Y-112530000D02*
X158765239Y-112482381D01*
X158622382Y-112482381D01*
X158479524Y-112530000D01*
X158384286Y-112625238D01*
X158336667Y-112720476D01*
X158289048Y-112910952D01*
X158289048Y-113053810D01*
X158336667Y-113244286D01*
X158384286Y-113339524D01*
X158479524Y-113434762D01*
X158622382Y-113482381D01*
X158717620Y-113482381D01*
X158860477Y-113434762D01*
X158908096Y-113387143D01*
X158908096Y-113053810D01*
X158717620Y-113053810D01*
X159908096Y-113387143D02*
X159860477Y-113434762D01*
X159717620Y-113482381D01*
X159622382Y-113482381D01*
X159479524Y-113434762D01*
X159384286Y-113339524D01*
X159336667Y-113244286D01*
X159289048Y-113053810D01*
X159289048Y-112910952D01*
X159336667Y-112720476D01*
X159384286Y-112625238D01*
X159479524Y-112530000D01*
X159622382Y-112482381D01*
X159717620Y-112482381D01*
X159860477Y-112530000D01*
X159908096Y-112577619D01*
D12*
D11*
X153765238Y-109942381D02*
X154336667Y-109942381D01*
X154050952Y-110942381D02*
X154050952Y-109942381D01*
X155193810Y-109990000D02*
X155098572Y-109942381D01*
X154955715Y-109942381D01*
X154812857Y-109990000D01*
X154717619Y-110085238D01*
X154670000Y-110180476D01*
X154622381Y-110370952D01*
X154622381Y-110513810D01*
X154670000Y-110704286D01*
X154717619Y-110799524D01*
X154812857Y-110894762D01*
X154955715Y-110942381D01*
X155050953Y-110942381D01*
X155193810Y-110894762D01*
X155241429Y-110847143D01*
X155241429Y-110513810D01*
X155050953Y-110513810D01*
X156241429Y-110847143D02*
X156193810Y-110894762D01*
X156050953Y-110942381D01*
X155955715Y-110942381D01*
X155812857Y-110894762D01*
X155717619Y-110799524D01*
X155670000Y-110704286D01*
X155622381Y-110513810D01*
X155622381Y-110370952D01*
X155670000Y-110180476D01*
X155717619Y-110085238D01*
X155812857Y-109990000D01*
X155955715Y-109942381D01*
X156050953Y-109942381D01*
X156193810Y-109990000D01*
X156241429Y-110037619D01*
X157622381Y-109942381D02*
X157812858Y-109942381D01*
X157908096Y-109990000D01*
X158003334Y-110085238D01*
X158050953Y-110275714D01*
X158050953Y-110609048D01*
X158003334Y-110799524D01*
X157908096Y-110894762D01*
X157812858Y-110942381D01*
X157622381Y-110942381D01*
X157527143Y-110894762D01*
X157431905Y-110799524D01*
X157384286Y-110609048D01*
X157384286Y-110275714D01*
X157431905Y-110085238D01*
X157527143Y-109990000D01*
X157622381Y-109942381D01*
X158479524Y-109942381D02*
X158479524Y-110751905D01*
X158527143Y-110847143D01*
X158574762Y-110894762D01*
X158670000Y-110942381D01*
X158860477Y-110942381D01*
X158955715Y-110894762D01*
X159003334Y-110847143D01*
X159050953Y-110751905D01*
X159050953Y-109942381D01*
X159384286Y-109942381D02*
X159955715Y-109942381D01*
X159670000Y-110942381D02*
X159670000Y-109942381D01*
D12*
D11*
X154384286Y-107402381D02*
X153908095Y-107402381D01*
X153860476Y-107878571D01*
X153908095Y-107830952D01*
X154003333Y-107783333D01*
X154241429Y-107783333D01*
X154336667Y-107830952D01*
X154384286Y-107878571D01*
X154431905Y-107973810D01*
X154431905Y-108211905D01*
X154384286Y-108307143D01*
X154336667Y-108354762D01*
X154241429Y-108402381D01*
X154003333Y-108402381D01*
X153908095Y-108354762D01*
X153860476Y-108307143D01*
X154717619Y-107402381D02*
X155050952Y-108402381D01*
X155384286Y-107402381D01*
D12*
D11*
X154431905Y-104910000D02*
X154336667Y-104862381D01*
X154193810Y-104862381D01*
X154050952Y-104910000D01*
X153955714Y-105005238D01*
X153908095Y-105100476D01*
X153860476Y-105290952D01*
X153860476Y-105433810D01*
X153908095Y-105624286D01*
X153955714Y-105719524D01*
X154050952Y-105814762D01*
X154193810Y-105862381D01*
X154289048Y-105862381D01*
X154431905Y-105814762D01*
X154479524Y-105767143D01*
X154479524Y-105433810D01*
X154289048Y-105433810D01*
X154908095Y-105862381D02*
X154908095Y-104862381D01*
X155479524Y-105862381D01*
X155479524Y-104862381D01*
X155955714Y-105862381D02*
X155955714Y-104862381D01*
X156193809Y-104862381D01*
X156336667Y-104910000D01*
X156431905Y-105005238D01*
X156479524Y-105100476D01*
X156527143Y-105290952D01*
X156527143Y-105433810D01*
X156479524Y-105624286D01*
X156431905Y-105719524D01*
X156336667Y-105814762D01*
X156193809Y-105862381D01*
X155955714Y-105862381D01*
D12*
D13*
X143530000Y-108200000D02*
X143530000Y-105200000D01*
X146030000Y-105200000D02*
X146030000Y-108200000D01*
X137413480Y-119382540D02*
X136016480Y-119382540D01*
X141858480Y-119382540D02*
X143382480Y-119382540D01*
X141477480Y-120144540D02*
X141477480Y-118620540D01*
X141731480Y-120144540D02*
X141731480Y-118620540D01*
X141985480Y-119382540D02*
X141985480Y-118620540D01*
X141985480Y-118620540D02*
X137413480Y-118620540D01*
X137413480Y-118620540D02*
X137413480Y-120144540D01*
X137413480Y-120144540D02*
X141985480Y-120144540D01*
X141985480Y-120144540D02*
X141985480Y-119382540D01*
X135890000Y-113030000D02*
X135890000Y-107950000D01*
X135890000Y-107950000D02*
X138430000Y-107950000D01*
X138430000Y-107950000D02*
X138430000Y-113030000D01*
X138430000Y-113030000D02*
X135890000Y-113030000D01*
X137160000Y-113030000D02*
X137160000Y-114300000D01*
X137160000Y-107950000D02*
X137160000Y-106680000D01*
X142637143Y-106866666D02*
X142684762Y-106914285D01*
X142732381Y-107057142D01*
X142732381Y-107152380D01*
X142684762Y-107295238D01*
X142589524Y-107390476D01*
X142494286Y-107438095D01*
X142303810Y-107485714D01*
X142160952Y-107485714D01*
X141970476Y-107438095D01*
X141875238Y-107390476D01*
X141780000Y-107295238D01*
X141732381Y-107152380D01*
X141732381Y-107057142D01*
X141780000Y-106914285D01*
X141827619Y-106866666D01*
X142732381Y-105914285D02*
X142732381Y-106485714D01*
X142732381Y-106200000D02*
X141732381Y-106200000D01*
X141875238Y-106295238D01*
X141970476Y-106390476D01*
X142018095Y-106485714D01*
X138611385Y-117294921D02*
X138611385Y-116294921D01*
X138849480Y-116294921D01*
X138992338Y-116342540D01*
X139087576Y-116437778D01*
X139135195Y-116533016D01*
X139182814Y-116723492D01*
X139182814Y-116866350D01*
X139135195Y-117056826D01*
X139087576Y-117152064D01*
X138992338Y-117247302D01*
X138849480Y-117294921D01*
X138611385Y-117294921D01*
X140135195Y-117294921D02*
X139563766Y-117294921D01*
X139849480Y-117294921D02*
X139849480Y-116294921D01*
X139754242Y-116437778D01*
X139659004Y-116533016D01*
X139563766Y-116580635D01*
X134112261Y-110407746D02*
X133636070Y-110741080D01*
X134112261Y-110979175D02*
X133112261Y-110979175D01*
X133112261Y-110598222D01*
X133159880Y-110502984D01*
X133207499Y-110455365D01*
X133302737Y-110407746D01*
X133445594Y-110407746D01*
X133540832Y-110455365D01*
X133588451Y-110502984D01*
X133636070Y-110598222D01*
X133636070Y-110979175D01*
X134112261Y-109455365D02*
X134112261Y-110026794D01*
X134112261Y-109741080D02*
X133112261Y-109741080D01*
X133255118Y-109836318D01*
X133350356Y-109931556D01*
X133397975Y-110026794D01*
M02*
