G04 #@! TF.FileFunction,Copper,L1,Top,Signal*
%FSLAX46Y46*%
G04 Gerber Fmt 4.6, Leading zero omitted, Abs format (unit mm)*
G04 Created by KiCad (PCBNEW 4.0.3+e1-6302~38~ubuntu16.04.1-stable) date Thu Aug 11 18:03:17 2016*
%MOMM*%
%LPD*%
G01*
G04 APERTURE LIST*
%ADD10C,0.100000*%
%ADD11R,1.400000X1.400000*%
%ADD12C,1.400000*%
%ADD13R,1.905000X1.905000*%
%ADD14C,1.905000*%
%ADD15R,2.032000X1.727200*%
%ADD16O,2.032000X1.727200*%
%ADD17C,1.998980*%
%ADD18C,0.250000*%
%ADD19C,0.254000*%
G04 APERTURE END LIST*
D10*
D11*
X90170000Y-90170000D03*
D12*
X95170000Y-90170000D03*
D13*
X90170000Y-97790000D03*
D14*
X95250000Y-97790000D03*
D15*
X100330000Y-63500000D03*
D16*
X100330000Y-66040000D03*
X100330000Y-68580000D03*
X100330000Y-71120000D03*
X100330000Y-73660000D03*
X100330000Y-76200000D03*
X100330000Y-78740000D03*
X100330000Y-81280000D03*
X100330000Y-83820000D03*
X100330000Y-86360000D03*
X100330000Y-88900000D03*
X100330000Y-91440000D03*
X100330000Y-93980000D03*
X100330000Y-96520000D03*
X100330000Y-99060000D03*
X100330000Y-101600000D03*
X100330000Y-104140000D03*
X100330000Y-106680000D03*
X100330000Y-109220000D03*
D15*
X85090000Y-63500000D03*
D16*
X85090000Y-66040000D03*
X85090000Y-68580000D03*
X85090000Y-71120000D03*
X85090000Y-73660000D03*
X85090000Y-76200000D03*
X85090000Y-78740000D03*
X85090000Y-81280000D03*
X85090000Y-83820000D03*
X85090000Y-86360000D03*
X85090000Y-88900000D03*
X85090000Y-91440000D03*
X85090000Y-93980000D03*
X85090000Y-96520000D03*
X85090000Y-99060000D03*
X85090000Y-101600000D03*
X85090000Y-104140000D03*
X85090000Y-106680000D03*
X85090000Y-109220000D03*
D17*
X92710000Y-73660000D03*
X92710000Y-63500000D03*
D18*
X90170000Y-90170000D02*
X91440000Y-90170000D01*
X95250000Y-93980000D02*
X95250000Y-97790000D01*
X91440000Y-90170000D02*
X95250000Y-93980000D01*
X100330000Y-68580000D02*
X99060000Y-68580000D01*
X95170000Y-72470000D02*
X95170000Y-90170000D01*
X99060000Y-68580000D02*
X95170000Y-72470000D01*
X90170000Y-97790000D02*
X90170000Y-96520000D01*
X87630000Y-76200000D02*
X92710000Y-73660000D01*
X87630000Y-93980000D02*
X87630000Y-76200000D01*
X90170000Y-96520000D02*
X87630000Y-93980000D01*
X85090000Y-71120000D02*
X92710000Y-73660000D01*
D19*
G36*
X102160000Y-111050000D02*
X83260000Y-111050000D01*
X83260000Y-66040000D01*
X83406655Y-66040000D01*
X83520729Y-66613489D01*
X83845585Y-67099670D01*
X84160366Y-67310000D01*
X83845585Y-67520330D01*
X83520729Y-68006511D01*
X83406655Y-68580000D01*
X83520729Y-69153489D01*
X83845585Y-69639670D01*
X84160366Y-69850000D01*
X83845585Y-70060330D01*
X83520729Y-70546511D01*
X83406655Y-71120000D01*
X83520729Y-71693489D01*
X83845585Y-72179670D01*
X84160366Y-72390000D01*
X83845585Y-72600330D01*
X83520729Y-73086511D01*
X83406655Y-73660000D01*
X83520729Y-74233489D01*
X83845585Y-74719670D01*
X84160366Y-74930000D01*
X83845585Y-75140330D01*
X83520729Y-75626511D01*
X83406655Y-76200000D01*
X83520729Y-76773489D01*
X83845585Y-77259670D01*
X84160366Y-77470000D01*
X83845585Y-77680330D01*
X83520729Y-78166511D01*
X83406655Y-78740000D01*
X83520729Y-79313489D01*
X83845585Y-79799670D01*
X84160366Y-80010000D01*
X83845585Y-80220330D01*
X83520729Y-80706511D01*
X83406655Y-81280000D01*
X83520729Y-81853489D01*
X83845585Y-82339670D01*
X84160366Y-82550000D01*
X83845585Y-82760330D01*
X83520729Y-83246511D01*
X83406655Y-83820000D01*
X83520729Y-84393489D01*
X83845585Y-84879670D01*
X84160366Y-85090000D01*
X83845585Y-85300330D01*
X83520729Y-85786511D01*
X83406655Y-86360000D01*
X83520729Y-86933489D01*
X83845585Y-87419670D01*
X84160366Y-87630000D01*
X83845585Y-87840330D01*
X83520729Y-88326511D01*
X83406655Y-88900000D01*
X83520729Y-89473489D01*
X83845585Y-89959670D01*
X84160366Y-90170000D01*
X83845585Y-90380330D01*
X83520729Y-90866511D01*
X83406655Y-91440000D01*
X83520729Y-92013489D01*
X83845585Y-92499670D01*
X84160366Y-92710000D01*
X83845585Y-92920330D01*
X83520729Y-93406511D01*
X83406655Y-93980000D01*
X83520729Y-94553489D01*
X83845585Y-95039670D01*
X84160366Y-95250000D01*
X83845585Y-95460330D01*
X83520729Y-95946511D01*
X83406655Y-96520000D01*
X83520729Y-97093489D01*
X83845585Y-97579670D01*
X84160366Y-97790000D01*
X83845585Y-98000330D01*
X83520729Y-98486511D01*
X83406655Y-99060000D01*
X83520729Y-99633489D01*
X83845585Y-100119670D01*
X84160366Y-100330000D01*
X83845585Y-100540330D01*
X83520729Y-101026511D01*
X83406655Y-101600000D01*
X83520729Y-102173489D01*
X83845585Y-102659670D01*
X84160366Y-102870000D01*
X83845585Y-103080330D01*
X83520729Y-103566511D01*
X83406655Y-104140000D01*
X83520729Y-104713489D01*
X83845585Y-105199670D01*
X84160366Y-105410000D01*
X83845585Y-105620330D01*
X83520729Y-106106511D01*
X83406655Y-106680000D01*
X83520729Y-107253489D01*
X83845585Y-107739670D01*
X84160366Y-107950000D01*
X83845585Y-108160330D01*
X83520729Y-108646511D01*
X83406655Y-109220000D01*
X83520729Y-109793489D01*
X83845585Y-110279670D01*
X84331766Y-110604526D01*
X84905255Y-110718600D01*
X85274745Y-110718600D01*
X85848234Y-110604526D01*
X86334415Y-110279670D01*
X86659271Y-109793489D01*
X86773345Y-109220000D01*
X86659271Y-108646511D01*
X86334415Y-108160330D01*
X86019634Y-107950000D01*
X86334415Y-107739670D01*
X86659271Y-107253489D01*
X86773345Y-106680000D01*
X86659271Y-106106511D01*
X86334415Y-105620330D01*
X86019634Y-105410000D01*
X86334415Y-105199670D01*
X86659271Y-104713489D01*
X86773345Y-104140000D01*
X86659271Y-103566511D01*
X86334415Y-103080330D01*
X86019634Y-102870000D01*
X86334415Y-102659670D01*
X86659271Y-102173489D01*
X86773345Y-101600000D01*
X86659271Y-101026511D01*
X86334415Y-100540330D01*
X86019634Y-100330000D01*
X86334415Y-100119670D01*
X86659271Y-99633489D01*
X86773345Y-99060000D01*
X86659271Y-98486511D01*
X86334415Y-98000330D01*
X86019634Y-97790000D01*
X86334415Y-97579670D01*
X86659271Y-97093489D01*
X86773345Y-96520000D01*
X86659271Y-95946511D01*
X86334415Y-95460330D01*
X86019634Y-95250000D01*
X86334415Y-95039670D01*
X86659271Y-94553489D01*
X86773345Y-93980000D01*
X86659271Y-93406511D01*
X86334415Y-92920330D01*
X86019634Y-92710000D01*
X86334415Y-92499670D01*
X86659271Y-92013489D01*
X86773345Y-91440000D01*
X86659271Y-90866511D01*
X86334415Y-90380330D01*
X86019634Y-90170000D01*
X86334415Y-89959670D01*
X86659271Y-89473489D01*
X86773345Y-88900000D01*
X86659271Y-88326511D01*
X86334415Y-87840330D01*
X86019634Y-87630000D01*
X86334415Y-87419670D01*
X86659271Y-86933489D01*
X86773345Y-86360000D01*
X86659271Y-85786511D01*
X86334415Y-85300330D01*
X86019634Y-85090000D01*
X86334415Y-84879670D01*
X86659271Y-84393489D01*
X86773345Y-83820000D01*
X86659271Y-83246511D01*
X86334415Y-82760330D01*
X86019634Y-82550000D01*
X86334415Y-82339670D01*
X86659271Y-81853489D01*
X86773345Y-81280000D01*
X86659271Y-80706511D01*
X86334415Y-80220330D01*
X86019634Y-80010000D01*
X86334415Y-79799670D01*
X86659271Y-79313489D01*
X86773345Y-78740000D01*
X86659271Y-78166511D01*
X86334415Y-77680330D01*
X86019634Y-77470000D01*
X86334415Y-77259670D01*
X86659271Y-76773489D01*
X86773345Y-76200000D01*
X86659271Y-75626511D01*
X86334415Y-75140330D01*
X86019634Y-74930000D01*
X86334415Y-74719670D01*
X86659271Y-74233489D01*
X86773345Y-73660000D01*
X86659271Y-73086511D01*
X86334415Y-72600330D01*
X86019634Y-72390000D01*
X86178406Y-72283912D01*
X90729021Y-73800784D01*
X87290118Y-75520235D01*
X87193884Y-75594923D01*
X87092599Y-75662599D01*
X87077427Y-75685306D01*
X87055856Y-75702047D01*
X86995531Y-75807872D01*
X86927852Y-75909161D01*
X86922525Y-75935943D01*
X86909001Y-75959667D01*
X86893766Y-76080520D01*
X86870000Y-76200000D01*
X86870000Y-93980000D01*
X86927852Y-94270839D01*
X87092599Y-94517401D01*
X88877134Y-96301936D01*
X88766059Y-96373410D01*
X88621069Y-96585610D01*
X88570060Y-96837500D01*
X88570060Y-98742500D01*
X88614338Y-98977817D01*
X88753410Y-99193941D01*
X88965610Y-99338931D01*
X89217500Y-99389940D01*
X91122500Y-99389940D01*
X91357817Y-99345662D01*
X91573941Y-99206590D01*
X91718931Y-98994390D01*
X91769940Y-98742500D01*
X91769940Y-96837500D01*
X91725662Y-96602183D01*
X91586590Y-96386059D01*
X91374390Y-96241069D01*
X91122500Y-96190060D01*
X90846022Y-96190060D01*
X90707401Y-95982599D01*
X88390000Y-93665198D01*
X88390000Y-89470000D01*
X88822560Y-89470000D01*
X88822560Y-90870000D01*
X88866838Y-91105317D01*
X89005910Y-91321441D01*
X89218110Y-91466431D01*
X89470000Y-91517440D01*
X90870000Y-91517440D01*
X91105317Y-91473162D01*
X91321441Y-91334090D01*
X91405810Y-91210612D01*
X94490000Y-94294802D01*
X94490000Y-96386348D01*
X94351928Y-96443398D01*
X93904968Y-96889579D01*
X93662776Y-97472841D01*
X93662225Y-98104388D01*
X93903398Y-98688072D01*
X94349579Y-99135032D01*
X94932841Y-99377224D01*
X95564388Y-99377775D01*
X96148072Y-99136602D01*
X96595032Y-98690421D01*
X96837224Y-98107159D01*
X96837775Y-97475612D01*
X96596602Y-96891928D01*
X96150421Y-96444968D01*
X96010000Y-96386660D01*
X96010000Y-93980000D01*
X95952148Y-93689161D01*
X95787401Y-93442599D01*
X92779185Y-90434383D01*
X93834769Y-90434383D01*
X94037582Y-90925229D01*
X94412796Y-91301098D01*
X94903287Y-91504768D01*
X95434383Y-91505231D01*
X95925229Y-91302418D01*
X96301098Y-90927204D01*
X96504768Y-90436713D01*
X96505231Y-89905617D01*
X96302418Y-89414771D01*
X95930000Y-89041703D01*
X95930000Y-72784802D01*
X99081398Y-69633404D01*
X99085585Y-69639670D01*
X99400366Y-69850000D01*
X99085585Y-70060330D01*
X98760729Y-70546511D01*
X98646655Y-71120000D01*
X98760729Y-71693489D01*
X99085585Y-72179670D01*
X99400366Y-72390000D01*
X99085585Y-72600330D01*
X98760729Y-73086511D01*
X98646655Y-73660000D01*
X98760729Y-74233489D01*
X99085585Y-74719670D01*
X99400366Y-74930000D01*
X99085585Y-75140330D01*
X98760729Y-75626511D01*
X98646655Y-76200000D01*
X98760729Y-76773489D01*
X99085585Y-77259670D01*
X99400366Y-77470000D01*
X99085585Y-77680330D01*
X98760729Y-78166511D01*
X98646655Y-78740000D01*
X98760729Y-79313489D01*
X99085585Y-79799670D01*
X99400366Y-80010000D01*
X99085585Y-80220330D01*
X98760729Y-80706511D01*
X98646655Y-81280000D01*
X98760729Y-81853489D01*
X99085585Y-82339670D01*
X99400366Y-82550000D01*
X99085585Y-82760330D01*
X98760729Y-83246511D01*
X98646655Y-83820000D01*
X98760729Y-84393489D01*
X99085585Y-84879670D01*
X99400366Y-85090000D01*
X99085585Y-85300330D01*
X98760729Y-85786511D01*
X98646655Y-86360000D01*
X98760729Y-86933489D01*
X99085585Y-87419670D01*
X99400366Y-87630000D01*
X99085585Y-87840330D01*
X98760729Y-88326511D01*
X98646655Y-88900000D01*
X98760729Y-89473489D01*
X99085585Y-89959670D01*
X99400366Y-90170000D01*
X99085585Y-90380330D01*
X98760729Y-90866511D01*
X98646655Y-91440000D01*
X98760729Y-92013489D01*
X99085585Y-92499670D01*
X99400366Y-92710000D01*
X99085585Y-92920330D01*
X98760729Y-93406511D01*
X98646655Y-93980000D01*
X98760729Y-94553489D01*
X99085585Y-95039670D01*
X99400366Y-95250000D01*
X99085585Y-95460330D01*
X98760729Y-95946511D01*
X98646655Y-96520000D01*
X98760729Y-97093489D01*
X99085585Y-97579670D01*
X99400366Y-97790000D01*
X99085585Y-98000330D01*
X98760729Y-98486511D01*
X98646655Y-99060000D01*
X98760729Y-99633489D01*
X99085585Y-100119670D01*
X99400366Y-100330000D01*
X99085585Y-100540330D01*
X98760729Y-101026511D01*
X98646655Y-101600000D01*
X98760729Y-102173489D01*
X99085585Y-102659670D01*
X99400366Y-102870000D01*
X99085585Y-103080330D01*
X98760729Y-103566511D01*
X98646655Y-104140000D01*
X98760729Y-104713489D01*
X99085585Y-105199670D01*
X99400366Y-105410000D01*
X99085585Y-105620330D01*
X98760729Y-106106511D01*
X98646655Y-106680000D01*
X98760729Y-107253489D01*
X99085585Y-107739670D01*
X99400366Y-107950000D01*
X99085585Y-108160330D01*
X98760729Y-108646511D01*
X98646655Y-109220000D01*
X98760729Y-109793489D01*
X99085585Y-110279670D01*
X99571766Y-110604526D01*
X100145255Y-110718600D01*
X100514745Y-110718600D01*
X101088234Y-110604526D01*
X101574415Y-110279670D01*
X101899271Y-109793489D01*
X102013345Y-109220000D01*
X101899271Y-108646511D01*
X101574415Y-108160330D01*
X101259634Y-107950000D01*
X101574415Y-107739670D01*
X101899271Y-107253489D01*
X102013345Y-106680000D01*
X101899271Y-106106511D01*
X101574415Y-105620330D01*
X101259634Y-105410000D01*
X101574415Y-105199670D01*
X101899271Y-104713489D01*
X102013345Y-104140000D01*
X101899271Y-103566511D01*
X101574415Y-103080330D01*
X101259634Y-102870000D01*
X101574415Y-102659670D01*
X101899271Y-102173489D01*
X102013345Y-101600000D01*
X101899271Y-101026511D01*
X101574415Y-100540330D01*
X101259634Y-100330000D01*
X101574415Y-100119670D01*
X101899271Y-99633489D01*
X102013345Y-99060000D01*
X101899271Y-98486511D01*
X101574415Y-98000330D01*
X101259634Y-97790000D01*
X101574415Y-97579670D01*
X101899271Y-97093489D01*
X102013345Y-96520000D01*
X101899271Y-95946511D01*
X101574415Y-95460330D01*
X101259634Y-95250000D01*
X101574415Y-95039670D01*
X101899271Y-94553489D01*
X102013345Y-93980000D01*
X101899271Y-93406511D01*
X101574415Y-92920330D01*
X101259634Y-92710000D01*
X101574415Y-92499670D01*
X101899271Y-92013489D01*
X102013345Y-91440000D01*
X101899271Y-90866511D01*
X101574415Y-90380330D01*
X101259634Y-90170000D01*
X101574415Y-89959670D01*
X101899271Y-89473489D01*
X102013345Y-88900000D01*
X101899271Y-88326511D01*
X101574415Y-87840330D01*
X101259634Y-87630000D01*
X101574415Y-87419670D01*
X101899271Y-86933489D01*
X102013345Y-86360000D01*
X101899271Y-85786511D01*
X101574415Y-85300330D01*
X101259634Y-85090000D01*
X101574415Y-84879670D01*
X101899271Y-84393489D01*
X102013345Y-83820000D01*
X101899271Y-83246511D01*
X101574415Y-82760330D01*
X101259634Y-82550000D01*
X101574415Y-82339670D01*
X101899271Y-81853489D01*
X102013345Y-81280000D01*
X101899271Y-80706511D01*
X101574415Y-80220330D01*
X101259634Y-80010000D01*
X101574415Y-79799670D01*
X101899271Y-79313489D01*
X102013345Y-78740000D01*
X101899271Y-78166511D01*
X101574415Y-77680330D01*
X101259634Y-77470000D01*
X101574415Y-77259670D01*
X101899271Y-76773489D01*
X102013345Y-76200000D01*
X101899271Y-75626511D01*
X101574415Y-75140330D01*
X101259634Y-74930000D01*
X101574415Y-74719670D01*
X101899271Y-74233489D01*
X102013345Y-73660000D01*
X101899271Y-73086511D01*
X101574415Y-72600330D01*
X101259634Y-72390000D01*
X101574415Y-72179670D01*
X101899271Y-71693489D01*
X102013345Y-71120000D01*
X101899271Y-70546511D01*
X101574415Y-70060330D01*
X101259634Y-69850000D01*
X101574415Y-69639670D01*
X101899271Y-69153489D01*
X102013345Y-68580000D01*
X101899271Y-68006511D01*
X101574415Y-67520330D01*
X101259634Y-67310000D01*
X101574415Y-67099670D01*
X101899271Y-66613489D01*
X102013345Y-66040000D01*
X101899271Y-65466511D01*
X101574415Y-64980330D01*
X101552220Y-64965500D01*
X101705699Y-64901927D01*
X101884327Y-64723298D01*
X101981000Y-64489909D01*
X101981000Y-63785750D01*
X101822250Y-63627000D01*
X100457000Y-63627000D01*
X100457000Y-63647000D01*
X100203000Y-63647000D01*
X100203000Y-63627000D01*
X98837750Y-63627000D01*
X98679000Y-63785750D01*
X98679000Y-64489909D01*
X98775673Y-64723298D01*
X98954301Y-64901927D01*
X99107780Y-64965500D01*
X99085585Y-64980330D01*
X98760729Y-65466511D01*
X98646655Y-66040000D01*
X98760729Y-66613489D01*
X99085585Y-67099670D01*
X99400366Y-67310000D01*
X99085585Y-67520330D01*
X98858581Y-67860065D01*
X98769161Y-67877852D01*
X98522599Y-68042599D01*
X94632599Y-71932599D01*
X94467852Y-72179161D01*
X94410000Y-72470000D01*
X94410000Y-89042345D01*
X94038902Y-89412796D01*
X93835232Y-89903287D01*
X93834769Y-90434383D01*
X92779185Y-90434383D01*
X91977401Y-89632599D01*
X91730839Y-89467852D01*
X91508722Y-89423670D01*
X91473162Y-89234683D01*
X91334090Y-89018559D01*
X91121890Y-88873569D01*
X90870000Y-88822560D01*
X89470000Y-88822560D01*
X89234683Y-88866838D01*
X89018559Y-89005910D01*
X88873569Y-89218110D01*
X88822560Y-89470000D01*
X88390000Y-89470000D01*
X88390000Y-76669706D01*
X91735247Y-74997083D01*
X91782927Y-75044846D01*
X92383453Y-75294206D01*
X93033694Y-75294774D01*
X93634655Y-75046462D01*
X94094846Y-74587073D01*
X94344206Y-73986547D01*
X94344774Y-73336306D01*
X94096462Y-72735345D01*
X93637073Y-72275154D01*
X93036547Y-72025794D01*
X92386306Y-72025226D01*
X91785345Y-72273538D01*
X91577223Y-72481298D01*
X86722217Y-70862962D01*
X86659271Y-70546511D01*
X86334415Y-70060330D01*
X86019634Y-69850000D01*
X86334415Y-69639670D01*
X86659271Y-69153489D01*
X86773345Y-68580000D01*
X86659271Y-68006511D01*
X86334415Y-67520330D01*
X86019634Y-67310000D01*
X86334415Y-67099670D01*
X86659271Y-66613489D01*
X86773345Y-66040000D01*
X86659271Y-65466511D01*
X86334415Y-64980330D01*
X86312220Y-64965500D01*
X86465699Y-64901927D01*
X86644327Y-64723298D01*
X86673792Y-64652163D01*
X91737443Y-64652163D01*
X91836042Y-64918965D01*
X92445582Y-65145401D01*
X93095377Y-65121341D01*
X93583958Y-64918965D01*
X93682557Y-64652163D01*
X92710000Y-63679605D01*
X91737443Y-64652163D01*
X86673792Y-64652163D01*
X86741000Y-64489909D01*
X86741000Y-63785750D01*
X86582250Y-63627000D01*
X85217000Y-63627000D01*
X85217000Y-63647000D01*
X84963000Y-63647000D01*
X84963000Y-63627000D01*
X83597750Y-63627000D01*
X83439000Y-63785750D01*
X83439000Y-64489909D01*
X83535673Y-64723298D01*
X83714301Y-64901927D01*
X83867780Y-64965500D01*
X83845585Y-64980330D01*
X83520729Y-65466511D01*
X83406655Y-66040000D01*
X83260000Y-66040000D01*
X83260000Y-62510091D01*
X83439000Y-62510091D01*
X83439000Y-63214250D01*
X83597750Y-63373000D01*
X84963000Y-63373000D01*
X84963000Y-62160150D01*
X85217000Y-62160150D01*
X85217000Y-63373000D01*
X86582250Y-63373000D01*
X86719668Y-63235582D01*
X91064599Y-63235582D01*
X91088659Y-63885377D01*
X91291035Y-64373958D01*
X91557837Y-64472557D01*
X92530395Y-63500000D01*
X92889605Y-63500000D01*
X93862163Y-64472557D01*
X94128965Y-64373958D01*
X94355401Y-63764418D01*
X94331341Y-63114623D01*
X94128965Y-62626042D01*
X93862163Y-62527443D01*
X92889605Y-63500000D01*
X92530395Y-63500000D01*
X91557837Y-62527443D01*
X91291035Y-62626042D01*
X91064599Y-63235582D01*
X86719668Y-63235582D01*
X86741000Y-63214250D01*
X86741000Y-62510091D01*
X86673793Y-62347837D01*
X91737443Y-62347837D01*
X92710000Y-63320395D01*
X93520303Y-62510091D01*
X98679000Y-62510091D01*
X98679000Y-63214250D01*
X98837750Y-63373000D01*
X100203000Y-63373000D01*
X100203000Y-62160150D01*
X100457000Y-62160150D01*
X100457000Y-63373000D01*
X101822250Y-63373000D01*
X101981000Y-63214250D01*
X101981000Y-62510091D01*
X101884327Y-62276702D01*
X101705699Y-62098073D01*
X101472310Y-62001400D01*
X100615750Y-62001400D01*
X100457000Y-62160150D01*
X100203000Y-62160150D01*
X100044250Y-62001400D01*
X99187690Y-62001400D01*
X98954301Y-62098073D01*
X98775673Y-62276702D01*
X98679000Y-62510091D01*
X93520303Y-62510091D01*
X93682557Y-62347837D01*
X93583958Y-62081035D01*
X92974418Y-61854599D01*
X92324623Y-61878659D01*
X91836042Y-62081035D01*
X91737443Y-62347837D01*
X86673793Y-62347837D01*
X86644327Y-62276702D01*
X86465699Y-62098073D01*
X86232310Y-62001400D01*
X85375750Y-62001400D01*
X85217000Y-62160150D01*
X84963000Y-62160150D01*
X84804250Y-62001400D01*
X83947690Y-62001400D01*
X83714301Y-62098073D01*
X83535673Y-62276702D01*
X83439000Y-62510091D01*
X83260000Y-62510091D01*
X83260000Y-61670000D01*
X102160000Y-61670000D01*
X102160000Y-111050000D01*
X102160000Y-111050000D01*
G37*
X102160000Y-111050000D02*
X83260000Y-111050000D01*
X83260000Y-66040000D01*
X83406655Y-66040000D01*
X83520729Y-66613489D01*
X83845585Y-67099670D01*
X84160366Y-67310000D01*
X83845585Y-67520330D01*
X83520729Y-68006511D01*
X83406655Y-68580000D01*
X83520729Y-69153489D01*
X83845585Y-69639670D01*
X84160366Y-69850000D01*
X83845585Y-70060330D01*
X83520729Y-70546511D01*
X83406655Y-71120000D01*
X83520729Y-71693489D01*
X83845585Y-72179670D01*
X84160366Y-72390000D01*
X83845585Y-72600330D01*
X83520729Y-73086511D01*
X83406655Y-73660000D01*
X83520729Y-74233489D01*
X83845585Y-74719670D01*
X84160366Y-74930000D01*
X83845585Y-75140330D01*
X83520729Y-75626511D01*
X83406655Y-76200000D01*
X83520729Y-76773489D01*
X83845585Y-77259670D01*
X84160366Y-77470000D01*
X83845585Y-77680330D01*
X83520729Y-78166511D01*
X83406655Y-78740000D01*
X83520729Y-79313489D01*
X83845585Y-79799670D01*
X84160366Y-80010000D01*
X83845585Y-80220330D01*
X83520729Y-80706511D01*
X83406655Y-81280000D01*
X83520729Y-81853489D01*
X83845585Y-82339670D01*
X84160366Y-82550000D01*
X83845585Y-82760330D01*
X83520729Y-83246511D01*
X83406655Y-83820000D01*
X83520729Y-84393489D01*
X83845585Y-84879670D01*
X84160366Y-85090000D01*
X83845585Y-85300330D01*
X83520729Y-85786511D01*
X83406655Y-86360000D01*
X83520729Y-86933489D01*
X83845585Y-87419670D01*
X84160366Y-87630000D01*
X83845585Y-87840330D01*
X83520729Y-88326511D01*
X83406655Y-88900000D01*
X83520729Y-89473489D01*
X83845585Y-89959670D01*
X84160366Y-90170000D01*
X83845585Y-90380330D01*
X83520729Y-90866511D01*
X83406655Y-91440000D01*
X83520729Y-92013489D01*
X83845585Y-92499670D01*
X84160366Y-92710000D01*
X83845585Y-92920330D01*
X83520729Y-93406511D01*
X83406655Y-93980000D01*
X83520729Y-94553489D01*
X83845585Y-95039670D01*
X84160366Y-95250000D01*
X83845585Y-95460330D01*
X83520729Y-95946511D01*
X83406655Y-96520000D01*
X83520729Y-97093489D01*
X83845585Y-97579670D01*
X84160366Y-97790000D01*
X83845585Y-98000330D01*
X83520729Y-98486511D01*
X83406655Y-99060000D01*
X83520729Y-99633489D01*
X83845585Y-100119670D01*
X84160366Y-100330000D01*
X83845585Y-100540330D01*
X83520729Y-101026511D01*
X83406655Y-101600000D01*
X83520729Y-102173489D01*
X83845585Y-102659670D01*
X84160366Y-102870000D01*
X83845585Y-103080330D01*
X83520729Y-103566511D01*
X83406655Y-104140000D01*
X83520729Y-104713489D01*
X83845585Y-105199670D01*
X84160366Y-105410000D01*
X83845585Y-105620330D01*
X83520729Y-106106511D01*
X83406655Y-106680000D01*
X83520729Y-107253489D01*
X83845585Y-107739670D01*
X84160366Y-107950000D01*
X83845585Y-108160330D01*
X83520729Y-108646511D01*
X83406655Y-109220000D01*
X83520729Y-109793489D01*
X83845585Y-110279670D01*
X84331766Y-110604526D01*
X84905255Y-110718600D01*
X85274745Y-110718600D01*
X85848234Y-110604526D01*
X86334415Y-110279670D01*
X86659271Y-109793489D01*
X86773345Y-109220000D01*
X86659271Y-108646511D01*
X86334415Y-108160330D01*
X86019634Y-107950000D01*
X86334415Y-107739670D01*
X86659271Y-107253489D01*
X86773345Y-106680000D01*
X86659271Y-106106511D01*
X86334415Y-105620330D01*
X86019634Y-105410000D01*
X86334415Y-105199670D01*
X86659271Y-104713489D01*
X86773345Y-104140000D01*
X86659271Y-103566511D01*
X86334415Y-103080330D01*
X86019634Y-102870000D01*
X86334415Y-102659670D01*
X86659271Y-102173489D01*
X86773345Y-101600000D01*
X86659271Y-101026511D01*
X86334415Y-100540330D01*
X86019634Y-100330000D01*
X86334415Y-100119670D01*
X86659271Y-99633489D01*
X86773345Y-99060000D01*
X86659271Y-98486511D01*
X86334415Y-98000330D01*
X86019634Y-97790000D01*
X86334415Y-97579670D01*
X86659271Y-97093489D01*
X86773345Y-96520000D01*
X86659271Y-95946511D01*
X86334415Y-95460330D01*
X86019634Y-95250000D01*
X86334415Y-95039670D01*
X86659271Y-94553489D01*
X86773345Y-93980000D01*
X86659271Y-93406511D01*
X86334415Y-92920330D01*
X86019634Y-92710000D01*
X86334415Y-92499670D01*
X86659271Y-92013489D01*
X86773345Y-91440000D01*
X86659271Y-90866511D01*
X86334415Y-90380330D01*
X86019634Y-90170000D01*
X86334415Y-89959670D01*
X86659271Y-89473489D01*
X86773345Y-88900000D01*
X86659271Y-88326511D01*
X86334415Y-87840330D01*
X86019634Y-87630000D01*
X86334415Y-87419670D01*
X86659271Y-86933489D01*
X86773345Y-86360000D01*
X86659271Y-85786511D01*
X86334415Y-85300330D01*
X86019634Y-85090000D01*
X86334415Y-84879670D01*
X86659271Y-84393489D01*
X86773345Y-83820000D01*
X86659271Y-83246511D01*
X86334415Y-82760330D01*
X86019634Y-82550000D01*
X86334415Y-82339670D01*
X86659271Y-81853489D01*
X86773345Y-81280000D01*
X86659271Y-80706511D01*
X86334415Y-80220330D01*
X86019634Y-80010000D01*
X86334415Y-79799670D01*
X86659271Y-79313489D01*
X86773345Y-78740000D01*
X86659271Y-78166511D01*
X86334415Y-77680330D01*
X86019634Y-77470000D01*
X86334415Y-77259670D01*
X86659271Y-76773489D01*
X86773345Y-76200000D01*
X86659271Y-75626511D01*
X86334415Y-75140330D01*
X86019634Y-74930000D01*
X86334415Y-74719670D01*
X86659271Y-74233489D01*
X86773345Y-73660000D01*
X86659271Y-73086511D01*
X86334415Y-72600330D01*
X86019634Y-72390000D01*
X86178406Y-72283912D01*
X90729021Y-73800784D01*
X87290118Y-75520235D01*
X87193884Y-75594923D01*
X87092599Y-75662599D01*
X87077427Y-75685306D01*
X87055856Y-75702047D01*
X86995531Y-75807872D01*
X86927852Y-75909161D01*
X86922525Y-75935943D01*
X86909001Y-75959667D01*
X86893766Y-76080520D01*
X86870000Y-76200000D01*
X86870000Y-93980000D01*
X86927852Y-94270839D01*
X87092599Y-94517401D01*
X88877134Y-96301936D01*
X88766059Y-96373410D01*
X88621069Y-96585610D01*
X88570060Y-96837500D01*
X88570060Y-98742500D01*
X88614338Y-98977817D01*
X88753410Y-99193941D01*
X88965610Y-99338931D01*
X89217500Y-99389940D01*
X91122500Y-99389940D01*
X91357817Y-99345662D01*
X91573941Y-99206590D01*
X91718931Y-98994390D01*
X91769940Y-98742500D01*
X91769940Y-96837500D01*
X91725662Y-96602183D01*
X91586590Y-96386059D01*
X91374390Y-96241069D01*
X91122500Y-96190060D01*
X90846022Y-96190060D01*
X90707401Y-95982599D01*
X88390000Y-93665198D01*
X88390000Y-89470000D01*
X88822560Y-89470000D01*
X88822560Y-90870000D01*
X88866838Y-91105317D01*
X89005910Y-91321441D01*
X89218110Y-91466431D01*
X89470000Y-91517440D01*
X90870000Y-91517440D01*
X91105317Y-91473162D01*
X91321441Y-91334090D01*
X91405810Y-91210612D01*
X94490000Y-94294802D01*
X94490000Y-96386348D01*
X94351928Y-96443398D01*
X93904968Y-96889579D01*
X93662776Y-97472841D01*
X93662225Y-98104388D01*
X93903398Y-98688072D01*
X94349579Y-99135032D01*
X94932841Y-99377224D01*
X95564388Y-99377775D01*
X96148072Y-99136602D01*
X96595032Y-98690421D01*
X96837224Y-98107159D01*
X96837775Y-97475612D01*
X96596602Y-96891928D01*
X96150421Y-96444968D01*
X96010000Y-96386660D01*
X96010000Y-93980000D01*
X95952148Y-93689161D01*
X95787401Y-93442599D01*
X92779185Y-90434383D01*
X93834769Y-90434383D01*
X94037582Y-90925229D01*
X94412796Y-91301098D01*
X94903287Y-91504768D01*
X95434383Y-91505231D01*
X95925229Y-91302418D01*
X96301098Y-90927204D01*
X96504768Y-90436713D01*
X96505231Y-89905617D01*
X96302418Y-89414771D01*
X95930000Y-89041703D01*
X95930000Y-72784802D01*
X99081398Y-69633404D01*
X99085585Y-69639670D01*
X99400366Y-69850000D01*
X99085585Y-70060330D01*
X98760729Y-70546511D01*
X98646655Y-71120000D01*
X98760729Y-71693489D01*
X99085585Y-72179670D01*
X99400366Y-72390000D01*
X99085585Y-72600330D01*
X98760729Y-73086511D01*
X98646655Y-73660000D01*
X98760729Y-74233489D01*
X99085585Y-74719670D01*
X99400366Y-74930000D01*
X99085585Y-75140330D01*
X98760729Y-75626511D01*
X98646655Y-76200000D01*
X98760729Y-76773489D01*
X99085585Y-77259670D01*
X99400366Y-77470000D01*
X99085585Y-77680330D01*
X98760729Y-78166511D01*
X98646655Y-78740000D01*
X98760729Y-79313489D01*
X99085585Y-79799670D01*
X99400366Y-80010000D01*
X99085585Y-80220330D01*
X98760729Y-80706511D01*
X98646655Y-81280000D01*
X98760729Y-81853489D01*
X99085585Y-82339670D01*
X99400366Y-82550000D01*
X99085585Y-82760330D01*
X98760729Y-83246511D01*
X98646655Y-83820000D01*
X98760729Y-84393489D01*
X99085585Y-84879670D01*
X99400366Y-85090000D01*
X99085585Y-85300330D01*
X98760729Y-85786511D01*
X98646655Y-86360000D01*
X98760729Y-86933489D01*
X99085585Y-87419670D01*
X99400366Y-87630000D01*
X99085585Y-87840330D01*
X98760729Y-88326511D01*
X98646655Y-88900000D01*
X98760729Y-89473489D01*
X99085585Y-89959670D01*
X99400366Y-90170000D01*
X99085585Y-90380330D01*
X98760729Y-90866511D01*
X98646655Y-91440000D01*
X98760729Y-92013489D01*
X99085585Y-92499670D01*
X99400366Y-92710000D01*
X99085585Y-92920330D01*
X98760729Y-93406511D01*
X98646655Y-93980000D01*
X98760729Y-94553489D01*
X99085585Y-95039670D01*
X99400366Y-95250000D01*
X99085585Y-95460330D01*
X98760729Y-95946511D01*
X98646655Y-96520000D01*
X98760729Y-97093489D01*
X99085585Y-97579670D01*
X99400366Y-97790000D01*
X99085585Y-98000330D01*
X98760729Y-98486511D01*
X98646655Y-99060000D01*
X98760729Y-99633489D01*
X99085585Y-100119670D01*
X99400366Y-100330000D01*
X99085585Y-100540330D01*
X98760729Y-101026511D01*
X98646655Y-101600000D01*
X98760729Y-102173489D01*
X99085585Y-102659670D01*
X99400366Y-102870000D01*
X99085585Y-103080330D01*
X98760729Y-103566511D01*
X98646655Y-104140000D01*
X98760729Y-104713489D01*
X99085585Y-105199670D01*
X99400366Y-105410000D01*
X99085585Y-105620330D01*
X98760729Y-106106511D01*
X98646655Y-106680000D01*
X98760729Y-107253489D01*
X99085585Y-107739670D01*
X99400366Y-107950000D01*
X99085585Y-108160330D01*
X98760729Y-108646511D01*
X98646655Y-109220000D01*
X98760729Y-109793489D01*
X99085585Y-110279670D01*
X99571766Y-110604526D01*
X100145255Y-110718600D01*
X100514745Y-110718600D01*
X101088234Y-110604526D01*
X101574415Y-110279670D01*
X101899271Y-109793489D01*
X102013345Y-109220000D01*
X101899271Y-108646511D01*
X101574415Y-108160330D01*
X101259634Y-107950000D01*
X101574415Y-107739670D01*
X101899271Y-107253489D01*
X102013345Y-106680000D01*
X101899271Y-106106511D01*
X101574415Y-105620330D01*
X101259634Y-105410000D01*
X101574415Y-105199670D01*
X101899271Y-104713489D01*
X102013345Y-104140000D01*
X101899271Y-103566511D01*
X101574415Y-103080330D01*
X101259634Y-102870000D01*
X101574415Y-102659670D01*
X101899271Y-102173489D01*
X102013345Y-101600000D01*
X101899271Y-101026511D01*
X101574415Y-100540330D01*
X101259634Y-100330000D01*
X101574415Y-100119670D01*
X101899271Y-99633489D01*
X102013345Y-99060000D01*
X101899271Y-98486511D01*
X101574415Y-98000330D01*
X101259634Y-97790000D01*
X101574415Y-97579670D01*
X101899271Y-97093489D01*
X102013345Y-96520000D01*
X101899271Y-95946511D01*
X101574415Y-95460330D01*
X101259634Y-95250000D01*
X101574415Y-95039670D01*
X101899271Y-94553489D01*
X102013345Y-93980000D01*
X101899271Y-93406511D01*
X101574415Y-92920330D01*
X101259634Y-92710000D01*
X101574415Y-92499670D01*
X101899271Y-92013489D01*
X102013345Y-91440000D01*
X101899271Y-90866511D01*
X101574415Y-90380330D01*
X101259634Y-90170000D01*
X101574415Y-89959670D01*
X101899271Y-89473489D01*
X102013345Y-88900000D01*
X101899271Y-88326511D01*
X101574415Y-87840330D01*
X101259634Y-87630000D01*
X101574415Y-87419670D01*
X101899271Y-86933489D01*
X102013345Y-86360000D01*
X101899271Y-85786511D01*
X101574415Y-85300330D01*
X101259634Y-85090000D01*
X101574415Y-84879670D01*
X101899271Y-84393489D01*
X102013345Y-83820000D01*
X101899271Y-83246511D01*
X101574415Y-82760330D01*
X101259634Y-82550000D01*
X101574415Y-82339670D01*
X101899271Y-81853489D01*
X102013345Y-81280000D01*
X101899271Y-80706511D01*
X101574415Y-80220330D01*
X101259634Y-80010000D01*
X101574415Y-79799670D01*
X101899271Y-79313489D01*
X102013345Y-78740000D01*
X101899271Y-78166511D01*
X101574415Y-77680330D01*
X101259634Y-77470000D01*
X101574415Y-77259670D01*
X101899271Y-76773489D01*
X102013345Y-76200000D01*
X101899271Y-75626511D01*
X101574415Y-75140330D01*
X101259634Y-74930000D01*
X101574415Y-74719670D01*
X101899271Y-74233489D01*
X102013345Y-73660000D01*
X101899271Y-73086511D01*
X101574415Y-72600330D01*
X101259634Y-72390000D01*
X101574415Y-72179670D01*
X101899271Y-71693489D01*
X102013345Y-71120000D01*
X101899271Y-70546511D01*
X101574415Y-70060330D01*
X101259634Y-69850000D01*
X101574415Y-69639670D01*
X101899271Y-69153489D01*
X102013345Y-68580000D01*
X101899271Y-68006511D01*
X101574415Y-67520330D01*
X101259634Y-67310000D01*
X101574415Y-67099670D01*
X101899271Y-66613489D01*
X102013345Y-66040000D01*
X101899271Y-65466511D01*
X101574415Y-64980330D01*
X101552220Y-64965500D01*
X101705699Y-64901927D01*
X101884327Y-64723298D01*
X101981000Y-64489909D01*
X101981000Y-63785750D01*
X101822250Y-63627000D01*
X100457000Y-63627000D01*
X100457000Y-63647000D01*
X100203000Y-63647000D01*
X100203000Y-63627000D01*
X98837750Y-63627000D01*
X98679000Y-63785750D01*
X98679000Y-64489909D01*
X98775673Y-64723298D01*
X98954301Y-64901927D01*
X99107780Y-64965500D01*
X99085585Y-64980330D01*
X98760729Y-65466511D01*
X98646655Y-66040000D01*
X98760729Y-66613489D01*
X99085585Y-67099670D01*
X99400366Y-67310000D01*
X99085585Y-67520330D01*
X98858581Y-67860065D01*
X98769161Y-67877852D01*
X98522599Y-68042599D01*
X94632599Y-71932599D01*
X94467852Y-72179161D01*
X94410000Y-72470000D01*
X94410000Y-89042345D01*
X94038902Y-89412796D01*
X93835232Y-89903287D01*
X93834769Y-90434383D01*
X92779185Y-90434383D01*
X91977401Y-89632599D01*
X91730839Y-89467852D01*
X91508722Y-89423670D01*
X91473162Y-89234683D01*
X91334090Y-89018559D01*
X91121890Y-88873569D01*
X90870000Y-88822560D01*
X89470000Y-88822560D01*
X89234683Y-88866838D01*
X89018559Y-89005910D01*
X88873569Y-89218110D01*
X88822560Y-89470000D01*
X88390000Y-89470000D01*
X88390000Y-76669706D01*
X91735247Y-74997083D01*
X91782927Y-75044846D01*
X92383453Y-75294206D01*
X93033694Y-75294774D01*
X93634655Y-75046462D01*
X94094846Y-74587073D01*
X94344206Y-73986547D01*
X94344774Y-73336306D01*
X94096462Y-72735345D01*
X93637073Y-72275154D01*
X93036547Y-72025794D01*
X92386306Y-72025226D01*
X91785345Y-72273538D01*
X91577223Y-72481298D01*
X86722217Y-70862962D01*
X86659271Y-70546511D01*
X86334415Y-70060330D01*
X86019634Y-69850000D01*
X86334415Y-69639670D01*
X86659271Y-69153489D01*
X86773345Y-68580000D01*
X86659271Y-68006511D01*
X86334415Y-67520330D01*
X86019634Y-67310000D01*
X86334415Y-67099670D01*
X86659271Y-66613489D01*
X86773345Y-66040000D01*
X86659271Y-65466511D01*
X86334415Y-64980330D01*
X86312220Y-64965500D01*
X86465699Y-64901927D01*
X86644327Y-64723298D01*
X86673792Y-64652163D01*
X91737443Y-64652163D01*
X91836042Y-64918965D01*
X92445582Y-65145401D01*
X93095377Y-65121341D01*
X93583958Y-64918965D01*
X93682557Y-64652163D01*
X92710000Y-63679605D01*
X91737443Y-64652163D01*
X86673792Y-64652163D01*
X86741000Y-64489909D01*
X86741000Y-63785750D01*
X86582250Y-63627000D01*
X85217000Y-63627000D01*
X85217000Y-63647000D01*
X84963000Y-63647000D01*
X84963000Y-63627000D01*
X83597750Y-63627000D01*
X83439000Y-63785750D01*
X83439000Y-64489909D01*
X83535673Y-64723298D01*
X83714301Y-64901927D01*
X83867780Y-64965500D01*
X83845585Y-64980330D01*
X83520729Y-65466511D01*
X83406655Y-66040000D01*
X83260000Y-66040000D01*
X83260000Y-62510091D01*
X83439000Y-62510091D01*
X83439000Y-63214250D01*
X83597750Y-63373000D01*
X84963000Y-63373000D01*
X84963000Y-62160150D01*
X85217000Y-62160150D01*
X85217000Y-63373000D01*
X86582250Y-63373000D01*
X86719668Y-63235582D01*
X91064599Y-63235582D01*
X91088659Y-63885377D01*
X91291035Y-64373958D01*
X91557837Y-64472557D01*
X92530395Y-63500000D01*
X92889605Y-63500000D01*
X93862163Y-64472557D01*
X94128965Y-64373958D01*
X94355401Y-63764418D01*
X94331341Y-63114623D01*
X94128965Y-62626042D01*
X93862163Y-62527443D01*
X92889605Y-63500000D01*
X92530395Y-63500000D01*
X91557837Y-62527443D01*
X91291035Y-62626042D01*
X91064599Y-63235582D01*
X86719668Y-63235582D01*
X86741000Y-63214250D01*
X86741000Y-62510091D01*
X86673793Y-62347837D01*
X91737443Y-62347837D01*
X92710000Y-63320395D01*
X93520303Y-62510091D01*
X98679000Y-62510091D01*
X98679000Y-63214250D01*
X98837750Y-63373000D01*
X100203000Y-63373000D01*
X100203000Y-62160150D01*
X100457000Y-62160150D01*
X100457000Y-63373000D01*
X101822250Y-63373000D01*
X101981000Y-63214250D01*
X101981000Y-62510091D01*
X101884327Y-62276702D01*
X101705699Y-62098073D01*
X101472310Y-62001400D01*
X100615750Y-62001400D01*
X100457000Y-62160150D01*
X100203000Y-62160150D01*
X100044250Y-62001400D01*
X99187690Y-62001400D01*
X98954301Y-62098073D01*
X98775673Y-62276702D01*
X98679000Y-62510091D01*
X93520303Y-62510091D01*
X93682557Y-62347837D01*
X93583958Y-62081035D01*
X92974418Y-61854599D01*
X92324623Y-61878659D01*
X91836042Y-62081035D01*
X91737443Y-62347837D01*
X86673793Y-62347837D01*
X86644327Y-62276702D01*
X86465699Y-62098073D01*
X86232310Y-62001400D01*
X85375750Y-62001400D01*
X85217000Y-62160150D01*
X84963000Y-62160150D01*
X84804250Y-62001400D01*
X83947690Y-62001400D01*
X83714301Y-62098073D01*
X83535673Y-62276702D01*
X83439000Y-62510091D01*
X83260000Y-62510091D01*
X83260000Y-61670000D01*
X102160000Y-61670000D01*
X102160000Y-111050000D01*
M02*
