G04 #@! TF.FileFunction,Copper,L2,Bot,Signal*
%FSLAX46Y46*%
G04 Gerber Fmt 4.6, Leading zero omitted, Abs format (unit mm)*
G04 Created by KiCad (PCBNEW 4.0.3+e1-6302~38~ubuntu16.04.1-stable) date Thu Aug 11 18:03:17 2016*
%MOMM*%
%LPD*%
G01*
G04 APERTURE LIST*
%ADD10C,0.100000*%
%ADD11R,1.400000X1.400000*%
%ADD12C,1.400000*%
%ADD13R,1.905000X1.905000*%
%ADD14C,1.905000*%
%ADD15R,2.032000X1.727200*%
%ADD16O,2.032000X1.727200*%
%ADD17C,1.998980*%
G04 APERTURE END LIST*
D10*
D11*
X90170000Y-90170000D03*
D12*
X95170000Y-90170000D03*
D13*
X90170000Y-97790000D03*
D14*
X95250000Y-97790000D03*
D15*
X100330000Y-63500000D03*
D16*
X100330000Y-66040000D03*
X100330000Y-68580000D03*
X100330000Y-71120000D03*
X100330000Y-73660000D03*
X100330000Y-76200000D03*
X100330000Y-78740000D03*
X100330000Y-81280000D03*
X100330000Y-83820000D03*
X100330000Y-86360000D03*
X100330000Y-88900000D03*
X100330000Y-91440000D03*
X100330000Y-93980000D03*
X100330000Y-96520000D03*
X100330000Y-99060000D03*
X100330000Y-101600000D03*
X100330000Y-104140000D03*
X100330000Y-106680000D03*
X100330000Y-109220000D03*
D15*
X85090000Y-63500000D03*
D16*
X85090000Y-66040000D03*
X85090000Y-68580000D03*
X85090000Y-71120000D03*
X85090000Y-73660000D03*
X85090000Y-76200000D03*
X85090000Y-78740000D03*
X85090000Y-81280000D03*
X85090000Y-83820000D03*
X85090000Y-86360000D03*
X85090000Y-88900000D03*
X85090000Y-91440000D03*
X85090000Y-93980000D03*
X85090000Y-96520000D03*
X85090000Y-99060000D03*
X85090000Y-101600000D03*
X85090000Y-104140000D03*
X85090000Y-106680000D03*
X85090000Y-109220000D03*
D17*
X92710000Y-73660000D03*
X92710000Y-63500000D03*
M02*
