G04 #@! TF.FileFunction,Legend,Top*
%FSLAX46Y46*%
G04 Gerber Fmt 4.6, Leading zero omitted, Abs format (unit mm)*
G04 Created by KiCad (PCBNEW 4.0.3+e1-6302~38~ubuntu16.04.1-stable) date Thu Aug 11 18:03:17 2016*
%MOMM*%
%LPD*%
G01*
G04 APERTURE LIST*
%ADD10C,0.100000*%
%ADD11C,0.150000*%
G04 APERTURE END LIST*
D10*
D11*
X89670000Y-87920000D02*
X95670000Y-87920000D01*
X95670000Y-92420000D02*
X89670000Y-92420000D01*
X96520000Y-97790000D02*
G75*
G03X96520000Y-97790000I-3810000J0D01*
G01*
X99060000Y-64770000D02*
X99060000Y-110490000D01*
X99060000Y-110490000D02*
X101600000Y-110490000D01*
X101600000Y-110490000D02*
X101600000Y-64770000D01*
X98780000Y-61950000D02*
X98780000Y-63500000D01*
X99060000Y-64770000D02*
X101600000Y-64770000D01*
X101880000Y-63500000D02*
X101880000Y-61950000D01*
X101880000Y-61950000D02*
X98780000Y-61950000D01*
X83820000Y-64770000D02*
X83820000Y-110490000D01*
X83820000Y-110490000D02*
X86360000Y-110490000D01*
X86360000Y-110490000D02*
X86360000Y-64770000D01*
X83540000Y-61950000D02*
X83540000Y-63500000D01*
X83820000Y-64770000D02*
X86360000Y-64770000D01*
X86640000Y-63500000D02*
X86640000Y-61950000D01*
X86640000Y-61950000D02*
X83540000Y-61950000D01*
X91440000Y-71120000D02*
X91440000Y-66040000D01*
X91440000Y-66040000D02*
X93980000Y-66040000D01*
X93980000Y-66040000D02*
X93980000Y-71120000D01*
X93980000Y-71120000D02*
X91440000Y-71120000D01*
X92710000Y-71120000D02*
X92710000Y-72390000D01*
X92710000Y-66040000D02*
X92710000Y-64770000D01*
X92503334Y-87027143D02*
X92455715Y-87074762D01*
X92312858Y-87122381D01*
X92217620Y-87122381D01*
X92074762Y-87074762D01*
X91979524Y-86979524D01*
X91931905Y-86884286D01*
X91884286Y-86693810D01*
X91884286Y-86550952D01*
X91931905Y-86360476D01*
X91979524Y-86265238D01*
X92074762Y-86170000D01*
X92217620Y-86122381D01*
X92312858Y-86122381D01*
X92455715Y-86170000D01*
X92503334Y-86217619D01*
X93455715Y-87122381D02*
X92884286Y-87122381D01*
X93170000Y-87122381D02*
X93170000Y-86122381D01*
X93074762Y-86265238D01*
X92979524Y-86360476D01*
X92884286Y-86408095D01*
X92543334Y-100241361D02*
X92067143Y-100241361D01*
X92067143Y-99241361D01*
X93400477Y-100241361D02*
X92829048Y-100241361D01*
X93114762Y-100241361D02*
X93114762Y-99241361D01*
X93019524Y-99384218D01*
X92924286Y-99479456D01*
X92829048Y-99527075D01*
X105882381Y-64238095D02*
X104882381Y-64238095D01*
X104882381Y-63857142D01*
X104930000Y-63761904D01*
X104977619Y-63714285D01*
X105072857Y-63666666D01*
X105215714Y-63666666D01*
X105310952Y-63714285D01*
X105358571Y-63761904D01*
X105406190Y-63857142D01*
X105406190Y-64238095D01*
X105882381Y-62714285D02*
X105882381Y-63285714D01*
X105882381Y-63000000D02*
X104882381Y-63000000D01*
X105025238Y-63095238D01*
X105120476Y-63190476D01*
X105168095Y-63285714D01*
X90642381Y-64238095D02*
X89642381Y-64238095D01*
X89642381Y-63857142D01*
X89690000Y-63761904D01*
X89737619Y-63714285D01*
X89832857Y-63666666D01*
X89975714Y-63666666D01*
X90070952Y-63714285D01*
X90118571Y-63761904D01*
X90166190Y-63857142D01*
X90166190Y-64238095D01*
X89737619Y-63285714D02*
X89690000Y-63238095D01*
X89642381Y-63142857D01*
X89642381Y-62904761D01*
X89690000Y-62809523D01*
X89737619Y-62761904D01*
X89832857Y-62714285D01*
X89928095Y-62714285D01*
X90070952Y-62761904D01*
X90642381Y-63333333D01*
X90642381Y-62714285D01*
X89662261Y-68497746D02*
X89186070Y-68831080D01*
X89662261Y-69069175D02*
X88662261Y-69069175D01*
X88662261Y-68688222D01*
X88709880Y-68592984D01*
X88757499Y-68545365D01*
X88852737Y-68497746D01*
X88995594Y-68497746D01*
X89090832Y-68545365D01*
X89138451Y-68592984D01*
X89186070Y-68688222D01*
X89186070Y-69069175D01*
X89662261Y-67545365D02*
X89662261Y-68116794D01*
X89662261Y-67831080D02*
X88662261Y-67831080D01*
X88805118Y-67926318D01*
X88900356Y-68021556D01*
X88947975Y-68116794D01*
M02*
