G04 #@! TF.FileFunction,Legend,Top*
%FSLAX46Y46*%
G04 Gerber Fmt 4.6, Leading zero omitted, Abs format (unit mm)*
G04 Created by KiCad (PCBNEW 4.0.3+e1-6302~38~ubuntu16.04.1-stable) date Tue Aug 16 18:31:39 2016*
%MOMM*%
%LPD*%
G01*
G04 APERTURE LIST*
%ADD10C,0.100000*%
%ADD11C,0.150000*%
G04 APERTURE END LIST*
D10*
D11*
X48510000Y-102850000D02*
X45510000Y-102850000D01*
X45510000Y-100350000D02*
X48510000Y-100350000D01*
X54360000Y-107970000D02*
X57360000Y-107970000D01*
X57360000Y-110470000D02*
X54360000Y-110470000D01*
X60995000Y-111841000D02*
X60995000Y-121839000D01*
X61135000Y-111845000D02*
X61135000Y-121835000D01*
X61275000Y-111853000D02*
X61275000Y-121827000D01*
X61415000Y-111865000D02*
X61415000Y-121815000D01*
X61555000Y-111880000D02*
X61555000Y-121800000D01*
X61695000Y-111900000D02*
X61695000Y-121780000D01*
X61835000Y-111924000D02*
X61835000Y-121756000D01*
X61975000Y-111953000D02*
X61975000Y-121727000D01*
X62115000Y-111985000D02*
X62115000Y-121695000D01*
X62255000Y-112022000D02*
X62255000Y-121658000D01*
X62395000Y-112063000D02*
X62395000Y-121617000D01*
X62535000Y-112108000D02*
X62535000Y-116374000D01*
X62535000Y-117306000D02*
X62535000Y-121572000D01*
X62675000Y-112158000D02*
X62675000Y-116173000D01*
X62675000Y-117507000D02*
X62675000Y-121522000D01*
X62815000Y-112213000D02*
X62815000Y-116044000D01*
X62815000Y-117636000D02*
X62815000Y-121467000D01*
X62955000Y-112273000D02*
X62955000Y-115955000D01*
X62955000Y-117725000D02*
X62955000Y-121407000D01*
X63095000Y-112338000D02*
X63095000Y-115894000D01*
X63095000Y-117786000D02*
X63095000Y-121342000D01*
X63235000Y-112408000D02*
X63235000Y-115857000D01*
X63235000Y-117823000D02*
X63235000Y-121272000D01*
X63375000Y-112484000D02*
X63375000Y-115841000D01*
X63375000Y-117839000D02*
X63375000Y-121196000D01*
X63515000Y-112566000D02*
X63515000Y-115845000D01*
X63515000Y-117835000D02*
X63515000Y-121114000D01*
X63655000Y-112654000D02*
X63655000Y-115868000D01*
X63655000Y-117812000D02*
X63655000Y-121026000D01*
X63795000Y-112749000D02*
X63795000Y-115913000D01*
X63795000Y-117767000D02*
X63795000Y-120931000D01*
X63935000Y-112851000D02*
X63935000Y-115983000D01*
X63935000Y-117697000D02*
X63935000Y-120829000D01*
X64075000Y-112961000D02*
X64075000Y-116084000D01*
X64075000Y-117596000D02*
X64075000Y-120719000D01*
X64215000Y-113079000D02*
X64215000Y-116233000D01*
X64215000Y-117447000D02*
X64215000Y-120601000D01*
X64355000Y-113207000D02*
X64355000Y-116485000D01*
X64355000Y-117195000D02*
X64355000Y-120473000D01*
X64495000Y-113344000D02*
X64495000Y-120336000D01*
X64635000Y-113494000D02*
X64635000Y-120186000D01*
X64775000Y-113656000D02*
X64775000Y-120024000D01*
X64915000Y-113833000D02*
X64915000Y-119847000D01*
X65055000Y-114029000D02*
X65055000Y-119651000D01*
X65195000Y-114247000D02*
X65195000Y-119433000D01*
X65335000Y-114493000D02*
X65335000Y-119187000D01*
X65475000Y-114778000D02*
X65475000Y-118902000D01*
X65615000Y-115120000D02*
X65615000Y-118560000D01*
X65755000Y-115566000D02*
X65755000Y-118114000D01*
X65895000Y-116341000D02*
X65895000Y-117339000D01*
X64420000Y-116840000D02*
G75*
G03X64420000Y-116840000I-1000000J0D01*
G01*
X65957500Y-116840000D02*
G75*
G03X65957500Y-116840000I-5037500J0D01*
G01*
X71100000Y-105160000D02*
X71100000Y-108160000D01*
X68600000Y-108160000D02*
X68600000Y-105160000D01*
X45470000Y-95270000D02*
X48470000Y-95270000D01*
X48470000Y-97770000D02*
X45470000Y-97770000D01*
X54612540Y-100076520D02*
X54612540Y-101473520D01*
X54612540Y-95631520D02*
X54612540Y-94107520D01*
X55374540Y-96012520D02*
X53850540Y-96012520D01*
X55374540Y-95758520D02*
X53850540Y-95758520D01*
X54612540Y-95504520D02*
X53850540Y-95504520D01*
X53850540Y-95504520D02*
X53850540Y-100076520D01*
X53850540Y-100076520D02*
X55374540Y-100076520D01*
X55374540Y-100076520D02*
X55374540Y-95504520D01*
X55374540Y-95504520D02*
X54612540Y-95504520D01*
X49532540Y-89916520D02*
X49532540Y-91313520D01*
X49532540Y-85471520D02*
X49532540Y-83947520D01*
X50294540Y-85852520D02*
X48770540Y-85852520D01*
X50294540Y-85598520D02*
X48770540Y-85598520D01*
X49532540Y-85344520D02*
X48770540Y-85344520D01*
X48770540Y-85344520D02*
X48770540Y-89916520D01*
X48770540Y-89916520D02*
X50294540Y-89916520D01*
X50294540Y-89916520D02*
X50294540Y-85344520D01*
X50294540Y-85344520D02*
X49532540Y-85344520D01*
X40640000Y-82550000D02*
X40640000Y-128270000D01*
X40640000Y-128270000D02*
X43180000Y-128270000D01*
X43180000Y-128270000D02*
X43180000Y-82550000D01*
X40360000Y-79730000D02*
X40360000Y-81280000D01*
X40640000Y-82550000D02*
X43180000Y-82550000D01*
X43460000Y-81280000D02*
X43460000Y-79730000D01*
X43460000Y-79730000D02*
X40360000Y-79730000D01*
X57150000Y-137100000D02*
X57150000Y-128270000D01*
X54610000Y-137100000D02*
X57150000Y-137100000D01*
X54610000Y-128270000D02*
X54610000Y-137100000D01*
X54610000Y-128270000D02*
X57150000Y-128270000D01*
X52070000Y-128270000D02*
X54610000Y-128270000D01*
X53340000Y-125600000D02*
X51790000Y-125600000D01*
X51790000Y-125600000D02*
X51790000Y-127000000D01*
X52070000Y-128270000D02*
X52070000Y-137100000D01*
X52070000Y-137100000D02*
X54610000Y-137100000D01*
X54610000Y-137100000D02*
X54610000Y-128270000D01*
X78740000Y-82550000D02*
X78740000Y-128270000D01*
X78740000Y-128270000D02*
X81280000Y-128270000D01*
X81280000Y-128270000D02*
X81280000Y-82550000D01*
X78460000Y-79730000D02*
X78460000Y-81280000D01*
X78740000Y-82550000D02*
X81280000Y-82550000D01*
X81560000Y-81280000D02*
X81560000Y-79730000D01*
X81560000Y-79730000D02*
X78460000Y-79730000D01*
X54610000Y-71180000D02*
X54610000Y-80010000D01*
X57150000Y-71180000D02*
X54610000Y-71180000D01*
X57150000Y-80010000D02*
X57150000Y-71180000D01*
X57150000Y-80010000D02*
X54610000Y-80010000D01*
X59690000Y-80010000D02*
X57150000Y-80010000D01*
X58420000Y-82680000D02*
X59970000Y-82680000D01*
X59970000Y-82680000D02*
X59970000Y-81280000D01*
X59690000Y-80010000D02*
X59690000Y-71180000D01*
X59690000Y-71180000D02*
X57150000Y-71180000D01*
X57150000Y-71180000D02*
X57150000Y-80010000D01*
X57404000Y-100584000D02*
X57912000Y-100076000D01*
X57404000Y-99568000D02*
X56896000Y-100076000D01*
X56896000Y-100076000D02*
X57404000Y-100584000D01*
X61976000Y-97790000D02*
G75*
G03X61976000Y-97790000I-2286000J0D01*
G01*
X62440000Y-97790000D02*
G75*
G03X62440000Y-97790000I-2750000J0D01*
G01*
X56896000Y-84836000D02*
X56388000Y-85344000D01*
X56896000Y-85852000D02*
X57404000Y-85344000D01*
X57404000Y-85344000D02*
X56896000Y-84836000D01*
X56896000Y-87630000D02*
G75*
G03X56896000Y-87630000I-2286000J0D01*
G01*
X57360000Y-87630000D02*
G75*
G03X57360000Y-87630000I-2750000J0D01*
G01*
X63754000Y-92456000D02*
X63246000Y-91948000D01*
X62738000Y-92456000D02*
X63246000Y-92964000D01*
X63246000Y-92964000D02*
X63754000Y-92456000D01*
X63246000Y-90170000D02*
G75*
G03X63246000Y-90170000I-2286000J0D01*
G01*
X63710000Y-90170000D02*
G75*
G03X63710000Y-90170000I-2750000J0D01*
G01*
X71374000Y-115316000D02*
X70866000Y-114808000D01*
X70358000Y-115316000D02*
X70866000Y-115824000D01*
X70866000Y-115824000D02*
X71374000Y-115316000D01*
X70866000Y-113030000D02*
G75*
G03X70866000Y-113030000I-2286000J0D01*
G01*
X71330000Y-113030000D02*
G75*
G03X71330000Y-113030000I-2750000J0D01*
G01*
X63754000Y-103124000D02*
X64262000Y-102616000D01*
X63754000Y-102108000D02*
X63246000Y-102616000D01*
X63246000Y-102616000D02*
X63754000Y-103124000D01*
X68326000Y-100330000D02*
G75*
G03X68326000Y-100330000I-2286000J0D01*
G01*
X68790000Y-100330000D02*
G75*
G03X68790000Y-100330000I-2750000J0D01*
G01*
X66294000Y-110236000D02*
X65786000Y-109728000D01*
X65278000Y-110236000D02*
X65786000Y-110744000D01*
X65786000Y-110744000D02*
X66294000Y-110236000D01*
X65786000Y-107950000D02*
G75*
G03X65786000Y-107950000I-2286000J0D01*
G01*
X66250000Y-107950000D02*
G75*
G03X66250000Y-107950000I-2750000J0D01*
G01*
X71882000Y-113284000D02*
X73025000Y-113284000D01*
X71882000Y-110236000D02*
X73025000Y-110236000D01*
X73025000Y-106426000D02*
X76708000Y-106426000D01*
X76708000Y-106426000D02*
X76708000Y-117094000D01*
X76708000Y-117094000D02*
X73025000Y-117094000D01*
X71882000Y-106426000D02*
X73025000Y-106426000D01*
X73025000Y-106426000D02*
X73025000Y-117094000D01*
X73025000Y-117094000D02*
X71882000Y-117094000D01*
X71882000Y-111760000D02*
X71882000Y-117094000D01*
X71882000Y-111760000D02*
X71882000Y-106426000D01*
X76708000Y-121666000D02*
X75565000Y-121666000D01*
X76708000Y-124714000D02*
X75565000Y-124714000D01*
X75565000Y-128524000D02*
X71882000Y-128524000D01*
X71882000Y-128524000D02*
X71882000Y-117856000D01*
X71882000Y-117856000D02*
X75565000Y-117856000D01*
X76708000Y-128524000D02*
X75565000Y-128524000D01*
X75565000Y-128524000D02*
X75565000Y-117856000D01*
X75565000Y-117856000D02*
X76708000Y-117856000D01*
X76708000Y-123190000D02*
X76708000Y-117856000D01*
X76708000Y-123190000D02*
X76708000Y-128524000D01*
X46990000Y-85090000D02*
X46990000Y-90170000D01*
X46990000Y-90170000D02*
X44450000Y-90170000D01*
X44450000Y-90170000D02*
X44450000Y-85090000D01*
X44450000Y-85090000D02*
X46990000Y-85090000D01*
X45720000Y-85090000D02*
X45720000Y-83820000D01*
X45720000Y-90170000D02*
X45720000Y-91440000D01*
X50800000Y-102870000D02*
X50800000Y-97790000D01*
X50800000Y-97790000D02*
X53340000Y-97790000D01*
X53340000Y-97790000D02*
X53340000Y-102870000D01*
X53340000Y-102870000D02*
X50800000Y-102870000D01*
X52070000Y-102870000D02*
X52070000Y-104140000D01*
X52070000Y-97790000D02*
X52070000Y-96520000D01*
X48260000Y-115570000D02*
X48260000Y-120650000D01*
X48260000Y-120650000D02*
X45720000Y-120650000D01*
X45720000Y-120650000D02*
X45720000Y-115570000D01*
X45720000Y-115570000D02*
X48260000Y-115570000D01*
X46990000Y-115570000D02*
X46990000Y-114300000D01*
X46990000Y-120650000D02*
X46990000Y-121920000D01*
X74930000Y-95250000D02*
X74930000Y-100330000D01*
X74930000Y-100330000D02*
X72390000Y-100330000D01*
X72390000Y-100330000D02*
X72390000Y-95250000D01*
X72390000Y-95250000D02*
X74930000Y-95250000D01*
X73660000Y-95250000D02*
X73660000Y-93980000D01*
X73660000Y-100330000D02*
X73660000Y-101600000D01*
X71120000Y-90170000D02*
X71120000Y-95250000D01*
X71120000Y-95250000D02*
X68580000Y-95250000D01*
X68580000Y-95250000D02*
X68580000Y-90170000D01*
X68580000Y-90170000D02*
X71120000Y-90170000D01*
X69850000Y-90170000D02*
X69850000Y-88900000D01*
X69850000Y-95250000D02*
X69850000Y-96520000D01*
X59690000Y-124460000D02*
X69850000Y-124460000D01*
X69850000Y-124460000D02*
X69850000Y-129540000D01*
X69850000Y-129540000D02*
X59690000Y-129540000D01*
X59690000Y-129540000D02*
X59690000Y-124460000D01*
X76202540Y-101346520D02*
X76202540Y-102743520D01*
X76202540Y-96901520D02*
X76202540Y-95377520D01*
X76964540Y-97282520D02*
X75440540Y-97282520D01*
X76964540Y-97028520D02*
X75440540Y-97028520D01*
X76202540Y-96774520D02*
X75440540Y-96774520D01*
X75440540Y-96774520D02*
X75440540Y-101346520D01*
X75440540Y-101346520D02*
X76964540Y-101346520D01*
X76964540Y-101346520D02*
X76964540Y-96774520D01*
X76964540Y-96774520D02*
X76202540Y-96774520D01*
X50802540Y-120396520D02*
X50802540Y-121793520D01*
X50802540Y-115951520D02*
X50802540Y-114427520D01*
X51564540Y-116332520D02*
X50040540Y-116332520D01*
X51564540Y-116078520D02*
X50040540Y-116078520D01*
X50802540Y-115824520D02*
X50040540Y-115824520D01*
X50040540Y-115824520D02*
X50040540Y-120396520D01*
X50040540Y-120396520D02*
X51564540Y-120396520D01*
X51564540Y-120396520D02*
X51564540Y-115824520D01*
X51564540Y-115824520D02*
X50802540Y-115824520D01*
X46843334Y-104457143D02*
X46795715Y-104504762D01*
X46652858Y-104552381D01*
X46557620Y-104552381D01*
X46414762Y-104504762D01*
X46319524Y-104409524D01*
X46271905Y-104314286D01*
X46224286Y-104123810D01*
X46224286Y-103980952D01*
X46271905Y-103790476D01*
X46319524Y-103695238D01*
X46414762Y-103600000D01*
X46557620Y-103552381D01*
X46652858Y-103552381D01*
X46795715Y-103600000D01*
X46843334Y-103647619D01*
X47795715Y-104552381D02*
X47224286Y-104552381D01*
X47510000Y-104552381D02*
X47510000Y-103552381D01*
X47414762Y-103695238D01*
X47319524Y-103790476D01*
X47224286Y-103838095D01*
X55693334Y-107077143D02*
X55645715Y-107124762D01*
X55502858Y-107172381D01*
X55407620Y-107172381D01*
X55264762Y-107124762D01*
X55169524Y-107029524D01*
X55121905Y-106934286D01*
X55074286Y-106743810D01*
X55074286Y-106600952D01*
X55121905Y-106410476D01*
X55169524Y-106315238D01*
X55264762Y-106220000D01*
X55407620Y-106172381D01*
X55502858Y-106172381D01*
X55645715Y-106220000D01*
X55693334Y-106267619D01*
X56074286Y-106267619D02*
X56121905Y-106220000D01*
X56217143Y-106172381D01*
X56455239Y-106172381D01*
X56550477Y-106220000D01*
X56598096Y-106267619D01*
X56645715Y-106362857D01*
X56645715Y-106458095D01*
X56598096Y-106600952D01*
X56026667Y-107172381D01*
X56645715Y-107172381D01*
X60753334Y-110897143D02*
X60705715Y-110944762D01*
X60562858Y-110992381D01*
X60467620Y-110992381D01*
X60324762Y-110944762D01*
X60229524Y-110849524D01*
X60181905Y-110754286D01*
X60134286Y-110563810D01*
X60134286Y-110420952D01*
X60181905Y-110230476D01*
X60229524Y-110135238D01*
X60324762Y-110040000D01*
X60467620Y-109992381D01*
X60562858Y-109992381D01*
X60705715Y-110040000D01*
X60753334Y-110087619D01*
X61086667Y-109992381D02*
X61705715Y-109992381D01*
X61372381Y-110373333D01*
X61515239Y-110373333D01*
X61610477Y-110420952D01*
X61658096Y-110468571D01*
X61705715Y-110563810D01*
X61705715Y-110801905D01*
X61658096Y-110897143D01*
X61610477Y-110944762D01*
X61515239Y-110992381D01*
X61229524Y-110992381D01*
X61134286Y-110944762D01*
X61086667Y-110897143D01*
X72707143Y-106826666D02*
X72754762Y-106874285D01*
X72802381Y-107017142D01*
X72802381Y-107112380D01*
X72754762Y-107255238D01*
X72659524Y-107350476D01*
X72564286Y-107398095D01*
X72373810Y-107445714D01*
X72230952Y-107445714D01*
X72040476Y-107398095D01*
X71945238Y-107350476D01*
X71850000Y-107255238D01*
X71802381Y-107112380D01*
X71802381Y-107017142D01*
X71850000Y-106874285D01*
X71897619Y-106826666D01*
X72135714Y-105969523D02*
X72802381Y-105969523D01*
X71754762Y-106207619D02*
X72469048Y-106445714D01*
X72469048Y-105826666D01*
X46803334Y-94377143D02*
X46755715Y-94424762D01*
X46612858Y-94472381D01*
X46517620Y-94472381D01*
X46374762Y-94424762D01*
X46279524Y-94329524D01*
X46231905Y-94234286D01*
X46184286Y-94043810D01*
X46184286Y-93900952D01*
X46231905Y-93710476D01*
X46279524Y-93615238D01*
X46374762Y-93520000D01*
X46517620Y-93472381D01*
X46612858Y-93472381D01*
X46755715Y-93520000D01*
X46803334Y-93567619D01*
X47708096Y-93472381D02*
X47231905Y-93472381D01*
X47184286Y-93948571D01*
X47231905Y-93900952D01*
X47327143Y-93853333D01*
X47565239Y-93853333D01*
X47660477Y-93900952D01*
X47708096Y-93948571D01*
X47755715Y-94043810D01*
X47755715Y-94281905D01*
X47708096Y-94377143D01*
X47660477Y-94424762D01*
X47565239Y-94472381D01*
X47327143Y-94472381D01*
X47231905Y-94424762D01*
X47184286Y-94377143D01*
X52524921Y-98878615D02*
X51524921Y-98878615D01*
X51524921Y-98640520D01*
X51572540Y-98497662D01*
X51667778Y-98402424D01*
X51763016Y-98354805D01*
X51953492Y-98307186D01*
X52096350Y-98307186D01*
X52286826Y-98354805D01*
X52382064Y-98402424D01*
X52477302Y-98497662D01*
X52524921Y-98640520D01*
X52524921Y-98878615D01*
X52524921Y-97354805D02*
X52524921Y-97926234D01*
X52524921Y-97640520D02*
X51524921Y-97640520D01*
X51667778Y-97735758D01*
X51763016Y-97830996D01*
X51810635Y-97926234D01*
X47444921Y-88718615D02*
X46444921Y-88718615D01*
X46444921Y-88480520D01*
X46492540Y-88337662D01*
X46587778Y-88242424D01*
X46683016Y-88194805D01*
X46873492Y-88147186D01*
X47016350Y-88147186D01*
X47206826Y-88194805D01*
X47302064Y-88242424D01*
X47397302Y-88337662D01*
X47444921Y-88480520D01*
X47444921Y-88718615D01*
X46444921Y-87813853D02*
X46444921Y-87194805D01*
X46825873Y-87528139D01*
X46825873Y-87385281D01*
X46873492Y-87290043D01*
X46921111Y-87242424D01*
X47016350Y-87194805D01*
X47254445Y-87194805D01*
X47349683Y-87242424D01*
X47397302Y-87290043D01*
X47444921Y-87385281D01*
X47444921Y-87670996D01*
X47397302Y-87766234D01*
X47349683Y-87813853D01*
X47462381Y-82018095D02*
X46462381Y-82018095D01*
X46462381Y-81637142D01*
X46510000Y-81541904D01*
X46557619Y-81494285D01*
X46652857Y-81446666D01*
X46795714Y-81446666D01*
X46890952Y-81494285D01*
X46938571Y-81541904D01*
X46986190Y-81637142D01*
X46986190Y-82018095D01*
X47462381Y-80494285D02*
X47462381Y-81065714D01*
X47462381Y-80780000D02*
X46462381Y-80780000D01*
X46605238Y-80875238D01*
X46700476Y-80970476D01*
X46748095Y-81065714D01*
X52601905Y-122702381D02*
X52601905Y-121702381D01*
X52982858Y-121702381D01*
X53078096Y-121750000D01*
X53125715Y-121797619D01*
X53173334Y-121892857D01*
X53173334Y-122035714D01*
X53125715Y-122130952D01*
X53078096Y-122178571D01*
X52982858Y-122226190D01*
X52601905Y-122226190D01*
X53554286Y-121797619D02*
X53601905Y-121750000D01*
X53697143Y-121702381D01*
X53935239Y-121702381D01*
X54030477Y-121750000D01*
X54078096Y-121797619D01*
X54125715Y-121892857D01*
X54125715Y-121988095D01*
X54078096Y-122130952D01*
X53506667Y-122702381D01*
X54125715Y-122702381D01*
X85562381Y-82018095D02*
X84562381Y-82018095D01*
X84562381Y-81637142D01*
X84610000Y-81541904D01*
X84657619Y-81494285D01*
X84752857Y-81446666D01*
X84895714Y-81446666D01*
X84990952Y-81494285D01*
X85038571Y-81541904D01*
X85086190Y-81637142D01*
X85086190Y-82018095D01*
X84562381Y-81113333D02*
X84562381Y-80494285D01*
X84943333Y-80827619D01*
X84943333Y-80684761D01*
X84990952Y-80589523D01*
X85038571Y-80541904D01*
X85133810Y-80494285D01*
X85371905Y-80494285D01*
X85467143Y-80541904D01*
X85514762Y-80589523D01*
X85562381Y-80684761D01*
X85562381Y-80970476D01*
X85514762Y-81065714D01*
X85467143Y-81113333D01*
X57681905Y-86482381D02*
X57681905Y-85482381D01*
X58062858Y-85482381D01*
X58158096Y-85530000D01*
X58205715Y-85577619D01*
X58253334Y-85672857D01*
X58253334Y-85815714D01*
X58205715Y-85910952D01*
X58158096Y-85958571D01*
X58062858Y-86006190D01*
X57681905Y-86006190D01*
X59110477Y-85815714D02*
X59110477Y-86482381D01*
X58872381Y-85434762D02*
X58634286Y-86149048D01*
X59253334Y-86149048D01*
X65063619Y-98139238D02*
X65016000Y-98234476D01*
X64920762Y-98329714D01*
X64777905Y-98472571D01*
X64730286Y-98567810D01*
X64730286Y-98663048D01*
X64968381Y-98615429D02*
X64920762Y-98710667D01*
X64825524Y-98805905D01*
X64635048Y-98853524D01*
X64301714Y-98853524D01*
X64111238Y-98805905D01*
X64016000Y-98710667D01*
X63968381Y-98615429D01*
X63968381Y-98424952D01*
X64016000Y-98329714D01*
X64111238Y-98234476D01*
X64301714Y-98186857D01*
X64635048Y-98186857D01*
X64825524Y-98234476D01*
X64920762Y-98329714D01*
X64968381Y-98424952D01*
X64968381Y-98615429D01*
X64968381Y-97234476D02*
X64968381Y-97805905D01*
X64968381Y-97520191D02*
X63968381Y-97520191D01*
X64111238Y-97615429D01*
X64206476Y-97710667D01*
X64254095Y-97805905D01*
X50331619Y-87471238D02*
X50284000Y-87566476D01*
X50188762Y-87661714D01*
X50045905Y-87804571D01*
X49998286Y-87899810D01*
X49998286Y-87995048D01*
X50236381Y-87947429D02*
X50188762Y-88042667D01*
X50093524Y-88137905D01*
X49903048Y-88185524D01*
X49569714Y-88185524D01*
X49379238Y-88137905D01*
X49284000Y-88042667D01*
X49236381Y-87947429D01*
X49236381Y-87756952D01*
X49284000Y-87661714D01*
X49379238Y-87566476D01*
X49569714Y-87518857D01*
X49903048Y-87518857D01*
X50093524Y-87566476D01*
X50188762Y-87661714D01*
X50236381Y-87756952D01*
X50236381Y-87947429D01*
X49331619Y-87137905D02*
X49284000Y-87090286D01*
X49236381Y-86995048D01*
X49236381Y-86756952D01*
X49284000Y-86661714D01*
X49331619Y-86614095D01*
X49426857Y-86566476D01*
X49522095Y-86566476D01*
X49664952Y-86614095D01*
X50236381Y-87185524D01*
X50236381Y-86566476D01*
X61118762Y-85891619D02*
X61023524Y-85844000D01*
X60928286Y-85748762D01*
X60785429Y-85605905D01*
X60690190Y-85558286D01*
X60594952Y-85558286D01*
X60642571Y-85796381D02*
X60547333Y-85748762D01*
X60452095Y-85653524D01*
X60404476Y-85463048D01*
X60404476Y-85129714D01*
X60452095Y-84939238D01*
X60547333Y-84844000D01*
X60642571Y-84796381D01*
X60833048Y-84796381D01*
X60928286Y-84844000D01*
X61023524Y-84939238D01*
X61071143Y-85129714D01*
X61071143Y-85463048D01*
X61023524Y-85653524D01*
X60928286Y-85748762D01*
X60833048Y-85796381D01*
X60642571Y-85796381D01*
X61404476Y-84796381D02*
X62023524Y-84796381D01*
X61690190Y-85177333D01*
X61833048Y-85177333D01*
X61928286Y-85224952D01*
X61975905Y-85272571D01*
X62023524Y-85367810D01*
X62023524Y-85605905D01*
X61975905Y-85701143D01*
X61928286Y-85748762D01*
X61833048Y-85796381D01*
X61547333Y-85796381D01*
X61452095Y-85748762D01*
X61404476Y-85701143D01*
X68738762Y-108751619D02*
X68643524Y-108704000D01*
X68548286Y-108608762D01*
X68405429Y-108465905D01*
X68310190Y-108418286D01*
X68214952Y-108418286D01*
X68262571Y-108656381D02*
X68167333Y-108608762D01*
X68072095Y-108513524D01*
X68024476Y-108323048D01*
X68024476Y-107989714D01*
X68072095Y-107799238D01*
X68167333Y-107704000D01*
X68262571Y-107656381D01*
X68453048Y-107656381D01*
X68548286Y-107704000D01*
X68643524Y-107799238D01*
X68691143Y-107989714D01*
X68691143Y-108323048D01*
X68643524Y-108513524D01*
X68548286Y-108608762D01*
X68453048Y-108656381D01*
X68262571Y-108656381D01*
X69548286Y-107989714D02*
X69548286Y-108656381D01*
X69310190Y-107608762D02*
X69072095Y-108323048D01*
X69691143Y-108323048D01*
X71413619Y-100679238D02*
X71366000Y-100774476D01*
X71270762Y-100869714D01*
X71127905Y-101012571D01*
X71080286Y-101107810D01*
X71080286Y-101203048D01*
X71318381Y-101155429D02*
X71270762Y-101250667D01*
X71175524Y-101345905D01*
X70985048Y-101393524D01*
X70651714Y-101393524D01*
X70461238Y-101345905D01*
X70366000Y-101250667D01*
X70318381Y-101155429D01*
X70318381Y-100964952D01*
X70366000Y-100869714D01*
X70461238Y-100774476D01*
X70651714Y-100726857D01*
X70985048Y-100726857D01*
X71175524Y-100774476D01*
X71270762Y-100869714D01*
X71318381Y-100964952D01*
X71318381Y-101155429D01*
X70318381Y-99822095D02*
X70318381Y-100298286D01*
X70794571Y-100345905D01*
X70746952Y-100298286D01*
X70699333Y-100203048D01*
X70699333Y-99964952D01*
X70746952Y-99869714D01*
X70794571Y-99822095D01*
X70889810Y-99774476D01*
X71127905Y-99774476D01*
X71223143Y-99822095D01*
X71270762Y-99869714D01*
X71318381Y-99964952D01*
X71318381Y-100203048D01*
X71270762Y-100298286D01*
X71223143Y-100345905D01*
X63658762Y-103671619D02*
X63563524Y-103624000D01*
X63468286Y-103528762D01*
X63325429Y-103385905D01*
X63230190Y-103338286D01*
X63134952Y-103338286D01*
X63182571Y-103576381D02*
X63087333Y-103528762D01*
X62992095Y-103433524D01*
X62944476Y-103243048D01*
X62944476Y-102909714D01*
X62992095Y-102719238D01*
X63087333Y-102624000D01*
X63182571Y-102576381D01*
X63373048Y-102576381D01*
X63468286Y-102624000D01*
X63563524Y-102719238D01*
X63611143Y-102909714D01*
X63611143Y-103243048D01*
X63563524Y-103433524D01*
X63468286Y-103528762D01*
X63373048Y-103576381D01*
X63182571Y-103576381D01*
X64468286Y-102576381D02*
X64277809Y-102576381D01*
X64182571Y-102624000D01*
X64134952Y-102671619D01*
X64039714Y-102814476D01*
X63992095Y-103004952D01*
X63992095Y-103385905D01*
X64039714Y-103481143D01*
X64087333Y-103528762D01*
X64182571Y-103576381D01*
X64373048Y-103576381D01*
X64468286Y-103528762D01*
X64515905Y-103481143D01*
X64563524Y-103385905D01*
X64563524Y-103147810D01*
X64515905Y-103052571D01*
X64468286Y-103004952D01*
X64373048Y-102957333D01*
X64182571Y-102957333D01*
X64087333Y-103004952D01*
X64039714Y-103052571D01*
X63992095Y-103147810D01*
X70397619Y-111855238D02*
X70350000Y-111950476D01*
X70254762Y-112045714D01*
X70111905Y-112188571D01*
X70064286Y-112283810D01*
X70064286Y-112379048D01*
X70302381Y-112331429D02*
X70254762Y-112426667D01*
X70159524Y-112521905D01*
X69969048Y-112569524D01*
X69635714Y-112569524D01*
X69445238Y-112521905D01*
X69350000Y-112426667D01*
X69302381Y-112331429D01*
X69302381Y-112140952D01*
X69350000Y-112045714D01*
X69445238Y-111950476D01*
X69635714Y-111902857D01*
X69969048Y-111902857D01*
X70159524Y-111950476D01*
X70254762Y-112045714D01*
X70302381Y-112140952D01*
X70302381Y-112331429D01*
X69302381Y-111569524D02*
X69302381Y-110902857D01*
X70302381Y-111331429D01*
X79287619Y-123285238D02*
X79240000Y-123380476D01*
X79144762Y-123475714D01*
X79001905Y-123618571D01*
X78954286Y-123713810D01*
X78954286Y-123809048D01*
X79192381Y-123761429D02*
X79144762Y-123856667D01*
X79049524Y-123951905D01*
X78859048Y-123999524D01*
X78525714Y-123999524D01*
X78335238Y-123951905D01*
X78240000Y-123856667D01*
X78192381Y-123761429D01*
X78192381Y-123570952D01*
X78240000Y-123475714D01*
X78335238Y-123380476D01*
X78525714Y-123332857D01*
X78859048Y-123332857D01*
X79049524Y-123380476D01*
X79144762Y-123475714D01*
X79192381Y-123570952D01*
X79192381Y-123761429D01*
X78620952Y-122761429D02*
X78573333Y-122856667D01*
X78525714Y-122904286D01*
X78430476Y-122951905D01*
X78382857Y-122951905D01*
X78287619Y-122904286D01*
X78240000Y-122856667D01*
X78192381Y-122761429D01*
X78192381Y-122570952D01*
X78240000Y-122475714D01*
X78287619Y-122428095D01*
X78382857Y-122380476D01*
X78430476Y-122380476D01*
X78525714Y-122428095D01*
X78573333Y-122475714D01*
X78620952Y-122570952D01*
X78620952Y-122761429D01*
X78668571Y-122856667D01*
X78716190Y-122904286D01*
X78811429Y-122951905D01*
X79001905Y-122951905D01*
X79097143Y-122904286D01*
X79144762Y-122856667D01*
X79192381Y-122761429D01*
X79192381Y-122570952D01*
X79144762Y-122475714D01*
X79097143Y-122428095D01*
X79001905Y-122380476D01*
X78811429Y-122380476D01*
X78716190Y-122428095D01*
X78668571Y-122475714D01*
X78620952Y-122570952D01*
X49672501Y-88045586D02*
X49196310Y-88378920D01*
X49672501Y-88617015D02*
X48672501Y-88617015D01*
X48672501Y-88236062D01*
X48720120Y-88140824D01*
X48767739Y-88093205D01*
X48862977Y-88045586D01*
X49005834Y-88045586D01*
X49101072Y-88093205D01*
X49148691Y-88140824D01*
X49196310Y-88236062D01*
X49196310Y-88617015D01*
X49672501Y-87093205D02*
X49672501Y-87664634D01*
X49672501Y-87378920D02*
X48672501Y-87378920D01*
X48815358Y-87474158D01*
X48910596Y-87569396D01*
X48958215Y-87664634D01*
X49022261Y-100247746D02*
X48546070Y-100581080D01*
X49022261Y-100819175D02*
X48022261Y-100819175D01*
X48022261Y-100438222D01*
X48069880Y-100342984D01*
X48117499Y-100295365D01*
X48212737Y-100247746D01*
X48355594Y-100247746D01*
X48450832Y-100295365D01*
X48498451Y-100342984D01*
X48546070Y-100438222D01*
X48546070Y-100819175D01*
X48117499Y-99866794D02*
X48069880Y-99819175D01*
X48022261Y-99723937D01*
X48022261Y-99485841D01*
X48069880Y-99390603D01*
X48117499Y-99342984D01*
X48212737Y-99295365D01*
X48307975Y-99295365D01*
X48450832Y-99342984D01*
X49022261Y-99914413D01*
X49022261Y-99295365D01*
X50942501Y-118525586D02*
X50466310Y-118858920D01*
X50942501Y-119097015D02*
X49942501Y-119097015D01*
X49942501Y-118716062D01*
X49990120Y-118620824D01*
X50037739Y-118573205D01*
X50132977Y-118525586D01*
X50275834Y-118525586D01*
X50371072Y-118573205D01*
X50418691Y-118620824D01*
X50466310Y-118716062D01*
X50466310Y-119097015D01*
X49942501Y-118192253D02*
X49942501Y-117573205D01*
X50323453Y-117906539D01*
X50323453Y-117763681D01*
X50371072Y-117668443D01*
X50418691Y-117620824D01*
X50513930Y-117573205D01*
X50752025Y-117573205D01*
X50847263Y-117620824D01*
X50894882Y-117668443D01*
X50942501Y-117763681D01*
X50942501Y-118049396D01*
X50894882Y-118144634D01*
X50847263Y-118192253D01*
X77612501Y-98205586D02*
X77136310Y-98538920D01*
X77612501Y-98777015D02*
X76612501Y-98777015D01*
X76612501Y-98396062D01*
X76660120Y-98300824D01*
X76707739Y-98253205D01*
X76802977Y-98205586D01*
X76945834Y-98205586D01*
X77041072Y-98253205D01*
X77088691Y-98300824D01*
X77136310Y-98396062D01*
X77136310Y-98777015D01*
X76612501Y-97300824D02*
X76612501Y-97777015D01*
X77088691Y-97824634D01*
X77041072Y-97777015D01*
X76993453Y-97681777D01*
X76993453Y-97443681D01*
X77041072Y-97348443D01*
X77088691Y-97300824D01*
X77183930Y-97253205D01*
X77422025Y-97253205D01*
X77517263Y-97300824D01*
X77564882Y-97348443D01*
X77612501Y-97443681D01*
X77612501Y-97681777D01*
X77564882Y-97777015D01*
X77517263Y-97824634D01*
X73802501Y-93125586D02*
X73326310Y-93458920D01*
X73802501Y-93697015D02*
X72802501Y-93697015D01*
X72802501Y-93316062D01*
X72850120Y-93220824D01*
X72897739Y-93173205D01*
X72992977Y-93125586D01*
X73135834Y-93125586D01*
X73231072Y-93173205D01*
X73278691Y-93220824D01*
X73326310Y-93316062D01*
X73326310Y-93697015D01*
X72802501Y-92268443D02*
X72802501Y-92458920D01*
X72850120Y-92554158D01*
X72897739Y-92601777D01*
X73040596Y-92697015D01*
X73231072Y-92744634D01*
X73612025Y-92744634D01*
X73707263Y-92697015D01*
X73754882Y-92649396D01*
X73802501Y-92554158D01*
X73802501Y-92363681D01*
X73754882Y-92268443D01*
X73707263Y-92220824D01*
X73612025Y-92173205D01*
X73373930Y-92173205D01*
X73278691Y-92220824D01*
X73231072Y-92268443D01*
X73183453Y-92363681D01*
X73183453Y-92554158D01*
X73231072Y-92649396D01*
X73278691Y-92697015D01*
X73373930Y-92744634D01*
X66548095Y-126452381D02*
X66548095Y-127261905D01*
X66595714Y-127357143D01*
X66643333Y-127404762D01*
X66738571Y-127452381D01*
X66929048Y-127452381D01*
X67024286Y-127404762D01*
X67071905Y-127357143D01*
X67119524Y-127261905D01*
X67119524Y-126452381D01*
X68119524Y-127452381D02*
X67548095Y-127452381D01*
X67833809Y-127452381D02*
X67833809Y-126452381D01*
X67738571Y-126595238D01*
X67643333Y-126690476D01*
X67548095Y-126738095D01*
X74114921Y-100148615D02*
X73114921Y-100148615D01*
X73114921Y-99910520D01*
X73162540Y-99767662D01*
X73257778Y-99672424D01*
X73353016Y-99624805D01*
X73543492Y-99577186D01*
X73686350Y-99577186D01*
X73876826Y-99624805D01*
X73972064Y-99672424D01*
X74067302Y-99767662D01*
X74114921Y-99910520D01*
X74114921Y-100148615D01*
X73114921Y-98672424D02*
X73114921Y-99148615D01*
X73591111Y-99196234D01*
X73543492Y-99148615D01*
X73495873Y-99053377D01*
X73495873Y-98815281D01*
X73543492Y-98720043D01*
X73591111Y-98672424D01*
X73686350Y-98624805D01*
X73924445Y-98624805D01*
X74019683Y-98672424D01*
X74067302Y-98720043D01*
X74114921Y-98815281D01*
X74114921Y-99053377D01*
X74067302Y-99148615D01*
X74019683Y-99196234D01*
X48714921Y-119198615D02*
X47714921Y-119198615D01*
X47714921Y-118960520D01*
X47762540Y-118817662D01*
X47857778Y-118722424D01*
X47953016Y-118674805D01*
X48143492Y-118627186D01*
X48286350Y-118627186D01*
X48476826Y-118674805D01*
X48572064Y-118722424D01*
X48667302Y-118817662D01*
X48714921Y-118960520D01*
X48714921Y-119198615D01*
X47810159Y-118246234D02*
X47762540Y-118198615D01*
X47714921Y-118103377D01*
X47714921Y-117865281D01*
X47762540Y-117770043D01*
X47810159Y-117722424D01*
X47905397Y-117674805D01*
X48000635Y-117674805D01*
X48143492Y-117722424D01*
X48714921Y-118293853D01*
X48714921Y-117674805D01*
M02*
