G04 #@! TF.FileFunction,Legend,Top*
%FSLAX46Y46*%
G04 Gerber Fmt 4.6, Leading zero omitted, Abs format (unit mm)*
G04 Created by KiCad (PCBNEW 4.0.3+e1-6302~38~ubuntu16.04.1-stable) date Tue Aug 16 13:22:27 2016*
%MOMM*%
%LPD*%
G01*
G04 APERTURE LIST*
%ADD10C,0.100000*%
%ADD11C,0.150000*%
G04 APERTURE END LIST*
D10*
D11*
X118880000Y-115860000D02*
X124880000Y-115860000D01*
X124880000Y-120360000D02*
X118880000Y-120360000D01*
X121420000Y-94270000D02*
X127420000Y-94270000D01*
X127420000Y-98770000D02*
X121420000Y-98770000D01*
X131826520Y-134617460D02*
X133223520Y-134617460D01*
X127381520Y-134617460D02*
X125857520Y-134617460D01*
X127762520Y-133855460D02*
X127762520Y-135379460D01*
X127508520Y-133855460D02*
X127508520Y-135379460D01*
X127254520Y-134617460D02*
X127254520Y-135379460D01*
X127254520Y-135379460D02*
X131826520Y-135379460D01*
X131826520Y-135379460D02*
X131826520Y-133855460D01*
X131826520Y-133855460D02*
X127254520Y-133855460D01*
X127254520Y-133855460D02*
X127254520Y-134617460D01*
X127253480Y-139702540D02*
X125856480Y-139702540D01*
X131698480Y-139702540D02*
X133222480Y-139702540D01*
X131317480Y-140464540D02*
X131317480Y-138940540D01*
X131571480Y-140464540D02*
X131571480Y-138940540D01*
X131825480Y-139702540D02*
X131825480Y-138940540D01*
X131825480Y-138940540D02*
X127253480Y-138940540D01*
X127253480Y-138940540D02*
X127253480Y-140464540D01*
X127253480Y-140464540D02*
X131825480Y-140464540D01*
X131825480Y-140464540D02*
X131825480Y-139702540D01*
X117093480Y-129542540D02*
X115696480Y-129542540D01*
X121538480Y-129542540D02*
X123062480Y-129542540D01*
X121157480Y-130304540D02*
X121157480Y-128780540D01*
X121411480Y-130304540D02*
X121411480Y-128780540D01*
X121665480Y-129542540D02*
X121665480Y-128780540D01*
X121665480Y-128780540D02*
X117093480Y-128780540D01*
X117093480Y-128780540D02*
X117093480Y-130304540D01*
X117093480Y-130304540D02*
X121665480Y-130304540D01*
X121665480Y-130304540D02*
X121665480Y-129542540D01*
X117093480Y-125732540D02*
X115696480Y-125732540D01*
X121538480Y-125732540D02*
X123062480Y-125732540D01*
X121157480Y-126494540D02*
X121157480Y-124970540D01*
X121411480Y-126494540D02*
X121411480Y-124970540D01*
X121665480Y-125732540D02*
X121665480Y-124970540D01*
X121665480Y-124970540D02*
X117093480Y-124970540D01*
X117093480Y-124970540D02*
X117093480Y-126494540D01*
X117093480Y-126494540D02*
X121665480Y-126494540D01*
X121665480Y-126494540D02*
X121665480Y-125732540D01*
X110492540Y-130556520D02*
X110492540Y-131953520D01*
X110492540Y-126111520D02*
X110492540Y-124587520D01*
X111254540Y-126492520D02*
X109730540Y-126492520D01*
X111254540Y-126238520D02*
X109730540Y-126238520D01*
X110492540Y-125984520D02*
X109730540Y-125984520D01*
X109730540Y-125984520D02*
X109730540Y-130556520D01*
X109730540Y-130556520D02*
X111254540Y-130556520D01*
X111254540Y-130556520D02*
X111254540Y-125984520D01*
X111254540Y-125984520D02*
X110492540Y-125984520D01*
X106677460Y-125983480D02*
X106677460Y-124586480D01*
X106677460Y-130428480D02*
X106677460Y-131952480D01*
X105915460Y-130047480D02*
X107439460Y-130047480D01*
X105915460Y-130301480D02*
X107439460Y-130301480D01*
X106677460Y-130555480D02*
X107439460Y-130555480D01*
X107439460Y-130555480D02*
X107439460Y-125983480D01*
X107439460Y-125983480D02*
X105915460Y-125983480D01*
X105915460Y-125983480D02*
X105915460Y-130555480D01*
X105915460Y-130555480D02*
X106677460Y-130555480D01*
X112776520Y-120647460D02*
X114173520Y-120647460D01*
X108331520Y-120647460D02*
X106807520Y-120647460D01*
X108712520Y-119885460D02*
X108712520Y-121409460D01*
X108458520Y-119885460D02*
X108458520Y-121409460D01*
X108204520Y-120647460D02*
X108204520Y-121409460D01*
X108204520Y-121409460D02*
X112776520Y-121409460D01*
X112776520Y-121409460D02*
X112776520Y-119885460D01*
X112776520Y-119885460D02*
X108204520Y-119885460D01*
X108204520Y-119885460D02*
X108204520Y-120647460D01*
X112776520Y-118107460D02*
X114173520Y-118107460D01*
X108331520Y-118107460D02*
X106807520Y-118107460D01*
X108712520Y-117345460D02*
X108712520Y-118869460D01*
X108458520Y-117345460D02*
X108458520Y-118869460D01*
X108204520Y-118107460D02*
X108204520Y-118869460D01*
X108204520Y-118869460D02*
X112776520Y-118869460D01*
X112776520Y-118869460D02*
X112776520Y-117345460D01*
X112776520Y-117345460D02*
X108204520Y-117345460D01*
X108204520Y-117345460D02*
X108204520Y-118107460D01*
X105412540Y-110236520D02*
X105412540Y-111633520D01*
X105412540Y-105791520D02*
X105412540Y-104267520D01*
X106174540Y-106172520D02*
X104650540Y-106172520D01*
X106174540Y-105918520D02*
X104650540Y-105918520D01*
X105412540Y-105664520D02*
X104650540Y-105664520D01*
X104650540Y-105664520D02*
X104650540Y-110236520D01*
X104650540Y-110236520D02*
X106174540Y-110236520D01*
X106174540Y-110236520D02*
X106174540Y-105664520D01*
X106174540Y-105664520D02*
X105412540Y-105664520D01*
X109217460Y-105663480D02*
X109217460Y-104266480D01*
X109217460Y-110108480D02*
X109217460Y-111632480D01*
X108455460Y-109727480D02*
X109979460Y-109727480D01*
X108455460Y-109981480D02*
X109979460Y-109981480D01*
X109217460Y-110235480D02*
X109979460Y-110235480D01*
X109979460Y-110235480D02*
X109979460Y-105663480D01*
X109979460Y-105663480D02*
X108455460Y-105663480D01*
X108455460Y-105663480D02*
X108455460Y-110235480D01*
X108455460Y-110235480D02*
X109217460Y-110235480D01*
X113032540Y-102616520D02*
X113032540Y-104013520D01*
X113032540Y-98171520D02*
X113032540Y-96647520D01*
X113794540Y-98552520D02*
X112270540Y-98552520D01*
X113794540Y-98298520D02*
X112270540Y-98298520D01*
X113032540Y-98044520D02*
X112270540Y-98044520D01*
X112270540Y-98044520D02*
X112270540Y-102616520D01*
X112270540Y-102616520D02*
X113794540Y-102616520D01*
X113794540Y-102616520D02*
X113794540Y-98044520D01*
X113794540Y-98044520D02*
X113032540Y-98044520D01*
X115567460Y-98043480D02*
X115567460Y-96646480D01*
X115567460Y-102488480D02*
X115567460Y-104012480D01*
X114805460Y-102107480D02*
X116329460Y-102107480D01*
X114805460Y-102361480D02*
X116329460Y-102361480D01*
X115567460Y-102615480D02*
X116329460Y-102615480D01*
X116329460Y-102615480D02*
X116329460Y-98043480D01*
X116329460Y-98043480D02*
X114805460Y-98043480D01*
X114805460Y-98043480D02*
X114805460Y-102615480D01*
X114805460Y-102615480D02*
X115567460Y-102615480D01*
X147320000Y-96520000D02*
X147320000Y-142240000D01*
X147320000Y-142240000D02*
X149860000Y-142240000D01*
X149860000Y-142240000D02*
X149860000Y-96520000D01*
X147040000Y-93700000D02*
X147040000Y-95250000D01*
X147320000Y-96520000D02*
X149860000Y-96520000D01*
X150140000Y-95250000D02*
X150140000Y-93700000D01*
X150140000Y-93700000D02*
X147040000Y-93700000D01*
X92710000Y-96520000D02*
X92710000Y-142240000D01*
X92710000Y-142240000D02*
X95250000Y-142240000D01*
X95250000Y-142240000D02*
X95250000Y-96520000D01*
X92430000Y-93700000D02*
X92430000Y-95250000D01*
X92710000Y-96520000D02*
X95250000Y-96520000D01*
X95530000Y-95250000D02*
X95530000Y-93700000D01*
X95530000Y-93700000D02*
X92430000Y-93700000D01*
X138430000Y-96520000D02*
X143510000Y-96520000D01*
X143510000Y-96520000D02*
X143510000Y-99060000D01*
X143510000Y-99060000D02*
X138430000Y-99060000D01*
X138430000Y-99060000D02*
X138430000Y-96520000D01*
X142240000Y-105410000D02*
X137160000Y-105410000D01*
X137160000Y-105410000D02*
X137160000Y-102870000D01*
X137160000Y-102870000D02*
X142240000Y-102870000D01*
X142240000Y-102870000D02*
X142240000Y-105410000D01*
X137160000Y-106680000D02*
X142240000Y-106680000D01*
X142240000Y-106680000D02*
X142240000Y-109220000D01*
X142240000Y-109220000D02*
X137160000Y-109220000D01*
X137160000Y-109220000D02*
X137160000Y-106680000D01*
X142240000Y-132080000D02*
X137160000Y-132080000D01*
X137160000Y-132080000D02*
X137160000Y-129540000D01*
X137160000Y-129540000D02*
X142240000Y-129540000D01*
X142240000Y-129540000D02*
X142240000Y-132080000D01*
X108005000Y-94641000D02*
X108005000Y-100939000D01*
X108145000Y-94647000D02*
X108145000Y-100933000D01*
X108285000Y-94660000D02*
X108285000Y-97344000D01*
X108285000Y-98236000D02*
X108285000Y-100920000D01*
X108425000Y-94679000D02*
X108425000Y-97134000D01*
X108425000Y-98446000D02*
X108425000Y-100901000D01*
X108565000Y-94705000D02*
X108565000Y-97001000D01*
X108565000Y-98579000D02*
X108565000Y-100875000D01*
X108705000Y-94737000D02*
X108705000Y-96910000D01*
X108705000Y-98670000D02*
X108705000Y-100843000D01*
X108845000Y-94776000D02*
X108845000Y-96848000D01*
X108845000Y-98732000D02*
X108845000Y-100804000D01*
X108985000Y-94822000D02*
X108985000Y-96809000D01*
X108985000Y-98771000D02*
X108985000Y-100758000D01*
X109125000Y-94875000D02*
X109125000Y-96792000D01*
X109125000Y-98788000D02*
X109125000Y-100705000D01*
X109265000Y-94937000D02*
X109265000Y-96794000D01*
X109265000Y-98786000D02*
X109265000Y-100643000D01*
X109405000Y-95007000D02*
X109405000Y-96816000D01*
X109405000Y-98764000D02*
X109405000Y-100573000D01*
X109545000Y-95086000D02*
X109545000Y-96859000D01*
X109545000Y-98721000D02*
X109545000Y-100494000D01*
X109685000Y-95174000D02*
X109685000Y-96927000D01*
X109685000Y-98653000D02*
X109685000Y-100406000D01*
X109825000Y-95274000D02*
X109825000Y-97026000D01*
X109825000Y-98554000D02*
X109825000Y-100306000D01*
X109965000Y-95386000D02*
X109965000Y-97171000D01*
X109965000Y-98409000D02*
X109965000Y-100194000D01*
X110105000Y-95511000D02*
X110105000Y-97410000D01*
X110105000Y-98170000D02*
X110105000Y-100069000D01*
X110245000Y-95654000D02*
X110245000Y-99926000D01*
X110385000Y-95816000D02*
X110385000Y-99764000D01*
X110525000Y-96004000D02*
X110525000Y-99576000D01*
X110665000Y-96227000D02*
X110665000Y-99353000D01*
X110805000Y-96503000D02*
X110805000Y-99077000D01*
X110945000Y-96878000D02*
X110945000Y-98702000D01*
X110180000Y-97790000D02*
G75*
G03X110180000Y-97790000I-1000000J0D01*
G01*
X111117500Y-97790000D02*
G75*
G03X111117500Y-97790000I-3187500J0D01*
G01*
X100385000Y-104801000D02*
X100385000Y-111099000D01*
X100525000Y-104807000D02*
X100525000Y-111093000D01*
X100665000Y-104820000D02*
X100665000Y-107504000D01*
X100665000Y-108396000D02*
X100665000Y-111080000D01*
X100805000Y-104839000D02*
X100805000Y-107294000D01*
X100805000Y-108606000D02*
X100805000Y-111061000D01*
X100945000Y-104865000D02*
X100945000Y-107161000D01*
X100945000Y-108739000D02*
X100945000Y-111035000D01*
X101085000Y-104897000D02*
X101085000Y-107070000D01*
X101085000Y-108830000D02*
X101085000Y-111003000D01*
X101225000Y-104936000D02*
X101225000Y-107008000D01*
X101225000Y-108892000D02*
X101225000Y-110964000D01*
X101365000Y-104982000D02*
X101365000Y-106969000D01*
X101365000Y-108931000D02*
X101365000Y-110918000D01*
X101505000Y-105035000D02*
X101505000Y-106952000D01*
X101505000Y-108948000D02*
X101505000Y-110865000D01*
X101645000Y-105097000D02*
X101645000Y-106954000D01*
X101645000Y-108946000D02*
X101645000Y-110803000D01*
X101785000Y-105167000D02*
X101785000Y-106976000D01*
X101785000Y-108924000D02*
X101785000Y-110733000D01*
X101925000Y-105246000D02*
X101925000Y-107019000D01*
X101925000Y-108881000D02*
X101925000Y-110654000D01*
X102065000Y-105334000D02*
X102065000Y-107087000D01*
X102065000Y-108813000D02*
X102065000Y-110566000D01*
X102205000Y-105434000D02*
X102205000Y-107186000D01*
X102205000Y-108714000D02*
X102205000Y-110466000D01*
X102345000Y-105546000D02*
X102345000Y-107331000D01*
X102345000Y-108569000D02*
X102345000Y-110354000D01*
X102485000Y-105671000D02*
X102485000Y-107570000D01*
X102485000Y-108330000D02*
X102485000Y-110229000D01*
X102625000Y-105814000D02*
X102625000Y-110086000D01*
X102765000Y-105976000D02*
X102765000Y-109924000D01*
X102905000Y-106164000D02*
X102905000Y-109736000D01*
X103045000Y-106387000D02*
X103045000Y-109513000D01*
X103185000Y-106663000D02*
X103185000Y-109237000D01*
X103325000Y-107038000D02*
X103325000Y-108862000D01*
X102560000Y-107950000D02*
G75*
G03X102560000Y-107950000I-1000000J0D01*
G01*
X103497500Y-107950000D02*
G75*
G03X103497500Y-107950000I-3187500J0D01*
G01*
X100385000Y-95911000D02*
X100385000Y-102209000D01*
X100525000Y-95917000D02*
X100525000Y-102203000D01*
X100665000Y-95930000D02*
X100665000Y-98614000D01*
X100665000Y-99506000D02*
X100665000Y-102190000D01*
X100805000Y-95949000D02*
X100805000Y-98404000D01*
X100805000Y-99716000D02*
X100805000Y-102171000D01*
X100945000Y-95975000D02*
X100945000Y-98271000D01*
X100945000Y-99849000D02*
X100945000Y-102145000D01*
X101085000Y-96007000D02*
X101085000Y-98180000D01*
X101085000Y-99940000D02*
X101085000Y-102113000D01*
X101225000Y-96046000D02*
X101225000Y-98118000D01*
X101225000Y-100002000D02*
X101225000Y-102074000D01*
X101365000Y-96092000D02*
X101365000Y-98079000D01*
X101365000Y-100041000D02*
X101365000Y-102028000D01*
X101505000Y-96145000D02*
X101505000Y-98062000D01*
X101505000Y-100058000D02*
X101505000Y-101975000D01*
X101645000Y-96207000D02*
X101645000Y-98064000D01*
X101645000Y-100056000D02*
X101645000Y-101913000D01*
X101785000Y-96277000D02*
X101785000Y-98086000D01*
X101785000Y-100034000D02*
X101785000Y-101843000D01*
X101925000Y-96356000D02*
X101925000Y-98129000D01*
X101925000Y-99991000D02*
X101925000Y-101764000D01*
X102065000Y-96444000D02*
X102065000Y-98197000D01*
X102065000Y-99923000D02*
X102065000Y-101676000D01*
X102205000Y-96544000D02*
X102205000Y-98296000D01*
X102205000Y-99824000D02*
X102205000Y-101576000D01*
X102345000Y-96656000D02*
X102345000Y-98441000D01*
X102345000Y-99679000D02*
X102345000Y-101464000D01*
X102485000Y-96781000D02*
X102485000Y-98680000D01*
X102485000Y-99440000D02*
X102485000Y-101339000D01*
X102625000Y-96924000D02*
X102625000Y-101196000D01*
X102765000Y-97086000D02*
X102765000Y-101034000D01*
X102905000Y-97274000D02*
X102905000Y-100846000D01*
X103045000Y-97497000D02*
X103045000Y-100623000D01*
X103185000Y-97773000D02*
X103185000Y-100347000D01*
X103325000Y-98148000D02*
X103325000Y-99972000D01*
X102560000Y-99060000D02*
G75*
G03X102560000Y-99060000I-1000000J0D01*
G01*
X103497500Y-99060000D02*
G75*
G03X103497500Y-99060000I-3187500J0D01*
G01*
X100385000Y-113691000D02*
X100385000Y-119989000D01*
X100525000Y-113697000D02*
X100525000Y-119983000D01*
X100665000Y-113710000D02*
X100665000Y-116394000D01*
X100665000Y-117286000D02*
X100665000Y-119970000D01*
X100805000Y-113729000D02*
X100805000Y-116184000D01*
X100805000Y-117496000D02*
X100805000Y-119951000D01*
X100945000Y-113755000D02*
X100945000Y-116051000D01*
X100945000Y-117629000D02*
X100945000Y-119925000D01*
X101085000Y-113787000D02*
X101085000Y-115960000D01*
X101085000Y-117720000D02*
X101085000Y-119893000D01*
X101225000Y-113826000D02*
X101225000Y-115898000D01*
X101225000Y-117782000D02*
X101225000Y-119854000D01*
X101365000Y-113872000D02*
X101365000Y-115859000D01*
X101365000Y-117821000D02*
X101365000Y-119808000D01*
X101505000Y-113925000D02*
X101505000Y-115842000D01*
X101505000Y-117838000D02*
X101505000Y-119755000D01*
X101645000Y-113987000D02*
X101645000Y-115844000D01*
X101645000Y-117836000D02*
X101645000Y-119693000D01*
X101785000Y-114057000D02*
X101785000Y-115866000D01*
X101785000Y-117814000D02*
X101785000Y-119623000D01*
X101925000Y-114136000D02*
X101925000Y-115909000D01*
X101925000Y-117771000D02*
X101925000Y-119544000D01*
X102065000Y-114224000D02*
X102065000Y-115977000D01*
X102065000Y-117703000D02*
X102065000Y-119456000D01*
X102205000Y-114324000D02*
X102205000Y-116076000D01*
X102205000Y-117604000D02*
X102205000Y-119356000D01*
X102345000Y-114436000D02*
X102345000Y-116221000D01*
X102345000Y-117459000D02*
X102345000Y-119244000D01*
X102485000Y-114561000D02*
X102485000Y-116460000D01*
X102485000Y-117220000D02*
X102485000Y-119119000D01*
X102625000Y-114704000D02*
X102625000Y-118976000D01*
X102765000Y-114866000D02*
X102765000Y-118814000D01*
X102905000Y-115054000D02*
X102905000Y-118626000D01*
X103045000Y-115277000D02*
X103045000Y-118403000D01*
X103185000Y-115553000D02*
X103185000Y-118127000D01*
X103325000Y-115928000D02*
X103325000Y-117752000D01*
X102560000Y-116840000D02*
G75*
G03X102560000Y-116840000I-1000000J0D01*
G01*
X103497500Y-116840000D02*
G75*
G03X103497500Y-116840000I-3187500J0D01*
G01*
X115625000Y-108611000D02*
X115625000Y-114909000D01*
X115765000Y-108617000D02*
X115765000Y-114903000D01*
X115905000Y-108630000D02*
X115905000Y-111314000D01*
X115905000Y-112206000D02*
X115905000Y-114890000D01*
X116045000Y-108649000D02*
X116045000Y-111104000D01*
X116045000Y-112416000D02*
X116045000Y-114871000D01*
X116185000Y-108675000D02*
X116185000Y-110971000D01*
X116185000Y-112549000D02*
X116185000Y-114845000D01*
X116325000Y-108707000D02*
X116325000Y-110880000D01*
X116325000Y-112640000D02*
X116325000Y-114813000D01*
X116465000Y-108746000D02*
X116465000Y-110818000D01*
X116465000Y-112702000D02*
X116465000Y-114774000D01*
X116605000Y-108792000D02*
X116605000Y-110779000D01*
X116605000Y-112741000D02*
X116605000Y-114728000D01*
X116745000Y-108845000D02*
X116745000Y-110762000D01*
X116745000Y-112758000D02*
X116745000Y-114675000D01*
X116885000Y-108907000D02*
X116885000Y-110764000D01*
X116885000Y-112756000D02*
X116885000Y-114613000D01*
X117025000Y-108977000D02*
X117025000Y-110786000D01*
X117025000Y-112734000D02*
X117025000Y-114543000D01*
X117165000Y-109056000D02*
X117165000Y-110829000D01*
X117165000Y-112691000D02*
X117165000Y-114464000D01*
X117305000Y-109144000D02*
X117305000Y-110897000D01*
X117305000Y-112623000D02*
X117305000Y-114376000D01*
X117445000Y-109244000D02*
X117445000Y-110996000D01*
X117445000Y-112524000D02*
X117445000Y-114276000D01*
X117585000Y-109356000D02*
X117585000Y-111141000D01*
X117585000Y-112379000D02*
X117585000Y-114164000D01*
X117725000Y-109481000D02*
X117725000Y-111380000D01*
X117725000Y-112140000D02*
X117725000Y-114039000D01*
X117865000Y-109624000D02*
X117865000Y-113896000D01*
X118005000Y-109786000D02*
X118005000Y-113734000D01*
X118145000Y-109974000D02*
X118145000Y-113546000D01*
X118285000Y-110197000D02*
X118285000Y-113323000D01*
X118425000Y-110473000D02*
X118425000Y-113047000D01*
X118565000Y-110848000D02*
X118565000Y-112672000D01*
X117800000Y-111760000D02*
G75*
G03X117800000Y-111760000I-1000000J0D01*
G01*
X118737500Y-111760000D02*
G75*
G03X118737500Y-111760000I-3187500J0D01*
G01*
X100385000Y-122581000D02*
X100385000Y-128879000D01*
X100525000Y-122587000D02*
X100525000Y-128873000D01*
X100665000Y-122600000D02*
X100665000Y-125284000D01*
X100665000Y-126176000D02*
X100665000Y-128860000D01*
X100805000Y-122619000D02*
X100805000Y-125074000D01*
X100805000Y-126386000D02*
X100805000Y-128841000D01*
X100945000Y-122645000D02*
X100945000Y-124941000D01*
X100945000Y-126519000D02*
X100945000Y-128815000D01*
X101085000Y-122677000D02*
X101085000Y-124850000D01*
X101085000Y-126610000D02*
X101085000Y-128783000D01*
X101225000Y-122716000D02*
X101225000Y-124788000D01*
X101225000Y-126672000D02*
X101225000Y-128744000D01*
X101365000Y-122762000D02*
X101365000Y-124749000D01*
X101365000Y-126711000D02*
X101365000Y-128698000D01*
X101505000Y-122815000D02*
X101505000Y-124732000D01*
X101505000Y-126728000D02*
X101505000Y-128645000D01*
X101645000Y-122877000D02*
X101645000Y-124734000D01*
X101645000Y-126726000D02*
X101645000Y-128583000D01*
X101785000Y-122947000D02*
X101785000Y-124756000D01*
X101785000Y-126704000D02*
X101785000Y-128513000D01*
X101925000Y-123026000D02*
X101925000Y-124799000D01*
X101925000Y-126661000D02*
X101925000Y-128434000D01*
X102065000Y-123114000D02*
X102065000Y-124867000D01*
X102065000Y-126593000D02*
X102065000Y-128346000D01*
X102205000Y-123214000D02*
X102205000Y-124966000D01*
X102205000Y-126494000D02*
X102205000Y-128246000D01*
X102345000Y-123326000D02*
X102345000Y-125111000D01*
X102345000Y-126349000D02*
X102345000Y-128134000D01*
X102485000Y-123451000D02*
X102485000Y-125350000D01*
X102485000Y-126110000D02*
X102485000Y-128009000D01*
X102625000Y-123594000D02*
X102625000Y-127866000D01*
X102765000Y-123756000D02*
X102765000Y-127704000D01*
X102905000Y-123944000D02*
X102905000Y-127516000D01*
X103045000Y-124167000D02*
X103045000Y-127293000D01*
X103185000Y-124443000D02*
X103185000Y-127017000D01*
X103325000Y-124818000D02*
X103325000Y-126642000D01*
X102560000Y-125730000D02*
G75*
G03X102560000Y-125730000I-1000000J0D01*
G01*
X103497500Y-125730000D02*
G75*
G03X103497500Y-125730000I-3187500J0D01*
G01*
X100275000Y-137769000D02*
X100275000Y-131471000D01*
X100135000Y-137763000D02*
X100135000Y-131477000D01*
X99995000Y-137750000D02*
X99995000Y-135066000D01*
X99995000Y-134174000D02*
X99995000Y-131490000D01*
X99855000Y-137731000D02*
X99855000Y-135276000D01*
X99855000Y-133964000D02*
X99855000Y-131509000D01*
X99715000Y-137705000D02*
X99715000Y-135409000D01*
X99715000Y-133831000D02*
X99715000Y-131535000D01*
X99575000Y-137673000D02*
X99575000Y-135500000D01*
X99575000Y-133740000D02*
X99575000Y-131567000D01*
X99435000Y-137634000D02*
X99435000Y-135562000D01*
X99435000Y-133678000D02*
X99435000Y-131606000D01*
X99295000Y-137588000D02*
X99295000Y-135601000D01*
X99295000Y-133639000D02*
X99295000Y-131652000D01*
X99155000Y-137535000D02*
X99155000Y-135618000D01*
X99155000Y-133622000D02*
X99155000Y-131705000D01*
X99015000Y-137473000D02*
X99015000Y-135616000D01*
X99015000Y-133624000D02*
X99015000Y-131767000D01*
X98875000Y-137403000D02*
X98875000Y-135594000D01*
X98875000Y-133646000D02*
X98875000Y-131837000D01*
X98735000Y-137324000D02*
X98735000Y-135551000D01*
X98735000Y-133689000D02*
X98735000Y-131916000D01*
X98595000Y-137236000D02*
X98595000Y-135483000D01*
X98595000Y-133757000D02*
X98595000Y-132004000D01*
X98455000Y-137136000D02*
X98455000Y-135384000D01*
X98455000Y-133856000D02*
X98455000Y-132104000D01*
X98315000Y-137024000D02*
X98315000Y-135239000D01*
X98315000Y-134001000D02*
X98315000Y-132216000D01*
X98175000Y-136899000D02*
X98175000Y-135000000D01*
X98175000Y-134240000D02*
X98175000Y-132341000D01*
X98035000Y-136756000D02*
X98035000Y-132484000D01*
X97895000Y-136594000D02*
X97895000Y-132646000D01*
X97755000Y-136406000D02*
X97755000Y-132834000D01*
X97615000Y-136183000D02*
X97615000Y-133057000D01*
X97475000Y-135907000D02*
X97475000Y-133333000D01*
X97335000Y-135532000D02*
X97335000Y-133708000D01*
X100100000Y-134620000D02*
G75*
G03X100100000Y-134620000I-1000000J0D01*
G01*
X103537500Y-134620000D02*
G75*
G03X103537500Y-134620000I-3187500J0D01*
G01*
X107895000Y-141579000D02*
X107895000Y-135281000D01*
X107755000Y-141573000D02*
X107755000Y-135287000D01*
X107615000Y-141560000D02*
X107615000Y-138876000D01*
X107615000Y-137984000D02*
X107615000Y-135300000D01*
X107475000Y-141541000D02*
X107475000Y-139086000D01*
X107475000Y-137774000D02*
X107475000Y-135319000D01*
X107335000Y-141515000D02*
X107335000Y-139219000D01*
X107335000Y-137641000D02*
X107335000Y-135345000D01*
X107195000Y-141483000D02*
X107195000Y-139310000D01*
X107195000Y-137550000D02*
X107195000Y-135377000D01*
X107055000Y-141444000D02*
X107055000Y-139372000D01*
X107055000Y-137488000D02*
X107055000Y-135416000D01*
X106915000Y-141398000D02*
X106915000Y-139411000D01*
X106915000Y-137449000D02*
X106915000Y-135462000D01*
X106775000Y-141345000D02*
X106775000Y-139428000D01*
X106775000Y-137432000D02*
X106775000Y-135515000D01*
X106635000Y-141283000D02*
X106635000Y-139426000D01*
X106635000Y-137434000D02*
X106635000Y-135577000D01*
X106495000Y-141213000D02*
X106495000Y-139404000D01*
X106495000Y-137456000D02*
X106495000Y-135647000D01*
X106355000Y-141134000D02*
X106355000Y-139361000D01*
X106355000Y-137499000D02*
X106355000Y-135726000D01*
X106215000Y-141046000D02*
X106215000Y-139293000D01*
X106215000Y-137567000D02*
X106215000Y-135814000D01*
X106075000Y-140946000D02*
X106075000Y-139194000D01*
X106075000Y-137666000D02*
X106075000Y-135914000D01*
X105935000Y-140834000D02*
X105935000Y-139049000D01*
X105935000Y-137811000D02*
X105935000Y-136026000D01*
X105795000Y-140709000D02*
X105795000Y-138810000D01*
X105795000Y-138050000D02*
X105795000Y-136151000D01*
X105655000Y-140566000D02*
X105655000Y-136294000D01*
X105515000Y-140404000D02*
X105515000Y-136456000D01*
X105375000Y-140216000D02*
X105375000Y-136644000D01*
X105235000Y-139993000D02*
X105235000Y-136867000D01*
X105095000Y-139717000D02*
X105095000Y-137143000D01*
X104955000Y-139342000D02*
X104955000Y-137518000D01*
X107720000Y-138430000D02*
G75*
G03X107720000Y-138430000I-1000000J0D01*
G01*
X111157500Y-138430000D02*
G75*
G03X111157500Y-138430000I-3187500J0D01*
G01*
X129595000Y-126391000D02*
X129595000Y-132689000D01*
X129735000Y-126397000D02*
X129735000Y-132683000D01*
X129875000Y-126410000D02*
X129875000Y-129094000D01*
X129875000Y-129986000D02*
X129875000Y-132670000D01*
X130015000Y-126429000D02*
X130015000Y-128884000D01*
X130015000Y-130196000D02*
X130015000Y-132651000D01*
X130155000Y-126455000D02*
X130155000Y-128751000D01*
X130155000Y-130329000D02*
X130155000Y-132625000D01*
X130295000Y-126487000D02*
X130295000Y-128660000D01*
X130295000Y-130420000D02*
X130295000Y-132593000D01*
X130435000Y-126526000D02*
X130435000Y-128598000D01*
X130435000Y-130482000D02*
X130435000Y-132554000D01*
X130575000Y-126572000D02*
X130575000Y-128559000D01*
X130575000Y-130521000D02*
X130575000Y-132508000D01*
X130715000Y-126625000D02*
X130715000Y-128542000D01*
X130715000Y-130538000D02*
X130715000Y-132455000D01*
X130855000Y-126687000D02*
X130855000Y-128544000D01*
X130855000Y-130536000D02*
X130855000Y-132393000D01*
X130995000Y-126757000D02*
X130995000Y-128566000D01*
X130995000Y-130514000D02*
X130995000Y-132323000D01*
X131135000Y-126836000D02*
X131135000Y-128609000D01*
X131135000Y-130471000D02*
X131135000Y-132244000D01*
X131275000Y-126924000D02*
X131275000Y-128677000D01*
X131275000Y-130403000D02*
X131275000Y-132156000D01*
X131415000Y-127024000D02*
X131415000Y-128776000D01*
X131415000Y-130304000D02*
X131415000Y-132056000D01*
X131555000Y-127136000D02*
X131555000Y-128921000D01*
X131555000Y-130159000D02*
X131555000Y-131944000D01*
X131695000Y-127261000D02*
X131695000Y-129160000D01*
X131695000Y-129920000D02*
X131695000Y-131819000D01*
X131835000Y-127404000D02*
X131835000Y-131676000D01*
X131975000Y-127566000D02*
X131975000Y-131514000D01*
X132115000Y-127754000D02*
X132115000Y-131326000D01*
X132255000Y-127977000D02*
X132255000Y-131103000D01*
X132395000Y-128253000D02*
X132395000Y-130827000D01*
X132535000Y-128628000D02*
X132535000Y-130452000D01*
X131770000Y-129540000D02*
G75*
G03X131770000Y-129540000I-1000000J0D01*
G01*
X132707500Y-129540000D02*
G75*
G03X132707500Y-129540000I-3187500J0D01*
G01*
X113691000Y-137105000D02*
X119989000Y-137105000D01*
X113697000Y-136965000D02*
X119983000Y-136965000D01*
X113710000Y-136825000D02*
X116394000Y-136825000D01*
X117286000Y-136825000D02*
X119970000Y-136825000D01*
X113729000Y-136685000D02*
X116184000Y-136685000D01*
X117496000Y-136685000D02*
X119951000Y-136685000D01*
X113755000Y-136545000D02*
X116051000Y-136545000D01*
X117629000Y-136545000D02*
X119925000Y-136545000D01*
X113787000Y-136405000D02*
X115960000Y-136405000D01*
X117720000Y-136405000D02*
X119893000Y-136405000D01*
X113826000Y-136265000D02*
X115898000Y-136265000D01*
X117782000Y-136265000D02*
X119854000Y-136265000D01*
X113872000Y-136125000D02*
X115859000Y-136125000D01*
X117821000Y-136125000D02*
X119808000Y-136125000D01*
X113925000Y-135985000D02*
X115842000Y-135985000D01*
X117838000Y-135985000D02*
X119755000Y-135985000D01*
X113987000Y-135845000D02*
X115844000Y-135845000D01*
X117836000Y-135845000D02*
X119693000Y-135845000D01*
X114057000Y-135705000D02*
X115866000Y-135705000D01*
X117814000Y-135705000D02*
X119623000Y-135705000D01*
X114136000Y-135565000D02*
X115909000Y-135565000D01*
X117771000Y-135565000D02*
X119544000Y-135565000D01*
X114224000Y-135425000D02*
X115977000Y-135425000D01*
X117703000Y-135425000D02*
X119456000Y-135425000D01*
X114324000Y-135285000D02*
X116076000Y-135285000D01*
X117604000Y-135285000D02*
X119356000Y-135285000D01*
X114436000Y-135145000D02*
X116221000Y-135145000D01*
X117459000Y-135145000D02*
X119244000Y-135145000D01*
X114561000Y-135005000D02*
X116460000Y-135005000D01*
X117220000Y-135005000D02*
X119119000Y-135005000D01*
X114704000Y-134865000D02*
X118976000Y-134865000D01*
X114866000Y-134725000D02*
X118814000Y-134725000D01*
X115054000Y-134585000D02*
X118626000Y-134585000D01*
X115277000Y-134445000D02*
X118403000Y-134445000D01*
X115553000Y-134305000D02*
X118127000Y-134305000D01*
X115928000Y-134165000D02*
X117752000Y-134165000D01*
X117840000Y-135930000D02*
G75*
G03X117840000Y-135930000I-1000000J0D01*
G01*
X120027500Y-137180000D02*
G75*
G03X120027500Y-137180000I-3187500J0D01*
G01*
X137215000Y-113691000D02*
X137215000Y-119989000D01*
X137355000Y-113697000D02*
X137355000Y-119983000D01*
X137495000Y-113710000D02*
X137495000Y-116394000D01*
X137495000Y-117286000D02*
X137495000Y-119970000D01*
X137635000Y-113729000D02*
X137635000Y-116184000D01*
X137635000Y-117496000D02*
X137635000Y-119951000D01*
X137775000Y-113755000D02*
X137775000Y-116051000D01*
X137775000Y-117629000D02*
X137775000Y-119925000D01*
X137915000Y-113787000D02*
X137915000Y-115960000D01*
X137915000Y-117720000D02*
X137915000Y-119893000D01*
X138055000Y-113826000D02*
X138055000Y-115898000D01*
X138055000Y-117782000D02*
X138055000Y-119854000D01*
X138195000Y-113872000D02*
X138195000Y-115859000D01*
X138195000Y-117821000D02*
X138195000Y-119808000D01*
X138335000Y-113925000D02*
X138335000Y-115842000D01*
X138335000Y-117838000D02*
X138335000Y-119755000D01*
X138475000Y-113987000D02*
X138475000Y-115844000D01*
X138475000Y-117836000D02*
X138475000Y-119693000D01*
X138615000Y-114057000D02*
X138615000Y-115866000D01*
X138615000Y-117814000D02*
X138615000Y-119623000D01*
X138755000Y-114136000D02*
X138755000Y-115909000D01*
X138755000Y-117771000D02*
X138755000Y-119544000D01*
X138895000Y-114224000D02*
X138895000Y-115977000D01*
X138895000Y-117703000D02*
X138895000Y-119456000D01*
X139035000Y-114324000D02*
X139035000Y-116076000D01*
X139035000Y-117604000D02*
X139035000Y-119356000D01*
X139175000Y-114436000D02*
X139175000Y-116221000D01*
X139175000Y-117459000D02*
X139175000Y-119244000D01*
X139315000Y-114561000D02*
X139315000Y-116460000D01*
X139315000Y-117220000D02*
X139315000Y-119119000D01*
X139455000Y-114704000D02*
X139455000Y-118976000D01*
X139595000Y-114866000D02*
X139595000Y-118814000D01*
X139735000Y-115054000D02*
X139735000Y-118626000D01*
X139875000Y-115277000D02*
X139875000Y-118403000D01*
X140015000Y-115553000D02*
X140015000Y-118127000D01*
X140155000Y-115928000D02*
X140155000Y-117752000D01*
X139390000Y-116840000D02*
G75*
G03X139390000Y-116840000I-1000000J0D01*
G01*
X140327500Y-116840000D02*
G75*
G03X140327500Y-116840000I-3187500J0D01*
G01*
X142185000Y-140309000D02*
X142185000Y-134011000D01*
X142045000Y-140303000D02*
X142045000Y-134017000D01*
X141905000Y-140290000D02*
X141905000Y-137606000D01*
X141905000Y-136714000D02*
X141905000Y-134030000D01*
X141765000Y-140271000D02*
X141765000Y-137816000D01*
X141765000Y-136504000D02*
X141765000Y-134049000D01*
X141625000Y-140245000D02*
X141625000Y-137949000D01*
X141625000Y-136371000D02*
X141625000Y-134075000D01*
X141485000Y-140213000D02*
X141485000Y-138040000D01*
X141485000Y-136280000D02*
X141485000Y-134107000D01*
X141345000Y-140174000D02*
X141345000Y-138102000D01*
X141345000Y-136218000D02*
X141345000Y-134146000D01*
X141205000Y-140128000D02*
X141205000Y-138141000D01*
X141205000Y-136179000D02*
X141205000Y-134192000D01*
X141065000Y-140075000D02*
X141065000Y-138158000D01*
X141065000Y-136162000D02*
X141065000Y-134245000D01*
X140925000Y-140013000D02*
X140925000Y-138156000D01*
X140925000Y-136164000D02*
X140925000Y-134307000D01*
X140785000Y-139943000D02*
X140785000Y-138134000D01*
X140785000Y-136186000D02*
X140785000Y-134377000D01*
X140645000Y-139864000D02*
X140645000Y-138091000D01*
X140645000Y-136229000D02*
X140645000Y-134456000D01*
X140505000Y-139776000D02*
X140505000Y-138023000D01*
X140505000Y-136297000D02*
X140505000Y-134544000D01*
X140365000Y-139676000D02*
X140365000Y-137924000D01*
X140365000Y-136396000D02*
X140365000Y-134644000D01*
X140225000Y-139564000D02*
X140225000Y-137779000D01*
X140225000Y-136541000D02*
X140225000Y-134756000D01*
X140085000Y-139439000D02*
X140085000Y-137540000D01*
X140085000Y-136780000D02*
X140085000Y-134881000D01*
X139945000Y-139296000D02*
X139945000Y-135024000D01*
X139805000Y-139134000D02*
X139805000Y-135186000D01*
X139665000Y-138946000D02*
X139665000Y-135374000D01*
X139525000Y-138723000D02*
X139525000Y-135597000D01*
X139385000Y-138447000D02*
X139385000Y-135873000D01*
X139245000Y-138072000D02*
X139245000Y-136248000D01*
X142010000Y-137160000D02*
G75*
G03X142010000Y-137160000I-1000000J0D01*
G01*
X145447500Y-137160000D02*
G75*
G03X145447500Y-137160000I-3187500J0D01*
G01*
X134366000Y-120396000D02*
X133858000Y-120904000D01*
X134366000Y-121412000D02*
X134874000Y-120904000D01*
X134874000Y-120904000D02*
X134366000Y-120396000D01*
X134366000Y-123190000D02*
G75*
G03X134366000Y-123190000I-2286000J0D01*
G01*
X134830000Y-123190000D02*
G75*
G03X134830000Y-123190000I-2750000J0D01*
G01*
X138684000Y-125984000D02*
X139192000Y-125476000D01*
X138684000Y-124968000D02*
X138176000Y-125476000D01*
X138176000Y-125476000D02*
X138684000Y-125984000D01*
X143256000Y-123190000D02*
G75*
G03X143256000Y-123190000I-2286000J0D01*
G01*
X143720000Y-123190000D02*
G75*
G03X143720000Y-123190000I-2750000J0D01*
G01*
X129794000Y-99314000D02*
X130302000Y-98806000D01*
X129794000Y-98298000D02*
X129286000Y-98806000D01*
X129286000Y-98806000D02*
X129794000Y-99314000D01*
X134366000Y-96520000D02*
G75*
G03X134366000Y-96520000I-2286000J0D01*
G01*
X134830000Y-96520000D02*
G75*
G03X134830000Y-96520000I-2750000J0D01*
G01*
X121920000Y-108839000D02*
X121920000Y-111252000D01*
X121920000Y-107061000D02*
X121920000Y-104648000D01*
X121920000Y-108839000D02*
G75*
G03X122809000Y-107950000I0J889000D01*
G01*
X122809000Y-107950000D02*
G75*
G03X121920000Y-107061000I-889000J0D01*
G01*
X123063000Y-110109000D02*
G75*
G03X123063000Y-110109000I-254000J0D01*
G01*
X132080000Y-111252000D02*
X131953000Y-111252000D01*
X129413000Y-111252000D02*
X129667000Y-111252000D01*
X126873000Y-111252000D02*
X127127000Y-111252000D01*
X124333000Y-111252000D02*
X124587000Y-111252000D01*
X121920000Y-111252000D02*
X122047000Y-111252000D01*
X121920000Y-104648000D02*
X122047000Y-104648000D01*
X132080000Y-104648000D02*
X131953000Y-104648000D01*
X129413000Y-104648000D02*
X129667000Y-104648000D01*
X126873000Y-104648000D02*
X127127000Y-104648000D01*
X124333000Y-104648000D02*
X124587000Y-104648000D01*
X132080000Y-111252000D02*
X132080000Y-104648000D01*
X128270000Y-80070000D02*
X128270000Y-88900000D01*
X130810000Y-80070000D02*
X128270000Y-80070000D01*
X130810000Y-88900000D02*
X130810000Y-80070000D01*
X130810000Y-88900000D02*
X128270000Y-88900000D01*
X133350000Y-88900000D02*
X130810000Y-88900000D01*
X132080000Y-91570000D02*
X133630000Y-91570000D01*
X133630000Y-91570000D02*
X133630000Y-90170000D01*
X133350000Y-88900000D02*
X133350000Y-80070000D01*
X133350000Y-80070000D02*
X130810000Y-80070000D01*
X130810000Y-80070000D02*
X130810000Y-88900000D01*
X111760000Y-86360000D02*
X121920000Y-86360000D01*
X121920000Y-86360000D02*
X121920000Y-91440000D01*
X121920000Y-91440000D02*
X111760000Y-91440000D01*
X111760000Y-91440000D02*
X111760000Y-86360000D01*
X121713334Y-114967143D02*
X121665715Y-115014762D01*
X121522858Y-115062381D01*
X121427620Y-115062381D01*
X121284762Y-115014762D01*
X121189524Y-114919524D01*
X121141905Y-114824286D01*
X121094286Y-114633810D01*
X121094286Y-114490952D01*
X121141905Y-114300476D01*
X121189524Y-114205238D01*
X121284762Y-114110000D01*
X121427620Y-114062381D01*
X121522858Y-114062381D01*
X121665715Y-114110000D01*
X121713334Y-114157619D01*
X122665715Y-115062381D02*
X122094286Y-115062381D01*
X122380000Y-115062381D02*
X122380000Y-114062381D01*
X122284762Y-114205238D01*
X122189524Y-114300476D01*
X122094286Y-114348095D01*
X124253334Y-93377143D02*
X124205715Y-93424762D01*
X124062858Y-93472381D01*
X123967620Y-93472381D01*
X123824762Y-93424762D01*
X123729524Y-93329524D01*
X123681905Y-93234286D01*
X123634286Y-93043810D01*
X123634286Y-92900952D01*
X123681905Y-92710476D01*
X123729524Y-92615238D01*
X123824762Y-92520000D01*
X123967620Y-92472381D01*
X124062858Y-92472381D01*
X124205715Y-92520000D01*
X124253334Y-92567619D01*
X124634286Y-92567619D02*
X124681905Y-92520000D01*
X124777143Y-92472381D01*
X125015239Y-92472381D01*
X125110477Y-92520000D01*
X125158096Y-92567619D01*
X125205715Y-92662857D01*
X125205715Y-92758095D01*
X125158096Y-92900952D01*
X124586667Y-93472381D01*
X125205715Y-93472381D01*
X129152425Y-137609841D02*
X129152425Y-136609841D01*
X129390520Y-136609841D01*
X129533378Y-136657460D01*
X129628616Y-136752698D01*
X129676235Y-136847936D01*
X129723854Y-137038412D01*
X129723854Y-137181270D01*
X129676235Y-137371746D01*
X129628616Y-137466984D01*
X129533378Y-137562222D01*
X129390520Y-137609841D01*
X129152425Y-137609841D01*
X130676235Y-137609841D02*
X130104806Y-137609841D01*
X130390520Y-137609841D02*
X130390520Y-136609841D01*
X130295282Y-136752698D01*
X130200044Y-136847936D01*
X130104806Y-136895555D01*
X128451385Y-137614921D02*
X128451385Y-136614921D01*
X128689480Y-136614921D01*
X128832338Y-136662540D01*
X128927576Y-136757778D01*
X128975195Y-136853016D01*
X129022814Y-137043492D01*
X129022814Y-137186350D01*
X128975195Y-137376826D01*
X128927576Y-137472064D01*
X128832338Y-137567302D01*
X128689480Y-137614921D01*
X128451385Y-137614921D01*
X129403766Y-136710159D02*
X129451385Y-136662540D01*
X129546623Y-136614921D01*
X129784719Y-136614921D01*
X129879957Y-136662540D01*
X129927576Y-136710159D01*
X129975195Y-136805397D01*
X129975195Y-136900635D01*
X129927576Y-137043492D01*
X129356147Y-137614921D01*
X129975195Y-137614921D01*
X118291385Y-127454921D02*
X118291385Y-126454921D01*
X118529480Y-126454921D01*
X118672338Y-126502540D01*
X118767576Y-126597778D01*
X118815195Y-126693016D01*
X118862814Y-126883492D01*
X118862814Y-127026350D01*
X118815195Y-127216826D01*
X118767576Y-127312064D01*
X118672338Y-127407302D01*
X118529480Y-127454921D01*
X118291385Y-127454921D01*
X119196147Y-126454921D02*
X119815195Y-126454921D01*
X119481861Y-126835873D01*
X119624719Y-126835873D01*
X119719957Y-126883492D01*
X119767576Y-126931111D01*
X119815195Y-127026350D01*
X119815195Y-127264445D01*
X119767576Y-127359683D01*
X119719957Y-127407302D01*
X119624719Y-127454921D01*
X119339004Y-127454921D01*
X119243766Y-127407302D01*
X119196147Y-127359683D01*
X118291385Y-123644921D02*
X118291385Y-122644921D01*
X118529480Y-122644921D01*
X118672338Y-122692540D01*
X118767576Y-122787778D01*
X118815195Y-122883016D01*
X118862814Y-123073492D01*
X118862814Y-123216350D01*
X118815195Y-123406826D01*
X118767576Y-123502064D01*
X118672338Y-123597302D01*
X118529480Y-123644921D01*
X118291385Y-123644921D01*
X119719957Y-122978254D02*
X119719957Y-123644921D01*
X119481861Y-122597302D02*
X119243766Y-123311588D01*
X119862814Y-123311588D01*
X108404921Y-129358615D02*
X107404921Y-129358615D01*
X107404921Y-129120520D01*
X107452540Y-128977662D01*
X107547778Y-128882424D01*
X107643016Y-128834805D01*
X107833492Y-128787186D01*
X107976350Y-128787186D01*
X108166826Y-128834805D01*
X108262064Y-128882424D01*
X108357302Y-128977662D01*
X108404921Y-129120520D01*
X108404921Y-129358615D01*
X107404921Y-127882424D02*
X107404921Y-128358615D01*
X107881111Y-128406234D01*
X107833492Y-128358615D01*
X107785873Y-128263377D01*
X107785873Y-128025281D01*
X107833492Y-127930043D01*
X107881111Y-127882424D01*
X107976350Y-127834805D01*
X108214445Y-127834805D01*
X108309683Y-127882424D01*
X108357302Y-127930043D01*
X108404921Y-128025281D01*
X108404921Y-128263377D01*
X108357302Y-128358615D01*
X108309683Y-128406234D01*
X109669841Y-128657575D02*
X108669841Y-128657575D01*
X108669841Y-128419480D01*
X108717460Y-128276622D01*
X108812698Y-128181384D01*
X108907936Y-128133765D01*
X109098412Y-128086146D01*
X109241270Y-128086146D01*
X109431746Y-128133765D01*
X109526984Y-128181384D01*
X109622222Y-128276622D01*
X109669841Y-128419480D01*
X109669841Y-128657575D01*
X108669841Y-127229003D02*
X108669841Y-127419480D01*
X108717460Y-127514718D01*
X108765079Y-127562337D01*
X108907936Y-127657575D01*
X109098412Y-127705194D01*
X109479365Y-127705194D01*
X109574603Y-127657575D01*
X109622222Y-127609956D01*
X109669841Y-127514718D01*
X109669841Y-127324241D01*
X109622222Y-127229003D01*
X109574603Y-127181384D01*
X109479365Y-127133765D01*
X109241270Y-127133765D01*
X109146031Y-127181384D01*
X109098412Y-127229003D01*
X109050793Y-127324241D01*
X109050793Y-127514718D01*
X109098412Y-127609956D01*
X109146031Y-127657575D01*
X109241270Y-127705194D01*
X110102425Y-123639841D02*
X110102425Y-122639841D01*
X110340520Y-122639841D01*
X110483378Y-122687460D01*
X110578616Y-122782698D01*
X110626235Y-122877936D01*
X110673854Y-123068412D01*
X110673854Y-123211270D01*
X110626235Y-123401746D01*
X110578616Y-123496984D01*
X110483378Y-123592222D01*
X110340520Y-123639841D01*
X110102425Y-123639841D01*
X111007187Y-122639841D02*
X111673854Y-122639841D01*
X111245282Y-123639841D01*
X110102425Y-121099841D02*
X110102425Y-120099841D01*
X110340520Y-120099841D01*
X110483378Y-120147460D01*
X110578616Y-120242698D01*
X110626235Y-120337936D01*
X110673854Y-120528412D01*
X110673854Y-120671270D01*
X110626235Y-120861746D01*
X110578616Y-120956984D01*
X110483378Y-121052222D01*
X110340520Y-121099841D01*
X110102425Y-121099841D01*
X111245282Y-120528412D02*
X111150044Y-120480793D01*
X111102425Y-120433174D01*
X111054806Y-120337936D01*
X111054806Y-120290317D01*
X111102425Y-120195079D01*
X111150044Y-120147460D01*
X111245282Y-120099841D01*
X111435759Y-120099841D01*
X111530997Y-120147460D01*
X111578616Y-120195079D01*
X111626235Y-120290317D01*
X111626235Y-120337936D01*
X111578616Y-120433174D01*
X111530997Y-120480793D01*
X111435759Y-120528412D01*
X111245282Y-120528412D01*
X111150044Y-120576031D01*
X111102425Y-120623650D01*
X111054806Y-120718889D01*
X111054806Y-120909365D01*
X111102425Y-121004603D01*
X111150044Y-121052222D01*
X111245282Y-121099841D01*
X111435759Y-121099841D01*
X111530997Y-121052222D01*
X111578616Y-121004603D01*
X111626235Y-120909365D01*
X111626235Y-120718889D01*
X111578616Y-120623650D01*
X111530997Y-120576031D01*
X111435759Y-120528412D01*
X103324921Y-109038615D02*
X102324921Y-109038615D01*
X102324921Y-108800520D01*
X102372540Y-108657662D01*
X102467778Y-108562424D01*
X102563016Y-108514805D01*
X102753492Y-108467186D01*
X102896350Y-108467186D01*
X103086826Y-108514805D01*
X103182064Y-108562424D01*
X103277302Y-108657662D01*
X103324921Y-108800520D01*
X103324921Y-109038615D01*
X103324921Y-107990996D02*
X103324921Y-107800520D01*
X103277302Y-107705281D01*
X103229683Y-107657662D01*
X103086826Y-107562424D01*
X102896350Y-107514805D01*
X102515397Y-107514805D01*
X102420159Y-107562424D01*
X102372540Y-107610043D01*
X102324921Y-107705281D01*
X102324921Y-107895758D01*
X102372540Y-107990996D01*
X102420159Y-108038615D01*
X102515397Y-108086234D01*
X102753492Y-108086234D01*
X102848730Y-108038615D01*
X102896350Y-107990996D01*
X102943969Y-107895758D01*
X102943969Y-107705281D01*
X102896350Y-107610043D01*
X102848730Y-107562424D01*
X102753492Y-107514805D01*
X112209841Y-108813766D02*
X111209841Y-108813766D01*
X111209841Y-108575671D01*
X111257460Y-108432813D01*
X111352698Y-108337575D01*
X111447936Y-108289956D01*
X111638412Y-108242337D01*
X111781270Y-108242337D01*
X111971746Y-108289956D01*
X112066984Y-108337575D01*
X112162222Y-108432813D01*
X112209841Y-108575671D01*
X112209841Y-108813766D01*
X112209841Y-107289956D02*
X112209841Y-107861385D01*
X112209841Y-107575671D02*
X111209841Y-107575671D01*
X111352698Y-107670909D01*
X111447936Y-107766147D01*
X111495555Y-107861385D01*
X111209841Y-106670909D02*
X111209841Y-106575670D01*
X111257460Y-106480432D01*
X111305079Y-106432813D01*
X111400317Y-106385194D01*
X111590793Y-106337575D01*
X111828889Y-106337575D01*
X112019365Y-106385194D01*
X112114603Y-106432813D01*
X112162222Y-106480432D01*
X112209841Y-106575670D01*
X112209841Y-106670909D01*
X112162222Y-106766147D01*
X112114603Y-106813766D01*
X112019365Y-106861385D01*
X111828889Y-106909004D01*
X111590793Y-106909004D01*
X111400317Y-106861385D01*
X111305079Y-106813766D01*
X111257460Y-106766147D01*
X111209841Y-106670909D01*
X110944921Y-101894806D02*
X109944921Y-101894806D01*
X109944921Y-101656711D01*
X109992540Y-101513853D01*
X110087778Y-101418615D01*
X110183016Y-101370996D01*
X110373492Y-101323377D01*
X110516350Y-101323377D01*
X110706826Y-101370996D01*
X110802064Y-101418615D01*
X110897302Y-101513853D01*
X110944921Y-101656711D01*
X110944921Y-101894806D01*
X110944921Y-100370996D02*
X110944921Y-100942425D01*
X110944921Y-100656711D02*
X109944921Y-100656711D01*
X110087778Y-100751949D01*
X110183016Y-100847187D01*
X110230635Y-100942425D01*
X110944921Y-99418615D02*
X110944921Y-99990044D01*
X110944921Y-99704330D02*
X109944921Y-99704330D01*
X110087778Y-99799568D01*
X110183016Y-99894806D01*
X110230635Y-99990044D01*
X118559841Y-101193766D02*
X117559841Y-101193766D01*
X117559841Y-100955671D01*
X117607460Y-100812813D01*
X117702698Y-100717575D01*
X117797936Y-100669956D01*
X117988412Y-100622337D01*
X118131270Y-100622337D01*
X118321746Y-100669956D01*
X118416984Y-100717575D01*
X118512222Y-100812813D01*
X118559841Y-100955671D01*
X118559841Y-101193766D01*
X118559841Y-99669956D02*
X118559841Y-100241385D01*
X118559841Y-99955671D02*
X117559841Y-99955671D01*
X117702698Y-100050909D01*
X117797936Y-100146147D01*
X117845555Y-100241385D01*
X117655079Y-99289004D02*
X117607460Y-99241385D01*
X117559841Y-99146147D01*
X117559841Y-98908051D01*
X117607460Y-98812813D01*
X117655079Y-98765194D01*
X117750317Y-98717575D01*
X117845555Y-98717575D01*
X117988412Y-98765194D01*
X118559841Y-99336623D01*
X118559841Y-98717575D01*
X154142381Y-95988095D02*
X153142381Y-95988095D01*
X153142381Y-95607142D01*
X153190000Y-95511904D01*
X153237619Y-95464285D01*
X153332857Y-95416666D01*
X153475714Y-95416666D01*
X153570952Y-95464285D01*
X153618571Y-95511904D01*
X153666190Y-95607142D01*
X153666190Y-95988095D01*
X154142381Y-94464285D02*
X154142381Y-95035714D01*
X154142381Y-94750000D02*
X153142381Y-94750000D01*
X153285238Y-94845238D01*
X153380476Y-94940476D01*
X153428095Y-95035714D01*
X99532381Y-95988095D02*
X98532381Y-95988095D01*
X98532381Y-95607142D01*
X98580000Y-95511904D01*
X98627619Y-95464285D01*
X98722857Y-95416666D01*
X98865714Y-95416666D01*
X98960952Y-95464285D01*
X99008571Y-95511904D01*
X99056190Y-95607142D01*
X99056190Y-95988095D01*
X98532381Y-95083333D02*
X98532381Y-94464285D01*
X98913333Y-94797619D01*
X98913333Y-94654761D01*
X98960952Y-94559523D01*
X99008571Y-94511904D01*
X99103810Y-94464285D01*
X99341905Y-94464285D01*
X99437143Y-94511904D01*
X99484762Y-94559523D01*
X99532381Y-94654761D01*
X99532381Y-94940476D01*
X99484762Y-95035714D01*
X99437143Y-95083333D01*
X141052254Y-94742261D02*
X140718920Y-94266070D01*
X140480825Y-94742261D02*
X140480825Y-93742261D01*
X140861778Y-93742261D01*
X140957016Y-93789880D01*
X141004635Y-93837499D01*
X141052254Y-93932737D01*
X141052254Y-94075594D01*
X141004635Y-94170832D01*
X140957016Y-94218451D01*
X140861778Y-94266070D01*
X140480825Y-94266070D01*
X142004635Y-94742261D02*
X141433206Y-94742261D01*
X141718920Y-94742261D02*
X141718920Y-93742261D01*
X141623682Y-93885118D01*
X141528444Y-93980356D01*
X141433206Y-94027975D01*
X139284414Y-108092501D02*
X138951080Y-107616310D01*
X138712985Y-108092501D02*
X138712985Y-107092501D01*
X139093938Y-107092501D01*
X139189176Y-107140120D01*
X139236795Y-107187739D01*
X139284414Y-107282977D01*
X139284414Y-107425834D01*
X139236795Y-107521072D01*
X139189176Y-107568691D01*
X139093938Y-107616310D01*
X138712985Y-107616310D01*
X139665366Y-107187739D02*
X139712985Y-107140120D01*
X139808223Y-107092501D01*
X140046319Y-107092501D01*
X140141557Y-107140120D01*
X140189176Y-107187739D01*
X140236795Y-107282977D01*
X140236795Y-107378215D01*
X140189176Y-107521072D01*
X139617747Y-108092501D01*
X140236795Y-108092501D01*
X139782254Y-104902261D02*
X139448920Y-104426070D01*
X139210825Y-104902261D02*
X139210825Y-103902261D01*
X139591778Y-103902261D01*
X139687016Y-103949880D01*
X139734635Y-103997499D01*
X139782254Y-104092737D01*
X139782254Y-104235594D01*
X139734635Y-104330832D01*
X139687016Y-104378451D01*
X139591778Y-104426070D01*
X139210825Y-104426070D01*
X140115587Y-103902261D02*
X140734635Y-103902261D01*
X140401301Y-104283213D01*
X140544159Y-104283213D01*
X140639397Y-104330832D01*
X140687016Y-104378451D01*
X140734635Y-104473690D01*
X140734635Y-104711785D01*
X140687016Y-104807023D01*
X140639397Y-104854642D01*
X140544159Y-104902261D01*
X140258444Y-104902261D01*
X140163206Y-104854642D01*
X140115587Y-104807023D01*
X139284414Y-134762501D02*
X138951080Y-134286310D01*
X138712985Y-134762501D02*
X138712985Y-133762501D01*
X139093938Y-133762501D01*
X139189176Y-133810120D01*
X139236795Y-133857739D01*
X139284414Y-133952977D01*
X139284414Y-134095834D01*
X139236795Y-134191072D01*
X139189176Y-134238691D01*
X139093938Y-134286310D01*
X138712985Y-134286310D01*
X140141557Y-134095834D02*
X140141557Y-134762501D01*
X139903461Y-133714882D02*
X139665366Y-134429168D01*
X140284414Y-134429168D01*
X107287143Y-93747143D02*
X107239524Y-93794762D01*
X107096667Y-93842381D01*
X107001429Y-93842381D01*
X106858571Y-93794762D01*
X106763333Y-93699524D01*
X106715714Y-93604286D01*
X106668095Y-93413810D01*
X106668095Y-93270952D01*
X106715714Y-93080476D01*
X106763333Y-92985238D01*
X106858571Y-92890000D01*
X107001429Y-92842381D01*
X107096667Y-92842381D01*
X107239524Y-92890000D01*
X107287143Y-92937619D01*
X108239524Y-93842381D02*
X107668095Y-93842381D01*
X107953809Y-93842381D02*
X107953809Y-92842381D01*
X107858571Y-92985238D01*
X107763333Y-93080476D01*
X107668095Y-93128095D01*
X109096667Y-93175714D02*
X109096667Y-93842381D01*
X108858571Y-92794762D02*
X108620476Y-93509048D01*
X109239524Y-93509048D01*
X99667143Y-103907143D02*
X99619524Y-103954762D01*
X99476667Y-104002381D01*
X99381429Y-104002381D01*
X99238571Y-103954762D01*
X99143333Y-103859524D01*
X99095714Y-103764286D01*
X99048095Y-103573810D01*
X99048095Y-103430952D01*
X99095714Y-103240476D01*
X99143333Y-103145238D01*
X99238571Y-103050000D01*
X99381429Y-103002381D01*
X99476667Y-103002381D01*
X99619524Y-103050000D01*
X99667143Y-103097619D01*
X100619524Y-104002381D02*
X100048095Y-104002381D01*
X100333809Y-104002381D02*
X100333809Y-103002381D01*
X100238571Y-103145238D01*
X100143333Y-103240476D01*
X100048095Y-103288095D01*
X100952857Y-103002381D02*
X101571905Y-103002381D01*
X101238571Y-103383333D01*
X101381429Y-103383333D01*
X101476667Y-103430952D01*
X101524286Y-103478571D01*
X101571905Y-103573810D01*
X101571905Y-103811905D01*
X101524286Y-103907143D01*
X101476667Y-103954762D01*
X101381429Y-104002381D01*
X101095714Y-104002381D01*
X101000476Y-103954762D01*
X100952857Y-103907143D01*
X99667143Y-95017143D02*
X99619524Y-95064762D01*
X99476667Y-95112381D01*
X99381429Y-95112381D01*
X99238571Y-95064762D01*
X99143333Y-94969524D01*
X99095714Y-94874286D01*
X99048095Y-94683810D01*
X99048095Y-94540952D01*
X99095714Y-94350476D01*
X99143333Y-94255238D01*
X99238571Y-94160000D01*
X99381429Y-94112381D01*
X99476667Y-94112381D01*
X99619524Y-94160000D01*
X99667143Y-94207619D01*
X100619524Y-95112381D02*
X100048095Y-95112381D01*
X100333809Y-95112381D02*
X100333809Y-94112381D01*
X100238571Y-94255238D01*
X100143333Y-94350476D01*
X100048095Y-94398095D01*
X101000476Y-94207619D02*
X101048095Y-94160000D01*
X101143333Y-94112381D01*
X101381429Y-94112381D01*
X101476667Y-94160000D01*
X101524286Y-94207619D01*
X101571905Y-94302857D01*
X101571905Y-94398095D01*
X101524286Y-94540952D01*
X100952857Y-95112381D01*
X101571905Y-95112381D01*
X99667143Y-112797143D02*
X99619524Y-112844762D01*
X99476667Y-112892381D01*
X99381429Y-112892381D01*
X99238571Y-112844762D01*
X99143333Y-112749524D01*
X99095714Y-112654286D01*
X99048095Y-112463810D01*
X99048095Y-112320952D01*
X99095714Y-112130476D01*
X99143333Y-112035238D01*
X99238571Y-111940000D01*
X99381429Y-111892381D01*
X99476667Y-111892381D01*
X99619524Y-111940000D01*
X99667143Y-111987619D01*
X100619524Y-112892381D02*
X100048095Y-112892381D01*
X100333809Y-112892381D02*
X100333809Y-111892381D01*
X100238571Y-112035238D01*
X100143333Y-112130476D01*
X100048095Y-112178095D01*
X101571905Y-112892381D02*
X101000476Y-112892381D01*
X101286190Y-112892381D02*
X101286190Y-111892381D01*
X101190952Y-112035238D01*
X101095714Y-112130476D01*
X101000476Y-112178095D01*
X114907143Y-107717143D02*
X114859524Y-107764762D01*
X114716667Y-107812381D01*
X114621429Y-107812381D01*
X114478571Y-107764762D01*
X114383333Y-107669524D01*
X114335714Y-107574286D01*
X114288095Y-107383810D01*
X114288095Y-107240952D01*
X114335714Y-107050476D01*
X114383333Y-106955238D01*
X114478571Y-106860000D01*
X114621429Y-106812381D01*
X114716667Y-106812381D01*
X114859524Y-106860000D01*
X114907143Y-106907619D01*
X115859524Y-107812381D02*
X115288095Y-107812381D01*
X115573809Y-107812381D02*
X115573809Y-106812381D01*
X115478571Y-106955238D01*
X115383333Y-107050476D01*
X115288095Y-107098095D01*
X116478571Y-106812381D02*
X116573810Y-106812381D01*
X116669048Y-106860000D01*
X116716667Y-106907619D01*
X116764286Y-107002857D01*
X116811905Y-107193333D01*
X116811905Y-107431429D01*
X116764286Y-107621905D01*
X116716667Y-107717143D01*
X116669048Y-107764762D01*
X116573810Y-107812381D01*
X116478571Y-107812381D01*
X116383333Y-107764762D01*
X116335714Y-107717143D01*
X116288095Y-107621905D01*
X116240476Y-107431429D01*
X116240476Y-107193333D01*
X116288095Y-107002857D01*
X116335714Y-106907619D01*
X116383333Y-106860000D01*
X116478571Y-106812381D01*
X100143334Y-121687143D02*
X100095715Y-121734762D01*
X99952858Y-121782381D01*
X99857620Y-121782381D01*
X99714762Y-121734762D01*
X99619524Y-121639524D01*
X99571905Y-121544286D01*
X99524286Y-121353810D01*
X99524286Y-121210952D01*
X99571905Y-121020476D01*
X99619524Y-120925238D01*
X99714762Y-120830000D01*
X99857620Y-120782381D01*
X99952858Y-120782381D01*
X100095715Y-120830000D01*
X100143334Y-120877619D01*
X100619524Y-121782381D02*
X100810000Y-121782381D01*
X100905239Y-121734762D01*
X100952858Y-121687143D01*
X101048096Y-121544286D01*
X101095715Y-121353810D01*
X101095715Y-120972857D01*
X101048096Y-120877619D01*
X101000477Y-120830000D01*
X100905239Y-120782381D01*
X100714762Y-120782381D01*
X100619524Y-120830000D01*
X100571905Y-120877619D01*
X100524286Y-120972857D01*
X100524286Y-121210952D01*
X100571905Y-121306190D01*
X100619524Y-121353810D01*
X100714762Y-121401429D01*
X100905239Y-121401429D01*
X101000477Y-121353810D01*
X101048096Y-121306190D01*
X101095715Y-121210952D01*
X100183334Y-139377143D02*
X100135715Y-139424762D01*
X99992858Y-139472381D01*
X99897620Y-139472381D01*
X99754762Y-139424762D01*
X99659524Y-139329524D01*
X99611905Y-139234286D01*
X99564286Y-139043810D01*
X99564286Y-138900952D01*
X99611905Y-138710476D01*
X99659524Y-138615238D01*
X99754762Y-138520000D01*
X99897620Y-138472381D01*
X99992858Y-138472381D01*
X100135715Y-138520000D01*
X100183334Y-138567619D01*
X100754762Y-138900952D02*
X100659524Y-138853333D01*
X100611905Y-138805714D01*
X100564286Y-138710476D01*
X100564286Y-138662857D01*
X100611905Y-138567619D01*
X100659524Y-138520000D01*
X100754762Y-138472381D01*
X100945239Y-138472381D01*
X101040477Y-138520000D01*
X101088096Y-138567619D01*
X101135715Y-138662857D01*
X101135715Y-138710476D01*
X101088096Y-138805714D01*
X101040477Y-138853333D01*
X100945239Y-138900952D01*
X100754762Y-138900952D01*
X100659524Y-138948571D01*
X100611905Y-138996190D01*
X100564286Y-139091429D01*
X100564286Y-139281905D01*
X100611905Y-139377143D01*
X100659524Y-139424762D01*
X100754762Y-139472381D01*
X100945239Y-139472381D01*
X101040477Y-139424762D01*
X101088096Y-139377143D01*
X101135715Y-139281905D01*
X101135715Y-139091429D01*
X101088096Y-138996190D01*
X101040477Y-138948571D01*
X100945239Y-138900952D01*
X107803334Y-143187143D02*
X107755715Y-143234762D01*
X107612858Y-143282381D01*
X107517620Y-143282381D01*
X107374762Y-143234762D01*
X107279524Y-143139524D01*
X107231905Y-143044286D01*
X107184286Y-142853810D01*
X107184286Y-142710952D01*
X107231905Y-142520476D01*
X107279524Y-142425238D01*
X107374762Y-142330000D01*
X107517620Y-142282381D01*
X107612858Y-142282381D01*
X107755715Y-142330000D01*
X107803334Y-142377619D01*
X108136667Y-142282381D02*
X108803334Y-142282381D01*
X108374762Y-143282381D01*
X129353334Y-125497143D02*
X129305715Y-125544762D01*
X129162858Y-125592381D01*
X129067620Y-125592381D01*
X128924762Y-125544762D01*
X128829524Y-125449524D01*
X128781905Y-125354286D01*
X128734286Y-125163810D01*
X128734286Y-125020952D01*
X128781905Y-124830476D01*
X128829524Y-124735238D01*
X128924762Y-124640000D01*
X129067620Y-124592381D01*
X129162858Y-124592381D01*
X129305715Y-124640000D01*
X129353334Y-124687619D01*
X130210477Y-124592381D02*
X130020000Y-124592381D01*
X129924762Y-124640000D01*
X129877143Y-124687619D01*
X129781905Y-124830476D01*
X129734286Y-125020952D01*
X129734286Y-125401905D01*
X129781905Y-125497143D01*
X129829524Y-125544762D01*
X129924762Y-125592381D01*
X130115239Y-125592381D01*
X130210477Y-125544762D01*
X130258096Y-125497143D01*
X130305715Y-125401905D01*
X130305715Y-125163810D01*
X130258096Y-125068571D01*
X130210477Y-125020952D01*
X130115239Y-124973333D01*
X129924762Y-124973333D01*
X129829524Y-125020952D01*
X129781905Y-125068571D01*
X129734286Y-125163810D01*
X112797143Y-137346666D02*
X112844762Y-137394285D01*
X112892381Y-137537142D01*
X112892381Y-137632380D01*
X112844762Y-137775238D01*
X112749524Y-137870476D01*
X112654286Y-137918095D01*
X112463810Y-137965714D01*
X112320952Y-137965714D01*
X112130476Y-137918095D01*
X112035238Y-137870476D01*
X111940000Y-137775238D01*
X111892381Y-137632380D01*
X111892381Y-137537142D01*
X111940000Y-137394285D01*
X111987619Y-137346666D01*
X111892381Y-136441904D02*
X111892381Y-136918095D01*
X112368571Y-136965714D01*
X112320952Y-136918095D01*
X112273333Y-136822857D01*
X112273333Y-136584761D01*
X112320952Y-136489523D01*
X112368571Y-136441904D01*
X112463810Y-136394285D01*
X112701905Y-136394285D01*
X112797143Y-136441904D01*
X112844762Y-136489523D01*
X112892381Y-136584761D01*
X112892381Y-136822857D01*
X112844762Y-136918095D01*
X112797143Y-136965714D01*
X136973334Y-112797143D02*
X136925715Y-112844762D01*
X136782858Y-112892381D01*
X136687620Y-112892381D01*
X136544762Y-112844762D01*
X136449524Y-112749524D01*
X136401905Y-112654286D01*
X136354286Y-112463810D01*
X136354286Y-112320952D01*
X136401905Y-112130476D01*
X136449524Y-112035238D01*
X136544762Y-111940000D01*
X136687620Y-111892381D01*
X136782858Y-111892381D01*
X136925715Y-111940000D01*
X136973334Y-111987619D01*
X137830477Y-112225714D02*
X137830477Y-112892381D01*
X137592381Y-111844762D02*
X137354286Y-112559048D01*
X137973334Y-112559048D01*
X142093334Y-141917143D02*
X142045715Y-141964762D01*
X141902858Y-142012381D01*
X141807620Y-142012381D01*
X141664762Y-141964762D01*
X141569524Y-141869524D01*
X141521905Y-141774286D01*
X141474286Y-141583810D01*
X141474286Y-141440952D01*
X141521905Y-141250476D01*
X141569524Y-141155238D01*
X141664762Y-141060000D01*
X141807620Y-141012381D01*
X141902858Y-141012381D01*
X142045715Y-141060000D01*
X142093334Y-141107619D01*
X142426667Y-141012381D02*
X143045715Y-141012381D01*
X142712381Y-141393333D01*
X142855239Y-141393333D01*
X142950477Y-141440952D01*
X142998096Y-141488571D01*
X143045715Y-141583810D01*
X143045715Y-141821905D01*
X142998096Y-141917143D01*
X142950477Y-141964762D01*
X142855239Y-142012381D01*
X142569524Y-142012381D01*
X142474286Y-141964762D01*
X142426667Y-141917143D01*
X127801619Y-123031238D02*
X127754000Y-123126476D01*
X127658762Y-123221714D01*
X127515905Y-123364571D01*
X127468286Y-123459810D01*
X127468286Y-123555048D01*
X127706381Y-123507429D02*
X127658762Y-123602667D01*
X127563524Y-123697905D01*
X127373048Y-123745524D01*
X127039714Y-123745524D01*
X126849238Y-123697905D01*
X126754000Y-123602667D01*
X126706381Y-123507429D01*
X126706381Y-123316952D01*
X126754000Y-123221714D01*
X126849238Y-123126476D01*
X127039714Y-123078857D01*
X127373048Y-123078857D01*
X127563524Y-123126476D01*
X127658762Y-123221714D01*
X127706381Y-123316952D01*
X127706381Y-123507429D01*
X126706381Y-122745524D02*
X126706381Y-122126476D01*
X127087333Y-122459810D01*
X127087333Y-122316952D01*
X127134952Y-122221714D01*
X127182571Y-122174095D01*
X127277810Y-122126476D01*
X127515905Y-122126476D01*
X127611143Y-122174095D01*
X127658762Y-122221714D01*
X127706381Y-122316952D01*
X127706381Y-122602667D01*
X127658762Y-122697905D01*
X127611143Y-122745524D01*
X146343619Y-123539238D02*
X146296000Y-123634476D01*
X146200762Y-123729714D01*
X146057905Y-123872571D01*
X146010286Y-123967810D01*
X146010286Y-124063048D01*
X146248381Y-124015429D02*
X146200762Y-124110667D01*
X146105524Y-124205905D01*
X145915048Y-124253524D01*
X145581714Y-124253524D01*
X145391238Y-124205905D01*
X145296000Y-124110667D01*
X145248381Y-124015429D01*
X145248381Y-123824952D01*
X145296000Y-123729714D01*
X145391238Y-123634476D01*
X145581714Y-123586857D01*
X145915048Y-123586857D01*
X146105524Y-123634476D01*
X146200762Y-123729714D01*
X146248381Y-123824952D01*
X146248381Y-124015429D01*
X145343619Y-123205905D02*
X145296000Y-123158286D01*
X145248381Y-123063048D01*
X145248381Y-122824952D01*
X145296000Y-122729714D01*
X145343619Y-122682095D01*
X145438857Y-122634476D01*
X145534095Y-122634476D01*
X145676952Y-122682095D01*
X146248381Y-123253524D01*
X146248381Y-122634476D01*
X137453619Y-96869238D02*
X137406000Y-96964476D01*
X137310762Y-97059714D01*
X137167905Y-97202571D01*
X137120286Y-97297810D01*
X137120286Y-97393048D01*
X137358381Y-97345429D02*
X137310762Y-97440667D01*
X137215524Y-97535905D01*
X137025048Y-97583524D01*
X136691714Y-97583524D01*
X136501238Y-97535905D01*
X136406000Y-97440667D01*
X136358381Y-97345429D01*
X136358381Y-97154952D01*
X136406000Y-97059714D01*
X136501238Y-96964476D01*
X136691714Y-96916857D01*
X137025048Y-96916857D01*
X137215524Y-96964476D01*
X137310762Y-97059714D01*
X137358381Y-97154952D01*
X137358381Y-97345429D01*
X137358381Y-95964476D02*
X137358381Y-96535905D01*
X137358381Y-96250191D02*
X136358381Y-96250191D01*
X136501238Y-96345429D01*
X136596476Y-96440667D01*
X136644095Y-96535905D01*
X126238095Y-107402381D02*
X126238095Y-108211905D01*
X126285714Y-108307143D01*
X126333333Y-108354762D01*
X126428571Y-108402381D01*
X126619048Y-108402381D01*
X126714286Y-108354762D01*
X126761905Y-108307143D01*
X126809524Y-108211905D01*
X126809524Y-107402381D01*
X127809524Y-108402381D02*
X127238095Y-108402381D01*
X127523809Y-108402381D02*
X127523809Y-107402381D01*
X127428571Y-107545238D01*
X127333333Y-107640476D01*
X127238095Y-107688095D01*
X131341905Y-95372381D02*
X131341905Y-94372381D01*
X131722858Y-94372381D01*
X131818096Y-94420000D01*
X131865715Y-94467619D01*
X131913334Y-94562857D01*
X131913334Y-94705714D01*
X131865715Y-94800952D01*
X131818096Y-94848571D01*
X131722858Y-94896190D01*
X131341905Y-94896190D01*
X132294286Y-94467619D02*
X132341905Y-94420000D01*
X132437143Y-94372381D01*
X132675239Y-94372381D01*
X132770477Y-94420000D01*
X132818096Y-94467619D01*
X132865715Y-94562857D01*
X132865715Y-94658095D01*
X132818096Y-94800952D01*
X132246667Y-95372381D01*
X132865715Y-95372381D01*
X118641905Y-89352381D02*
X118641905Y-88352381D01*
X119022858Y-88352381D01*
X119118096Y-88400000D01*
X119165715Y-88447619D01*
X119213334Y-88542857D01*
X119213334Y-88685714D01*
X119165715Y-88780952D01*
X119118096Y-88828571D01*
X119022858Y-88876190D01*
X118641905Y-88876190D01*
X120070477Y-88685714D02*
X120070477Y-89352381D01*
X119832381Y-88304762D02*
X119594286Y-89019048D01*
X120213334Y-89019048D01*
M02*
