G04 #@! TF.FileFunction,Copper,L2,Bot,Signal*
%FSLAX46Y46*%
G04 Gerber Fmt 4.6, Leading zero omitted, Abs format (unit mm)*
G04 Created by KiCad (PCBNEW 4.0.3+e1-6302~38~ubuntu16.04.1-stable) date Tue Aug 16 13:22:27 2016*
%MOMM*%
%LPD*%
G01*
G04 APERTURE LIST*
%ADD10C,0.100000*%
%ADD11R,1.400000X1.400000*%
%ADD12C,1.400000*%
%ADD13C,1.699260*%
%ADD14R,1.699260X1.699260*%
%ADD15R,2.032000X1.727200*%
%ADD16O,2.032000X1.727200*%
%ADD17C,1.998980*%
%ADD18C,1.300000*%
%ADD19R,1.300000X1.300000*%
%ADD20C,1.200000*%
%ADD21C,1.905000*%
%ADD22R,2.032000X2.032000*%
%ADD23O,2.032000X2.032000*%
%ADD24R,1.270000X5.080000*%
%ADD25C,0.250000*%
G04 APERTURE END LIST*
D10*
D11*
X119380000Y-118110000D03*
D12*
X124380000Y-118110000D03*
D11*
X121920000Y-96520000D03*
D12*
X126920000Y-96520000D03*
D13*
X134620520Y-134617460D03*
D14*
X124460520Y-134617460D03*
D13*
X124459480Y-139702540D03*
D14*
X134619480Y-139702540D03*
D13*
X114299480Y-129542540D03*
D14*
X124459480Y-129542540D03*
D13*
X114299480Y-125732540D03*
D14*
X124459480Y-125732540D03*
D13*
X110492540Y-133350520D03*
D14*
X110492540Y-123190520D03*
D13*
X106677460Y-123189480D03*
D14*
X106677460Y-133349480D03*
D13*
X115570520Y-120647460D03*
D14*
X105410520Y-120647460D03*
D13*
X115570520Y-118107460D03*
D14*
X105410520Y-118107460D03*
D13*
X105412540Y-113030520D03*
D14*
X105412540Y-102870520D03*
D13*
X109217460Y-102869480D03*
D14*
X109217460Y-113029480D03*
D13*
X113032540Y-105410520D03*
D14*
X113032540Y-95250520D03*
D13*
X115567460Y-95249480D03*
D14*
X115567460Y-105409480D03*
D15*
X148590000Y-95250000D03*
D16*
X148590000Y-97790000D03*
X148590000Y-100330000D03*
X148590000Y-102870000D03*
X148590000Y-105410000D03*
X148590000Y-107950000D03*
X148590000Y-110490000D03*
X148590000Y-113030000D03*
X148590000Y-115570000D03*
X148590000Y-118110000D03*
X148590000Y-120650000D03*
X148590000Y-123190000D03*
X148590000Y-125730000D03*
X148590000Y-128270000D03*
X148590000Y-130810000D03*
X148590000Y-133350000D03*
X148590000Y-135890000D03*
X148590000Y-138430000D03*
X148590000Y-140970000D03*
D15*
X93980000Y-95250000D03*
D16*
X93980000Y-97790000D03*
X93980000Y-100330000D03*
X93980000Y-102870000D03*
X93980000Y-105410000D03*
X93980000Y-107950000D03*
X93980000Y-110490000D03*
X93980000Y-113030000D03*
X93980000Y-115570000D03*
X93980000Y-118110000D03*
X93980000Y-120650000D03*
X93980000Y-123190000D03*
X93980000Y-125730000D03*
X93980000Y-128270000D03*
X93980000Y-130810000D03*
X93980000Y-133350000D03*
X93980000Y-135890000D03*
X93980000Y-138430000D03*
X93980000Y-140970000D03*
D17*
X137160000Y-97790000D03*
X144780000Y-97790000D03*
X143510000Y-104140000D03*
X135890000Y-104140000D03*
X135890000Y-107950000D03*
X143510000Y-107950000D03*
X143510000Y-130810000D03*
X135890000Y-130810000D03*
D18*
X109180000Y-97790000D03*
D19*
X106680000Y-97790000D03*
D18*
X101560000Y-107950000D03*
D19*
X99060000Y-107950000D03*
D18*
X101560000Y-99060000D03*
D19*
X99060000Y-99060000D03*
D18*
X101560000Y-116840000D03*
D19*
X99060000Y-116840000D03*
D18*
X116800000Y-111760000D03*
D19*
X114300000Y-111760000D03*
D18*
X101560000Y-125730000D03*
D19*
X99060000Y-125730000D03*
D18*
X99100000Y-134620000D03*
D19*
X101600000Y-134620000D03*
D18*
X106720000Y-138430000D03*
D19*
X109220000Y-138430000D03*
D18*
X130770000Y-129540000D03*
D19*
X128270000Y-129540000D03*
D18*
X116840000Y-135930000D03*
D19*
X116840000Y-138430000D03*
D18*
X138390000Y-116840000D03*
D19*
X135890000Y-116840000D03*
D18*
X141010000Y-137160000D03*
D19*
X143510000Y-137160000D03*
D20*
X132080000Y-121920000D03*
X130810000Y-123190000D03*
X132080000Y-124460000D03*
X140970000Y-124460000D03*
X142240000Y-123190000D03*
X140970000Y-121920000D03*
X132080000Y-97790000D03*
X133350000Y-96520000D03*
X132080000Y-95250000D03*
D21*
X123190000Y-111760000D03*
X125730000Y-111760000D03*
X128270000Y-111760000D03*
X130810000Y-111760000D03*
X130810000Y-104140000D03*
X128270000Y-104140000D03*
X125730000Y-104140000D03*
X123190000Y-104140000D03*
D22*
X132080000Y-90170000D03*
D23*
X129540000Y-90170000D03*
D24*
X121285000Y-88900000D03*
X112395000Y-88900000D03*
D25*
X121920000Y-96520000D02*
X124460000Y-93980000D01*
X130810000Y-93980000D02*
X132080000Y-95250000D01*
X124460000Y-93980000D02*
X130810000Y-93980000D01*
X128270000Y-104140000D02*
X128270000Y-106680000D01*
X128270000Y-106680000D02*
X129540000Y-107950000D01*
X125730000Y-111760000D02*
X129540000Y-107950000D01*
X133350000Y-107950000D02*
X135890000Y-104140000D01*
X129540000Y-107950000D02*
X133350000Y-107950000D01*
X138430000Y-124460000D02*
X138430000Y-129540000D01*
X143510000Y-134620000D02*
X143510000Y-137160000D01*
X138430000Y-129540000D02*
X143510000Y-134620000D01*
X132080000Y-124460000D02*
X138430000Y-124460000D01*
X138430000Y-124460000D02*
X140970000Y-121920000D01*
X138390000Y-116840000D02*
X138390000Y-116880000D01*
X138390000Y-116880000D02*
X135890000Y-119380000D01*
X135890000Y-119380000D02*
X130810000Y-119380000D01*
X130810000Y-119380000D02*
X127000000Y-123190000D01*
X127000000Y-123190000D02*
X127000000Y-127002020D01*
X127000000Y-127002020D02*
X124459480Y-129542540D01*
X99060000Y-125730000D02*
X99060000Y-128270000D01*
X106677460Y-129537460D02*
X99060000Y-128270000D01*
X106677460Y-129537460D02*
X106677460Y-133349480D01*
X105410520Y-120647460D02*
X109222540Y-120647460D01*
X114300000Y-115570000D02*
X114300000Y-111760000D01*
X109222540Y-120647460D02*
X114300000Y-115570000D01*
X101560000Y-107950000D02*
X110493060Y-107950000D01*
X110493060Y-107950000D02*
X113032540Y-105410520D01*
X101560000Y-107950000D02*
X101600000Y-107950000D01*
X115567460Y-96522540D02*
X115567460Y-95249480D01*
X114300000Y-97790000D02*
X115567460Y-96522540D01*
X109180000Y-97790000D02*
X114300000Y-97790000D01*
X130810000Y-111760000D02*
X134620000Y-111760000D01*
X138430000Y-107950000D02*
X138430000Y-101600000D01*
X134620000Y-111760000D02*
X138430000Y-107950000D01*
X148590000Y-97790000D02*
X144780000Y-101600000D01*
X144780000Y-101600000D02*
X138430000Y-101600000D01*
X138430000Y-101600000D02*
X125730000Y-101600000D01*
X125730000Y-101600000D02*
X123190000Y-104140000D01*
X125730000Y-104140000D02*
X125730000Y-106680000D01*
X134620000Y-100330000D02*
X137160000Y-97790000D01*
X120650000Y-100330000D02*
X134620000Y-100330000D01*
X120650000Y-106680000D02*
X120650000Y-100330000D01*
X125730000Y-106680000D02*
X120650000Y-106680000D01*
X128270000Y-111760000D02*
X128270000Y-114300000D01*
X137160000Y-114300000D02*
X143510000Y-107950000D01*
X128270000Y-114300000D02*
X137160000Y-114300000D01*
M02*
