G04 #@! TF.FileFunction,Copper,L1,Top,Signal*
%FSLAX46Y46*%
G04 Gerber Fmt 4.6, Leading zero omitted, Abs format (unit mm)*
G04 Created by KiCad (PCBNEW 4.0.3+e1-6302~38~ubuntu16.04.1-stable) date Tue Aug 16 13:22:27 2016*
%MOMM*%
%LPD*%
G01*
G04 APERTURE LIST*
%ADD10C,0.100000*%
%ADD11R,1.400000X1.400000*%
%ADD12C,1.400000*%
%ADD13C,1.699260*%
%ADD14R,1.699260X1.699260*%
%ADD15R,2.032000X1.727200*%
%ADD16O,2.032000X1.727200*%
%ADD17C,1.998980*%
%ADD18C,1.300000*%
%ADD19R,1.300000X1.300000*%
%ADD20C,1.200000*%
%ADD21C,1.905000*%
%ADD22R,2.032000X2.032000*%
%ADD23O,2.032000X2.032000*%
%ADD24R,1.270000X5.080000*%
%ADD25R,1.016000X5.080000*%
%ADD26C,0.250000*%
%ADD27C,0.254000*%
G04 APERTURE END LIST*
D10*
D11*
X119380000Y-118110000D03*
D12*
X124380000Y-118110000D03*
D11*
X121920000Y-96520000D03*
D12*
X126920000Y-96520000D03*
D13*
X134620520Y-134617460D03*
D14*
X124460520Y-134617460D03*
D13*
X124459480Y-139702540D03*
D14*
X134619480Y-139702540D03*
D13*
X114299480Y-129542540D03*
D14*
X124459480Y-129542540D03*
D13*
X114299480Y-125732540D03*
D14*
X124459480Y-125732540D03*
D13*
X110492540Y-133350520D03*
D14*
X110492540Y-123190520D03*
D13*
X106677460Y-123189480D03*
D14*
X106677460Y-133349480D03*
D13*
X115570520Y-120647460D03*
D14*
X105410520Y-120647460D03*
D13*
X115570520Y-118107460D03*
D14*
X105410520Y-118107460D03*
D13*
X105412540Y-113030520D03*
D14*
X105412540Y-102870520D03*
D13*
X109217460Y-102869480D03*
D14*
X109217460Y-113029480D03*
D13*
X113032540Y-105410520D03*
D14*
X113032540Y-95250520D03*
D13*
X115567460Y-95249480D03*
D14*
X115567460Y-105409480D03*
D15*
X148590000Y-95250000D03*
D16*
X148590000Y-97790000D03*
X148590000Y-100330000D03*
X148590000Y-102870000D03*
X148590000Y-105410000D03*
X148590000Y-107950000D03*
X148590000Y-110490000D03*
X148590000Y-113030000D03*
X148590000Y-115570000D03*
X148590000Y-118110000D03*
X148590000Y-120650000D03*
X148590000Y-123190000D03*
X148590000Y-125730000D03*
X148590000Y-128270000D03*
X148590000Y-130810000D03*
X148590000Y-133350000D03*
X148590000Y-135890000D03*
X148590000Y-138430000D03*
X148590000Y-140970000D03*
D15*
X93980000Y-95250000D03*
D16*
X93980000Y-97790000D03*
X93980000Y-100330000D03*
X93980000Y-102870000D03*
X93980000Y-105410000D03*
X93980000Y-107950000D03*
X93980000Y-110490000D03*
X93980000Y-113030000D03*
X93980000Y-115570000D03*
X93980000Y-118110000D03*
X93980000Y-120650000D03*
X93980000Y-123190000D03*
X93980000Y-125730000D03*
X93980000Y-128270000D03*
X93980000Y-130810000D03*
X93980000Y-133350000D03*
X93980000Y-135890000D03*
X93980000Y-138430000D03*
X93980000Y-140970000D03*
D17*
X137160000Y-97790000D03*
X144780000Y-97790000D03*
X143510000Y-104140000D03*
X135890000Y-104140000D03*
X135890000Y-107950000D03*
X143510000Y-107950000D03*
X143510000Y-130810000D03*
X135890000Y-130810000D03*
D18*
X109180000Y-97790000D03*
D19*
X106680000Y-97790000D03*
D18*
X101560000Y-107950000D03*
D19*
X99060000Y-107950000D03*
D18*
X101560000Y-99060000D03*
D19*
X99060000Y-99060000D03*
D18*
X101560000Y-116840000D03*
D19*
X99060000Y-116840000D03*
D18*
X116800000Y-111760000D03*
D19*
X114300000Y-111760000D03*
D18*
X101560000Y-125730000D03*
D19*
X99060000Y-125730000D03*
D18*
X99100000Y-134620000D03*
D19*
X101600000Y-134620000D03*
D18*
X106720000Y-138430000D03*
D19*
X109220000Y-138430000D03*
D18*
X130770000Y-129540000D03*
D19*
X128270000Y-129540000D03*
D18*
X116840000Y-135930000D03*
D19*
X116840000Y-138430000D03*
D18*
X138390000Y-116840000D03*
D19*
X135890000Y-116840000D03*
D18*
X141010000Y-137160000D03*
D19*
X143510000Y-137160000D03*
D20*
X132080000Y-121920000D03*
X130810000Y-123190000D03*
X132080000Y-124460000D03*
X140970000Y-124460000D03*
X142240000Y-123190000D03*
X140970000Y-121920000D03*
X132080000Y-97790000D03*
X133350000Y-96520000D03*
X132080000Y-95250000D03*
D21*
X123190000Y-111760000D03*
X125730000Y-111760000D03*
X128270000Y-111760000D03*
X130810000Y-111760000D03*
X130810000Y-104140000D03*
X128270000Y-104140000D03*
X125730000Y-104140000D03*
X123190000Y-104140000D03*
D22*
X132080000Y-90170000D03*
D23*
X129540000Y-90170000D03*
D24*
X112395000Y-88900000D03*
X121285000Y-88900000D03*
D25*
X116840000Y-88900000D03*
D26*
X130810000Y-104140000D02*
X130810000Y-107950000D01*
X124380000Y-116760000D02*
X124380000Y-118110000D01*
X119380000Y-111760000D02*
X124380000Y-116760000D01*
X119380000Y-107950000D02*
X119380000Y-111760000D01*
X130810000Y-107950000D02*
X119380000Y-107950000D01*
X128270000Y-104140000D02*
X128270000Y-97870000D01*
X128270000Y-97870000D02*
X126920000Y-96520000D01*
X134619480Y-139702540D02*
X134619480Y-139699480D01*
X134619480Y-139699480D02*
X132080000Y-142240000D01*
X118110000Y-142240000D02*
X116840000Y-138430000D01*
X132080000Y-142240000D02*
X118110000Y-142240000D01*
X134619480Y-139702540D02*
X134620520Y-139702540D01*
X134620520Y-139702540D02*
X137163060Y-137160000D01*
X141010000Y-137160000D02*
X137163060Y-137160000D01*
X137163060Y-137160000D02*
X134620520Y-134617460D01*
X124459480Y-129542540D02*
X128267460Y-129542540D01*
X128267460Y-129542540D02*
X128270000Y-129540000D01*
X124459480Y-129542540D02*
X124457460Y-129542540D01*
X124457460Y-129542540D02*
X121920000Y-132080000D01*
X121920000Y-132080000D02*
X121920000Y-137163060D01*
X121920000Y-137163060D02*
X124459480Y-139702540D01*
X109220000Y-138430000D02*
X114340000Y-138430000D01*
X114340000Y-138430000D02*
X116840000Y-135930000D01*
X114299480Y-129542540D02*
X120649480Y-129542540D01*
X120649480Y-129542540D02*
X124459480Y-125732540D01*
X114299480Y-129542540D02*
X114299480Y-133389480D01*
X114299480Y-133389480D02*
X116840000Y-135930000D01*
X101600000Y-134620000D02*
X107950000Y-128270000D01*
X107950000Y-125733060D02*
X110492540Y-123190520D01*
X107950000Y-128270000D02*
X107950000Y-125733060D01*
X110492540Y-123190520D02*
X114297460Y-125730520D01*
X114297460Y-125730520D02*
X114299480Y-125732540D01*
X114299480Y-125732540D02*
X118107460Y-125732540D01*
X130770000Y-126960000D02*
X130770000Y-129540000D01*
X127000000Y-123190000D02*
X130770000Y-126960000D01*
X120650000Y-123190000D02*
X127000000Y-123190000D01*
X118107460Y-125732540D02*
X120650000Y-123190000D01*
X106677460Y-133349480D02*
X106677460Y-138387460D01*
X106677460Y-138387460D02*
X106720000Y-138430000D01*
X110492540Y-133350520D02*
X106678500Y-133350520D01*
X106678500Y-133350520D02*
X106677460Y-133349480D01*
X99100000Y-134620000D02*
X99100000Y-134580000D01*
X99100000Y-134580000D02*
X106677460Y-127002540D01*
X106677460Y-127002540D02*
X106677460Y-123189480D01*
X106677460Y-123189480D02*
X106677460Y-121914400D01*
X106677460Y-121914400D02*
X105410520Y-120647460D01*
X99060000Y-116840000D02*
X99060000Y-118190000D01*
X99060000Y-118190000D02*
X101560000Y-120690000D01*
X105410520Y-118107460D02*
X104142540Y-118107460D01*
X104142540Y-118107460D02*
X101560000Y-120690000D01*
X101560000Y-120690000D02*
X101560000Y-125730000D01*
X99060000Y-116840000D02*
X99060000Y-116880000D01*
X115570520Y-120647460D02*
X111757460Y-120647460D01*
X109217460Y-118107460D02*
X105410520Y-118107460D01*
X111757460Y-120647460D02*
X109217460Y-118107460D01*
X101560000Y-125730000D02*
X101600000Y-125730000D01*
X99060000Y-99060000D02*
X99060000Y-101600000D01*
X100330520Y-102870520D02*
X105412540Y-102870520D01*
X99060000Y-101600000D02*
X100330520Y-102870520D01*
X99062540Y-99062540D02*
X99060000Y-99060000D01*
X105412540Y-102870520D02*
X105412540Y-104142540D01*
X105412540Y-104142540D02*
X109220000Y-107950000D01*
X109220000Y-107950000D02*
X112990000Y-107950000D01*
X112990000Y-107950000D02*
X116800000Y-111760000D01*
X115570520Y-118107460D02*
X115570520Y-112989480D01*
X115570520Y-112989480D02*
X116800000Y-111760000D01*
X101560000Y-114300000D02*
X104143060Y-114300000D01*
X104143060Y-114300000D02*
X105412540Y-113030520D01*
X99060000Y-107950000D02*
X99060000Y-111760000D01*
X101560000Y-114260000D02*
X101560000Y-114300000D01*
X101560000Y-114300000D02*
X101560000Y-116840000D01*
X99060000Y-111760000D02*
X101560000Y-114260000D01*
X109217460Y-113029480D02*
X105413580Y-113029480D01*
X105413580Y-113029480D02*
X105412540Y-113030520D01*
X101560000Y-99060000D02*
X104140000Y-99060000D01*
X109217460Y-101597460D02*
X109217460Y-102869480D01*
X107950000Y-100330000D02*
X109217460Y-101597460D01*
X105410000Y-100330000D02*
X107950000Y-100330000D01*
X104140000Y-99060000D02*
X105410000Y-100330000D01*
X109217460Y-102869480D02*
X110490520Y-102869480D01*
X113032540Y-100327460D02*
X113032540Y-95250520D01*
X110490520Y-102869480D02*
X113032540Y-100327460D01*
X115567460Y-105409480D02*
X113033580Y-105409480D01*
X113033580Y-105409480D02*
X113032540Y-105410520D01*
X116840000Y-88900000D02*
X116840000Y-95249480D01*
X116840000Y-95249480D02*
X116840000Y-95250000D01*
X116840000Y-95250000D02*
X116840000Y-95249480D01*
X132080000Y-92710000D02*
X132080000Y-90170000D01*
X121920000Y-92710000D02*
X132080000Y-92710000D01*
X119380520Y-95249480D02*
X121920000Y-92710000D01*
X115567460Y-95249480D02*
X116840000Y-95249480D01*
X116840000Y-95249480D02*
X119380520Y-95249480D01*
X144780000Y-97790000D02*
X148590000Y-97790000D01*
X142240000Y-123190000D02*
X143510000Y-124460000D01*
X143510000Y-124460000D02*
X143510000Y-130810000D01*
X148590000Y-123190000D02*
X142240000Y-123190000D01*
X133350000Y-96520000D02*
X133350000Y-99060000D01*
X133350000Y-119380000D02*
X132080000Y-121920000D01*
X133350000Y-100330000D02*
X133350000Y-119380000D01*
X133350000Y-99060000D02*
X133350000Y-100330000D01*
X132080000Y-121920000D02*
X134620000Y-121920000D01*
X137160000Y-124460000D02*
X140970000Y-124460000D01*
X134620000Y-121920000D02*
X137160000Y-124460000D01*
X140970000Y-124460000D02*
X139700000Y-124460000D01*
X135890000Y-128270000D02*
X135890000Y-130810000D01*
X139700000Y-124460000D02*
X135890000Y-128270000D01*
X132080000Y-97790000D02*
X129540000Y-95250000D01*
X138430000Y-105410000D02*
X135890000Y-107950000D01*
X138430000Y-101600000D02*
X138430000Y-105410000D01*
X134620000Y-101600000D02*
X138430000Y-101600000D01*
X134620000Y-93980000D02*
X134620000Y-101600000D01*
X129540000Y-93980000D02*
X134620000Y-93980000D01*
X129540000Y-95250000D02*
X129540000Y-93980000D01*
X137160000Y-97790000D02*
X138430000Y-97790000D01*
X138430000Y-97790000D02*
X143510000Y-104140000D01*
D27*
G36*
X111125000Y-88614250D02*
X111283750Y-88773000D01*
X112268000Y-88773000D01*
X112268000Y-88753000D01*
X112522000Y-88753000D01*
X112522000Y-88773000D01*
X113506250Y-88773000D01*
X113665000Y-88614250D01*
X113665000Y-87070000D01*
X115684560Y-87070000D01*
X115684560Y-91440000D01*
X115728838Y-91675317D01*
X115867910Y-91891441D01*
X116080000Y-92036356D01*
X116080000Y-93854771D01*
X115864067Y-93765108D01*
X115273444Y-93764592D01*
X114727583Y-93990138D01*
X114495849Y-94221468D01*
X114485332Y-94165573D01*
X114346260Y-93949449D01*
X114134060Y-93804459D01*
X113882170Y-93753450D01*
X112182910Y-93753450D01*
X111947593Y-93797728D01*
X111731469Y-93936800D01*
X111586479Y-94149000D01*
X111535470Y-94400890D01*
X111535470Y-96100150D01*
X111579748Y-96335467D01*
X111718820Y-96551591D01*
X111931020Y-96696581D01*
X112182910Y-96747590D01*
X112272540Y-96747590D01*
X112272540Y-100012658D01*
X110366295Y-101918903D01*
X110059534Y-101611606D01*
X109973138Y-101575731D01*
X109919608Y-101306621D01*
X109754861Y-101060059D01*
X108487401Y-99792599D01*
X108240839Y-99627852D01*
X107950000Y-99570000D01*
X105724802Y-99570000D01*
X104677401Y-98522599D01*
X104430839Y-98357852D01*
X104140000Y-98300000D01*
X102617006Y-98300000D01*
X102393148Y-98075750D01*
X105395000Y-98075750D01*
X105395000Y-98566310D01*
X105491673Y-98799699D01*
X105670302Y-98978327D01*
X105903691Y-99075000D01*
X106394250Y-99075000D01*
X106553000Y-98916250D01*
X106553000Y-97917000D01*
X105553750Y-97917000D01*
X105395000Y-98075750D01*
X102393148Y-98075750D01*
X102288845Y-97971265D01*
X101816724Y-97775223D01*
X101305519Y-97774777D01*
X100833057Y-97969995D01*
X100471265Y-98331155D01*
X100357440Y-98605276D01*
X100357440Y-98410000D01*
X100313162Y-98174683D01*
X100174090Y-97958559D01*
X99961890Y-97813569D01*
X99710000Y-97762560D01*
X98410000Y-97762560D01*
X98174683Y-97806838D01*
X97958559Y-97945910D01*
X97813569Y-98158110D01*
X97762560Y-98410000D01*
X97762560Y-99710000D01*
X97806838Y-99945317D01*
X97945910Y-100161441D01*
X98158110Y-100306431D01*
X98300000Y-100335164D01*
X98300000Y-101600000D01*
X98357852Y-101890839D01*
X98522599Y-102137401D01*
X99793119Y-103407921D01*
X100039681Y-103572668D01*
X100330520Y-103630520D01*
X103915470Y-103630520D01*
X103915470Y-103720150D01*
X103959748Y-103955467D01*
X104098820Y-104171591D01*
X104311020Y-104316581D01*
X104562910Y-104367590D01*
X104697306Y-104367590D01*
X104710392Y-104433379D01*
X104875139Y-104679941D01*
X108682599Y-108487401D01*
X108929161Y-108652148D01*
X109220000Y-108710000D01*
X112675198Y-108710000D01*
X114427758Y-110462560D01*
X113650000Y-110462560D01*
X113414683Y-110506838D01*
X113198559Y-110645910D01*
X113053569Y-110858110D01*
X113002560Y-111110000D01*
X113002560Y-112410000D01*
X113046838Y-112645317D01*
X113185910Y-112861441D01*
X113398110Y-113006431D01*
X113650000Y-113057440D01*
X114810520Y-113057440D01*
X114810520Y-116815113D01*
X114730643Y-116848118D01*
X114312646Y-117265386D01*
X114086148Y-117810853D01*
X114085632Y-118401476D01*
X114311178Y-118947337D01*
X114728446Y-119365334D01*
X114757044Y-119377209D01*
X114730643Y-119388118D01*
X114312646Y-119805386D01*
X114278566Y-119887460D01*
X112072262Y-119887460D01*
X109754861Y-117570059D01*
X109508299Y-117405312D01*
X109217460Y-117347460D01*
X106907590Y-117347460D01*
X106907590Y-117257830D01*
X106863312Y-117022513D01*
X106724240Y-116806389D01*
X106512040Y-116661399D01*
X106260150Y-116610390D01*
X104560890Y-116610390D01*
X104325573Y-116654668D01*
X104109449Y-116793740D01*
X103964459Y-117005940D01*
X103913450Y-117257830D01*
X103913450Y-117393029D01*
X103851701Y-117405312D01*
X103605139Y-117570059D01*
X101560000Y-119615198D01*
X100001689Y-118056887D01*
X100161441Y-117954090D01*
X100306431Y-117741890D01*
X100357440Y-117490000D01*
X100357440Y-117294540D01*
X100469995Y-117566943D01*
X100831155Y-117928735D01*
X101303276Y-118124777D01*
X101814481Y-118125223D01*
X102286943Y-117930005D01*
X102648735Y-117568845D01*
X102844777Y-117096724D01*
X102845223Y-116585519D01*
X102650005Y-116113057D01*
X102320000Y-115782475D01*
X102320000Y-115060000D01*
X104143060Y-115060000D01*
X104433899Y-115002148D01*
X104680461Y-114837401D01*
X105036114Y-114481748D01*
X105115933Y-114514892D01*
X105706556Y-114515408D01*
X106252417Y-114289862D01*
X106670414Y-113872594D01*
X106704926Y-113789480D01*
X107720390Y-113789480D01*
X107720390Y-113879110D01*
X107764668Y-114114427D01*
X107903740Y-114330551D01*
X108115940Y-114475541D01*
X108367830Y-114526550D01*
X110067090Y-114526550D01*
X110302407Y-114482272D01*
X110518531Y-114343200D01*
X110663521Y-114131000D01*
X110714530Y-113879110D01*
X110714530Y-112179850D01*
X110670252Y-111944533D01*
X110531180Y-111728409D01*
X110318980Y-111583419D01*
X110067090Y-111532410D01*
X108367830Y-111532410D01*
X108132513Y-111576688D01*
X107916389Y-111715760D01*
X107771399Y-111927960D01*
X107720390Y-112179850D01*
X107720390Y-112269480D01*
X106704457Y-112269480D01*
X106671882Y-112190643D01*
X106254614Y-111772646D01*
X105709147Y-111546148D01*
X105118524Y-111545632D01*
X104572663Y-111771178D01*
X104154666Y-112188446D01*
X103928168Y-112733913D01*
X103927652Y-113324536D01*
X103961589Y-113406669D01*
X103828258Y-113540000D01*
X101914802Y-113540000D01*
X99820000Y-111445198D01*
X99820000Y-109226742D01*
X99945317Y-109203162D01*
X100161441Y-109064090D01*
X100306431Y-108851890D01*
X100357440Y-108600000D01*
X100357440Y-108404540D01*
X100469995Y-108676943D01*
X100831155Y-109038735D01*
X101303276Y-109234777D01*
X101814481Y-109235223D01*
X102286943Y-109040005D01*
X102648735Y-108678845D01*
X102844777Y-108206724D01*
X102845223Y-107695519D01*
X102650005Y-107223057D01*
X102288845Y-106861265D01*
X101816724Y-106665223D01*
X101305519Y-106664777D01*
X100833057Y-106859995D01*
X100471265Y-107221155D01*
X100357440Y-107495276D01*
X100357440Y-107300000D01*
X100313162Y-107064683D01*
X100174090Y-106848559D01*
X99961890Y-106703569D01*
X99710000Y-106652560D01*
X98410000Y-106652560D01*
X98174683Y-106696838D01*
X97958559Y-106835910D01*
X97813569Y-107048110D01*
X97762560Y-107300000D01*
X97762560Y-108600000D01*
X97806838Y-108835317D01*
X97945910Y-109051441D01*
X98158110Y-109196431D01*
X98300000Y-109225164D01*
X98300000Y-111760000D01*
X98357852Y-112050839D01*
X98522599Y-112297401D01*
X100800000Y-114574802D01*
X100800000Y-115782994D01*
X100471265Y-116111155D01*
X100357440Y-116385276D01*
X100357440Y-116190000D01*
X100313162Y-115954683D01*
X100174090Y-115738559D01*
X99961890Y-115593569D01*
X99710000Y-115542560D01*
X98410000Y-115542560D01*
X98174683Y-115586838D01*
X97958559Y-115725910D01*
X97813569Y-115938110D01*
X97762560Y-116190000D01*
X97762560Y-117490000D01*
X97806838Y-117725317D01*
X97945910Y-117941441D01*
X98158110Y-118086431D01*
X98300000Y-118115164D01*
X98300000Y-118190000D01*
X98357852Y-118480839D01*
X98522599Y-118727401D01*
X100800000Y-121004802D01*
X100800000Y-124672994D01*
X100471265Y-125001155D01*
X100357440Y-125275276D01*
X100357440Y-125080000D01*
X100313162Y-124844683D01*
X100174090Y-124628559D01*
X99961890Y-124483569D01*
X99710000Y-124432560D01*
X98410000Y-124432560D01*
X98174683Y-124476838D01*
X97958559Y-124615910D01*
X97813569Y-124828110D01*
X97762560Y-125080000D01*
X97762560Y-126380000D01*
X97806838Y-126615317D01*
X97945910Y-126831441D01*
X98158110Y-126976431D01*
X98410000Y-127027440D01*
X99710000Y-127027440D01*
X99945317Y-126983162D01*
X100161441Y-126844090D01*
X100306431Y-126631890D01*
X100357440Y-126380000D01*
X100357440Y-126184540D01*
X100469995Y-126456943D01*
X100831155Y-126818735D01*
X101303276Y-127014777D01*
X101814481Y-127015223D01*
X102286943Y-126820005D01*
X102648735Y-126458845D01*
X102844777Y-125986724D01*
X102845223Y-125475519D01*
X102650005Y-125003057D01*
X102320000Y-124672475D01*
X102320000Y-121004802D01*
X104026116Y-119298686D01*
X104078150Y-119379548D01*
X103964459Y-119545940D01*
X103913450Y-119797830D01*
X103913450Y-121497090D01*
X103957728Y-121732407D01*
X104096800Y-121948531D01*
X104309000Y-122093521D01*
X104560890Y-122144530D01*
X105622816Y-122144530D01*
X105419586Y-122347406D01*
X105193088Y-122892873D01*
X105192572Y-123483496D01*
X105418118Y-124029357D01*
X105835386Y-124447354D01*
X105917460Y-124481434D01*
X105917460Y-126687738D01*
X99270051Y-133335147D01*
X98845519Y-133334777D01*
X98373057Y-133529995D01*
X98011265Y-133891155D01*
X97815223Y-134363276D01*
X97814777Y-134874481D01*
X98009995Y-135346943D01*
X98371155Y-135708735D01*
X98843276Y-135904777D01*
X99354481Y-135905223D01*
X99826943Y-135710005D01*
X100188735Y-135348845D01*
X100302560Y-135074724D01*
X100302560Y-135270000D01*
X100346838Y-135505317D01*
X100485910Y-135721441D01*
X100698110Y-135866431D01*
X100950000Y-135917440D01*
X102250000Y-135917440D01*
X102485317Y-135873162D01*
X102701441Y-135734090D01*
X102846431Y-135521890D01*
X102897440Y-135270000D01*
X102897440Y-134397362D01*
X108487401Y-128807401D01*
X108652148Y-128560839D01*
X108710000Y-128270000D01*
X108710000Y-126047862D01*
X110070272Y-124687590D01*
X111342170Y-124687590D01*
X111360999Y-124684047D01*
X112814917Y-125654620D01*
X112814592Y-126026556D01*
X113040138Y-126572417D01*
X113457406Y-126990414D01*
X114002873Y-127216912D01*
X114593496Y-127217428D01*
X115139357Y-126991882D01*
X115557354Y-126574614D01*
X115591434Y-126492540D01*
X118107460Y-126492540D01*
X118398299Y-126434688D01*
X118644861Y-126269941D01*
X120964802Y-123950000D01*
X126685198Y-123950000D01*
X130010000Y-127274802D01*
X130010000Y-128482994D01*
X129681265Y-128811155D01*
X129567440Y-129085276D01*
X129567440Y-128890000D01*
X129523162Y-128654683D01*
X129384090Y-128438559D01*
X129171890Y-128293569D01*
X128920000Y-128242560D01*
X127620000Y-128242560D01*
X127384683Y-128286838D01*
X127168559Y-128425910D01*
X127023569Y-128638110D01*
X126994321Y-128782540D01*
X125956550Y-128782540D01*
X125956550Y-128692910D01*
X125912272Y-128457593D01*
X125773200Y-128241469D01*
X125561000Y-128096479D01*
X125309110Y-128045470D01*
X123609850Y-128045470D01*
X123374533Y-128089748D01*
X123158409Y-128228820D01*
X123013419Y-128441020D01*
X122962410Y-128692910D01*
X122962410Y-129962788D01*
X121382599Y-131542599D01*
X121217852Y-131789161D01*
X121160000Y-132080000D01*
X121160000Y-137163060D01*
X121217852Y-137453899D01*
X121382599Y-137700461D01*
X123008252Y-139326114D01*
X122975108Y-139405933D01*
X122974592Y-139996556D01*
X123200138Y-140542417D01*
X123617406Y-140960414D01*
X124162873Y-141186912D01*
X124753496Y-141187428D01*
X125299357Y-140961882D01*
X125717354Y-140544614D01*
X125943852Y-139999147D01*
X125944368Y-139408524D01*
X125718822Y-138862663D01*
X125301554Y-138444666D01*
X124756087Y-138218168D01*
X124165464Y-138217652D01*
X124083331Y-138251589D01*
X122680000Y-136848258D01*
X122680000Y-134903210D01*
X122975890Y-134903210D01*
X122975890Y-135593400D01*
X123072563Y-135826789D01*
X123251192Y-136005417D01*
X123484581Y-136102090D01*
X124174770Y-136102090D01*
X124333520Y-135943340D01*
X124333520Y-134744460D01*
X124587520Y-134744460D01*
X124587520Y-135943340D01*
X124746270Y-136102090D01*
X125436459Y-136102090D01*
X125669848Y-136005417D01*
X125848477Y-135826789D01*
X125945150Y-135593400D01*
X125945150Y-134903210D01*
X125786400Y-134744460D01*
X124587520Y-134744460D01*
X124333520Y-134744460D01*
X123134640Y-134744460D01*
X122975890Y-134903210D01*
X122680000Y-134903210D01*
X122680000Y-133641520D01*
X122975890Y-133641520D01*
X122975890Y-134331710D01*
X123134640Y-134490460D01*
X124333520Y-134490460D01*
X124333520Y-133291580D01*
X124587520Y-133291580D01*
X124587520Y-134490460D01*
X125786400Y-134490460D01*
X125945150Y-134331710D01*
X125945150Y-133641520D01*
X125848477Y-133408131D01*
X125669848Y-133229503D01*
X125436459Y-133132830D01*
X124746270Y-133132830D01*
X124587520Y-133291580D01*
X124333520Y-133291580D01*
X124174770Y-133132830D01*
X123484581Y-133132830D01*
X123251192Y-133229503D01*
X123072563Y-133408131D01*
X122975890Y-133641520D01*
X122680000Y-133641520D01*
X122680000Y-132394802D01*
X124035192Y-131039610D01*
X125309110Y-131039610D01*
X125544427Y-130995332D01*
X125760551Y-130856260D01*
X125905541Y-130644060D01*
X125956550Y-130392170D01*
X125956550Y-130302540D01*
X126993736Y-130302540D01*
X127016838Y-130425317D01*
X127155910Y-130641441D01*
X127368110Y-130786431D01*
X127620000Y-130837440D01*
X128920000Y-130837440D01*
X129155317Y-130793162D01*
X129371441Y-130654090D01*
X129516431Y-130441890D01*
X129567440Y-130190000D01*
X129567440Y-129994540D01*
X129679995Y-130266943D01*
X130041155Y-130628735D01*
X130513276Y-130824777D01*
X131024481Y-130825223D01*
X131496943Y-130630005D01*
X131858735Y-130268845D01*
X132054777Y-129796724D01*
X132055223Y-129285519D01*
X131860005Y-128813057D01*
X131530000Y-128482475D01*
X131530000Y-126960000D01*
X131472148Y-126669161D01*
X131307401Y-126422599D01*
X127905838Y-123021036D01*
X129562193Y-123021036D01*
X129592518Y-123511413D01*
X129721836Y-123823617D01*
X129947265Y-123873130D01*
X130630395Y-123190000D01*
X129947265Y-122506870D01*
X129721836Y-122556383D01*
X129562193Y-123021036D01*
X127905838Y-123021036D01*
X127537401Y-122652599D01*
X127290839Y-122487852D01*
X127000000Y-122430000D01*
X120650000Y-122430000D01*
X120359161Y-122487852D01*
X120112599Y-122652599D01*
X117792658Y-124972540D01*
X115591827Y-124972540D01*
X115558822Y-124892663D01*
X115141554Y-124474666D01*
X114596087Y-124248168D01*
X114005464Y-124247652D01*
X113659258Y-124390702D01*
X111989610Y-123276118D01*
X111989610Y-122340890D01*
X111945332Y-122105573D01*
X111806260Y-121889449D01*
X111594060Y-121744459D01*
X111342170Y-121693450D01*
X109642910Y-121693450D01*
X109407593Y-121737728D01*
X109191469Y-121876800D01*
X109046479Y-122089000D01*
X108995470Y-122340890D01*
X108995470Y-123612788D01*
X107437460Y-125170798D01*
X107437460Y-124481827D01*
X107517337Y-124448822D01*
X107935334Y-124031554D01*
X108161832Y-123486087D01*
X108162348Y-122895464D01*
X107936802Y-122349603D01*
X107519534Y-121931606D01*
X107433801Y-121896007D01*
X107379608Y-121623561D01*
X107214861Y-121376999D01*
X106907590Y-121069728D01*
X106907590Y-119797830D01*
X106863312Y-119562513D01*
X106742890Y-119375372D01*
X106856581Y-119208980D01*
X106907590Y-118957090D01*
X106907590Y-118867460D01*
X108902658Y-118867460D01*
X111220059Y-121184861D01*
X111466620Y-121349608D01*
X111514874Y-121359206D01*
X111757460Y-121407460D01*
X114278173Y-121407460D01*
X114311178Y-121487337D01*
X114728446Y-121905334D01*
X115273913Y-122131832D01*
X115864536Y-122132348D01*
X116410397Y-121906802D01*
X116828394Y-121489534D01*
X117054892Y-120944067D01*
X117055408Y-120353444D01*
X116829862Y-119807583D01*
X116412594Y-119389586D01*
X116383996Y-119377711D01*
X116410397Y-119366802D01*
X116828394Y-118949534D01*
X117054892Y-118404067D01*
X117054899Y-118395750D01*
X118045000Y-118395750D01*
X118045000Y-118936310D01*
X118141673Y-119169699D01*
X118320302Y-119348327D01*
X118553691Y-119445000D01*
X119094250Y-119445000D01*
X119253000Y-119286250D01*
X119253000Y-118237000D01*
X119507000Y-118237000D01*
X119507000Y-119286250D01*
X119665750Y-119445000D01*
X120206309Y-119445000D01*
X120439698Y-119348327D01*
X120618327Y-119169699D01*
X120715000Y-118936310D01*
X120715000Y-118395750D01*
X120556250Y-118237000D01*
X119507000Y-118237000D01*
X119253000Y-118237000D01*
X118203750Y-118237000D01*
X118045000Y-118395750D01*
X117054899Y-118395750D01*
X117055408Y-117813444D01*
X116836518Y-117283690D01*
X118045000Y-117283690D01*
X118045000Y-117824250D01*
X118203750Y-117983000D01*
X119253000Y-117983000D01*
X119253000Y-116933750D01*
X119507000Y-116933750D01*
X119507000Y-117983000D01*
X120556250Y-117983000D01*
X120715000Y-117824250D01*
X120715000Y-117283690D01*
X120618327Y-117050301D01*
X120439698Y-116871673D01*
X120206309Y-116775000D01*
X119665750Y-116775000D01*
X119507000Y-116933750D01*
X119253000Y-116933750D01*
X119094250Y-116775000D01*
X118553691Y-116775000D01*
X118320302Y-116871673D01*
X118141673Y-117050301D01*
X118045000Y-117283690D01*
X116836518Y-117283690D01*
X116829862Y-117267583D01*
X116412594Y-116849586D01*
X116330520Y-116815506D01*
X116330520Y-113304282D01*
X116589984Y-113044818D01*
X117054481Y-113045223D01*
X117526943Y-112850005D01*
X117888735Y-112488845D01*
X118084777Y-112016724D01*
X118085223Y-111505519D01*
X117890005Y-111033057D01*
X117528845Y-110671265D01*
X117056724Y-110475223D01*
X116589617Y-110474815D01*
X114064802Y-107950000D01*
X118620000Y-107950000D01*
X118620000Y-111760000D01*
X118677852Y-112050839D01*
X118842599Y-112297401D01*
X123573731Y-117028533D01*
X123248902Y-117352796D01*
X123045232Y-117843287D01*
X123044769Y-118374383D01*
X123247582Y-118865229D01*
X123622796Y-119241098D01*
X124113287Y-119444768D01*
X124644383Y-119445231D01*
X125135229Y-119242418D01*
X125511098Y-118867204D01*
X125714768Y-118376713D01*
X125715231Y-117845617D01*
X125512418Y-117354771D01*
X125140000Y-116981703D01*
X125140000Y-116760000D01*
X125082148Y-116469161D01*
X124917401Y-116222599D01*
X121572961Y-112878159D01*
X122251446Y-112878159D01*
X122344288Y-113140088D01*
X122936801Y-113358675D01*
X123567861Y-113333878D01*
X124035712Y-113140088D01*
X124128554Y-112878159D01*
X123190000Y-111939605D01*
X122251446Y-112878159D01*
X121572961Y-112878159D01*
X120201603Y-111506801D01*
X121591325Y-111506801D01*
X121616122Y-112137861D01*
X121809912Y-112605712D01*
X122071841Y-112698554D01*
X123010395Y-111760000D01*
X123369605Y-111760000D01*
X124308159Y-112698554D01*
X124393583Y-112668275D01*
X124829579Y-113105032D01*
X125412841Y-113347224D01*
X126044388Y-113347775D01*
X126628072Y-113106602D01*
X127000257Y-112735065D01*
X127369579Y-113105032D01*
X127952841Y-113347224D01*
X128584388Y-113347775D01*
X129168072Y-113106602D01*
X129540257Y-112735065D01*
X129909579Y-113105032D01*
X130492841Y-113347224D01*
X131124388Y-113347775D01*
X131708072Y-113106602D01*
X132155032Y-112660421D01*
X132397224Y-112077159D01*
X132397775Y-111445612D01*
X132156602Y-110861928D01*
X131710421Y-110414968D01*
X131127159Y-110172776D01*
X130495612Y-110172225D01*
X129911928Y-110413398D01*
X129539743Y-110784935D01*
X129170421Y-110414968D01*
X128587159Y-110172776D01*
X127955612Y-110172225D01*
X127371928Y-110413398D01*
X126999743Y-110784935D01*
X126630421Y-110414968D01*
X126047159Y-110172776D01*
X125415612Y-110172225D01*
X124831928Y-110413398D01*
X124393032Y-110851529D01*
X124308159Y-110821446D01*
X123369605Y-111760000D01*
X123010395Y-111760000D01*
X122071841Y-110821446D01*
X121809912Y-110914288D01*
X121591325Y-111506801D01*
X120201603Y-111506801D01*
X120140000Y-111445198D01*
X120140000Y-110641841D01*
X122251446Y-110641841D01*
X123190000Y-111580395D01*
X124128554Y-110641841D01*
X124035712Y-110379912D01*
X123443199Y-110161325D01*
X122812139Y-110186122D01*
X122344288Y-110379912D01*
X122251446Y-110641841D01*
X120140000Y-110641841D01*
X120140000Y-108710000D01*
X130810000Y-108710000D01*
X131100839Y-108652148D01*
X131347401Y-108487401D01*
X131512148Y-108240839D01*
X131570000Y-107950000D01*
X131570000Y-105543652D01*
X131708072Y-105486602D01*
X132155032Y-105040421D01*
X132397224Y-104457159D01*
X132397775Y-103825612D01*
X132156602Y-103241928D01*
X131710421Y-102794968D01*
X131127159Y-102552776D01*
X130495612Y-102552225D01*
X129911928Y-102793398D01*
X129539743Y-103164935D01*
X129170421Y-102794968D01*
X129030000Y-102736660D01*
X129030000Y-97870000D01*
X129007787Y-97758327D01*
X128972148Y-97579160D01*
X128807401Y-97332599D01*
X128254774Y-96779972D01*
X128255231Y-96255617D01*
X128052418Y-95764771D01*
X127677204Y-95388902D01*
X127186713Y-95185232D01*
X126655617Y-95184769D01*
X126164771Y-95387582D01*
X125788902Y-95762796D01*
X125585232Y-96253287D01*
X125584769Y-96784383D01*
X125787582Y-97275229D01*
X126162796Y-97651098D01*
X126653287Y-97854768D01*
X127180426Y-97855228D01*
X127510000Y-98184802D01*
X127510000Y-102736348D01*
X127371928Y-102793398D01*
X126999743Y-103164935D01*
X126630421Y-102794968D01*
X126047159Y-102552776D01*
X125415612Y-102552225D01*
X124831928Y-102793398D01*
X124459743Y-103164935D01*
X124090421Y-102794968D01*
X123507159Y-102552776D01*
X122875612Y-102552225D01*
X122291928Y-102793398D01*
X121844968Y-103239579D01*
X121602776Y-103822841D01*
X121602225Y-104454388D01*
X121843398Y-105038072D01*
X122289579Y-105485032D01*
X122872841Y-105727224D01*
X123504388Y-105727775D01*
X124088072Y-105486602D01*
X124460257Y-105115065D01*
X124829579Y-105485032D01*
X125412841Y-105727224D01*
X126044388Y-105727775D01*
X126628072Y-105486602D01*
X127000257Y-105115065D01*
X127369579Y-105485032D01*
X127952841Y-105727224D01*
X128584388Y-105727775D01*
X129168072Y-105486602D01*
X129540257Y-105115065D01*
X129909579Y-105485032D01*
X130050000Y-105543340D01*
X130050000Y-107190000D01*
X119380000Y-107190000D01*
X119089161Y-107247852D01*
X118842599Y-107412599D01*
X118677852Y-107659161D01*
X118620000Y-107950000D01*
X114064802Y-107950000D01*
X113527401Y-107412599D01*
X113280839Y-107247852D01*
X112990000Y-107190000D01*
X109534802Y-107190000D01*
X108049338Y-105704536D01*
X111547652Y-105704536D01*
X111773198Y-106250397D01*
X112190466Y-106668394D01*
X112735933Y-106894892D01*
X113326556Y-106895408D01*
X113872417Y-106669862D01*
X114104151Y-106438532D01*
X114114668Y-106494427D01*
X114253740Y-106710551D01*
X114465940Y-106855541D01*
X114717830Y-106906550D01*
X116417090Y-106906550D01*
X116652407Y-106862272D01*
X116868531Y-106723200D01*
X117013521Y-106511000D01*
X117064530Y-106259110D01*
X117064530Y-104559850D01*
X117020252Y-104324533D01*
X116881180Y-104108409D01*
X116668980Y-103963419D01*
X116417090Y-103912410D01*
X114717830Y-103912410D01*
X114482513Y-103956688D01*
X114266389Y-104095760D01*
X114121399Y-104307960D01*
X114105927Y-104384363D01*
X113874614Y-104152646D01*
X113329147Y-103926148D01*
X112738524Y-103925632D01*
X112192663Y-104151178D01*
X111774666Y-104568446D01*
X111548168Y-105113913D01*
X111547652Y-105704536D01*
X108049338Y-105704536D01*
X106601307Y-104256505D01*
X106713611Y-104184240D01*
X106858601Y-103972040D01*
X106909610Y-103720150D01*
X106909610Y-102020890D01*
X106865332Y-101785573D01*
X106726260Y-101569449D01*
X106514060Y-101424459D01*
X106262170Y-101373450D01*
X104562910Y-101373450D01*
X104327593Y-101417728D01*
X104111469Y-101556800D01*
X103966479Y-101769000D01*
X103915470Y-102020890D01*
X103915470Y-102110520D01*
X100645322Y-102110520D01*
X99820000Y-101285198D01*
X99820000Y-100336742D01*
X99945317Y-100313162D01*
X100161441Y-100174090D01*
X100306431Y-99961890D01*
X100357440Y-99710000D01*
X100357440Y-99514540D01*
X100469995Y-99786943D01*
X100831155Y-100148735D01*
X101303276Y-100344777D01*
X101814481Y-100345223D01*
X102286943Y-100150005D01*
X102617525Y-99820000D01*
X103825198Y-99820000D01*
X104872599Y-100867401D01*
X105119160Y-101032148D01*
X105410000Y-101090000D01*
X107635198Y-101090000D01*
X108266363Y-101721165D01*
X107959586Y-102027406D01*
X107733088Y-102572873D01*
X107732572Y-103163496D01*
X107958118Y-103709357D01*
X108375386Y-104127354D01*
X108920853Y-104353852D01*
X109511476Y-104354368D01*
X110057337Y-104128822D01*
X110475334Y-103711554D01*
X110511115Y-103625383D01*
X110781359Y-103571628D01*
X111027921Y-103406881D01*
X113569941Y-100864861D01*
X113734688Y-100618299D01*
X113792540Y-100327460D01*
X113792540Y-96805750D01*
X120585000Y-96805750D01*
X120585000Y-97346310D01*
X120681673Y-97579699D01*
X120860302Y-97758327D01*
X121093691Y-97855000D01*
X121634250Y-97855000D01*
X121793000Y-97696250D01*
X121793000Y-96647000D01*
X122047000Y-96647000D01*
X122047000Y-97696250D01*
X122205750Y-97855000D01*
X122746309Y-97855000D01*
X122979698Y-97758327D01*
X123158327Y-97579699D01*
X123255000Y-97346310D01*
X123255000Y-96805750D01*
X123096250Y-96647000D01*
X122047000Y-96647000D01*
X121793000Y-96647000D01*
X120743750Y-96647000D01*
X120585000Y-96805750D01*
X113792540Y-96805750D01*
X113792540Y-96747590D01*
X113882170Y-96747590D01*
X114117487Y-96703312D01*
X114333611Y-96564240D01*
X114478601Y-96352040D01*
X114494073Y-96275637D01*
X114725386Y-96507354D01*
X115270853Y-96733852D01*
X115861476Y-96734368D01*
X116407337Y-96508822D01*
X116825334Y-96091554D01*
X116859414Y-96009480D01*
X119380520Y-96009480D01*
X119671359Y-95951628D01*
X119917921Y-95786881D01*
X120011112Y-95693690D01*
X120585000Y-95693690D01*
X120585000Y-96234250D01*
X120743750Y-96393000D01*
X121793000Y-96393000D01*
X121793000Y-95343750D01*
X122047000Y-95343750D01*
X122047000Y-96393000D01*
X123096250Y-96393000D01*
X123255000Y-96234250D01*
X123255000Y-95693690D01*
X123158327Y-95460301D01*
X122979698Y-95281673D01*
X122746309Y-95185000D01*
X122205750Y-95185000D01*
X122047000Y-95343750D01*
X121793000Y-95343750D01*
X121634250Y-95185000D01*
X121093691Y-95185000D01*
X120860302Y-95281673D01*
X120681673Y-95460301D01*
X120585000Y-95693690D01*
X120011112Y-95693690D01*
X122234802Y-93470000D01*
X128984290Y-93470000D01*
X128837852Y-93689161D01*
X128780000Y-93980000D01*
X128780000Y-95250000D01*
X128837852Y-95540839D01*
X129002599Y-95787401D01*
X130845139Y-97629941D01*
X130844786Y-98034579D01*
X131032408Y-98488657D01*
X131379515Y-98836371D01*
X131833266Y-99024785D01*
X132324579Y-99025214D01*
X132590000Y-98915544D01*
X132590000Y-119200588D01*
X131847896Y-120684797D01*
X131835421Y-120684786D01*
X131381343Y-120872408D01*
X131033629Y-121219515D01*
X130845215Y-121673266D01*
X130844973Y-121950479D01*
X130488587Y-121972518D01*
X130176383Y-122101836D01*
X130126870Y-122327265D01*
X130810000Y-123010395D01*
X130824143Y-122996253D01*
X131003748Y-123175858D01*
X130989605Y-123190000D01*
X131003748Y-123204143D01*
X130824143Y-123383748D01*
X130810000Y-123369605D01*
X130126870Y-124052735D01*
X130176383Y-124278164D01*
X130641036Y-124437807D01*
X130845030Y-124425192D01*
X130844786Y-124704579D01*
X131032408Y-125158657D01*
X131379515Y-125506371D01*
X131833266Y-125694785D01*
X132324579Y-125695214D01*
X132778657Y-125507592D01*
X133126371Y-125160485D01*
X133314785Y-124706734D01*
X133315214Y-124215421D01*
X133127592Y-123761343D01*
X132780485Y-123413629D01*
X132326734Y-123225215D01*
X132049521Y-123224973D01*
X132045192Y-123154970D01*
X132324579Y-123155214D01*
X132778657Y-122967592D01*
X133066752Y-122680000D01*
X134305198Y-122680000D01*
X136622599Y-124997401D01*
X136869160Y-125162148D01*
X136917414Y-125171746D01*
X137160000Y-125220000D01*
X137865198Y-125220000D01*
X135352599Y-127732599D01*
X135187852Y-127979161D01*
X135130000Y-128270000D01*
X135130000Y-129355504D01*
X134965345Y-129423538D01*
X134505154Y-129882927D01*
X134255794Y-130483453D01*
X134255226Y-131133694D01*
X134503538Y-131734655D01*
X134962927Y-132194846D01*
X135563453Y-132444206D01*
X136213694Y-132444774D01*
X136814655Y-132196462D01*
X137274846Y-131737073D01*
X137524206Y-131136547D01*
X137524774Y-130486306D01*
X137276462Y-129885345D01*
X136817073Y-129425154D01*
X136650000Y-129355779D01*
X136650000Y-128584802D01*
X139999209Y-125235593D01*
X140269515Y-125506371D01*
X140723266Y-125694785D01*
X141214579Y-125695214D01*
X141668657Y-125507592D01*
X142016371Y-125160485D01*
X142204785Y-124706734D01*
X142205031Y-124424970D01*
X142400338Y-124425140D01*
X142750000Y-124774802D01*
X142750000Y-129355504D01*
X142585345Y-129423538D01*
X142125154Y-129882927D01*
X141875794Y-130483453D01*
X141875226Y-131133694D01*
X142123538Y-131734655D01*
X142582927Y-132194846D01*
X143183453Y-132444206D01*
X143833694Y-132444774D01*
X144434655Y-132196462D01*
X144894846Y-131737073D01*
X145144206Y-131136547D01*
X145144774Y-130486306D01*
X144896462Y-129885345D01*
X144437073Y-129425154D01*
X144270000Y-129355779D01*
X144270000Y-124460000D01*
X144266972Y-124444777D01*
X144212148Y-124169160D01*
X144065710Y-123950000D01*
X147145352Y-123950000D01*
X147345585Y-124249670D01*
X147660366Y-124460000D01*
X147345585Y-124670330D01*
X147020729Y-125156511D01*
X146906655Y-125730000D01*
X147020729Y-126303489D01*
X147345585Y-126789670D01*
X147660366Y-127000000D01*
X147345585Y-127210330D01*
X147020729Y-127696511D01*
X146906655Y-128270000D01*
X147020729Y-128843489D01*
X147345585Y-129329670D01*
X147660366Y-129540000D01*
X147345585Y-129750330D01*
X147020729Y-130236511D01*
X146906655Y-130810000D01*
X147020729Y-131383489D01*
X147345585Y-131869670D01*
X147660366Y-132080000D01*
X147345585Y-132290330D01*
X147020729Y-132776511D01*
X146906655Y-133350000D01*
X147020729Y-133923489D01*
X147345585Y-134409670D01*
X147660366Y-134620000D01*
X147345585Y-134830330D01*
X147020729Y-135316511D01*
X146906655Y-135890000D01*
X147020729Y-136463489D01*
X147345585Y-136949670D01*
X147660366Y-137160000D01*
X147345585Y-137370330D01*
X147020729Y-137856511D01*
X146906655Y-138430000D01*
X147020729Y-139003489D01*
X147345585Y-139489670D01*
X147660366Y-139700000D01*
X147345585Y-139910330D01*
X147020729Y-140396511D01*
X146906655Y-140970000D01*
X147020729Y-141543489D01*
X147345585Y-142029670D01*
X147831766Y-142354526D01*
X148405255Y-142468600D01*
X148774745Y-142468600D01*
X149348234Y-142354526D01*
X149834415Y-142029670D01*
X150159271Y-141543489D01*
X150273345Y-140970000D01*
X150159271Y-140396511D01*
X149834415Y-139910330D01*
X149519634Y-139700000D01*
X149834415Y-139489670D01*
X150159271Y-139003489D01*
X150273345Y-138430000D01*
X150159271Y-137856511D01*
X149834415Y-137370330D01*
X149519634Y-137160000D01*
X149834415Y-136949670D01*
X150159271Y-136463489D01*
X150273345Y-135890000D01*
X150159271Y-135316511D01*
X149834415Y-134830330D01*
X149519634Y-134620000D01*
X149834415Y-134409670D01*
X150159271Y-133923489D01*
X150273345Y-133350000D01*
X150159271Y-132776511D01*
X149834415Y-132290330D01*
X149519634Y-132080000D01*
X149834415Y-131869670D01*
X150159271Y-131383489D01*
X150273345Y-130810000D01*
X150159271Y-130236511D01*
X149834415Y-129750330D01*
X149519634Y-129540000D01*
X149834415Y-129329670D01*
X150159271Y-128843489D01*
X150273345Y-128270000D01*
X150159271Y-127696511D01*
X149834415Y-127210330D01*
X149519634Y-127000000D01*
X149834415Y-126789670D01*
X150159271Y-126303489D01*
X150273345Y-125730000D01*
X150159271Y-125156511D01*
X149834415Y-124670330D01*
X149519634Y-124460000D01*
X149834415Y-124249670D01*
X150159271Y-123763489D01*
X150273345Y-123190000D01*
X150159271Y-122616511D01*
X149834415Y-122130330D01*
X149519634Y-121920000D01*
X149834415Y-121709670D01*
X150159271Y-121223489D01*
X150273345Y-120650000D01*
X150159271Y-120076511D01*
X149834415Y-119590330D01*
X149519634Y-119380000D01*
X149834415Y-119169670D01*
X150159271Y-118683489D01*
X150273345Y-118110000D01*
X150159271Y-117536511D01*
X149834415Y-117050330D01*
X149519634Y-116840000D01*
X149834415Y-116629670D01*
X150159271Y-116143489D01*
X150273345Y-115570000D01*
X150159271Y-114996511D01*
X149834415Y-114510330D01*
X149519634Y-114300000D01*
X149834415Y-114089670D01*
X150159271Y-113603489D01*
X150273345Y-113030000D01*
X150159271Y-112456511D01*
X149834415Y-111970330D01*
X149519634Y-111760000D01*
X149834415Y-111549670D01*
X150159271Y-111063489D01*
X150273345Y-110490000D01*
X150159271Y-109916511D01*
X149834415Y-109430330D01*
X149519634Y-109220000D01*
X149834415Y-109009670D01*
X150159271Y-108523489D01*
X150273345Y-107950000D01*
X150159271Y-107376511D01*
X149834415Y-106890330D01*
X149519634Y-106680000D01*
X149834415Y-106469670D01*
X150159271Y-105983489D01*
X150273345Y-105410000D01*
X150159271Y-104836511D01*
X149834415Y-104350330D01*
X149519634Y-104140000D01*
X149834415Y-103929670D01*
X150159271Y-103443489D01*
X150273345Y-102870000D01*
X150159271Y-102296511D01*
X149834415Y-101810330D01*
X149519634Y-101600000D01*
X149834415Y-101389670D01*
X150159271Y-100903489D01*
X150273345Y-100330000D01*
X150159271Y-99756511D01*
X149834415Y-99270330D01*
X149519634Y-99060000D01*
X149834415Y-98849670D01*
X150159271Y-98363489D01*
X150273345Y-97790000D01*
X150159271Y-97216511D01*
X149834415Y-96730330D01*
X149812220Y-96715500D01*
X149965699Y-96651927D01*
X150144327Y-96473298D01*
X150241000Y-96239909D01*
X150241000Y-95535750D01*
X150082250Y-95377000D01*
X148717000Y-95377000D01*
X148717000Y-95397000D01*
X148463000Y-95397000D01*
X148463000Y-95377000D01*
X147097750Y-95377000D01*
X146939000Y-95535750D01*
X146939000Y-96239909D01*
X147035673Y-96473298D01*
X147214301Y-96651927D01*
X147367780Y-96715500D01*
X147345585Y-96730330D01*
X147145352Y-97030000D01*
X146234496Y-97030000D01*
X146166462Y-96865345D01*
X145707073Y-96405154D01*
X145106547Y-96155794D01*
X144456306Y-96155226D01*
X143855345Y-96403538D01*
X143395154Y-96862927D01*
X143145794Y-97463453D01*
X143145226Y-98113694D01*
X143393538Y-98714655D01*
X143852927Y-99174846D01*
X144453453Y-99424206D01*
X145103694Y-99424774D01*
X145704655Y-99176462D01*
X146164846Y-98717073D01*
X146234221Y-98550000D01*
X147145352Y-98550000D01*
X147345585Y-98849670D01*
X147660366Y-99060000D01*
X147345585Y-99270330D01*
X147020729Y-99756511D01*
X146906655Y-100330000D01*
X147020729Y-100903489D01*
X147345585Y-101389670D01*
X147660366Y-101600000D01*
X147345585Y-101810330D01*
X147020729Y-102296511D01*
X146906655Y-102870000D01*
X147020729Y-103443489D01*
X147345585Y-103929670D01*
X147660366Y-104140000D01*
X147345585Y-104350330D01*
X147020729Y-104836511D01*
X146906655Y-105410000D01*
X147020729Y-105983489D01*
X147345585Y-106469670D01*
X147660366Y-106680000D01*
X147345585Y-106890330D01*
X147020729Y-107376511D01*
X146906655Y-107950000D01*
X147020729Y-108523489D01*
X147345585Y-109009670D01*
X147660366Y-109220000D01*
X147345585Y-109430330D01*
X147020729Y-109916511D01*
X146906655Y-110490000D01*
X147020729Y-111063489D01*
X147345585Y-111549670D01*
X147660366Y-111760000D01*
X147345585Y-111970330D01*
X147020729Y-112456511D01*
X146906655Y-113030000D01*
X147020729Y-113603489D01*
X147345585Y-114089670D01*
X147660366Y-114300000D01*
X147345585Y-114510330D01*
X147020729Y-114996511D01*
X146906655Y-115570000D01*
X147020729Y-116143489D01*
X147345585Y-116629670D01*
X147660366Y-116840000D01*
X147345585Y-117050330D01*
X147020729Y-117536511D01*
X146906655Y-118110000D01*
X147020729Y-118683489D01*
X147345585Y-119169670D01*
X147660366Y-119380000D01*
X147345585Y-119590330D01*
X147020729Y-120076511D01*
X146906655Y-120650000D01*
X147020729Y-121223489D01*
X147345585Y-121709670D01*
X147660366Y-121920000D01*
X147345585Y-122130330D01*
X147145352Y-122430000D01*
X143226356Y-122430000D01*
X142940485Y-122143629D01*
X142486734Y-121955215D01*
X142204970Y-121954969D01*
X142205214Y-121675421D01*
X142017592Y-121221343D01*
X141670485Y-120873629D01*
X141216734Y-120685215D01*
X140725421Y-120684786D01*
X140271343Y-120872408D01*
X139923629Y-121219515D01*
X139735215Y-121673266D01*
X139734786Y-122164579D01*
X139922408Y-122618657D01*
X140269515Y-122966371D01*
X140723266Y-123154785D01*
X141005030Y-123155031D01*
X141004969Y-123225030D01*
X140725421Y-123224786D01*
X140271343Y-123412408D01*
X139983248Y-123700000D01*
X137474802Y-123700000D01*
X135157401Y-121382599D01*
X134910839Y-121217852D01*
X134620000Y-121160000D01*
X133309706Y-121160000D01*
X134029765Y-119719883D01*
X134036978Y-119693542D01*
X134052148Y-119670839D01*
X134075913Y-119551365D01*
X134108087Y-119433876D01*
X134104672Y-119406786D01*
X134110000Y-119380000D01*
X134110000Y-117125750D01*
X134605000Y-117125750D01*
X134605000Y-117616310D01*
X134701673Y-117849699D01*
X134880302Y-118028327D01*
X135113691Y-118125000D01*
X135604250Y-118125000D01*
X135763000Y-117966250D01*
X135763000Y-116967000D01*
X134763750Y-116967000D01*
X134605000Y-117125750D01*
X134110000Y-117125750D01*
X134110000Y-116063690D01*
X134605000Y-116063690D01*
X134605000Y-116554250D01*
X134763750Y-116713000D01*
X135763000Y-116713000D01*
X135763000Y-115713750D01*
X136017000Y-115713750D01*
X136017000Y-116713000D01*
X136037000Y-116713000D01*
X136037000Y-116967000D01*
X136017000Y-116967000D01*
X136017000Y-117966250D01*
X136175750Y-118125000D01*
X136666309Y-118125000D01*
X136899698Y-118028327D01*
X137078327Y-117849699D01*
X137175000Y-117616310D01*
X137175000Y-117264433D01*
X137299995Y-117566943D01*
X137661155Y-117928735D01*
X138133276Y-118124777D01*
X138644481Y-118125223D01*
X139116943Y-117930005D01*
X139478735Y-117568845D01*
X139674777Y-117096724D01*
X139675223Y-116585519D01*
X139480005Y-116113057D01*
X139118845Y-115751265D01*
X138646724Y-115555223D01*
X138135519Y-115554777D01*
X137663057Y-115749995D01*
X137301265Y-116111155D01*
X137175000Y-116415235D01*
X137175000Y-116063690D01*
X137078327Y-115830301D01*
X136899698Y-115651673D01*
X136666309Y-115555000D01*
X136175750Y-115555000D01*
X136017000Y-115713750D01*
X135763000Y-115713750D01*
X135604250Y-115555000D01*
X135113691Y-115555000D01*
X134880302Y-115651673D01*
X134701673Y-115830301D01*
X134605000Y-116063690D01*
X134110000Y-116063690D01*
X134110000Y-104463694D01*
X134255226Y-104463694D01*
X134503538Y-105064655D01*
X134962927Y-105524846D01*
X135563453Y-105774206D01*
X136213694Y-105774774D01*
X136814655Y-105526462D01*
X137274846Y-105067073D01*
X137524206Y-104466547D01*
X137524774Y-103816306D01*
X137276462Y-103215345D01*
X136817073Y-102755154D01*
X136216547Y-102505794D01*
X135566306Y-102505226D01*
X134965345Y-102753538D01*
X134505154Y-103212927D01*
X134255794Y-103813453D01*
X134255226Y-104463694D01*
X134110000Y-104463694D01*
X134110000Y-102155710D01*
X134329161Y-102302148D01*
X134620000Y-102360000D01*
X137670000Y-102360000D01*
X137670000Y-105095198D01*
X136381083Y-106384115D01*
X136216547Y-106315794D01*
X135566306Y-106315226D01*
X134965345Y-106563538D01*
X134505154Y-107022927D01*
X134255794Y-107623453D01*
X134255226Y-108273694D01*
X134503538Y-108874655D01*
X134962927Y-109334846D01*
X135563453Y-109584206D01*
X136213694Y-109584774D01*
X136814655Y-109336462D01*
X137274846Y-108877073D01*
X137524206Y-108276547D01*
X137524208Y-108273694D01*
X141875226Y-108273694D01*
X142123538Y-108874655D01*
X142582927Y-109334846D01*
X143183453Y-109584206D01*
X143833694Y-109584774D01*
X144434655Y-109336462D01*
X144894846Y-108877073D01*
X145144206Y-108276547D01*
X145144774Y-107626306D01*
X144896462Y-107025345D01*
X144437073Y-106565154D01*
X143836547Y-106315794D01*
X143186306Y-106315226D01*
X142585345Y-106563538D01*
X142125154Y-107022927D01*
X141875794Y-107623453D01*
X141875226Y-108273694D01*
X137524208Y-108273694D01*
X137524774Y-107626306D01*
X137455691Y-107459111D01*
X138967401Y-105947401D01*
X139132148Y-105700840D01*
X139166834Y-105526462D01*
X139190000Y-105410000D01*
X139190000Y-101600000D01*
X139132148Y-101309161D01*
X138967401Y-101062599D01*
X138720839Y-100897852D01*
X138430000Y-100840000D01*
X135380000Y-100840000D01*
X135380000Y-98113694D01*
X135525226Y-98113694D01*
X135773538Y-98714655D01*
X136232927Y-99174846D01*
X136833453Y-99424206D01*
X137483694Y-99424774D01*
X138084655Y-99176462D01*
X138352218Y-98909365D01*
X142012366Y-103484551D01*
X141875794Y-103813453D01*
X141875226Y-104463694D01*
X142123538Y-105064655D01*
X142582927Y-105524846D01*
X143183453Y-105774206D01*
X143833694Y-105774774D01*
X144434655Y-105526462D01*
X144894846Y-105067073D01*
X145144206Y-104466547D01*
X145144774Y-103816306D01*
X144896462Y-103215345D01*
X144437073Y-102755154D01*
X143836547Y-102505794D01*
X143186306Y-102505226D01*
X143178151Y-102508596D01*
X139023460Y-97315232D01*
X138990985Y-97287895D01*
X138967401Y-97252599D01*
X138878444Y-97193160D01*
X138796600Y-97124265D01*
X138756136Y-97111437D01*
X138720839Y-97087852D01*
X138631018Y-97069985D01*
X138546462Y-96865345D01*
X138087073Y-96405154D01*
X137486547Y-96155794D01*
X136836306Y-96155226D01*
X136235345Y-96403538D01*
X135775154Y-96862927D01*
X135525794Y-97463453D01*
X135525226Y-98113694D01*
X135380000Y-98113694D01*
X135380000Y-94260091D01*
X146939000Y-94260091D01*
X146939000Y-94964250D01*
X147097750Y-95123000D01*
X148463000Y-95123000D01*
X148463000Y-93910150D01*
X148717000Y-93910150D01*
X148717000Y-95123000D01*
X150082250Y-95123000D01*
X150241000Y-94964250D01*
X150241000Y-94260091D01*
X150144327Y-94026702D01*
X149965699Y-93848073D01*
X149732310Y-93751400D01*
X148875750Y-93751400D01*
X148717000Y-93910150D01*
X148463000Y-93910150D01*
X148304250Y-93751400D01*
X147447690Y-93751400D01*
X147214301Y-93848073D01*
X147035673Y-94026702D01*
X146939000Y-94260091D01*
X135380000Y-94260091D01*
X135380000Y-93980000D01*
X135322148Y-93689161D01*
X135157401Y-93442599D01*
X134910839Y-93277852D01*
X134620000Y-93220000D01*
X132635710Y-93220000D01*
X132782148Y-93000839D01*
X132840000Y-92710000D01*
X132840000Y-91833440D01*
X133096000Y-91833440D01*
X133331317Y-91789162D01*
X133547441Y-91650090D01*
X133692431Y-91437890D01*
X133743440Y-91186000D01*
X133743440Y-89154000D01*
X133699162Y-88918683D01*
X133560090Y-88702559D01*
X133347890Y-88557569D01*
X133096000Y-88506560D01*
X131064000Y-88506560D01*
X130828683Y-88550838D01*
X130612559Y-88689910D01*
X130512144Y-88836872D01*
X130508379Y-88832812D01*
X129922946Y-88564017D01*
X129667000Y-88682633D01*
X129667000Y-90043000D01*
X129687000Y-90043000D01*
X129687000Y-90297000D01*
X129667000Y-90297000D01*
X129667000Y-91657367D01*
X129922946Y-91775983D01*
X130508379Y-91507188D01*
X130512934Y-91502276D01*
X130599910Y-91637441D01*
X130812110Y-91782431D01*
X131064000Y-91833440D01*
X131320000Y-91833440D01*
X131320000Y-91950000D01*
X122308025Y-91950000D01*
X122458327Y-91799699D01*
X122555000Y-91566310D01*
X122555000Y-90552944D01*
X127934025Y-90552944D01*
X128133615Y-91034818D01*
X128571621Y-91507188D01*
X129157054Y-91775983D01*
X129413000Y-91657367D01*
X129413000Y-90297000D01*
X128053164Y-90297000D01*
X127934025Y-90552944D01*
X122555000Y-90552944D01*
X122555000Y-89787056D01*
X127934025Y-89787056D01*
X128053164Y-90043000D01*
X129413000Y-90043000D01*
X129413000Y-88682633D01*
X129157054Y-88564017D01*
X128571621Y-88832812D01*
X128133615Y-89305182D01*
X127934025Y-89787056D01*
X122555000Y-89787056D01*
X122555000Y-89185750D01*
X122396250Y-89027000D01*
X121412000Y-89027000D01*
X121412000Y-91916250D01*
X121553894Y-92058144D01*
X121382599Y-92172599D01*
X119065718Y-94489480D01*
X117600000Y-94489480D01*
X117600000Y-92032427D01*
X117799441Y-91904090D01*
X117944431Y-91691890D01*
X117995440Y-91440000D01*
X117995440Y-89185750D01*
X120015000Y-89185750D01*
X120015000Y-91566310D01*
X120111673Y-91799699D01*
X120290302Y-91978327D01*
X120523691Y-92075000D01*
X120999250Y-92075000D01*
X121158000Y-91916250D01*
X121158000Y-89027000D01*
X120173750Y-89027000D01*
X120015000Y-89185750D01*
X117995440Y-89185750D01*
X117995440Y-87070000D01*
X120015000Y-87070000D01*
X120015000Y-88614250D01*
X120173750Y-88773000D01*
X121158000Y-88773000D01*
X121158000Y-88753000D01*
X121412000Y-88753000D01*
X121412000Y-88773000D01*
X122396250Y-88773000D01*
X122555000Y-88614250D01*
X122555000Y-87070000D01*
X137720000Y-87070000D01*
X137720000Y-92710000D01*
X137774046Y-92981705D01*
X137927954Y-93212046D01*
X138158295Y-93365954D01*
X138430000Y-93420000D01*
X150420000Y-93420000D01*
X150420000Y-142800000D01*
X132583579Y-142800000D01*
X132617401Y-142777401D01*
X132617445Y-142777335D01*
X132617511Y-142777291D01*
X134194546Y-141199610D01*
X135469110Y-141199610D01*
X135704427Y-141155332D01*
X135920551Y-141016260D01*
X136065541Y-140804060D01*
X136116550Y-140552170D01*
X136116550Y-139281312D01*
X137477862Y-137920000D01*
X139952994Y-137920000D01*
X140281155Y-138248735D01*
X140753276Y-138444777D01*
X141264481Y-138445223D01*
X141736943Y-138250005D01*
X142098735Y-137888845D01*
X142212560Y-137614724D01*
X142212560Y-137810000D01*
X142256838Y-138045317D01*
X142395910Y-138261441D01*
X142608110Y-138406431D01*
X142860000Y-138457440D01*
X144160000Y-138457440D01*
X144395317Y-138413162D01*
X144611441Y-138274090D01*
X144756431Y-138061890D01*
X144807440Y-137810000D01*
X144807440Y-136510000D01*
X144763162Y-136274683D01*
X144624090Y-136058559D01*
X144411890Y-135913569D01*
X144160000Y-135862560D01*
X142860000Y-135862560D01*
X142624683Y-135906838D01*
X142408559Y-136045910D01*
X142263569Y-136258110D01*
X142212560Y-136510000D01*
X142212560Y-136705460D01*
X142100005Y-136433057D01*
X141738845Y-136071265D01*
X141266724Y-135875223D01*
X140755519Y-135874777D01*
X140283057Y-136069995D01*
X139952475Y-136400000D01*
X137477862Y-136400000D01*
X136071748Y-134993886D01*
X136104892Y-134914067D01*
X136105408Y-134323444D01*
X135879862Y-133777583D01*
X135462594Y-133359586D01*
X134917127Y-133133088D01*
X134326504Y-133132572D01*
X133780643Y-133358118D01*
X133362646Y-133775386D01*
X133136148Y-134320853D01*
X133135632Y-134911476D01*
X133361178Y-135457337D01*
X133778446Y-135875334D01*
X134323913Y-136101832D01*
X134914536Y-136102348D01*
X134996669Y-136068411D01*
X136088258Y-137160000D01*
X135042788Y-138205470D01*
X133769850Y-138205470D01*
X133534533Y-138249748D01*
X133318409Y-138388820D01*
X133173419Y-138601020D01*
X133122410Y-138852910D01*
X133122410Y-140122141D01*
X131765107Y-141480000D01*
X118657777Y-141480000D01*
X117989183Y-139474218D01*
X118086431Y-139331890D01*
X118137440Y-139080000D01*
X118137440Y-137780000D01*
X118093162Y-137544683D01*
X117954090Y-137328559D01*
X117741890Y-137183569D01*
X117490000Y-137132560D01*
X117294540Y-137132560D01*
X117566943Y-137020005D01*
X117928735Y-136658845D01*
X118124777Y-136186724D01*
X118125223Y-135675519D01*
X117930005Y-135203057D01*
X117568845Y-134841265D01*
X117096724Y-134645223D01*
X116629617Y-134644815D01*
X115059480Y-133074678D01*
X115059480Y-130834887D01*
X115139357Y-130801882D01*
X115557354Y-130384614D01*
X115591434Y-130302540D01*
X120649480Y-130302540D01*
X120940319Y-130244688D01*
X121186881Y-130079941D01*
X124037212Y-127229610D01*
X125309110Y-127229610D01*
X125544427Y-127185332D01*
X125760551Y-127046260D01*
X125905541Y-126834060D01*
X125956550Y-126582170D01*
X125956550Y-124882910D01*
X125912272Y-124647593D01*
X125773200Y-124431469D01*
X125561000Y-124286479D01*
X125309110Y-124235470D01*
X123609850Y-124235470D01*
X123374533Y-124279748D01*
X123158409Y-124418820D01*
X123013419Y-124631020D01*
X122962410Y-124882910D01*
X122962410Y-126154808D01*
X120334678Y-128782540D01*
X115591827Y-128782540D01*
X115558822Y-128702663D01*
X115141554Y-128284666D01*
X114596087Y-128058168D01*
X114005464Y-128057652D01*
X113459603Y-128283198D01*
X113041606Y-128700466D01*
X112815108Y-129245933D01*
X112814592Y-129836556D01*
X113040138Y-130382417D01*
X113457406Y-130800414D01*
X113539480Y-130834494D01*
X113539480Y-133389480D01*
X113597332Y-133680319D01*
X113762079Y-133926881D01*
X115555182Y-135719984D01*
X115554815Y-136140383D01*
X114025198Y-137670000D01*
X110496742Y-137670000D01*
X110473162Y-137544683D01*
X110334090Y-137328559D01*
X110121890Y-137183569D01*
X109870000Y-137132560D01*
X108570000Y-137132560D01*
X108334683Y-137176838D01*
X108118559Y-137315910D01*
X107973569Y-137528110D01*
X107922560Y-137780000D01*
X107922560Y-137975460D01*
X107810005Y-137703057D01*
X107448845Y-137341265D01*
X107437460Y-137336538D01*
X107437460Y-134846550D01*
X107527090Y-134846550D01*
X107762407Y-134802272D01*
X107978531Y-134663200D01*
X108123521Y-134451000D01*
X108174530Y-134199110D01*
X108174530Y-134110520D01*
X109200193Y-134110520D01*
X109233198Y-134190397D01*
X109650466Y-134608394D01*
X110195933Y-134834892D01*
X110786556Y-134835408D01*
X111332417Y-134609862D01*
X111750414Y-134192594D01*
X111976912Y-133647127D01*
X111977428Y-133056504D01*
X111751882Y-132510643D01*
X111334614Y-132092646D01*
X110789147Y-131866148D01*
X110198524Y-131865632D01*
X109652663Y-132091178D01*
X109234666Y-132508446D01*
X109200586Y-132590520D01*
X108174530Y-132590520D01*
X108174530Y-132499850D01*
X108130252Y-132264533D01*
X107991180Y-132048409D01*
X107778980Y-131903419D01*
X107527090Y-131852410D01*
X105827830Y-131852410D01*
X105592513Y-131896688D01*
X105376389Y-132035760D01*
X105231399Y-132247960D01*
X105180390Y-132499850D01*
X105180390Y-134199110D01*
X105224668Y-134434427D01*
X105363740Y-134650551D01*
X105575940Y-134795541D01*
X105827830Y-134846550D01*
X105917460Y-134846550D01*
X105917460Y-137415460D01*
X105631265Y-137701155D01*
X105435223Y-138173276D01*
X105434777Y-138684481D01*
X105629995Y-139156943D01*
X105991155Y-139518735D01*
X106463276Y-139714777D01*
X106974481Y-139715223D01*
X107446943Y-139520005D01*
X107808735Y-139158845D01*
X107922560Y-138884724D01*
X107922560Y-139080000D01*
X107966838Y-139315317D01*
X108105910Y-139531441D01*
X108318110Y-139676431D01*
X108570000Y-139727440D01*
X109870000Y-139727440D01*
X110105317Y-139683162D01*
X110321441Y-139544090D01*
X110466431Y-139331890D01*
X110495164Y-139190000D01*
X114340000Y-139190000D01*
X114630839Y-139132148D01*
X114877401Y-138967401D01*
X115542560Y-138302242D01*
X115542560Y-139080000D01*
X115586838Y-139315317D01*
X115725910Y-139531441D01*
X115938110Y-139676431D01*
X116190000Y-139727440D01*
X116471370Y-139727440D01*
X117389001Y-142480333D01*
X117402525Y-142504057D01*
X117407852Y-142530839D01*
X117475527Y-142632122D01*
X117535855Y-142737953D01*
X117557428Y-142754696D01*
X117572599Y-142777401D01*
X117606421Y-142800000D01*
X92150000Y-142800000D01*
X92150000Y-97790000D01*
X92296655Y-97790000D01*
X92410729Y-98363489D01*
X92735585Y-98849670D01*
X93050366Y-99060000D01*
X92735585Y-99270330D01*
X92410729Y-99756511D01*
X92296655Y-100330000D01*
X92410729Y-100903489D01*
X92735585Y-101389670D01*
X93050366Y-101600000D01*
X92735585Y-101810330D01*
X92410729Y-102296511D01*
X92296655Y-102870000D01*
X92410729Y-103443489D01*
X92735585Y-103929670D01*
X93050366Y-104140000D01*
X92735585Y-104350330D01*
X92410729Y-104836511D01*
X92296655Y-105410000D01*
X92410729Y-105983489D01*
X92735585Y-106469670D01*
X93050366Y-106680000D01*
X92735585Y-106890330D01*
X92410729Y-107376511D01*
X92296655Y-107950000D01*
X92410729Y-108523489D01*
X92735585Y-109009670D01*
X93050366Y-109220000D01*
X92735585Y-109430330D01*
X92410729Y-109916511D01*
X92296655Y-110490000D01*
X92410729Y-111063489D01*
X92735585Y-111549670D01*
X93050366Y-111760000D01*
X92735585Y-111970330D01*
X92410729Y-112456511D01*
X92296655Y-113030000D01*
X92410729Y-113603489D01*
X92735585Y-114089670D01*
X93050366Y-114300000D01*
X92735585Y-114510330D01*
X92410729Y-114996511D01*
X92296655Y-115570000D01*
X92410729Y-116143489D01*
X92735585Y-116629670D01*
X93050366Y-116840000D01*
X92735585Y-117050330D01*
X92410729Y-117536511D01*
X92296655Y-118110000D01*
X92410729Y-118683489D01*
X92735585Y-119169670D01*
X93050366Y-119380000D01*
X92735585Y-119590330D01*
X92410729Y-120076511D01*
X92296655Y-120650000D01*
X92410729Y-121223489D01*
X92735585Y-121709670D01*
X93050366Y-121920000D01*
X92735585Y-122130330D01*
X92410729Y-122616511D01*
X92296655Y-123190000D01*
X92410729Y-123763489D01*
X92735585Y-124249670D01*
X93050366Y-124460000D01*
X92735585Y-124670330D01*
X92410729Y-125156511D01*
X92296655Y-125730000D01*
X92410729Y-126303489D01*
X92735585Y-126789670D01*
X93050366Y-127000000D01*
X92735585Y-127210330D01*
X92410729Y-127696511D01*
X92296655Y-128270000D01*
X92410729Y-128843489D01*
X92735585Y-129329670D01*
X93050366Y-129540000D01*
X92735585Y-129750330D01*
X92410729Y-130236511D01*
X92296655Y-130810000D01*
X92410729Y-131383489D01*
X92735585Y-131869670D01*
X93050366Y-132080000D01*
X92735585Y-132290330D01*
X92410729Y-132776511D01*
X92296655Y-133350000D01*
X92410729Y-133923489D01*
X92735585Y-134409670D01*
X93050366Y-134620000D01*
X92735585Y-134830330D01*
X92410729Y-135316511D01*
X92296655Y-135890000D01*
X92410729Y-136463489D01*
X92735585Y-136949670D01*
X93050366Y-137160000D01*
X92735585Y-137370330D01*
X92410729Y-137856511D01*
X92296655Y-138430000D01*
X92410729Y-139003489D01*
X92735585Y-139489670D01*
X93050366Y-139700000D01*
X92735585Y-139910330D01*
X92410729Y-140396511D01*
X92296655Y-140970000D01*
X92410729Y-141543489D01*
X92735585Y-142029670D01*
X93221766Y-142354526D01*
X93795255Y-142468600D01*
X94164745Y-142468600D01*
X94738234Y-142354526D01*
X95224415Y-142029670D01*
X95549271Y-141543489D01*
X95663345Y-140970000D01*
X95549271Y-140396511D01*
X95224415Y-139910330D01*
X94909634Y-139700000D01*
X95224415Y-139489670D01*
X95549271Y-139003489D01*
X95663345Y-138430000D01*
X95549271Y-137856511D01*
X95224415Y-137370330D01*
X94909634Y-137160000D01*
X95224415Y-136949670D01*
X95549271Y-136463489D01*
X95663345Y-135890000D01*
X95549271Y-135316511D01*
X95224415Y-134830330D01*
X94909634Y-134620000D01*
X95224415Y-134409670D01*
X95549271Y-133923489D01*
X95663345Y-133350000D01*
X95549271Y-132776511D01*
X95224415Y-132290330D01*
X94909634Y-132080000D01*
X95224415Y-131869670D01*
X95549271Y-131383489D01*
X95663345Y-130810000D01*
X95549271Y-130236511D01*
X95224415Y-129750330D01*
X94909634Y-129540000D01*
X95224415Y-129329670D01*
X95549271Y-128843489D01*
X95663345Y-128270000D01*
X95549271Y-127696511D01*
X95224415Y-127210330D01*
X94909634Y-127000000D01*
X95224415Y-126789670D01*
X95549271Y-126303489D01*
X95663345Y-125730000D01*
X95549271Y-125156511D01*
X95224415Y-124670330D01*
X94909634Y-124460000D01*
X95224415Y-124249670D01*
X95549271Y-123763489D01*
X95663345Y-123190000D01*
X95549271Y-122616511D01*
X95224415Y-122130330D01*
X94909634Y-121920000D01*
X95224415Y-121709670D01*
X95549271Y-121223489D01*
X95663345Y-120650000D01*
X95549271Y-120076511D01*
X95224415Y-119590330D01*
X94909634Y-119380000D01*
X95224415Y-119169670D01*
X95549271Y-118683489D01*
X95663345Y-118110000D01*
X95549271Y-117536511D01*
X95224415Y-117050330D01*
X94909634Y-116840000D01*
X95224415Y-116629670D01*
X95549271Y-116143489D01*
X95663345Y-115570000D01*
X95549271Y-114996511D01*
X95224415Y-114510330D01*
X94909634Y-114300000D01*
X95224415Y-114089670D01*
X95549271Y-113603489D01*
X95663345Y-113030000D01*
X95549271Y-112456511D01*
X95224415Y-111970330D01*
X94909634Y-111760000D01*
X95224415Y-111549670D01*
X95549271Y-111063489D01*
X95663345Y-110490000D01*
X95549271Y-109916511D01*
X95224415Y-109430330D01*
X94909634Y-109220000D01*
X95224415Y-109009670D01*
X95549271Y-108523489D01*
X95663345Y-107950000D01*
X95549271Y-107376511D01*
X95224415Y-106890330D01*
X94909634Y-106680000D01*
X95224415Y-106469670D01*
X95549271Y-105983489D01*
X95663345Y-105410000D01*
X95549271Y-104836511D01*
X95224415Y-104350330D01*
X94909634Y-104140000D01*
X95224415Y-103929670D01*
X95549271Y-103443489D01*
X95663345Y-102870000D01*
X95549271Y-102296511D01*
X95224415Y-101810330D01*
X94909634Y-101600000D01*
X95224415Y-101389670D01*
X95549271Y-100903489D01*
X95663345Y-100330000D01*
X95549271Y-99756511D01*
X95224415Y-99270330D01*
X94909634Y-99060000D01*
X95224415Y-98849670D01*
X95549271Y-98363489D01*
X95663345Y-97790000D01*
X95549271Y-97216511D01*
X95413751Y-97013690D01*
X105395000Y-97013690D01*
X105395000Y-97504250D01*
X105553750Y-97663000D01*
X106553000Y-97663000D01*
X106553000Y-96663750D01*
X106807000Y-96663750D01*
X106807000Y-97663000D01*
X106827000Y-97663000D01*
X106827000Y-97917000D01*
X106807000Y-97917000D01*
X106807000Y-98916250D01*
X106965750Y-99075000D01*
X107456309Y-99075000D01*
X107689698Y-98978327D01*
X107868327Y-98799699D01*
X107965000Y-98566310D01*
X107965000Y-98214433D01*
X108089995Y-98516943D01*
X108451155Y-98878735D01*
X108923276Y-99074777D01*
X109434481Y-99075223D01*
X109906943Y-98880005D01*
X110268735Y-98518845D01*
X110464777Y-98046724D01*
X110465223Y-97535519D01*
X110270005Y-97063057D01*
X109908845Y-96701265D01*
X109436724Y-96505223D01*
X108925519Y-96504777D01*
X108453057Y-96699995D01*
X108091265Y-97061155D01*
X107965000Y-97365235D01*
X107965000Y-97013690D01*
X107868327Y-96780301D01*
X107689698Y-96601673D01*
X107456309Y-96505000D01*
X106965750Y-96505000D01*
X106807000Y-96663750D01*
X106553000Y-96663750D01*
X106394250Y-96505000D01*
X105903691Y-96505000D01*
X105670302Y-96601673D01*
X105491673Y-96780301D01*
X105395000Y-97013690D01*
X95413751Y-97013690D01*
X95224415Y-96730330D01*
X95202220Y-96715500D01*
X95355699Y-96651927D01*
X95534327Y-96473298D01*
X95631000Y-96239909D01*
X95631000Y-95535750D01*
X95472250Y-95377000D01*
X94107000Y-95377000D01*
X94107000Y-95397000D01*
X93853000Y-95397000D01*
X93853000Y-95377000D01*
X92487750Y-95377000D01*
X92329000Y-95535750D01*
X92329000Y-96239909D01*
X92425673Y-96473298D01*
X92604301Y-96651927D01*
X92757780Y-96715500D01*
X92735585Y-96730330D01*
X92410729Y-97216511D01*
X92296655Y-97790000D01*
X92150000Y-97790000D01*
X92150000Y-94260091D01*
X92329000Y-94260091D01*
X92329000Y-94964250D01*
X92487750Y-95123000D01*
X93853000Y-95123000D01*
X93853000Y-93910150D01*
X94107000Y-93910150D01*
X94107000Y-95123000D01*
X95472250Y-95123000D01*
X95631000Y-94964250D01*
X95631000Y-94260091D01*
X95534327Y-94026702D01*
X95355699Y-93848073D01*
X95122310Y-93751400D01*
X94265750Y-93751400D01*
X94107000Y-93910150D01*
X93853000Y-93910150D01*
X93694250Y-93751400D01*
X92837690Y-93751400D01*
X92604301Y-93848073D01*
X92425673Y-94026702D01*
X92329000Y-94260091D01*
X92150000Y-94260091D01*
X92150000Y-93420000D01*
X109220000Y-93420000D01*
X109491705Y-93365954D01*
X109722046Y-93212046D01*
X109875954Y-92981705D01*
X109930000Y-92710000D01*
X109930000Y-89185750D01*
X111125000Y-89185750D01*
X111125000Y-91566310D01*
X111221673Y-91799699D01*
X111400302Y-91978327D01*
X111633691Y-92075000D01*
X112109250Y-92075000D01*
X112268000Y-91916250D01*
X112268000Y-89027000D01*
X112522000Y-89027000D01*
X112522000Y-91916250D01*
X112680750Y-92075000D01*
X113156309Y-92075000D01*
X113389698Y-91978327D01*
X113568327Y-91799699D01*
X113665000Y-91566310D01*
X113665000Y-89185750D01*
X113506250Y-89027000D01*
X112522000Y-89027000D01*
X112268000Y-89027000D01*
X111283750Y-89027000D01*
X111125000Y-89185750D01*
X109930000Y-89185750D01*
X109930000Y-87070000D01*
X111125000Y-87070000D01*
X111125000Y-88614250D01*
X111125000Y-88614250D01*
G37*
X111125000Y-88614250D02*
X111283750Y-88773000D01*
X112268000Y-88773000D01*
X112268000Y-88753000D01*
X112522000Y-88753000D01*
X112522000Y-88773000D01*
X113506250Y-88773000D01*
X113665000Y-88614250D01*
X113665000Y-87070000D01*
X115684560Y-87070000D01*
X115684560Y-91440000D01*
X115728838Y-91675317D01*
X115867910Y-91891441D01*
X116080000Y-92036356D01*
X116080000Y-93854771D01*
X115864067Y-93765108D01*
X115273444Y-93764592D01*
X114727583Y-93990138D01*
X114495849Y-94221468D01*
X114485332Y-94165573D01*
X114346260Y-93949449D01*
X114134060Y-93804459D01*
X113882170Y-93753450D01*
X112182910Y-93753450D01*
X111947593Y-93797728D01*
X111731469Y-93936800D01*
X111586479Y-94149000D01*
X111535470Y-94400890D01*
X111535470Y-96100150D01*
X111579748Y-96335467D01*
X111718820Y-96551591D01*
X111931020Y-96696581D01*
X112182910Y-96747590D01*
X112272540Y-96747590D01*
X112272540Y-100012658D01*
X110366295Y-101918903D01*
X110059534Y-101611606D01*
X109973138Y-101575731D01*
X109919608Y-101306621D01*
X109754861Y-101060059D01*
X108487401Y-99792599D01*
X108240839Y-99627852D01*
X107950000Y-99570000D01*
X105724802Y-99570000D01*
X104677401Y-98522599D01*
X104430839Y-98357852D01*
X104140000Y-98300000D01*
X102617006Y-98300000D01*
X102393148Y-98075750D01*
X105395000Y-98075750D01*
X105395000Y-98566310D01*
X105491673Y-98799699D01*
X105670302Y-98978327D01*
X105903691Y-99075000D01*
X106394250Y-99075000D01*
X106553000Y-98916250D01*
X106553000Y-97917000D01*
X105553750Y-97917000D01*
X105395000Y-98075750D01*
X102393148Y-98075750D01*
X102288845Y-97971265D01*
X101816724Y-97775223D01*
X101305519Y-97774777D01*
X100833057Y-97969995D01*
X100471265Y-98331155D01*
X100357440Y-98605276D01*
X100357440Y-98410000D01*
X100313162Y-98174683D01*
X100174090Y-97958559D01*
X99961890Y-97813569D01*
X99710000Y-97762560D01*
X98410000Y-97762560D01*
X98174683Y-97806838D01*
X97958559Y-97945910D01*
X97813569Y-98158110D01*
X97762560Y-98410000D01*
X97762560Y-99710000D01*
X97806838Y-99945317D01*
X97945910Y-100161441D01*
X98158110Y-100306431D01*
X98300000Y-100335164D01*
X98300000Y-101600000D01*
X98357852Y-101890839D01*
X98522599Y-102137401D01*
X99793119Y-103407921D01*
X100039681Y-103572668D01*
X100330520Y-103630520D01*
X103915470Y-103630520D01*
X103915470Y-103720150D01*
X103959748Y-103955467D01*
X104098820Y-104171591D01*
X104311020Y-104316581D01*
X104562910Y-104367590D01*
X104697306Y-104367590D01*
X104710392Y-104433379D01*
X104875139Y-104679941D01*
X108682599Y-108487401D01*
X108929161Y-108652148D01*
X109220000Y-108710000D01*
X112675198Y-108710000D01*
X114427758Y-110462560D01*
X113650000Y-110462560D01*
X113414683Y-110506838D01*
X113198559Y-110645910D01*
X113053569Y-110858110D01*
X113002560Y-111110000D01*
X113002560Y-112410000D01*
X113046838Y-112645317D01*
X113185910Y-112861441D01*
X113398110Y-113006431D01*
X113650000Y-113057440D01*
X114810520Y-113057440D01*
X114810520Y-116815113D01*
X114730643Y-116848118D01*
X114312646Y-117265386D01*
X114086148Y-117810853D01*
X114085632Y-118401476D01*
X114311178Y-118947337D01*
X114728446Y-119365334D01*
X114757044Y-119377209D01*
X114730643Y-119388118D01*
X114312646Y-119805386D01*
X114278566Y-119887460D01*
X112072262Y-119887460D01*
X109754861Y-117570059D01*
X109508299Y-117405312D01*
X109217460Y-117347460D01*
X106907590Y-117347460D01*
X106907590Y-117257830D01*
X106863312Y-117022513D01*
X106724240Y-116806389D01*
X106512040Y-116661399D01*
X106260150Y-116610390D01*
X104560890Y-116610390D01*
X104325573Y-116654668D01*
X104109449Y-116793740D01*
X103964459Y-117005940D01*
X103913450Y-117257830D01*
X103913450Y-117393029D01*
X103851701Y-117405312D01*
X103605139Y-117570059D01*
X101560000Y-119615198D01*
X100001689Y-118056887D01*
X100161441Y-117954090D01*
X100306431Y-117741890D01*
X100357440Y-117490000D01*
X100357440Y-117294540D01*
X100469995Y-117566943D01*
X100831155Y-117928735D01*
X101303276Y-118124777D01*
X101814481Y-118125223D01*
X102286943Y-117930005D01*
X102648735Y-117568845D01*
X102844777Y-117096724D01*
X102845223Y-116585519D01*
X102650005Y-116113057D01*
X102320000Y-115782475D01*
X102320000Y-115060000D01*
X104143060Y-115060000D01*
X104433899Y-115002148D01*
X104680461Y-114837401D01*
X105036114Y-114481748D01*
X105115933Y-114514892D01*
X105706556Y-114515408D01*
X106252417Y-114289862D01*
X106670414Y-113872594D01*
X106704926Y-113789480D01*
X107720390Y-113789480D01*
X107720390Y-113879110D01*
X107764668Y-114114427D01*
X107903740Y-114330551D01*
X108115940Y-114475541D01*
X108367830Y-114526550D01*
X110067090Y-114526550D01*
X110302407Y-114482272D01*
X110518531Y-114343200D01*
X110663521Y-114131000D01*
X110714530Y-113879110D01*
X110714530Y-112179850D01*
X110670252Y-111944533D01*
X110531180Y-111728409D01*
X110318980Y-111583419D01*
X110067090Y-111532410D01*
X108367830Y-111532410D01*
X108132513Y-111576688D01*
X107916389Y-111715760D01*
X107771399Y-111927960D01*
X107720390Y-112179850D01*
X107720390Y-112269480D01*
X106704457Y-112269480D01*
X106671882Y-112190643D01*
X106254614Y-111772646D01*
X105709147Y-111546148D01*
X105118524Y-111545632D01*
X104572663Y-111771178D01*
X104154666Y-112188446D01*
X103928168Y-112733913D01*
X103927652Y-113324536D01*
X103961589Y-113406669D01*
X103828258Y-113540000D01*
X101914802Y-113540000D01*
X99820000Y-111445198D01*
X99820000Y-109226742D01*
X99945317Y-109203162D01*
X100161441Y-109064090D01*
X100306431Y-108851890D01*
X100357440Y-108600000D01*
X100357440Y-108404540D01*
X100469995Y-108676943D01*
X100831155Y-109038735D01*
X101303276Y-109234777D01*
X101814481Y-109235223D01*
X102286943Y-109040005D01*
X102648735Y-108678845D01*
X102844777Y-108206724D01*
X102845223Y-107695519D01*
X102650005Y-107223057D01*
X102288845Y-106861265D01*
X101816724Y-106665223D01*
X101305519Y-106664777D01*
X100833057Y-106859995D01*
X100471265Y-107221155D01*
X100357440Y-107495276D01*
X100357440Y-107300000D01*
X100313162Y-107064683D01*
X100174090Y-106848559D01*
X99961890Y-106703569D01*
X99710000Y-106652560D01*
X98410000Y-106652560D01*
X98174683Y-106696838D01*
X97958559Y-106835910D01*
X97813569Y-107048110D01*
X97762560Y-107300000D01*
X97762560Y-108600000D01*
X97806838Y-108835317D01*
X97945910Y-109051441D01*
X98158110Y-109196431D01*
X98300000Y-109225164D01*
X98300000Y-111760000D01*
X98357852Y-112050839D01*
X98522599Y-112297401D01*
X100800000Y-114574802D01*
X100800000Y-115782994D01*
X100471265Y-116111155D01*
X100357440Y-116385276D01*
X100357440Y-116190000D01*
X100313162Y-115954683D01*
X100174090Y-115738559D01*
X99961890Y-115593569D01*
X99710000Y-115542560D01*
X98410000Y-115542560D01*
X98174683Y-115586838D01*
X97958559Y-115725910D01*
X97813569Y-115938110D01*
X97762560Y-116190000D01*
X97762560Y-117490000D01*
X97806838Y-117725317D01*
X97945910Y-117941441D01*
X98158110Y-118086431D01*
X98300000Y-118115164D01*
X98300000Y-118190000D01*
X98357852Y-118480839D01*
X98522599Y-118727401D01*
X100800000Y-121004802D01*
X100800000Y-124672994D01*
X100471265Y-125001155D01*
X100357440Y-125275276D01*
X100357440Y-125080000D01*
X100313162Y-124844683D01*
X100174090Y-124628559D01*
X99961890Y-124483569D01*
X99710000Y-124432560D01*
X98410000Y-124432560D01*
X98174683Y-124476838D01*
X97958559Y-124615910D01*
X97813569Y-124828110D01*
X97762560Y-125080000D01*
X97762560Y-126380000D01*
X97806838Y-126615317D01*
X97945910Y-126831441D01*
X98158110Y-126976431D01*
X98410000Y-127027440D01*
X99710000Y-127027440D01*
X99945317Y-126983162D01*
X100161441Y-126844090D01*
X100306431Y-126631890D01*
X100357440Y-126380000D01*
X100357440Y-126184540D01*
X100469995Y-126456943D01*
X100831155Y-126818735D01*
X101303276Y-127014777D01*
X101814481Y-127015223D01*
X102286943Y-126820005D01*
X102648735Y-126458845D01*
X102844777Y-125986724D01*
X102845223Y-125475519D01*
X102650005Y-125003057D01*
X102320000Y-124672475D01*
X102320000Y-121004802D01*
X104026116Y-119298686D01*
X104078150Y-119379548D01*
X103964459Y-119545940D01*
X103913450Y-119797830D01*
X103913450Y-121497090D01*
X103957728Y-121732407D01*
X104096800Y-121948531D01*
X104309000Y-122093521D01*
X104560890Y-122144530D01*
X105622816Y-122144530D01*
X105419586Y-122347406D01*
X105193088Y-122892873D01*
X105192572Y-123483496D01*
X105418118Y-124029357D01*
X105835386Y-124447354D01*
X105917460Y-124481434D01*
X105917460Y-126687738D01*
X99270051Y-133335147D01*
X98845519Y-133334777D01*
X98373057Y-133529995D01*
X98011265Y-133891155D01*
X97815223Y-134363276D01*
X97814777Y-134874481D01*
X98009995Y-135346943D01*
X98371155Y-135708735D01*
X98843276Y-135904777D01*
X99354481Y-135905223D01*
X99826943Y-135710005D01*
X100188735Y-135348845D01*
X100302560Y-135074724D01*
X100302560Y-135270000D01*
X100346838Y-135505317D01*
X100485910Y-135721441D01*
X100698110Y-135866431D01*
X100950000Y-135917440D01*
X102250000Y-135917440D01*
X102485317Y-135873162D01*
X102701441Y-135734090D01*
X102846431Y-135521890D01*
X102897440Y-135270000D01*
X102897440Y-134397362D01*
X108487401Y-128807401D01*
X108652148Y-128560839D01*
X108710000Y-128270000D01*
X108710000Y-126047862D01*
X110070272Y-124687590D01*
X111342170Y-124687590D01*
X111360999Y-124684047D01*
X112814917Y-125654620D01*
X112814592Y-126026556D01*
X113040138Y-126572417D01*
X113457406Y-126990414D01*
X114002873Y-127216912D01*
X114593496Y-127217428D01*
X115139357Y-126991882D01*
X115557354Y-126574614D01*
X115591434Y-126492540D01*
X118107460Y-126492540D01*
X118398299Y-126434688D01*
X118644861Y-126269941D01*
X120964802Y-123950000D01*
X126685198Y-123950000D01*
X130010000Y-127274802D01*
X130010000Y-128482994D01*
X129681265Y-128811155D01*
X129567440Y-129085276D01*
X129567440Y-128890000D01*
X129523162Y-128654683D01*
X129384090Y-128438559D01*
X129171890Y-128293569D01*
X128920000Y-128242560D01*
X127620000Y-128242560D01*
X127384683Y-128286838D01*
X127168559Y-128425910D01*
X127023569Y-128638110D01*
X126994321Y-128782540D01*
X125956550Y-128782540D01*
X125956550Y-128692910D01*
X125912272Y-128457593D01*
X125773200Y-128241469D01*
X125561000Y-128096479D01*
X125309110Y-128045470D01*
X123609850Y-128045470D01*
X123374533Y-128089748D01*
X123158409Y-128228820D01*
X123013419Y-128441020D01*
X122962410Y-128692910D01*
X122962410Y-129962788D01*
X121382599Y-131542599D01*
X121217852Y-131789161D01*
X121160000Y-132080000D01*
X121160000Y-137163060D01*
X121217852Y-137453899D01*
X121382599Y-137700461D01*
X123008252Y-139326114D01*
X122975108Y-139405933D01*
X122974592Y-139996556D01*
X123200138Y-140542417D01*
X123617406Y-140960414D01*
X124162873Y-141186912D01*
X124753496Y-141187428D01*
X125299357Y-140961882D01*
X125717354Y-140544614D01*
X125943852Y-139999147D01*
X125944368Y-139408524D01*
X125718822Y-138862663D01*
X125301554Y-138444666D01*
X124756087Y-138218168D01*
X124165464Y-138217652D01*
X124083331Y-138251589D01*
X122680000Y-136848258D01*
X122680000Y-134903210D01*
X122975890Y-134903210D01*
X122975890Y-135593400D01*
X123072563Y-135826789D01*
X123251192Y-136005417D01*
X123484581Y-136102090D01*
X124174770Y-136102090D01*
X124333520Y-135943340D01*
X124333520Y-134744460D01*
X124587520Y-134744460D01*
X124587520Y-135943340D01*
X124746270Y-136102090D01*
X125436459Y-136102090D01*
X125669848Y-136005417D01*
X125848477Y-135826789D01*
X125945150Y-135593400D01*
X125945150Y-134903210D01*
X125786400Y-134744460D01*
X124587520Y-134744460D01*
X124333520Y-134744460D01*
X123134640Y-134744460D01*
X122975890Y-134903210D01*
X122680000Y-134903210D01*
X122680000Y-133641520D01*
X122975890Y-133641520D01*
X122975890Y-134331710D01*
X123134640Y-134490460D01*
X124333520Y-134490460D01*
X124333520Y-133291580D01*
X124587520Y-133291580D01*
X124587520Y-134490460D01*
X125786400Y-134490460D01*
X125945150Y-134331710D01*
X125945150Y-133641520D01*
X125848477Y-133408131D01*
X125669848Y-133229503D01*
X125436459Y-133132830D01*
X124746270Y-133132830D01*
X124587520Y-133291580D01*
X124333520Y-133291580D01*
X124174770Y-133132830D01*
X123484581Y-133132830D01*
X123251192Y-133229503D01*
X123072563Y-133408131D01*
X122975890Y-133641520D01*
X122680000Y-133641520D01*
X122680000Y-132394802D01*
X124035192Y-131039610D01*
X125309110Y-131039610D01*
X125544427Y-130995332D01*
X125760551Y-130856260D01*
X125905541Y-130644060D01*
X125956550Y-130392170D01*
X125956550Y-130302540D01*
X126993736Y-130302540D01*
X127016838Y-130425317D01*
X127155910Y-130641441D01*
X127368110Y-130786431D01*
X127620000Y-130837440D01*
X128920000Y-130837440D01*
X129155317Y-130793162D01*
X129371441Y-130654090D01*
X129516431Y-130441890D01*
X129567440Y-130190000D01*
X129567440Y-129994540D01*
X129679995Y-130266943D01*
X130041155Y-130628735D01*
X130513276Y-130824777D01*
X131024481Y-130825223D01*
X131496943Y-130630005D01*
X131858735Y-130268845D01*
X132054777Y-129796724D01*
X132055223Y-129285519D01*
X131860005Y-128813057D01*
X131530000Y-128482475D01*
X131530000Y-126960000D01*
X131472148Y-126669161D01*
X131307401Y-126422599D01*
X127905838Y-123021036D01*
X129562193Y-123021036D01*
X129592518Y-123511413D01*
X129721836Y-123823617D01*
X129947265Y-123873130D01*
X130630395Y-123190000D01*
X129947265Y-122506870D01*
X129721836Y-122556383D01*
X129562193Y-123021036D01*
X127905838Y-123021036D01*
X127537401Y-122652599D01*
X127290839Y-122487852D01*
X127000000Y-122430000D01*
X120650000Y-122430000D01*
X120359161Y-122487852D01*
X120112599Y-122652599D01*
X117792658Y-124972540D01*
X115591827Y-124972540D01*
X115558822Y-124892663D01*
X115141554Y-124474666D01*
X114596087Y-124248168D01*
X114005464Y-124247652D01*
X113659258Y-124390702D01*
X111989610Y-123276118D01*
X111989610Y-122340890D01*
X111945332Y-122105573D01*
X111806260Y-121889449D01*
X111594060Y-121744459D01*
X111342170Y-121693450D01*
X109642910Y-121693450D01*
X109407593Y-121737728D01*
X109191469Y-121876800D01*
X109046479Y-122089000D01*
X108995470Y-122340890D01*
X108995470Y-123612788D01*
X107437460Y-125170798D01*
X107437460Y-124481827D01*
X107517337Y-124448822D01*
X107935334Y-124031554D01*
X108161832Y-123486087D01*
X108162348Y-122895464D01*
X107936802Y-122349603D01*
X107519534Y-121931606D01*
X107433801Y-121896007D01*
X107379608Y-121623561D01*
X107214861Y-121376999D01*
X106907590Y-121069728D01*
X106907590Y-119797830D01*
X106863312Y-119562513D01*
X106742890Y-119375372D01*
X106856581Y-119208980D01*
X106907590Y-118957090D01*
X106907590Y-118867460D01*
X108902658Y-118867460D01*
X111220059Y-121184861D01*
X111466620Y-121349608D01*
X111514874Y-121359206D01*
X111757460Y-121407460D01*
X114278173Y-121407460D01*
X114311178Y-121487337D01*
X114728446Y-121905334D01*
X115273913Y-122131832D01*
X115864536Y-122132348D01*
X116410397Y-121906802D01*
X116828394Y-121489534D01*
X117054892Y-120944067D01*
X117055408Y-120353444D01*
X116829862Y-119807583D01*
X116412594Y-119389586D01*
X116383996Y-119377711D01*
X116410397Y-119366802D01*
X116828394Y-118949534D01*
X117054892Y-118404067D01*
X117054899Y-118395750D01*
X118045000Y-118395750D01*
X118045000Y-118936310D01*
X118141673Y-119169699D01*
X118320302Y-119348327D01*
X118553691Y-119445000D01*
X119094250Y-119445000D01*
X119253000Y-119286250D01*
X119253000Y-118237000D01*
X119507000Y-118237000D01*
X119507000Y-119286250D01*
X119665750Y-119445000D01*
X120206309Y-119445000D01*
X120439698Y-119348327D01*
X120618327Y-119169699D01*
X120715000Y-118936310D01*
X120715000Y-118395750D01*
X120556250Y-118237000D01*
X119507000Y-118237000D01*
X119253000Y-118237000D01*
X118203750Y-118237000D01*
X118045000Y-118395750D01*
X117054899Y-118395750D01*
X117055408Y-117813444D01*
X116836518Y-117283690D01*
X118045000Y-117283690D01*
X118045000Y-117824250D01*
X118203750Y-117983000D01*
X119253000Y-117983000D01*
X119253000Y-116933750D01*
X119507000Y-116933750D01*
X119507000Y-117983000D01*
X120556250Y-117983000D01*
X120715000Y-117824250D01*
X120715000Y-117283690D01*
X120618327Y-117050301D01*
X120439698Y-116871673D01*
X120206309Y-116775000D01*
X119665750Y-116775000D01*
X119507000Y-116933750D01*
X119253000Y-116933750D01*
X119094250Y-116775000D01*
X118553691Y-116775000D01*
X118320302Y-116871673D01*
X118141673Y-117050301D01*
X118045000Y-117283690D01*
X116836518Y-117283690D01*
X116829862Y-117267583D01*
X116412594Y-116849586D01*
X116330520Y-116815506D01*
X116330520Y-113304282D01*
X116589984Y-113044818D01*
X117054481Y-113045223D01*
X117526943Y-112850005D01*
X117888735Y-112488845D01*
X118084777Y-112016724D01*
X118085223Y-111505519D01*
X117890005Y-111033057D01*
X117528845Y-110671265D01*
X117056724Y-110475223D01*
X116589617Y-110474815D01*
X114064802Y-107950000D01*
X118620000Y-107950000D01*
X118620000Y-111760000D01*
X118677852Y-112050839D01*
X118842599Y-112297401D01*
X123573731Y-117028533D01*
X123248902Y-117352796D01*
X123045232Y-117843287D01*
X123044769Y-118374383D01*
X123247582Y-118865229D01*
X123622796Y-119241098D01*
X124113287Y-119444768D01*
X124644383Y-119445231D01*
X125135229Y-119242418D01*
X125511098Y-118867204D01*
X125714768Y-118376713D01*
X125715231Y-117845617D01*
X125512418Y-117354771D01*
X125140000Y-116981703D01*
X125140000Y-116760000D01*
X125082148Y-116469161D01*
X124917401Y-116222599D01*
X121572961Y-112878159D01*
X122251446Y-112878159D01*
X122344288Y-113140088D01*
X122936801Y-113358675D01*
X123567861Y-113333878D01*
X124035712Y-113140088D01*
X124128554Y-112878159D01*
X123190000Y-111939605D01*
X122251446Y-112878159D01*
X121572961Y-112878159D01*
X120201603Y-111506801D01*
X121591325Y-111506801D01*
X121616122Y-112137861D01*
X121809912Y-112605712D01*
X122071841Y-112698554D01*
X123010395Y-111760000D01*
X123369605Y-111760000D01*
X124308159Y-112698554D01*
X124393583Y-112668275D01*
X124829579Y-113105032D01*
X125412841Y-113347224D01*
X126044388Y-113347775D01*
X126628072Y-113106602D01*
X127000257Y-112735065D01*
X127369579Y-113105032D01*
X127952841Y-113347224D01*
X128584388Y-113347775D01*
X129168072Y-113106602D01*
X129540257Y-112735065D01*
X129909579Y-113105032D01*
X130492841Y-113347224D01*
X131124388Y-113347775D01*
X131708072Y-113106602D01*
X132155032Y-112660421D01*
X132397224Y-112077159D01*
X132397775Y-111445612D01*
X132156602Y-110861928D01*
X131710421Y-110414968D01*
X131127159Y-110172776D01*
X130495612Y-110172225D01*
X129911928Y-110413398D01*
X129539743Y-110784935D01*
X129170421Y-110414968D01*
X128587159Y-110172776D01*
X127955612Y-110172225D01*
X127371928Y-110413398D01*
X126999743Y-110784935D01*
X126630421Y-110414968D01*
X126047159Y-110172776D01*
X125415612Y-110172225D01*
X124831928Y-110413398D01*
X124393032Y-110851529D01*
X124308159Y-110821446D01*
X123369605Y-111760000D01*
X123010395Y-111760000D01*
X122071841Y-110821446D01*
X121809912Y-110914288D01*
X121591325Y-111506801D01*
X120201603Y-111506801D01*
X120140000Y-111445198D01*
X120140000Y-110641841D01*
X122251446Y-110641841D01*
X123190000Y-111580395D01*
X124128554Y-110641841D01*
X124035712Y-110379912D01*
X123443199Y-110161325D01*
X122812139Y-110186122D01*
X122344288Y-110379912D01*
X122251446Y-110641841D01*
X120140000Y-110641841D01*
X120140000Y-108710000D01*
X130810000Y-108710000D01*
X131100839Y-108652148D01*
X131347401Y-108487401D01*
X131512148Y-108240839D01*
X131570000Y-107950000D01*
X131570000Y-105543652D01*
X131708072Y-105486602D01*
X132155032Y-105040421D01*
X132397224Y-104457159D01*
X132397775Y-103825612D01*
X132156602Y-103241928D01*
X131710421Y-102794968D01*
X131127159Y-102552776D01*
X130495612Y-102552225D01*
X129911928Y-102793398D01*
X129539743Y-103164935D01*
X129170421Y-102794968D01*
X129030000Y-102736660D01*
X129030000Y-97870000D01*
X129007787Y-97758327D01*
X128972148Y-97579160D01*
X128807401Y-97332599D01*
X128254774Y-96779972D01*
X128255231Y-96255617D01*
X128052418Y-95764771D01*
X127677204Y-95388902D01*
X127186713Y-95185232D01*
X126655617Y-95184769D01*
X126164771Y-95387582D01*
X125788902Y-95762796D01*
X125585232Y-96253287D01*
X125584769Y-96784383D01*
X125787582Y-97275229D01*
X126162796Y-97651098D01*
X126653287Y-97854768D01*
X127180426Y-97855228D01*
X127510000Y-98184802D01*
X127510000Y-102736348D01*
X127371928Y-102793398D01*
X126999743Y-103164935D01*
X126630421Y-102794968D01*
X126047159Y-102552776D01*
X125415612Y-102552225D01*
X124831928Y-102793398D01*
X124459743Y-103164935D01*
X124090421Y-102794968D01*
X123507159Y-102552776D01*
X122875612Y-102552225D01*
X122291928Y-102793398D01*
X121844968Y-103239579D01*
X121602776Y-103822841D01*
X121602225Y-104454388D01*
X121843398Y-105038072D01*
X122289579Y-105485032D01*
X122872841Y-105727224D01*
X123504388Y-105727775D01*
X124088072Y-105486602D01*
X124460257Y-105115065D01*
X124829579Y-105485032D01*
X125412841Y-105727224D01*
X126044388Y-105727775D01*
X126628072Y-105486602D01*
X127000257Y-105115065D01*
X127369579Y-105485032D01*
X127952841Y-105727224D01*
X128584388Y-105727775D01*
X129168072Y-105486602D01*
X129540257Y-105115065D01*
X129909579Y-105485032D01*
X130050000Y-105543340D01*
X130050000Y-107190000D01*
X119380000Y-107190000D01*
X119089161Y-107247852D01*
X118842599Y-107412599D01*
X118677852Y-107659161D01*
X118620000Y-107950000D01*
X114064802Y-107950000D01*
X113527401Y-107412599D01*
X113280839Y-107247852D01*
X112990000Y-107190000D01*
X109534802Y-107190000D01*
X108049338Y-105704536D01*
X111547652Y-105704536D01*
X111773198Y-106250397D01*
X112190466Y-106668394D01*
X112735933Y-106894892D01*
X113326556Y-106895408D01*
X113872417Y-106669862D01*
X114104151Y-106438532D01*
X114114668Y-106494427D01*
X114253740Y-106710551D01*
X114465940Y-106855541D01*
X114717830Y-106906550D01*
X116417090Y-106906550D01*
X116652407Y-106862272D01*
X116868531Y-106723200D01*
X117013521Y-106511000D01*
X117064530Y-106259110D01*
X117064530Y-104559850D01*
X117020252Y-104324533D01*
X116881180Y-104108409D01*
X116668980Y-103963419D01*
X116417090Y-103912410D01*
X114717830Y-103912410D01*
X114482513Y-103956688D01*
X114266389Y-104095760D01*
X114121399Y-104307960D01*
X114105927Y-104384363D01*
X113874614Y-104152646D01*
X113329147Y-103926148D01*
X112738524Y-103925632D01*
X112192663Y-104151178D01*
X111774666Y-104568446D01*
X111548168Y-105113913D01*
X111547652Y-105704536D01*
X108049338Y-105704536D01*
X106601307Y-104256505D01*
X106713611Y-104184240D01*
X106858601Y-103972040D01*
X106909610Y-103720150D01*
X106909610Y-102020890D01*
X106865332Y-101785573D01*
X106726260Y-101569449D01*
X106514060Y-101424459D01*
X106262170Y-101373450D01*
X104562910Y-101373450D01*
X104327593Y-101417728D01*
X104111469Y-101556800D01*
X103966479Y-101769000D01*
X103915470Y-102020890D01*
X103915470Y-102110520D01*
X100645322Y-102110520D01*
X99820000Y-101285198D01*
X99820000Y-100336742D01*
X99945317Y-100313162D01*
X100161441Y-100174090D01*
X100306431Y-99961890D01*
X100357440Y-99710000D01*
X100357440Y-99514540D01*
X100469995Y-99786943D01*
X100831155Y-100148735D01*
X101303276Y-100344777D01*
X101814481Y-100345223D01*
X102286943Y-100150005D01*
X102617525Y-99820000D01*
X103825198Y-99820000D01*
X104872599Y-100867401D01*
X105119160Y-101032148D01*
X105410000Y-101090000D01*
X107635198Y-101090000D01*
X108266363Y-101721165D01*
X107959586Y-102027406D01*
X107733088Y-102572873D01*
X107732572Y-103163496D01*
X107958118Y-103709357D01*
X108375386Y-104127354D01*
X108920853Y-104353852D01*
X109511476Y-104354368D01*
X110057337Y-104128822D01*
X110475334Y-103711554D01*
X110511115Y-103625383D01*
X110781359Y-103571628D01*
X111027921Y-103406881D01*
X113569941Y-100864861D01*
X113734688Y-100618299D01*
X113792540Y-100327460D01*
X113792540Y-96805750D01*
X120585000Y-96805750D01*
X120585000Y-97346310D01*
X120681673Y-97579699D01*
X120860302Y-97758327D01*
X121093691Y-97855000D01*
X121634250Y-97855000D01*
X121793000Y-97696250D01*
X121793000Y-96647000D01*
X122047000Y-96647000D01*
X122047000Y-97696250D01*
X122205750Y-97855000D01*
X122746309Y-97855000D01*
X122979698Y-97758327D01*
X123158327Y-97579699D01*
X123255000Y-97346310D01*
X123255000Y-96805750D01*
X123096250Y-96647000D01*
X122047000Y-96647000D01*
X121793000Y-96647000D01*
X120743750Y-96647000D01*
X120585000Y-96805750D01*
X113792540Y-96805750D01*
X113792540Y-96747590D01*
X113882170Y-96747590D01*
X114117487Y-96703312D01*
X114333611Y-96564240D01*
X114478601Y-96352040D01*
X114494073Y-96275637D01*
X114725386Y-96507354D01*
X115270853Y-96733852D01*
X115861476Y-96734368D01*
X116407337Y-96508822D01*
X116825334Y-96091554D01*
X116859414Y-96009480D01*
X119380520Y-96009480D01*
X119671359Y-95951628D01*
X119917921Y-95786881D01*
X120011112Y-95693690D01*
X120585000Y-95693690D01*
X120585000Y-96234250D01*
X120743750Y-96393000D01*
X121793000Y-96393000D01*
X121793000Y-95343750D01*
X122047000Y-95343750D01*
X122047000Y-96393000D01*
X123096250Y-96393000D01*
X123255000Y-96234250D01*
X123255000Y-95693690D01*
X123158327Y-95460301D01*
X122979698Y-95281673D01*
X122746309Y-95185000D01*
X122205750Y-95185000D01*
X122047000Y-95343750D01*
X121793000Y-95343750D01*
X121634250Y-95185000D01*
X121093691Y-95185000D01*
X120860302Y-95281673D01*
X120681673Y-95460301D01*
X120585000Y-95693690D01*
X120011112Y-95693690D01*
X122234802Y-93470000D01*
X128984290Y-93470000D01*
X128837852Y-93689161D01*
X128780000Y-93980000D01*
X128780000Y-95250000D01*
X128837852Y-95540839D01*
X129002599Y-95787401D01*
X130845139Y-97629941D01*
X130844786Y-98034579D01*
X131032408Y-98488657D01*
X131379515Y-98836371D01*
X131833266Y-99024785D01*
X132324579Y-99025214D01*
X132590000Y-98915544D01*
X132590000Y-119200588D01*
X131847896Y-120684797D01*
X131835421Y-120684786D01*
X131381343Y-120872408D01*
X131033629Y-121219515D01*
X130845215Y-121673266D01*
X130844973Y-121950479D01*
X130488587Y-121972518D01*
X130176383Y-122101836D01*
X130126870Y-122327265D01*
X130810000Y-123010395D01*
X130824143Y-122996253D01*
X131003748Y-123175858D01*
X130989605Y-123190000D01*
X131003748Y-123204143D01*
X130824143Y-123383748D01*
X130810000Y-123369605D01*
X130126870Y-124052735D01*
X130176383Y-124278164D01*
X130641036Y-124437807D01*
X130845030Y-124425192D01*
X130844786Y-124704579D01*
X131032408Y-125158657D01*
X131379515Y-125506371D01*
X131833266Y-125694785D01*
X132324579Y-125695214D01*
X132778657Y-125507592D01*
X133126371Y-125160485D01*
X133314785Y-124706734D01*
X133315214Y-124215421D01*
X133127592Y-123761343D01*
X132780485Y-123413629D01*
X132326734Y-123225215D01*
X132049521Y-123224973D01*
X132045192Y-123154970D01*
X132324579Y-123155214D01*
X132778657Y-122967592D01*
X133066752Y-122680000D01*
X134305198Y-122680000D01*
X136622599Y-124997401D01*
X136869160Y-125162148D01*
X136917414Y-125171746D01*
X137160000Y-125220000D01*
X137865198Y-125220000D01*
X135352599Y-127732599D01*
X135187852Y-127979161D01*
X135130000Y-128270000D01*
X135130000Y-129355504D01*
X134965345Y-129423538D01*
X134505154Y-129882927D01*
X134255794Y-130483453D01*
X134255226Y-131133694D01*
X134503538Y-131734655D01*
X134962927Y-132194846D01*
X135563453Y-132444206D01*
X136213694Y-132444774D01*
X136814655Y-132196462D01*
X137274846Y-131737073D01*
X137524206Y-131136547D01*
X137524774Y-130486306D01*
X137276462Y-129885345D01*
X136817073Y-129425154D01*
X136650000Y-129355779D01*
X136650000Y-128584802D01*
X139999209Y-125235593D01*
X140269515Y-125506371D01*
X140723266Y-125694785D01*
X141214579Y-125695214D01*
X141668657Y-125507592D01*
X142016371Y-125160485D01*
X142204785Y-124706734D01*
X142205031Y-124424970D01*
X142400338Y-124425140D01*
X142750000Y-124774802D01*
X142750000Y-129355504D01*
X142585345Y-129423538D01*
X142125154Y-129882927D01*
X141875794Y-130483453D01*
X141875226Y-131133694D01*
X142123538Y-131734655D01*
X142582927Y-132194846D01*
X143183453Y-132444206D01*
X143833694Y-132444774D01*
X144434655Y-132196462D01*
X144894846Y-131737073D01*
X145144206Y-131136547D01*
X145144774Y-130486306D01*
X144896462Y-129885345D01*
X144437073Y-129425154D01*
X144270000Y-129355779D01*
X144270000Y-124460000D01*
X144266972Y-124444777D01*
X144212148Y-124169160D01*
X144065710Y-123950000D01*
X147145352Y-123950000D01*
X147345585Y-124249670D01*
X147660366Y-124460000D01*
X147345585Y-124670330D01*
X147020729Y-125156511D01*
X146906655Y-125730000D01*
X147020729Y-126303489D01*
X147345585Y-126789670D01*
X147660366Y-127000000D01*
X147345585Y-127210330D01*
X147020729Y-127696511D01*
X146906655Y-128270000D01*
X147020729Y-128843489D01*
X147345585Y-129329670D01*
X147660366Y-129540000D01*
X147345585Y-129750330D01*
X147020729Y-130236511D01*
X146906655Y-130810000D01*
X147020729Y-131383489D01*
X147345585Y-131869670D01*
X147660366Y-132080000D01*
X147345585Y-132290330D01*
X147020729Y-132776511D01*
X146906655Y-133350000D01*
X147020729Y-133923489D01*
X147345585Y-134409670D01*
X147660366Y-134620000D01*
X147345585Y-134830330D01*
X147020729Y-135316511D01*
X146906655Y-135890000D01*
X147020729Y-136463489D01*
X147345585Y-136949670D01*
X147660366Y-137160000D01*
X147345585Y-137370330D01*
X147020729Y-137856511D01*
X146906655Y-138430000D01*
X147020729Y-139003489D01*
X147345585Y-139489670D01*
X147660366Y-139700000D01*
X147345585Y-139910330D01*
X147020729Y-140396511D01*
X146906655Y-140970000D01*
X147020729Y-141543489D01*
X147345585Y-142029670D01*
X147831766Y-142354526D01*
X148405255Y-142468600D01*
X148774745Y-142468600D01*
X149348234Y-142354526D01*
X149834415Y-142029670D01*
X150159271Y-141543489D01*
X150273345Y-140970000D01*
X150159271Y-140396511D01*
X149834415Y-139910330D01*
X149519634Y-139700000D01*
X149834415Y-139489670D01*
X150159271Y-139003489D01*
X150273345Y-138430000D01*
X150159271Y-137856511D01*
X149834415Y-137370330D01*
X149519634Y-137160000D01*
X149834415Y-136949670D01*
X150159271Y-136463489D01*
X150273345Y-135890000D01*
X150159271Y-135316511D01*
X149834415Y-134830330D01*
X149519634Y-134620000D01*
X149834415Y-134409670D01*
X150159271Y-133923489D01*
X150273345Y-133350000D01*
X150159271Y-132776511D01*
X149834415Y-132290330D01*
X149519634Y-132080000D01*
X149834415Y-131869670D01*
X150159271Y-131383489D01*
X150273345Y-130810000D01*
X150159271Y-130236511D01*
X149834415Y-129750330D01*
X149519634Y-129540000D01*
X149834415Y-129329670D01*
X150159271Y-128843489D01*
X150273345Y-128270000D01*
X150159271Y-127696511D01*
X149834415Y-127210330D01*
X149519634Y-127000000D01*
X149834415Y-126789670D01*
X150159271Y-126303489D01*
X150273345Y-125730000D01*
X150159271Y-125156511D01*
X149834415Y-124670330D01*
X149519634Y-124460000D01*
X149834415Y-124249670D01*
X150159271Y-123763489D01*
X150273345Y-123190000D01*
X150159271Y-122616511D01*
X149834415Y-122130330D01*
X149519634Y-121920000D01*
X149834415Y-121709670D01*
X150159271Y-121223489D01*
X150273345Y-120650000D01*
X150159271Y-120076511D01*
X149834415Y-119590330D01*
X149519634Y-119380000D01*
X149834415Y-119169670D01*
X150159271Y-118683489D01*
X150273345Y-118110000D01*
X150159271Y-117536511D01*
X149834415Y-117050330D01*
X149519634Y-116840000D01*
X149834415Y-116629670D01*
X150159271Y-116143489D01*
X150273345Y-115570000D01*
X150159271Y-114996511D01*
X149834415Y-114510330D01*
X149519634Y-114300000D01*
X149834415Y-114089670D01*
X150159271Y-113603489D01*
X150273345Y-113030000D01*
X150159271Y-112456511D01*
X149834415Y-111970330D01*
X149519634Y-111760000D01*
X149834415Y-111549670D01*
X150159271Y-111063489D01*
X150273345Y-110490000D01*
X150159271Y-109916511D01*
X149834415Y-109430330D01*
X149519634Y-109220000D01*
X149834415Y-109009670D01*
X150159271Y-108523489D01*
X150273345Y-107950000D01*
X150159271Y-107376511D01*
X149834415Y-106890330D01*
X149519634Y-106680000D01*
X149834415Y-106469670D01*
X150159271Y-105983489D01*
X150273345Y-105410000D01*
X150159271Y-104836511D01*
X149834415Y-104350330D01*
X149519634Y-104140000D01*
X149834415Y-103929670D01*
X150159271Y-103443489D01*
X150273345Y-102870000D01*
X150159271Y-102296511D01*
X149834415Y-101810330D01*
X149519634Y-101600000D01*
X149834415Y-101389670D01*
X150159271Y-100903489D01*
X150273345Y-100330000D01*
X150159271Y-99756511D01*
X149834415Y-99270330D01*
X149519634Y-99060000D01*
X149834415Y-98849670D01*
X150159271Y-98363489D01*
X150273345Y-97790000D01*
X150159271Y-97216511D01*
X149834415Y-96730330D01*
X149812220Y-96715500D01*
X149965699Y-96651927D01*
X150144327Y-96473298D01*
X150241000Y-96239909D01*
X150241000Y-95535750D01*
X150082250Y-95377000D01*
X148717000Y-95377000D01*
X148717000Y-95397000D01*
X148463000Y-95397000D01*
X148463000Y-95377000D01*
X147097750Y-95377000D01*
X146939000Y-95535750D01*
X146939000Y-96239909D01*
X147035673Y-96473298D01*
X147214301Y-96651927D01*
X147367780Y-96715500D01*
X147345585Y-96730330D01*
X147145352Y-97030000D01*
X146234496Y-97030000D01*
X146166462Y-96865345D01*
X145707073Y-96405154D01*
X145106547Y-96155794D01*
X144456306Y-96155226D01*
X143855345Y-96403538D01*
X143395154Y-96862927D01*
X143145794Y-97463453D01*
X143145226Y-98113694D01*
X143393538Y-98714655D01*
X143852927Y-99174846D01*
X144453453Y-99424206D01*
X145103694Y-99424774D01*
X145704655Y-99176462D01*
X146164846Y-98717073D01*
X146234221Y-98550000D01*
X147145352Y-98550000D01*
X147345585Y-98849670D01*
X147660366Y-99060000D01*
X147345585Y-99270330D01*
X147020729Y-99756511D01*
X146906655Y-100330000D01*
X147020729Y-100903489D01*
X147345585Y-101389670D01*
X147660366Y-101600000D01*
X147345585Y-101810330D01*
X147020729Y-102296511D01*
X146906655Y-102870000D01*
X147020729Y-103443489D01*
X147345585Y-103929670D01*
X147660366Y-104140000D01*
X147345585Y-104350330D01*
X147020729Y-104836511D01*
X146906655Y-105410000D01*
X147020729Y-105983489D01*
X147345585Y-106469670D01*
X147660366Y-106680000D01*
X147345585Y-106890330D01*
X147020729Y-107376511D01*
X146906655Y-107950000D01*
X147020729Y-108523489D01*
X147345585Y-109009670D01*
X147660366Y-109220000D01*
X147345585Y-109430330D01*
X147020729Y-109916511D01*
X146906655Y-110490000D01*
X147020729Y-111063489D01*
X147345585Y-111549670D01*
X147660366Y-111760000D01*
X147345585Y-111970330D01*
X147020729Y-112456511D01*
X146906655Y-113030000D01*
X147020729Y-113603489D01*
X147345585Y-114089670D01*
X147660366Y-114300000D01*
X147345585Y-114510330D01*
X147020729Y-114996511D01*
X146906655Y-115570000D01*
X147020729Y-116143489D01*
X147345585Y-116629670D01*
X147660366Y-116840000D01*
X147345585Y-117050330D01*
X147020729Y-117536511D01*
X146906655Y-118110000D01*
X147020729Y-118683489D01*
X147345585Y-119169670D01*
X147660366Y-119380000D01*
X147345585Y-119590330D01*
X147020729Y-120076511D01*
X146906655Y-120650000D01*
X147020729Y-121223489D01*
X147345585Y-121709670D01*
X147660366Y-121920000D01*
X147345585Y-122130330D01*
X147145352Y-122430000D01*
X143226356Y-122430000D01*
X142940485Y-122143629D01*
X142486734Y-121955215D01*
X142204970Y-121954969D01*
X142205214Y-121675421D01*
X142017592Y-121221343D01*
X141670485Y-120873629D01*
X141216734Y-120685215D01*
X140725421Y-120684786D01*
X140271343Y-120872408D01*
X139923629Y-121219515D01*
X139735215Y-121673266D01*
X139734786Y-122164579D01*
X139922408Y-122618657D01*
X140269515Y-122966371D01*
X140723266Y-123154785D01*
X141005030Y-123155031D01*
X141004969Y-123225030D01*
X140725421Y-123224786D01*
X140271343Y-123412408D01*
X139983248Y-123700000D01*
X137474802Y-123700000D01*
X135157401Y-121382599D01*
X134910839Y-121217852D01*
X134620000Y-121160000D01*
X133309706Y-121160000D01*
X134029765Y-119719883D01*
X134036978Y-119693542D01*
X134052148Y-119670839D01*
X134075913Y-119551365D01*
X134108087Y-119433876D01*
X134104672Y-119406786D01*
X134110000Y-119380000D01*
X134110000Y-117125750D01*
X134605000Y-117125750D01*
X134605000Y-117616310D01*
X134701673Y-117849699D01*
X134880302Y-118028327D01*
X135113691Y-118125000D01*
X135604250Y-118125000D01*
X135763000Y-117966250D01*
X135763000Y-116967000D01*
X134763750Y-116967000D01*
X134605000Y-117125750D01*
X134110000Y-117125750D01*
X134110000Y-116063690D01*
X134605000Y-116063690D01*
X134605000Y-116554250D01*
X134763750Y-116713000D01*
X135763000Y-116713000D01*
X135763000Y-115713750D01*
X136017000Y-115713750D01*
X136017000Y-116713000D01*
X136037000Y-116713000D01*
X136037000Y-116967000D01*
X136017000Y-116967000D01*
X136017000Y-117966250D01*
X136175750Y-118125000D01*
X136666309Y-118125000D01*
X136899698Y-118028327D01*
X137078327Y-117849699D01*
X137175000Y-117616310D01*
X137175000Y-117264433D01*
X137299995Y-117566943D01*
X137661155Y-117928735D01*
X138133276Y-118124777D01*
X138644481Y-118125223D01*
X139116943Y-117930005D01*
X139478735Y-117568845D01*
X139674777Y-117096724D01*
X139675223Y-116585519D01*
X139480005Y-116113057D01*
X139118845Y-115751265D01*
X138646724Y-115555223D01*
X138135519Y-115554777D01*
X137663057Y-115749995D01*
X137301265Y-116111155D01*
X137175000Y-116415235D01*
X137175000Y-116063690D01*
X137078327Y-115830301D01*
X136899698Y-115651673D01*
X136666309Y-115555000D01*
X136175750Y-115555000D01*
X136017000Y-115713750D01*
X135763000Y-115713750D01*
X135604250Y-115555000D01*
X135113691Y-115555000D01*
X134880302Y-115651673D01*
X134701673Y-115830301D01*
X134605000Y-116063690D01*
X134110000Y-116063690D01*
X134110000Y-104463694D01*
X134255226Y-104463694D01*
X134503538Y-105064655D01*
X134962927Y-105524846D01*
X135563453Y-105774206D01*
X136213694Y-105774774D01*
X136814655Y-105526462D01*
X137274846Y-105067073D01*
X137524206Y-104466547D01*
X137524774Y-103816306D01*
X137276462Y-103215345D01*
X136817073Y-102755154D01*
X136216547Y-102505794D01*
X135566306Y-102505226D01*
X134965345Y-102753538D01*
X134505154Y-103212927D01*
X134255794Y-103813453D01*
X134255226Y-104463694D01*
X134110000Y-104463694D01*
X134110000Y-102155710D01*
X134329161Y-102302148D01*
X134620000Y-102360000D01*
X137670000Y-102360000D01*
X137670000Y-105095198D01*
X136381083Y-106384115D01*
X136216547Y-106315794D01*
X135566306Y-106315226D01*
X134965345Y-106563538D01*
X134505154Y-107022927D01*
X134255794Y-107623453D01*
X134255226Y-108273694D01*
X134503538Y-108874655D01*
X134962927Y-109334846D01*
X135563453Y-109584206D01*
X136213694Y-109584774D01*
X136814655Y-109336462D01*
X137274846Y-108877073D01*
X137524206Y-108276547D01*
X137524208Y-108273694D01*
X141875226Y-108273694D01*
X142123538Y-108874655D01*
X142582927Y-109334846D01*
X143183453Y-109584206D01*
X143833694Y-109584774D01*
X144434655Y-109336462D01*
X144894846Y-108877073D01*
X145144206Y-108276547D01*
X145144774Y-107626306D01*
X144896462Y-107025345D01*
X144437073Y-106565154D01*
X143836547Y-106315794D01*
X143186306Y-106315226D01*
X142585345Y-106563538D01*
X142125154Y-107022927D01*
X141875794Y-107623453D01*
X141875226Y-108273694D01*
X137524208Y-108273694D01*
X137524774Y-107626306D01*
X137455691Y-107459111D01*
X138967401Y-105947401D01*
X139132148Y-105700840D01*
X139166834Y-105526462D01*
X139190000Y-105410000D01*
X139190000Y-101600000D01*
X139132148Y-101309161D01*
X138967401Y-101062599D01*
X138720839Y-100897852D01*
X138430000Y-100840000D01*
X135380000Y-100840000D01*
X135380000Y-98113694D01*
X135525226Y-98113694D01*
X135773538Y-98714655D01*
X136232927Y-99174846D01*
X136833453Y-99424206D01*
X137483694Y-99424774D01*
X138084655Y-99176462D01*
X138352218Y-98909365D01*
X142012366Y-103484551D01*
X141875794Y-103813453D01*
X141875226Y-104463694D01*
X142123538Y-105064655D01*
X142582927Y-105524846D01*
X143183453Y-105774206D01*
X143833694Y-105774774D01*
X144434655Y-105526462D01*
X144894846Y-105067073D01*
X145144206Y-104466547D01*
X145144774Y-103816306D01*
X144896462Y-103215345D01*
X144437073Y-102755154D01*
X143836547Y-102505794D01*
X143186306Y-102505226D01*
X143178151Y-102508596D01*
X139023460Y-97315232D01*
X138990985Y-97287895D01*
X138967401Y-97252599D01*
X138878444Y-97193160D01*
X138796600Y-97124265D01*
X138756136Y-97111437D01*
X138720839Y-97087852D01*
X138631018Y-97069985D01*
X138546462Y-96865345D01*
X138087073Y-96405154D01*
X137486547Y-96155794D01*
X136836306Y-96155226D01*
X136235345Y-96403538D01*
X135775154Y-96862927D01*
X135525794Y-97463453D01*
X135525226Y-98113694D01*
X135380000Y-98113694D01*
X135380000Y-94260091D01*
X146939000Y-94260091D01*
X146939000Y-94964250D01*
X147097750Y-95123000D01*
X148463000Y-95123000D01*
X148463000Y-93910150D01*
X148717000Y-93910150D01*
X148717000Y-95123000D01*
X150082250Y-95123000D01*
X150241000Y-94964250D01*
X150241000Y-94260091D01*
X150144327Y-94026702D01*
X149965699Y-93848073D01*
X149732310Y-93751400D01*
X148875750Y-93751400D01*
X148717000Y-93910150D01*
X148463000Y-93910150D01*
X148304250Y-93751400D01*
X147447690Y-93751400D01*
X147214301Y-93848073D01*
X147035673Y-94026702D01*
X146939000Y-94260091D01*
X135380000Y-94260091D01*
X135380000Y-93980000D01*
X135322148Y-93689161D01*
X135157401Y-93442599D01*
X134910839Y-93277852D01*
X134620000Y-93220000D01*
X132635710Y-93220000D01*
X132782148Y-93000839D01*
X132840000Y-92710000D01*
X132840000Y-91833440D01*
X133096000Y-91833440D01*
X133331317Y-91789162D01*
X133547441Y-91650090D01*
X133692431Y-91437890D01*
X133743440Y-91186000D01*
X133743440Y-89154000D01*
X133699162Y-88918683D01*
X133560090Y-88702559D01*
X133347890Y-88557569D01*
X133096000Y-88506560D01*
X131064000Y-88506560D01*
X130828683Y-88550838D01*
X130612559Y-88689910D01*
X130512144Y-88836872D01*
X130508379Y-88832812D01*
X129922946Y-88564017D01*
X129667000Y-88682633D01*
X129667000Y-90043000D01*
X129687000Y-90043000D01*
X129687000Y-90297000D01*
X129667000Y-90297000D01*
X129667000Y-91657367D01*
X129922946Y-91775983D01*
X130508379Y-91507188D01*
X130512934Y-91502276D01*
X130599910Y-91637441D01*
X130812110Y-91782431D01*
X131064000Y-91833440D01*
X131320000Y-91833440D01*
X131320000Y-91950000D01*
X122308025Y-91950000D01*
X122458327Y-91799699D01*
X122555000Y-91566310D01*
X122555000Y-90552944D01*
X127934025Y-90552944D01*
X128133615Y-91034818D01*
X128571621Y-91507188D01*
X129157054Y-91775983D01*
X129413000Y-91657367D01*
X129413000Y-90297000D01*
X128053164Y-90297000D01*
X127934025Y-90552944D01*
X122555000Y-90552944D01*
X122555000Y-89787056D01*
X127934025Y-89787056D01*
X128053164Y-90043000D01*
X129413000Y-90043000D01*
X129413000Y-88682633D01*
X129157054Y-88564017D01*
X128571621Y-88832812D01*
X128133615Y-89305182D01*
X127934025Y-89787056D01*
X122555000Y-89787056D01*
X122555000Y-89185750D01*
X122396250Y-89027000D01*
X121412000Y-89027000D01*
X121412000Y-91916250D01*
X121553894Y-92058144D01*
X121382599Y-92172599D01*
X119065718Y-94489480D01*
X117600000Y-94489480D01*
X117600000Y-92032427D01*
X117799441Y-91904090D01*
X117944431Y-91691890D01*
X117995440Y-91440000D01*
X117995440Y-89185750D01*
X120015000Y-89185750D01*
X120015000Y-91566310D01*
X120111673Y-91799699D01*
X120290302Y-91978327D01*
X120523691Y-92075000D01*
X120999250Y-92075000D01*
X121158000Y-91916250D01*
X121158000Y-89027000D01*
X120173750Y-89027000D01*
X120015000Y-89185750D01*
X117995440Y-89185750D01*
X117995440Y-87070000D01*
X120015000Y-87070000D01*
X120015000Y-88614250D01*
X120173750Y-88773000D01*
X121158000Y-88773000D01*
X121158000Y-88753000D01*
X121412000Y-88753000D01*
X121412000Y-88773000D01*
X122396250Y-88773000D01*
X122555000Y-88614250D01*
X122555000Y-87070000D01*
X137720000Y-87070000D01*
X137720000Y-92710000D01*
X137774046Y-92981705D01*
X137927954Y-93212046D01*
X138158295Y-93365954D01*
X138430000Y-93420000D01*
X150420000Y-93420000D01*
X150420000Y-142800000D01*
X132583579Y-142800000D01*
X132617401Y-142777401D01*
X132617445Y-142777335D01*
X132617511Y-142777291D01*
X134194546Y-141199610D01*
X135469110Y-141199610D01*
X135704427Y-141155332D01*
X135920551Y-141016260D01*
X136065541Y-140804060D01*
X136116550Y-140552170D01*
X136116550Y-139281312D01*
X137477862Y-137920000D01*
X139952994Y-137920000D01*
X140281155Y-138248735D01*
X140753276Y-138444777D01*
X141264481Y-138445223D01*
X141736943Y-138250005D01*
X142098735Y-137888845D01*
X142212560Y-137614724D01*
X142212560Y-137810000D01*
X142256838Y-138045317D01*
X142395910Y-138261441D01*
X142608110Y-138406431D01*
X142860000Y-138457440D01*
X144160000Y-138457440D01*
X144395317Y-138413162D01*
X144611441Y-138274090D01*
X144756431Y-138061890D01*
X144807440Y-137810000D01*
X144807440Y-136510000D01*
X144763162Y-136274683D01*
X144624090Y-136058559D01*
X144411890Y-135913569D01*
X144160000Y-135862560D01*
X142860000Y-135862560D01*
X142624683Y-135906838D01*
X142408559Y-136045910D01*
X142263569Y-136258110D01*
X142212560Y-136510000D01*
X142212560Y-136705460D01*
X142100005Y-136433057D01*
X141738845Y-136071265D01*
X141266724Y-135875223D01*
X140755519Y-135874777D01*
X140283057Y-136069995D01*
X139952475Y-136400000D01*
X137477862Y-136400000D01*
X136071748Y-134993886D01*
X136104892Y-134914067D01*
X136105408Y-134323444D01*
X135879862Y-133777583D01*
X135462594Y-133359586D01*
X134917127Y-133133088D01*
X134326504Y-133132572D01*
X133780643Y-133358118D01*
X133362646Y-133775386D01*
X133136148Y-134320853D01*
X133135632Y-134911476D01*
X133361178Y-135457337D01*
X133778446Y-135875334D01*
X134323913Y-136101832D01*
X134914536Y-136102348D01*
X134996669Y-136068411D01*
X136088258Y-137160000D01*
X135042788Y-138205470D01*
X133769850Y-138205470D01*
X133534533Y-138249748D01*
X133318409Y-138388820D01*
X133173419Y-138601020D01*
X133122410Y-138852910D01*
X133122410Y-140122141D01*
X131765107Y-141480000D01*
X118657777Y-141480000D01*
X117989183Y-139474218D01*
X118086431Y-139331890D01*
X118137440Y-139080000D01*
X118137440Y-137780000D01*
X118093162Y-137544683D01*
X117954090Y-137328559D01*
X117741890Y-137183569D01*
X117490000Y-137132560D01*
X117294540Y-137132560D01*
X117566943Y-137020005D01*
X117928735Y-136658845D01*
X118124777Y-136186724D01*
X118125223Y-135675519D01*
X117930005Y-135203057D01*
X117568845Y-134841265D01*
X117096724Y-134645223D01*
X116629617Y-134644815D01*
X115059480Y-133074678D01*
X115059480Y-130834887D01*
X115139357Y-130801882D01*
X115557354Y-130384614D01*
X115591434Y-130302540D01*
X120649480Y-130302540D01*
X120940319Y-130244688D01*
X121186881Y-130079941D01*
X124037212Y-127229610D01*
X125309110Y-127229610D01*
X125544427Y-127185332D01*
X125760551Y-127046260D01*
X125905541Y-126834060D01*
X125956550Y-126582170D01*
X125956550Y-124882910D01*
X125912272Y-124647593D01*
X125773200Y-124431469D01*
X125561000Y-124286479D01*
X125309110Y-124235470D01*
X123609850Y-124235470D01*
X123374533Y-124279748D01*
X123158409Y-124418820D01*
X123013419Y-124631020D01*
X122962410Y-124882910D01*
X122962410Y-126154808D01*
X120334678Y-128782540D01*
X115591827Y-128782540D01*
X115558822Y-128702663D01*
X115141554Y-128284666D01*
X114596087Y-128058168D01*
X114005464Y-128057652D01*
X113459603Y-128283198D01*
X113041606Y-128700466D01*
X112815108Y-129245933D01*
X112814592Y-129836556D01*
X113040138Y-130382417D01*
X113457406Y-130800414D01*
X113539480Y-130834494D01*
X113539480Y-133389480D01*
X113597332Y-133680319D01*
X113762079Y-133926881D01*
X115555182Y-135719984D01*
X115554815Y-136140383D01*
X114025198Y-137670000D01*
X110496742Y-137670000D01*
X110473162Y-137544683D01*
X110334090Y-137328559D01*
X110121890Y-137183569D01*
X109870000Y-137132560D01*
X108570000Y-137132560D01*
X108334683Y-137176838D01*
X108118559Y-137315910D01*
X107973569Y-137528110D01*
X107922560Y-137780000D01*
X107922560Y-137975460D01*
X107810005Y-137703057D01*
X107448845Y-137341265D01*
X107437460Y-137336538D01*
X107437460Y-134846550D01*
X107527090Y-134846550D01*
X107762407Y-134802272D01*
X107978531Y-134663200D01*
X108123521Y-134451000D01*
X108174530Y-134199110D01*
X108174530Y-134110520D01*
X109200193Y-134110520D01*
X109233198Y-134190397D01*
X109650466Y-134608394D01*
X110195933Y-134834892D01*
X110786556Y-134835408D01*
X111332417Y-134609862D01*
X111750414Y-134192594D01*
X111976912Y-133647127D01*
X111977428Y-133056504D01*
X111751882Y-132510643D01*
X111334614Y-132092646D01*
X110789147Y-131866148D01*
X110198524Y-131865632D01*
X109652663Y-132091178D01*
X109234666Y-132508446D01*
X109200586Y-132590520D01*
X108174530Y-132590520D01*
X108174530Y-132499850D01*
X108130252Y-132264533D01*
X107991180Y-132048409D01*
X107778980Y-131903419D01*
X107527090Y-131852410D01*
X105827830Y-131852410D01*
X105592513Y-131896688D01*
X105376389Y-132035760D01*
X105231399Y-132247960D01*
X105180390Y-132499850D01*
X105180390Y-134199110D01*
X105224668Y-134434427D01*
X105363740Y-134650551D01*
X105575940Y-134795541D01*
X105827830Y-134846550D01*
X105917460Y-134846550D01*
X105917460Y-137415460D01*
X105631265Y-137701155D01*
X105435223Y-138173276D01*
X105434777Y-138684481D01*
X105629995Y-139156943D01*
X105991155Y-139518735D01*
X106463276Y-139714777D01*
X106974481Y-139715223D01*
X107446943Y-139520005D01*
X107808735Y-139158845D01*
X107922560Y-138884724D01*
X107922560Y-139080000D01*
X107966838Y-139315317D01*
X108105910Y-139531441D01*
X108318110Y-139676431D01*
X108570000Y-139727440D01*
X109870000Y-139727440D01*
X110105317Y-139683162D01*
X110321441Y-139544090D01*
X110466431Y-139331890D01*
X110495164Y-139190000D01*
X114340000Y-139190000D01*
X114630839Y-139132148D01*
X114877401Y-138967401D01*
X115542560Y-138302242D01*
X115542560Y-139080000D01*
X115586838Y-139315317D01*
X115725910Y-139531441D01*
X115938110Y-139676431D01*
X116190000Y-139727440D01*
X116471370Y-139727440D01*
X117389001Y-142480333D01*
X117402525Y-142504057D01*
X117407852Y-142530839D01*
X117475527Y-142632122D01*
X117535855Y-142737953D01*
X117557428Y-142754696D01*
X117572599Y-142777401D01*
X117606421Y-142800000D01*
X92150000Y-142800000D01*
X92150000Y-97790000D01*
X92296655Y-97790000D01*
X92410729Y-98363489D01*
X92735585Y-98849670D01*
X93050366Y-99060000D01*
X92735585Y-99270330D01*
X92410729Y-99756511D01*
X92296655Y-100330000D01*
X92410729Y-100903489D01*
X92735585Y-101389670D01*
X93050366Y-101600000D01*
X92735585Y-101810330D01*
X92410729Y-102296511D01*
X92296655Y-102870000D01*
X92410729Y-103443489D01*
X92735585Y-103929670D01*
X93050366Y-104140000D01*
X92735585Y-104350330D01*
X92410729Y-104836511D01*
X92296655Y-105410000D01*
X92410729Y-105983489D01*
X92735585Y-106469670D01*
X93050366Y-106680000D01*
X92735585Y-106890330D01*
X92410729Y-107376511D01*
X92296655Y-107950000D01*
X92410729Y-108523489D01*
X92735585Y-109009670D01*
X93050366Y-109220000D01*
X92735585Y-109430330D01*
X92410729Y-109916511D01*
X92296655Y-110490000D01*
X92410729Y-111063489D01*
X92735585Y-111549670D01*
X93050366Y-111760000D01*
X92735585Y-111970330D01*
X92410729Y-112456511D01*
X92296655Y-113030000D01*
X92410729Y-113603489D01*
X92735585Y-114089670D01*
X93050366Y-114300000D01*
X92735585Y-114510330D01*
X92410729Y-114996511D01*
X92296655Y-115570000D01*
X92410729Y-116143489D01*
X92735585Y-116629670D01*
X93050366Y-116840000D01*
X92735585Y-117050330D01*
X92410729Y-117536511D01*
X92296655Y-118110000D01*
X92410729Y-118683489D01*
X92735585Y-119169670D01*
X93050366Y-119380000D01*
X92735585Y-119590330D01*
X92410729Y-120076511D01*
X92296655Y-120650000D01*
X92410729Y-121223489D01*
X92735585Y-121709670D01*
X93050366Y-121920000D01*
X92735585Y-122130330D01*
X92410729Y-122616511D01*
X92296655Y-123190000D01*
X92410729Y-123763489D01*
X92735585Y-124249670D01*
X93050366Y-124460000D01*
X92735585Y-124670330D01*
X92410729Y-125156511D01*
X92296655Y-125730000D01*
X92410729Y-126303489D01*
X92735585Y-126789670D01*
X93050366Y-127000000D01*
X92735585Y-127210330D01*
X92410729Y-127696511D01*
X92296655Y-128270000D01*
X92410729Y-128843489D01*
X92735585Y-129329670D01*
X93050366Y-129540000D01*
X92735585Y-129750330D01*
X92410729Y-130236511D01*
X92296655Y-130810000D01*
X92410729Y-131383489D01*
X92735585Y-131869670D01*
X93050366Y-132080000D01*
X92735585Y-132290330D01*
X92410729Y-132776511D01*
X92296655Y-133350000D01*
X92410729Y-133923489D01*
X92735585Y-134409670D01*
X93050366Y-134620000D01*
X92735585Y-134830330D01*
X92410729Y-135316511D01*
X92296655Y-135890000D01*
X92410729Y-136463489D01*
X92735585Y-136949670D01*
X93050366Y-137160000D01*
X92735585Y-137370330D01*
X92410729Y-137856511D01*
X92296655Y-138430000D01*
X92410729Y-139003489D01*
X92735585Y-139489670D01*
X93050366Y-139700000D01*
X92735585Y-139910330D01*
X92410729Y-140396511D01*
X92296655Y-140970000D01*
X92410729Y-141543489D01*
X92735585Y-142029670D01*
X93221766Y-142354526D01*
X93795255Y-142468600D01*
X94164745Y-142468600D01*
X94738234Y-142354526D01*
X95224415Y-142029670D01*
X95549271Y-141543489D01*
X95663345Y-140970000D01*
X95549271Y-140396511D01*
X95224415Y-139910330D01*
X94909634Y-139700000D01*
X95224415Y-139489670D01*
X95549271Y-139003489D01*
X95663345Y-138430000D01*
X95549271Y-137856511D01*
X95224415Y-137370330D01*
X94909634Y-137160000D01*
X95224415Y-136949670D01*
X95549271Y-136463489D01*
X95663345Y-135890000D01*
X95549271Y-135316511D01*
X95224415Y-134830330D01*
X94909634Y-134620000D01*
X95224415Y-134409670D01*
X95549271Y-133923489D01*
X95663345Y-133350000D01*
X95549271Y-132776511D01*
X95224415Y-132290330D01*
X94909634Y-132080000D01*
X95224415Y-131869670D01*
X95549271Y-131383489D01*
X95663345Y-130810000D01*
X95549271Y-130236511D01*
X95224415Y-129750330D01*
X94909634Y-129540000D01*
X95224415Y-129329670D01*
X95549271Y-128843489D01*
X95663345Y-128270000D01*
X95549271Y-127696511D01*
X95224415Y-127210330D01*
X94909634Y-127000000D01*
X95224415Y-126789670D01*
X95549271Y-126303489D01*
X95663345Y-125730000D01*
X95549271Y-125156511D01*
X95224415Y-124670330D01*
X94909634Y-124460000D01*
X95224415Y-124249670D01*
X95549271Y-123763489D01*
X95663345Y-123190000D01*
X95549271Y-122616511D01*
X95224415Y-122130330D01*
X94909634Y-121920000D01*
X95224415Y-121709670D01*
X95549271Y-121223489D01*
X95663345Y-120650000D01*
X95549271Y-120076511D01*
X95224415Y-119590330D01*
X94909634Y-119380000D01*
X95224415Y-119169670D01*
X95549271Y-118683489D01*
X95663345Y-118110000D01*
X95549271Y-117536511D01*
X95224415Y-117050330D01*
X94909634Y-116840000D01*
X95224415Y-116629670D01*
X95549271Y-116143489D01*
X95663345Y-115570000D01*
X95549271Y-114996511D01*
X95224415Y-114510330D01*
X94909634Y-114300000D01*
X95224415Y-114089670D01*
X95549271Y-113603489D01*
X95663345Y-113030000D01*
X95549271Y-112456511D01*
X95224415Y-111970330D01*
X94909634Y-111760000D01*
X95224415Y-111549670D01*
X95549271Y-111063489D01*
X95663345Y-110490000D01*
X95549271Y-109916511D01*
X95224415Y-109430330D01*
X94909634Y-109220000D01*
X95224415Y-109009670D01*
X95549271Y-108523489D01*
X95663345Y-107950000D01*
X95549271Y-107376511D01*
X95224415Y-106890330D01*
X94909634Y-106680000D01*
X95224415Y-106469670D01*
X95549271Y-105983489D01*
X95663345Y-105410000D01*
X95549271Y-104836511D01*
X95224415Y-104350330D01*
X94909634Y-104140000D01*
X95224415Y-103929670D01*
X95549271Y-103443489D01*
X95663345Y-102870000D01*
X95549271Y-102296511D01*
X95224415Y-101810330D01*
X94909634Y-101600000D01*
X95224415Y-101389670D01*
X95549271Y-100903489D01*
X95663345Y-100330000D01*
X95549271Y-99756511D01*
X95224415Y-99270330D01*
X94909634Y-99060000D01*
X95224415Y-98849670D01*
X95549271Y-98363489D01*
X95663345Y-97790000D01*
X95549271Y-97216511D01*
X95413751Y-97013690D01*
X105395000Y-97013690D01*
X105395000Y-97504250D01*
X105553750Y-97663000D01*
X106553000Y-97663000D01*
X106553000Y-96663750D01*
X106807000Y-96663750D01*
X106807000Y-97663000D01*
X106827000Y-97663000D01*
X106827000Y-97917000D01*
X106807000Y-97917000D01*
X106807000Y-98916250D01*
X106965750Y-99075000D01*
X107456309Y-99075000D01*
X107689698Y-98978327D01*
X107868327Y-98799699D01*
X107965000Y-98566310D01*
X107965000Y-98214433D01*
X108089995Y-98516943D01*
X108451155Y-98878735D01*
X108923276Y-99074777D01*
X109434481Y-99075223D01*
X109906943Y-98880005D01*
X110268735Y-98518845D01*
X110464777Y-98046724D01*
X110465223Y-97535519D01*
X110270005Y-97063057D01*
X109908845Y-96701265D01*
X109436724Y-96505223D01*
X108925519Y-96504777D01*
X108453057Y-96699995D01*
X108091265Y-97061155D01*
X107965000Y-97365235D01*
X107965000Y-97013690D01*
X107868327Y-96780301D01*
X107689698Y-96601673D01*
X107456309Y-96505000D01*
X106965750Y-96505000D01*
X106807000Y-96663750D01*
X106553000Y-96663750D01*
X106394250Y-96505000D01*
X105903691Y-96505000D01*
X105670302Y-96601673D01*
X105491673Y-96780301D01*
X105395000Y-97013690D01*
X95413751Y-97013690D01*
X95224415Y-96730330D01*
X95202220Y-96715500D01*
X95355699Y-96651927D01*
X95534327Y-96473298D01*
X95631000Y-96239909D01*
X95631000Y-95535750D01*
X95472250Y-95377000D01*
X94107000Y-95377000D01*
X94107000Y-95397000D01*
X93853000Y-95397000D01*
X93853000Y-95377000D01*
X92487750Y-95377000D01*
X92329000Y-95535750D01*
X92329000Y-96239909D01*
X92425673Y-96473298D01*
X92604301Y-96651927D01*
X92757780Y-96715500D01*
X92735585Y-96730330D01*
X92410729Y-97216511D01*
X92296655Y-97790000D01*
X92150000Y-97790000D01*
X92150000Y-94260091D01*
X92329000Y-94260091D01*
X92329000Y-94964250D01*
X92487750Y-95123000D01*
X93853000Y-95123000D01*
X93853000Y-93910150D01*
X94107000Y-93910150D01*
X94107000Y-95123000D01*
X95472250Y-95123000D01*
X95631000Y-94964250D01*
X95631000Y-94260091D01*
X95534327Y-94026702D01*
X95355699Y-93848073D01*
X95122310Y-93751400D01*
X94265750Y-93751400D01*
X94107000Y-93910150D01*
X93853000Y-93910150D01*
X93694250Y-93751400D01*
X92837690Y-93751400D01*
X92604301Y-93848073D01*
X92425673Y-94026702D01*
X92329000Y-94260091D01*
X92150000Y-94260091D01*
X92150000Y-93420000D01*
X109220000Y-93420000D01*
X109491705Y-93365954D01*
X109722046Y-93212046D01*
X109875954Y-92981705D01*
X109930000Y-92710000D01*
X109930000Y-89185750D01*
X111125000Y-89185750D01*
X111125000Y-91566310D01*
X111221673Y-91799699D01*
X111400302Y-91978327D01*
X111633691Y-92075000D01*
X112109250Y-92075000D01*
X112268000Y-91916250D01*
X112268000Y-89027000D01*
X112522000Y-89027000D01*
X112522000Y-91916250D01*
X112680750Y-92075000D01*
X113156309Y-92075000D01*
X113389698Y-91978327D01*
X113568327Y-91799699D01*
X113665000Y-91566310D01*
X113665000Y-89185750D01*
X113506250Y-89027000D01*
X112522000Y-89027000D01*
X112268000Y-89027000D01*
X111283750Y-89027000D01*
X111125000Y-89185750D01*
X109930000Y-89185750D01*
X109930000Y-87070000D01*
X111125000Y-87070000D01*
X111125000Y-88614250D01*
G36*
X132273748Y-95235858D02*
X132259605Y-95250000D01*
X132273748Y-95264143D01*
X132094143Y-95443748D01*
X132080000Y-95429605D01*
X132065858Y-95443748D01*
X131886253Y-95264143D01*
X131900395Y-95250000D01*
X131886253Y-95235858D01*
X132065858Y-95056253D01*
X132080000Y-95070395D01*
X132094143Y-95056253D01*
X132273748Y-95235858D01*
X132273748Y-95235858D01*
G37*
X132273748Y-95235858D02*
X132259605Y-95250000D01*
X132273748Y-95264143D01*
X132094143Y-95443748D01*
X132080000Y-95429605D01*
X132065858Y-95443748D01*
X131886253Y-95264143D01*
X131900395Y-95250000D01*
X131886253Y-95235858D01*
X132065858Y-95056253D01*
X132080000Y-95070395D01*
X132094143Y-95056253D01*
X132273748Y-95235858D01*
M02*
