G04 #@! TF.FileFunction,Legend,Top*
%FSLAX46Y46*%
G04 Gerber Fmt 4.6, Leading zero omitted, Abs format (unit mm)*
G04 Created by KiCad (PCBNEW 4.0.3+e1-6302~38~ubuntu16.04.1-stable) date Tue Aug 16 16:02:34 2016*
%MOMM*%
%LPD*%
G01*
G04 APERTURE LIST*
%ADD10C,0.100000*%
%ADD11C,0.150000*%
G04 APERTURE END LIST*
D10*
D11*
X68582540Y-86106520D02*
X68582540Y-87503520D01*
X68582540Y-81661520D02*
X68582540Y-80137520D01*
X69344540Y-82042520D02*
X67820540Y-82042520D01*
X69344540Y-81788520D02*
X67820540Y-81788520D01*
X68582540Y-81534520D02*
X67820540Y-81534520D01*
X67820540Y-81534520D02*
X67820540Y-86106520D01*
X67820540Y-86106520D02*
X69344540Y-86106520D01*
X69344540Y-86106520D02*
X69344540Y-81534520D01*
X69344540Y-81534520D02*
X68582540Y-81534520D01*
X59690000Y-77470000D02*
X59690000Y-123190000D01*
X59690000Y-123190000D02*
X62230000Y-123190000D01*
X62230000Y-123190000D02*
X62230000Y-77470000D01*
X59410000Y-74650000D02*
X59410000Y-76200000D01*
X59690000Y-77470000D02*
X62230000Y-77470000D01*
X62510000Y-76200000D02*
X62510000Y-74650000D01*
X62510000Y-74650000D02*
X59410000Y-74650000D01*
X72390000Y-93980000D02*
X72390000Y-104140000D01*
X72390000Y-104140000D02*
X74930000Y-104140000D01*
X74930000Y-104140000D02*
X74930000Y-93980000D01*
X72110000Y-91160000D02*
X72110000Y-92710000D01*
X72390000Y-93980000D02*
X74930000Y-93980000D01*
X75210000Y-92710000D02*
X75210000Y-91160000D01*
X75210000Y-91160000D02*
X72110000Y-91160000D01*
X63220000Y-103860000D02*
X63220000Y-105410000D01*
X63500000Y-109220000D02*
X63500000Y-106680000D01*
X63500000Y-106680000D02*
X66040000Y-106680000D01*
X66320000Y-105410000D02*
X66320000Y-103860000D01*
X66320000Y-103860000D02*
X63220000Y-103860000D01*
X66040000Y-106680000D02*
X66040000Y-109220000D01*
X66040000Y-109220000D02*
X63500000Y-109220000D01*
X78740000Y-77470000D02*
X78740000Y-123190000D01*
X78740000Y-123190000D02*
X81280000Y-123190000D01*
X81280000Y-123190000D02*
X81280000Y-77470000D01*
X78460000Y-74650000D02*
X78460000Y-76200000D01*
X78740000Y-77470000D02*
X81280000Y-77470000D01*
X81560000Y-76200000D02*
X81560000Y-74650000D01*
X81560000Y-74650000D02*
X78460000Y-74650000D01*
X75210000Y-120370000D02*
X73660000Y-120370000D01*
X69850000Y-120650000D02*
X72390000Y-120650000D01*
X72390000Y-120650000D02*
X72390000Y-123190000D01*
X73660000Y-123470000D02*
X75210000Y-123470000D01*
X75210000Y-123470000D02*
X75210000Y-120370000D01*
X72390000Y-123190000D02*
X69850000Y-123190000D01*
X69850000Y-123190000D02*
X69850000Y-120650000D01*
X67564000Y-112014000D02*
X68072000Y-111506000D01*
X67564000Y-110998000D02*
X67056000Y-111506000D01*
X67056000Y-111506000D02*
X67564000Y-112014000D01*
X72136000Y-109220000D02*
G75*
G03X72136000Y-109220000I-2286000J0D01*
G01*
X72600000Y-109220000D02*
G75*
G03X72600000Y-109220000I-2750000J0D01*
G01*
X63500000Y-119380000D02*
X63500000Y-114300000D01*
X63500000Y-114300000D02*
X66040000Y-114300000D01*
X66040000Y-114300000D02*
X66040000Y-119380000D01*
X66040000Y-119380000D02*
X63500000Y-119380000D01*
X64770000Y-119380000D02*
X64770000Y-120650000D01*
X64770000Y-114300000D02*
X64770000Y-113030000D01*
X69850000Y-95250000D02*
X69850000Y-100330000D01*
X69850000Y-100330000D02*
X67310000Y-100330000D01*
X67310000Y-100330000D02*
X67310000Y-95250000D01*
X67310000Y-95250000D02*
X69850000Y-95250000D01*
X68580000Y-95250000D02*
X68580000Y-93980000D01*
X68580000Y-100330000D02*
X68580000Y-101600000D01*
X71120000Y-86360000D02*
X71120000Y-81280000D01*
X71120000Y-81280000D02*
X73660000Y-81280000D01*
X73660000Y-81280000D02*
X73660000Y-86360000D01*
X73660000Y-86360000D02*
X71120000Y-86360000D01*
X72390000Y-86360000D02*
X72390000Y-87630000D01*
X72390000Y-81280000D02*
X72390000Y-80010000D01*
X66040000Y-81280000D02*
X66040000Y-86360000D01*
X66040000Y-86360000D02*
X63500000Y-86360000D01*
X63500000Y-86360000D02*
X63500000Y-81280000D01*
X63500000Y-81280000D02*
X66040000Y-81280000D01*
X64770000Y-81280000D02*
X64770000Y-80010000D01*
X64770000Y-86360000D02*
X64770000Y-87630000D01*
X76200000Y-109220000D02*
X76200000Y-114300000D01*
X76200000Y-114300000D02*
X73660000Y-114300000D01*
X73660000Y-114300000D02*
X73660000Y-109220000D01*
X73660000Y-109220000D02*
X76200000Y-109220000D01*
X74930000Y-109220000D02*
X74930000Y-107950000D01*
X74930000Y-114300000D02*
X74930000Y-115570000D01*
X66494921Y-84908615D02*
X65494921Y-84908615D01*
X65494921Y-84670520D01*
X65542540Y-84527662D01*
X65637778Y-84432424D01*
X65733016Y-84384805D01*
X65923492Y-84337186D01*
X66066350Y-84337186D01*
X66256826Y-84384805D01*
X66352064Y-84432424D01*
X66447302Y-84527662D01*
X66494921Y-84670520D01*
X66494921Y-84908615D01*
X66494921Y-83384805D02*
X66494921Y-83956234D01*
X66494921Y-83670520D02*
X65494921Y-83670520D01*
X65637778Y-83765758D01*
X65733016Y-83860996D01*
X65780635Y-83956234D01*
X66512381Y-76938095D02*
X65512381Y-76938095D01*
X65512381Y-76557142D01*
X65560000Y-76461904D01*
X65607619Y-76414285D01*
X65702857Y-76366666D01*
X65845714Y-76366666D01*
X65940952Y-76414285D01*
X65988571Y-76461904D01*
X66036190Y-76557142D01*
X66036190Y-76938095D01*
X66512381Y-75414285D02*
X66512381Y-75985714D01*
X66512381Y-75700000D02*
X65512381Y-75700000D01*
X65655238Y-75795238D01*
X65750476Y-75890476D01*
X65798095Y-75985714D01*
X79212381Y-93448095D02*
X78212381Y-93448095D01*
X78212381Y-93067142D01*
X78260000Y-92971904D01*
X78307619Y-92924285D01*
X78402857Y-92876666D01*
X78545714Y-92876666D01*
X78640952Y-92924285D01*
X78688571Y-92971904D01*
X78736190Y-93067142D01*
X78736190Y-93448095D01*
X78307619Y-92495714D02*
X78260000Y-92448095D01*
X78212381Y-92352857D01*
X78212381Y-92114761D01*
X78260000Y-92019523D01*
X78307619Y-91971904D01*
X78402857Y-91924285D01*
X78498095Y-91924285D01*
X78640952Y-91971904D01*
X79212381Y-92543333D01*
X79212381Y-91924285D01*
X70322381Y-106148095D02*
X69322381Y-106148095D01*
X69322381Y-105767142D01*
X69370000Y-105671904D01*
X69417619Y-105624285D01*
X69512857Y-105576666D01*
X69655714Y-105576666D01*
X69750952Y-105624285D01*
X69798571Y-105671904D01*
X69846190Y-105767142D01*
X69846190Y-106148095D01*
X69322381Y-105243333D02*
X69322381Y-104624285D01*
X69703333Y-104957619D01*
X69703333Y-104814761D01*
X69750952Y-104719523D01*
X69798571Y-104671904D01*
X69893810Y-104624285D01*
X70131905Y-104624285D01*
X70227143Y-104671904D01*
X70274762Y-104719523D01*
X70322381Y-104814761D01*
X70322381Y-105100476D01*
X70274762Y-105195714D01*
X70227143Y-105243333D01*
X85562381Y-76938095D02*
X84562381Y-76938095D01*
X84562381Y-76557142D01*
X84610000Y-76461904D01*
X84657619Y-76414285D01*
X84752857Y-76366666D01*
X84895714Y-76366666D01*
X84990952Y-76414285D01*
X85038571Y-76461904D01*
X85086190Y-76557142D01*
X85086190Y-76938095D01*
X84895714Y-75509523D02*
X85562381Y-75509523D01*
X84514762Y-75747619D02*
X85229048Y-75985714D01*
X85229048Y-75366666D01*
X72921905Y-127472381D02*
X72921905Y-126472381D01*
X73302858Y-126472381D01*
X73398096Y-126520000D01*
X73445715Y-126567619D01*
X73493334Y-126662857D01*
X73493334Y-126805714D01*
X73445715Y-126900952D01*
X73398096Y-126948571D01*
X73302858Y-126996190D01*
X72921905Y-126996190D01*
X74398096Y-126472381D02*
X73921905Y-126472381D01*
X73874286Y-126948571D01*
X73921905Y-126900952D01*
X74017143Y-126853333D01*
X74255239Y-126853333D01*
X74350477Y-126900952D01*
X74398096Y-126948571D01*
X74445715Y-127043810D01*
X74445715Y-127281905D01*
X74398096Y-127377143D01*
X74350477Y-127424762D01*
X74255239Y-127472381D01*
X74017143Y-127472381D01*
X73921905Y-127424762D01*
X73874286Y-127377143D01*
X75223619Y-109569238D02*
X75176000Y-109664476D01*
X75080762Y-109759714D01*
X74937905Y-109902571D01*
X74890286Y-109997810D01*
X74890286Y-110093048D01*
X75128381Y-110045429D02*
X75080762Y-110140667D01*
X74985524Y-110235905D01*
X74795048Y-110283524D01*
X74461714Y-110283524D01*
X74271238Y-110235905D01*
X74176000Y-110140667D01*
X74128381Y-110045429D01*
X74128381Y-109854952D01*
X74176000Y-109759714D01*
X74271238Y-109664476D01*
X74461714Y-109616857D01*
X74795048Y-109616857D01*
X74985524Y-109664476D01*
X75080762Y-109759714D01*
X75128381Y-109854952D01*
X75128381Y-110045429D01*
X75128381Y-108664476D02*
X75128381Y-109235905D01*
X75128381Y-108950191D02*
X74128381Y-108950191D01*
X74271238Y-109045429D01*
X74366476Y-109140667D01*
X74414095Y-109235905D01*
X61722261Y-116757746D02*
X61246070Y-117091080D01*
X61722261Y-117329175D02*
X60722261Y-117329175D01*
X60722261Y-116948222D01*
X60769880Y-116852984D01*
X60817499Y-116805365D01*
X60912737Y-116757746D01*
X61055594Y-116757746D01*
X61150832Y-116805365D01*
X61198451Y-116852984D01*
X61246070Y-116948222D01*
X61246070Y-117329175D01*
X61722261Y-115805365D02*
X61722261Y-116376794D01*
X61722261Y-116091080D02*
X60722261Y-116091080D01*
X60865118Y-116186318D01*
X60960356Y-116281556D01*
X61007975Y-116376794D01*
X72532501Y-98205586D02*
X72056310Y-98538920D01*
X72532501Y-98777015D02*
X71532501Y-98777015D01*
X71532501Y-98396062D01*
X71580120Y-98300824D01*
X71627739Y-98253205D01*
X71722977Y-98205586D01*
X71865834Y-98205586D01*
X71961072Y-98253205D01*
X72008691Y-98300824D01*
X72056310Y-98396062D01*
X72056310Y-98777015D01*
X71627739Y-97824634D02*
X71580120Y-97777015D01*
X71532501Y-97681777D01*
X71532501Y-97443681D01*
X71580120Y-97348443D01*
X71627739Y-97300824D01*
X71722977Y-97253205D01*
X71818215Y-97253205D01*
X71961072Y-97300824D01*
X72532501Y-97872253D01*
X72532501Y-97253205D01*
X69342261Y-83737746D02*
X68866070Y-84071080D01*
X69342261Y-84309175D02*
X68342261Y-84309175D01*
X68342261Y-83928222D01*
X68389880Y-83832984D01*
X68437499Y-83785365D01*
X68532737Y-83737746D01*
X68675594Y-83737746D01*
X68770832Y-83785365D01*
X68818451Y-83832984D01*
X68866070Y-83928222D01*
X68866070Y-84309175D01*
X68342261Y-83404413D02*
X68342261Y-82785365D01*
X68723213Y-83118699D01*
X68723213Y-82975841D01*
X68770832Y-82880603D01*
X68818451Y-82832984D01*
X68913690Y-82785365D01*
X69151785Y-82785365D01*
X69247023Y-82832984D01*
X69294642Y-82880603D01*
X69342261Y-82975841D01*
X69342261Y-83261556D01*
X69294642Y-83356794D01*
X69247023Y-83404413D01*
X68722501Y-84235586D02*
X68246310Y-84568920D01*
X68722501Y-84807015D02*
X67722501Y-84807015D01*
X67722501Y-84426062D01*
X67770120Y-84330824D01*
X67817739Y-84283205D01*
X67912977Y-84235586D01*
X68055834Y-84235586D01*
X68151072Y-84283205D01*
X68198691Y-84330824D01*
X68246310Y-84426062D01*
X68246310Y-84807015D01*
X68055834Y-83378443D02*
X68722501Y-83378443D01*
X67674882Y-83616539D02*
X68389168Y-83854634D01*
X68389168Y-83235586D01*
X78882501Y-112175586D02*
X78406310Y-112508920D01*
X78882501Y-112747015D02*
X77882501Y-112747015D01*
X77882501Y-112366062D01*
X77930120Y-112270824D01*
X77977739Y-112223205D01*
X78072977Y-112175586D01*
X78215834Y-112175586D01*
X78311072Y-112223205D01*
X78358691Y-112270824D01*
X78406310Y-112366062D01*
X78406310Y-112747015D01*
X77882501Y-111270824D02*
X77882501Y-111747015D01*
X78358691Y-111794634D01*
X78311072Y-111747015D01*
X78263453Y-111651777D01*
X78263453Y-111413681D01*
X78311072Y-111318443D01*
X78358691Y-111270824D01*
X78453930Y-111223205D01*
X78692025Y-111223205D01*
X78787263Y-111270824D01*
X78834882Y-111318443D01*
X78882501Y-111413681D01*
X78882501Y-111651777D01*
X78834882Y-111747015D01*
X78787263Y-111794634D01*
M02*
