G04 #@! TF.FileFunction,Copper,L2,Bot,Signal*
%FSLAX46Y46*%
G04 Gerber Fmt 4.6, Leading zero omitted, Abs format (unit mm)*
G04 Created by KiCad (PCBNEW 4.0.3+e1-6302~38~ubuntu16.04.1-stable) date Wed Aug 17 12:50:24 2016*
%MOMM*%
%LPD*%
G01*
G04 APERTURE LIST*
%ADD10C,0.100000*%
%ADD11R,1.400000X1.400000*%
%ADD12C,1.400000*%
%ADD13R,2.032000X1.727200*%
%ADD14O,2.032000X1.727200*%
%ADD15C,1.998980*%
%ADD16C,1.200000*%
%ADD17C,0.250000*%
G04 APERTURE END LIST*
D10*
D11*
X76200000Y-73660000D03*
D12*
X81200000Y-73660000D03*
D11*
X81280000Y-91440000D03*
D12*
X76280000Y-91440000D03*
D11*
X66040000Y-113030000D03*
D12*
X66040000Y-108030000D03*
D13*
X86360000Y-69850000D03*
D14*
X86360000Y-72390000D03*
X86360000Y-74930000D03*
X86360000Y-77470000D03*
X86360000Y-80010000D03*
X86360000Y-82550000D03*
X86360000Y-85090000D03*
X86360000Y-87630000D03*
X86360000Y-90170000D03*
X86360000Y-92710000D03*
X86360000Y-95250000D03*
X86360000Y-97790000D03*
X86360000Y-100330000D03*
X86360000Y-102870000D03*
X86360000Y-105410000D03*
X86360000Y-107950000D03*
X86360000Y-110490000D03*
X86360000Y-113030000D03*
X86360000Y-115570000D03*
D13*
X60960000Y-69850000D03*
D14*
X60960000Y-72390000D03*
X60960000Y-74930000D03*
X60960000Y-77470000D03*
X60960000Y-80010000D03*
X60960000Y-82550000D03*
X60960000Y-85090000D03*
X60960000Y-87630000D03*
X60960000Y-90170000D03*
X60960000Y-92710000D03*
X60960000Y-95250000D03*
X60960000Y-97790000D03*
X60960000Y-100330000D03*
X60960000Y-102870000D03*
X60960000Y-105410000D03*
X60960000Y-107950000D03*
X60960000Y-110490000D03*
X60960000Y-113030000D03*
X60960000Y-115570000D03*
D15*
X71120000Y-72390000D03*
X71120000Y-82550000D03*
X72390000Y-101600000D03*
X72390000Y-111760000D03*
X66040000Y-86360000D03*
X66040000Y-96520000D03*
X66040000Y-72390000D03*
X66040000Y-82550000D03*
D16*
X78740000Y-81280000D03*
X77470000Y-80010000D03*
X76200000Y-81280000D03*
X78740000Y-97790000D03*
X77470000Y-99060000D03*
X78740000Y-100330000D03*
X69850000Y-90170000D03*
X71120000Y-91440000D03*
X72390000Y-90170000D03*
D17*
X72390000Y-90170000D02*
X78740000Y-90170000D01*
X80010000Y-91440000D02*
X81280000Y-91440000D01*
X78740000Y-90170000D02*
X80010000Y-91440000D01*
X72390000Y-90170000D02*
X72390000Y-92710000D01*
X63500000Y-82550000D02*
X60960000Y-80010000D01*
X63500000Y-87630000D02*
X63500000Y-82550000D01*
X68580000Y-92710000D02*
X63500000Y-87630000D01*
X72390000Y-92710000D02*
X68580000Y-92710000D01*
X69850000Y-90170000D02*
X69850000Y-86360000D01*
X68580000Y-74930000D02*
X71120000Y-72390000D01*
X68580000Y-85090000D02*
X68580000Y-74930000D01*
X69850000Y-86360000D02*
X68580000Y-85090000D01*
M02*
