G04 #@! TF.FileFunction,Legend,Top*
%FSLAX46Y46*%
G04 Gerber Fmt 4.6, Leading zero omitted, Abs format (unit mm)*
G04 Created by KiCad (PCBNEW 4.0.3+e1-6302~38~ubuntu16.04.1-stable) date Thu Aug 11 17:11:37 2016*
%MOMM*%
%LPD*%
G01*
G04 APERTURE LIST*
%ADD10C,0.100000*%
%ADD11C,0.150000*%
G04 APERTURE END LIST*
D10*
D11*
X74430000Y-81570000D02*
X80430000Y-81570000D01*
X80430000Y-86070000D02*
X74430000Y-86070000D01*
X81780000Y-93690000D02*
X75780000Y-93690000D01*
X75780000Y-89190000D02*
X81780000Y-89190000D01*
X63790000Y-113530000D02*
X63790000Y-107530000D01*
X68290000Y-107530000D02*
X68290000Y-113530000D01*
X85090000Y-71120000D02*
X85090000Y-116840000D01*
X85090000Y-116840000D02*
X87630000Y-116840000D01*
X87630000Y-116840000D02*
X87630000Y-71120000D01*
X84810000Y-68300000D02*
X84810000Y-69850000D01*
X85090000Y-71120000D02*
X87630000Y-71120000D01*
X87910000Y-69850000D02*
X87910000Y-68300000D01*
X87910000Y-68300000D02*
X84810000Y-68300000D01*
X59690000Y-71120000D02*
X59690000Y-116840000D01*
X59690000Y-116840000D02*
X62230000Y-116840000D01*
X62230000Y-116840000D02*
X62230000Y-71120000D01*
X59410000Y-68300000D02*
X59410000Y-69850000D01*
X59690000Y-71120000D02*
X62230000Y-71120000D01*
X62510000Y-69850000D02*
X62510000Y-68300000D01*
X62510000Y-68300000D02*
X59410000Y-68300000D01*
X72390000Y-74930000D02*
X72390000Y-80010000D01*
X72390000Y-80010000D02*
X69850000Y-80010000D01*
X69850000Y-80010000D02*
X69850000Y-74930000D01*
X69850000Y-74930000D02*
X72390000Y-74930000D01*
X71120000Y-74930000D02*
X71120000Y-73660000D01*
X71120000Y-80010000D02*
X71120000Y-81280000D01*
X73660000Y-104140000D02*
X73660000Y-109220000D01*
X73660000Y-109220000D02*
X71120000Y-109220000D01*
X71120000Y-109220000D02*
X71120000Y-104140000D01*
X71120000Y-104140000D02*
X73660000Y-104140000D01*
X72390000Y-104140000D02*
X72390000Y-102870000D01*
X72390000Y-109220000D02*
X72390000Y-110490000D01*
X67310000Y-88900000D02*
X67310000Y-93980000D01*
X67310000Y-93980000D02*
X64770000Y-93980000D01*
X64770000Y-93980000D02*
X64770000Y-88900000D01*
X64770000Y-88900000D02*
X67310000Y-88900000D01*
X66040000Y-88900000D02*
X66040000Y-87630000D01*
X66040000Y-93980000D02*
X66040000Y-95250000D01*
X67310000Y-74930000D02*
X67310000Y-80010000D01*
X67310000Y-80010000D02*
X64770000Y-80010000D01*
X64770000Y-80010000D02*
X64770000Y-74930000D01*
X64770000Y-74930000D02*
X67310000Y-74930000D01*
X66040000Y-74930000D02*
X66040000Y-73660000D01*
X66040000Y-80010000D02*
X66040000Y-81280000D01*
X73914000Y-92456000D02*
X73406000Y-91948000D01*
X72898000Y-92456000D02*
X73406000Y-92964000D01*
X73406000Y-92964000D02*
X73914000Y-92456000D01*
X73406000Y-90170000D02*
G75*
G03X73406000Y-90170000I-2286000J0D01*
G01*
X73870000Y-90170000D02*
G75*
G03X73870000Y-90170000I-2750000J0D01*
G01*
X75184000Y-101854000D02*
X75692000Y-101346000D01*
X75184000Y-100838000D02*
X74676000Y-101346000D01*
X74676000Y-101346000D02*
X75184000Y-101854000D01*
X79756000Y-99060000D02*
G75*
G03X79756000Y-99060000I-2286000J0D01*
G01*
X80220000Y-99060000D02*
G75*
G03X80220000Y-99060000I-2750000J0D01*
G01*
X74676000Y-75184000D02*
X75184000Y-75692000D01*
X75692000Y-75184000D02*
X75184000Y-74676000D01*
X75184000Y-74676000D02*
X74676000Y-75184000D01*
X79756000Y-77470000D02*
G75*
G03X79756000Y-77470000I-2286000J0D01*
G01*
X80220000Y-77470000D02*
G75*
G03X80220000Y-77470000I-2750000J0D01*
G01*
X77263334Y-80677143D02*
X77215715Y-80724762D01*
X77072858Y-80772381D01*
X76977620Y-80772381D01*
X76834762Y-80724762D01*
X76739524Y-80629524D01*
X76691905Y-80534286D01*
X76644286Y-80343810D01*
X76644286Y-80200952D01*
X76691905Y-80010476D01*
X76739524Y-79915238D01*
X76834762Y-79820000D01*
X76977620Y-79772381D01*
X77072858Y-79772381D01*
X77215715Y-79820000D01*
X77263334Y-79867619D01*
X78215715Y-80772381D02*
X77644286Y-80772381D01*
X77930000Y-80772381D02*
X77930000Y-79772381D01*
X77834762Y-79915238D01*
X77739524Y-80010476D01*
X77644286Y-80058095D01*
X78613334Y-95297143D02*
X78565715Y-95344762D01*
X78422858Y-95392381D01*
X78327620Y-95392381D01*
X78184762Y-95344762D01*
X78089524Y-95249524D01*
X78041905Y-95154286D01*
X77994286Y-94963810D01*
X77994286Y-94820952D01*
X78041905Y-94630476D01*
X78089524Y-94535238D01*
X78184762Y-94440000D01*
X78327620Y-94392381D01*
X78422858Y-94392381D01*
X78565715Y-94440000D01*
X78613334Y-94487619D01*
X78994286Y-94487619D02*
X79041905Y-94440000D01*
X79137143Y-94392381D01*
X79375239Y-94392381D01*
X79470477Y-94440000D01*
X79518096Y-94487619D01*
X79565715Y-94582857D01*
X79565715Y-94678095D01*
X79518096Y-94820952D01*
X78946667Y-95392381D01*
X79565715Y-95392381D01*
X62897143Y-110696666D02*
X62944762Y-110744285D01*
X62992381Y-110887142D01*
X62992381Y-110982380D01*
X62944762Y-111125238D01*
X62849524Y-111220476D01*
X62754286Y-111268095D01*
X62563810Y-111315714D01*
X62420952Y-111315714D01*
X62230476Y-111268095D01*
X62135238Y-111220476D01*
X62040000Y-111125238D01*
X61992381Y-110982380D01*
X61992381Y-110887142D01*
X62040000Y-110744285D01*
X62087619Y-110696666D01*
X61992381Y-110363333D02*
X61992381Y-109744285D01*
X62373333Y-110077619D01*
X62373333Y-109934761D01*
X62420952Y-109839523D01*
X62468571Y-109791904D01*
X62563810Y-109744285D01*
X62801905Y-109744285D01*
X62897143Y-109791904D01*
X62944762Y-109839523D01*
X62992381Y-109934761D01*
X62992381Y-110220476D01*
X62944762Y-110315714D01*
X62897143Y-110363333D01*
X91912381Y-70588095D02*
X90912381Y-70588095D01*
X90912381Y-70207142D01*
X90960000Y-70111904D01*
X91007619Y-70064285D01*
X91102857Y-70016666D01*
X91245714Y-70016666D01*
X91340952Y-70064285D01*
X91388571Y-70111904D01*
X91436190Y-70207142D01*
X91436190Y-70588095D01*
X91912381Y-69064285D02*
X91912381Y-69635714D01*
X91912381Y-69350000D02*
X90912381Y-69350000D01*
X91055238Y-69445238D01*
X91150476Y-69540476D01*
X91198095Y-69635714D01*
X66512381Y-70588095D02*
X65512381Y-70588095D01*
X65512381Y-70207142D01*
X65560000Y-70111904D01*
X65607619Y-70064285D01*
X65702857Y-70016666D01*
X65845714Y-70016666D01*
X65940952Y-70064285D01*
X65988571Y-70111904D01*
X66036190Y-70207142D01*
X66036190Y-70588095D01*
X65607619Y-69635714D02*
X65560000Y-69588095D01*
X65512381Y-69492857D01*
X65512381Y-69254761D01*
X65560000Y-69159523D01*
X65607619Y-69111904D01*
X65702857Y-69064285D01*
X65798095Y-69064285D01*
X65940952Y-69111904D01*
X66512381Y-69683333D01*
X66512381Y-69064285D01*
X75072501Y-77885586D02*
X74596310Y-78218920D01*
X75072501Y-78457015D02*
X74072501Y-78457015D01*
X74072501Y-78076062D01*
X74120120Y-77980824D01*
X74167739Y-77933205D01*
X74262977Y-77885586D01*
X74405834Y-77885586D01*
X74501072Y-77933205D01*
X74548691Y-77980824D01*
X74596310Y-78076062D01*
X74596310Y-78457015D01*
X74072501Y-77552253D02*
X74072501Y-76933205D01*
X74453453Y-77266539D01*
X74453453Y-77123681D01*
X74501072Y-77028443D01*
X74548691Y-76980824D01*
X74643930Y-76933205D01*
X74882025Y-76933205D01*
X74977263Y-76980824D01*
X75024882Y-77028443D01*
X75072501Y-77123681D01*
X75072501Y-77409396D01*
X75024882Y-77504634D01*
X74977263Y-77552253D01*
X76342501Y-107095586D02*
X75866310Y-107428920D01*
X76342501Y-107667015D02*
X75342501Y-107667015D01*
X75342501Y-107286062D01*
X75390120Y-107190824D01*
X75437739Y-107143205D01*
X75532977Y-107095586D01*
X75675834Y-107095586D01*
X75771072Y-107143205D01*
X75818691Y-107190824D01*
X75866310Y-107286062D01*
X75866310Y-107667015D01*
X75675834Y-106238443D02*
X76342501Y-106238443D01*
X75294882Y-106476539D02*
X76009168Y-106714634D01*
X76009168Y-106095586D01*
X69992501Y-91855586D02*
X69516310Y-92188920D01*
X69992501Y-92427015D02*
X68992501Y-92427015D01*
X68992501Y-92046062D01*
X69040120Y-91950824D01*
X69087739Y-91903205D01*
X69182977Y-91855586D01*
X69325834Y-91855586D01*
X69421072Y-91903205D01*
X69468691Y-91950824D01*
X69516310Y-92046062D01*
X69516310Y-92427015D01*
X69087739Y-91474634D02*
X69040120Y-91427015D01*
X68992501Y-91331777D01*
X68992501Y-91093681D01*
X69040120Y-90998443D01*
X69087739Y-90950824D01*
X69182977Y-90903205D01*
X69278215Y-90903205D01*
X69421072Y-90950824D01*
X69992501Y-91522253D01*
X69992501Y-90903205D01*
X69992501Y-77885586D02*
X69516310Y-78218920D01*
X69992501Y-78457015D02*
X68992501Y-78457015D01*
X68992501Y-78076062D01*
X69040120Y-77980824D01*
X69087739Y-77933205D01*
X69182977Y-77885586D01*
X69325834Y-77885586D01*
X69421072Y-77933205D01*
X69468691Y-77980824D01*
X69516310Y-78076062D01*
X69516310Y-78457015D01*
X69992501Y-76933205D02*
X69992501Y-77504634D01*
X69992501Y-77218920D02*
X68992501Y-77218920D01*
X69135358Y-77314158D01*
X69230596Y-77409396D01*
X69278215Y-77504634D01*
X70612095Y-84796381D02*
X71183524Y-84796381D01*
X70897809Y-85796381D02*
X70897809Y-84796381D01*
X72040667Y-85796381D02*
X71469238Y-85796381D01*
X71754952Y-85796381D02*
X71754952Y-84796381D01*
X71659714Y-84939238D01*
X71564476Y-85034476D01*
X71469238Y-85082095D01*
X81748381Y-100075905D02*
X81748381Y-99504476D01*
X82748381Y-99790191D02*
X81748381Y-99790191D01*
X81843619Y-99218762D02*
X81796000Y-99171143D01*
X81748381Y-99075905D01*
X81748381Y-98837809D01*
X81796000Y-98742571D01*
X81843619Y-98694952D01*
X81938857Y-98647333D01*
X82034095Y-98647333D01*
X82176952Y-98694952D01*
X82748381Y-99266381D01*
X82748381Y-98647333D01*
X76454095Y-81748381D02*
X77025524Y-81748381D01*
X76739809Y-82748381D02*
X76739809Y-81748381D01*
X77263619Y-81748381D02*
X77882667Y-81748381D01*
X77549333Y-82129333D01*
X77692191Y-82129333D01*
X77787429Y-82176952D01*
X77835048Y-82224571D01*
X77882667Y-82319810D01*
X77882667Y-82557905D01*
X77835048Y-82653143D01*
X77787429Y-82700762D01*
X77692191Y-82748381D01*
X77406476Y-82748381D01*
X77311238Y-82700762D01*
X77263619Y-82653143D01*
M02*
